P3
#
16 16
255
133 78 14 146 89 22 144 79 11 193 125 50 206 135 53 167 100 11
122 59 0 158 105 9 154 115 22 112 86 0 89 76 0 85 81 17 68 72 21
56 64 25 67 76 47 81 91 67 117 62 0 146 88 24 152 87 19 180 112 37
195 123 41 200 129 41 184 119 27 207 151 56 214 171 77 155 125 37
103 86 8 77 69 4 61 61 7 58 63 22 61 66 34 56 62 36 96 42 0 125 67 3
145 80 12 168 98 26 181 105 27 212 136 52 231 157 68 247 182 90
230 177 85 192 152 65 145 118 39 93 78 9 57 51 0 54 52 4 57 57 19
48 49 15 103 49 0 106 48 0 128 60 0 147 73 2 143 61 0 156 71 0
178 96 10 189 114 23 212 147 57 211 160 71 195 157 76 147 121 46
103 85 21 95 82 27 94 84 35 74 67 21 142 88 26 139 79 16 160 91 26
165 86 17 157 69 0 168 75 0 194 99 15 190 100 12 191 112 20
204 137 48 209 155 69 182 141 59 152 120 47 143 118 51 124 102 42
90 71 12 149 93 32 162 102 39 185 114 48 168 85 17 167 70 0 190 89 11
219 114 31 197 96 8 181 88 0 200 119 27 217 151 57 202 147 57
169 123 38 154 115 36 147 111 35 127 95 20 176 118 55 199 135 73
225 150 85 199 110 42 195 93 21 197 87 10 216 101 18 197 83 0
195 91 0 211 117 19 232 150 51 222 152 54 188 128 30 174 121 27
185 136 44 191 144 52 142 84 21 164 100 38 208 130 66 206 117 49
210 106 35 186 73 0 200 81 0 204 85 0 203 90 0 194 91 0 200 109 4
208 127 19 200 128 20 196 132 24 206 145 38 210 152 44 125 66 6
158 94 32 194 118 56 204 115 49 195 90 22 187 74 0 195 76 0 207 88 0
211 97 0 209 104 0 196 100 0 211 124 8 220 141 22 205 131 10
210 140 18 222 154 31 94 39 0 140 79 22 186 116 57 200 116 54
189 91 26 182 75 3 189 78 0 197 85 0 207 100 4 219 118 12 211 120 5
220 136 14 219 140 13 198 124 0 203 129 0 212 139 8 85 37 0 104 52 2
121 59 8 133 60 5 158 74 14 196 104 39 229 133 59 241 145 61
231 140 47 247 160 55 237 156 41 239 163 41 242 169 40 231 159 25
236 164 28 236 164 26 86 47 6 99 56 14 108 57 14 112 54 8 138 71 19
181 106 48 209 131 65 215 139 61 239 168 78 247 179 78 224 161 48
223 161 40 239 176 47 244 180 46 252 186 48 244 178 38 65 38 8
83 54 22 90 54 20 78 36 0 83 34 0 127 75 25 189 134 77 228 175 105
205 157 73 220 176 81 207 163 56 207 162 45 222 174 50 230 180 49
243 189 55 240 184 47 55 40 19 79 63 40 101 79 55 100 73 44 88 58 24
84 51 10 90 57 6 98 67 3 139 112 35 176 151 61 189 164 63 203 176 63
214 182 63 219 179 55 237 192 63 242 195 63 57 53 41 55 49 35
57 48 33 66 53 34 72 56 31 69 53 19 65 51 6 64 51 0 71 62 0
111 103 20 135 126 31 167 154 49 190 169 54 189 160 40 199 163 40
201 163 36 54 55 47 50 50 40 56 52 41 67 61 45 65 57 36 51 45 13
45 40 0 50 47 0 57 58 0 80 81 1 94 93 1 133 128 24 169 153 42
165 143 24 160 130 8 149 115 0
