P3
#
16 16
255
45 37 24 31 24 6 35 31 6 41 42 8 40 47 6 58 60 11 70 53 0 75 55 2
41 36 0 61 63 23 80 86 26 74 85 17 54 68 6 42 64 2 36 68 5 30 66 4
29 26 11 26 23 4 37 35 10 53 50 17 58 54 9 65 48 0 128 91 23
123 85 22 53 30 0 58 49 8 84 82 25 79 86 19 69 86 18 49 74 6 63 94 27
54 86 21 20 28 7 28 33 10 41 45 20 46 38 2 79 47 0 143 89 19
217 142 49 172 96 10 79 23 0 94 59 19 85 68 14 97 98 32 81 100 21
84 113 31 73 101 26 69 97 23 23 31 10 27 35 12 30 35 5 58 49 8
91 55 0 193 127 51 252 158 62 220 123 29 138 60 0 136 80 29 126 94 37
81 74 6 98 117 38 103 135 52 77 105 28 57 84 7 33 33 21 27 26 6
40 40 6 91 83 34 90 69 6 173 124 48 255 166 82 224 122 38 194 102 25
204 132 58 142 97 29 95 80 13 133 150 82 85 116 46 56 88 13 35 67 0
29 23 11 35 33 10 57 58 18 88 87 30 103 91 19 125 89 11 190 116 41
180 92 18 185 106 29 192 126 48 144 98 21 97 77 4 69 79 18 41 69 8
90 123 52 55 92 15 33 27 5 54 53 22 57 67 17 124 133 66 111 103 22
126 100 16 117 70 0 149 98 33 145 100 41 148 109 42 88 53 0 101 80 0
69 70 10 58 77 21 102 133 65 84 122 47 33 25 2 66 65 34 82 96 47
114 125 57 152 142 55 155 128 37 138 96 22 143 98 33 146 107 48
143 106 35 161 124 20 207 180 75 92 85 13 58 72 11 89 120 52
109 149 76 49 43 21 49 49 21 77 92 51 88 98 37 106 91 0 185 147 48
147 88 8 163 97 23 134 72 0 185 127 30 243 187 50 233 194 57
136 126 29 77 89 15 67 94 23 106 143 73 36 32 3 32 38 4 59 77 35
74 84 21 128 109 14 228 184 75 207 139 38 186 108 10 171 97 0
204 133 15 237 172 20 243 199 51 154 143 37 105 118 38 104 130 57
103 136 67 45 51 7 52 66 17 91 119 61 98 114 41 150 132 30 206 160 38
234 166 33 252 175 37 218 145 7 235 166 26 233 168 22 236 194 60
155 147 46 96 111 30 98 121 49 83 113 43 54 66 16 82 101 46 99 127 68
119 137 61 105 93 0 207 168 41 241 180 29 241 167 6 221 147 0
248 180 33 232 179 47 161 131 17 113 114 21 87 106 27 78 100 28
63 88 20 41 57 8 61 79 27 54 77 21 69 86 15 90 90 0 203 182 55
247 198 44 243 176 10 249 173 12 247 181 41 201 167 60 90 80 0
100 111 35 62 82 11 83 102 36 81 100 36 85 103 51 38 56 4 46 64 12
80 96 31 82 93 1 150 141 22 225 180 37 246 185 34 223 160 19
225 176 58 142 121 40 65 65 1 84 99 34 49 69 6 40 58 0 76 91 32
90 108 48 36 55 0 35 53 3 58 76 18 69 88 6 148 145 42 222 173 54
238 179 59 163 127 30 120 101 22 83 71 11 90 90 38 59 72 16 68 88 29
17 35 0 56 74 16 69 88 24 85 103 43 48 66 18 41 60 5 84 107 29
158 158 62 146 98 0 151 97 0 144 121 45 65 59 0 52 46 0 72 71 25
85 99 46 67 88 32 49 66 11 65 82 27
