P3
#
16 16
255
85 74 56 76 81 49 53 86 31 50 96 34 5 43 0 26 61 19 29 66 23 25 57 18
20 40 13 5 25 0 3 28 0 47 77 41 33 59 24 18 39 0 28 35 0 117 119 56
54 57 28 61 76 37 64 99 41 52 94 31 22 54 4 25 48 0 61 77 14 53 63 0
44 52 5 54 66 26 17 42 2 34 62 22 18 44 7 19 40 0 34 44 0 75 82 28
42 70 21 47 80 27 62 102 42 43 79 18 59 78 23 75 72 3 194 170 62
182 152 38 71 53 0 62 61 0 44 65 9 23 52 6 29 54 14 25 45 8 27 43 6
48 62 26 45 84 29 43 84 26 44 85 27 37 70 13 48 65 13 121 111 39
219 172 54 230 176 52 182 151 60 116 106 35 79 87 27 27 45 0 41 62 21
26 46 11 43 58 27 41 54 26 42 78 30 54 92 43 45 83 34 30 63 16
64 90 45 86 84 23 206 156 61 190 127 30 134 99 33 104 84 31 111 98 43
61 59 8 54 66 26 36 51 18 63 68 38 62 62 34 14 45 4 8 41 0 33 71 22
27 61 10 56 81 26 116 111 43 174 120 30 147 80 0 130 82 16 121 85 25
156 123 52 107 89 23 57 66 19 37 54 18 66 76 41 66 72 38 8 31 3
27 55 17 45 86 30 53 89 17 61 74 0 171 155 60 198 143 40 170 98 0
141 75 0 192 133 43 197 144 38 132 102 6 57 67 6 40 69 25 45 74 28
36 65 17 2 25 0 31 59 19 74 115 55 41 75 0 117 122 28 219 192 87
233 173 61 175 99 0 218 141 33 210 139 25 221 158 27 201 166 50
64 71 1 40 72 22 19 58 3 36 77 19 25 56 15 58 94 46 53 97 38 63 93 21
98 96 11 207 173 73 212 147 29 206 128 2 234 156 30 213 143 11
234 174 26 210 175 47 87 94 16 57 88 31 34 72 11 40 82 18 35 74 21
40 79 26 41 84 28 42 71 5 69 68 0 196 163 66 204 144 22 218 144 11
221 148 17 226 158 21 238 181 32 193 160 31 70 79 0 52 85 28 51 91 28
46 88 22 42 83 23 47 88 30 31 72 16 58 88 26 72 78 4 191 171 76
199 148 30 218 153 23 196 131 5 207 146 19 212 156 21 170 141 23
77 91 16 31 70 15 43 84 26 38 79 19 49 93 32 44 88 29 28 68 15
44 77 20 61 80 14 93 88 4 173 137 23 217 166 41 159 108 0 198 148 27
223 173 40 185 156 38 56 74 0 40 80 28 33 70 19 41 78 27 20 64 11
44 88 35 39 79 26 50 87 35 35 67 17 53 68 0 157 139 37 202 169 54
128 97 0 154 119 1 223 178 35 192 163 35 61 78 0 50 88 39 48 76 36
42 68 31 53 92 47 47 86 41 40 78 31 41 79 32 32 71 27 32 59 4 69 71 0
141 132 37 120 115 23 123 114 9 212 187 61 171 156 39 57 77 6
33 69 23 36 64 24 45 71 34 29 56 21 32 62 26 21 56 16 27 64 23
17 54 11 27 59 10 62 83 26 56 77 10 55 81 8 51 74 0 123 133 47
71 82 4 21 46 0 22 55 10 27 63 17 35 73 26 3 27 0 1 28 0 21 52 18
38 74 36 55 90 48 53 89 43 56 87 43 55 89 38 49 91 27 45 84 17
42 68 3 75 99 41 32 58 10 29 62 15 35 73 24 25 68 15
