P3
#
16 16
255
112 107 41 85 79 17 104 94 43 54 46 9 60 53 37 47 42 36 65 55 54
50 47 42 40 46 32 62 59 42 93 53 43 118 70 58 94 61 46 91 77 51
71 79 42 91 110 65 112 112 52 131 128 73 127 113 68 55 40 9 66 58 45
62 55 47 70 56 47 64 51 34 61 56 27 71 60 32 92 61 43 91 58 43
99 81 59 102 101 70 78 95 51 69 97 46 72 84 36 95 96 54 116 93 61
85 58 37 56 48 37 76 66 56 100 72 48 178 145 102 198 169 109
106 84 27 102 85 57 83 77 55 77 87 53 94 117 71 74 112 53 69 113 50
48 73 33 105 115 80 101 80 53 100 69 49 75 62 46 75 60 41 112 82 48
142 102 51 198 153 85 217 184 117 123 114 71 96 110 74 89 121 71
85 131 69 76 129 59 62 120 44 43 78 45 81 100 68 68 57 29 96 70 45
82 61 34 93 72 41 114 90 54 117 84 39 152 102 43 180 139 75
127 121 61 104 128 66 86 139 69 81 149 72 75 143 60 65 131 44
101 136 103 59 83 51 96 88 65 128 102 77 111 76 44 175 137 100
190 155 113 153 111 61 158 99 39 170 117 51 138 115 47 117 128 59
83 137 61 79 154 72 69 141 55 76 146 57 97 123 86 121 138 106
88 81 63 100 71 53 130 79 48 176 113 70 178 112 60 171 103 40
174 102 26 203 135 60 150 91 25 150 126 64 113 148 82 106 172 100
88 155 75 68 136 53 117 110 68 114 108 72 111 103 84 106 81 61
133 80 46 167 97 48 208 130 68 191 112 37 200 124 36 240 174 87
183 130 60 122 102 39 152 182 118 114 175 106 81 148 71 83 155 73
147 83 37 153 106 64 113 96 68 109 95 66 129 92 48 142 86 29
176 103 34 210 134 50 219 147 45 207 159 57 145 139 55 109 133 59
104 149 80 84 145 75 77 148 70 67 144 62 175 102 57 140 86 40
107 89 49 105 92 48 148 111 56 132 79 13 157 97 24 145 85 0
231 179 78 234 211 109 152 175 87 86 133 55 105 156 87 76 136 66
87 160 81 70 149 66 146 113 72 124 97 50 105 94 40 138 117 54
173 119 49 146 84 9 147 103 28 126 99 20 158 142 55 161 165 78
149 180 100 103 151 77 122 173 104 100 160 90 83 154 78 76 153 73
87 82 40 94 90 42 109 103 41 152 132 63 173 129 54 142 100 24
126 114 38 105 113 36 128 147 66 115 146 66 115 159 80 109 163 87
112 168 97 110 171 101 93 161 88 90 162 88 69 82 36 73 81 30 84 82 21
116 108 43 101 96 28 92 100 27 83 113 39 84 131 53 101 155 77
89 148 68 89 153 69 122 187 105 120 184 108 113 179 107 99 166 97
90 159 92 67 89 42 72 86 37 76 73 20 70 70 10 60 79 13 66 102 30
67 117 44 74 136 61 86 157 81 74 147 68 90 162 78 97 167 81 90 154 76
104 166 93 113 176 106 103 165 100 79 95 56 70 78 37 56 51 11
69 71 21 61 88 21 67 109 35 57 103 31 86 139 67 90 158 85 95 167 91
87 159 77 88 153 69 100 157 78 139 191 116 153 206 136 103 158 90
62 76 40 66 74 37 75 69 35 71 74 29 59 90 23 64 110 35 66 109 38
64 115 46 69 135 63 105 177 101 90 161 81 101 165 81 102 155 75
123 172 93 135 185 114 122 173 104
