P3
#
16 16
255
75 102 85 89 118 88 92 125 70 91 127 55 85 122 42 93 129 55 54 84 30
47 73 38 45 63 47 55 68 59 56 63 55 56 59 48 64 62 47 61 55 41
51 43 32 50 40 31 81 107 80 74 105 64 71 102 42 85 119 45 92 127 47
99 132 61 56 84 35 51 75 43 51 67 54 68 79 71 71 77 65 62 65 48
56 54 33 49 42 23 52 40 24 65 53 39 80 108 59 75 106 47 81 113 40
107 140 61 111 143 67 104 133 69 56 78 39 56 74 50 54 66 56 67 74 66
67 70 53 59 57 32 58 52 20 59 50 17 75 61 34 99 83 58 72 99 28
100 128 51 132 162 76 155 185 99 137 163 89 111 132 73 54 70 34
53 65 45 54 60 48 60 61 45 59 55 26 60 55 17 76 65 20 88 74 29
104 86 48 125 105 70 77 103 6 124 150 51 166 192 91 178 201 110
149 167 91 121 134 78 59 66 32 48 50 29 52 49 30 67 60 32 78 70 24
92 79 24 109 91 29 112 92 33 119 96 46 139 112 69 104 124 9
138 158 43 161 179 69 164 181 79 145 157 75 134 139 75 76 74 33
58 52 20 57 44 10 89 75 30 121 106 41 140 121 45 143 120 42
131 104 33 137 104 50 161 127 79 142 154 28 150 162 38 153 162 43
156 162 54 147 148 55 146 140 66 100 89 33 98 82 30 103 84 25
130 110 39 157 136 45 170 146 48 166 137 45 150 117 38 157 116 60
184 142 94 171 172 45 166 167 40 162 162 38 167 164 47 156 147 44
151 137 48 119 102 24 138 116 40 172 148 62 177 153 55 178 152 39
176 149 34 173 139 39 160 122 39 162 119 64 186 139 97 187 176 58
178 168 47 165 155 31 164 152 30 156 141 24 169 151 39 105 84 0
170 146 40 205 179 66 210 184 61 195 168 35 189 160 32 155 123 14
158 120 37 156 112 63 173 127 94 183 166 58 175 160 45 169 153 31
168 150 22 139 122 0 133 114 0 116 95 0 197 176 49 234 212 77
218 196 58 198 177 32 189 165 31 156 128 19 137 104 25 139 102 57
165 125 99 178 158 61 180 161 56 191 172 52 202 185 53 171 156 15
151 136 0 178 161 21 241 226 85 231 216 73 210 198 52 212 200 56
210 197 66 183 166 62 122 103 27 106 83 41 120 94 69 136 116 29
165 147 49 197 182 63 223 211 77 208 198 51 191 181 31 217 209 62
214 207 64 199 193 53 188 187 47 211 212 76 215 215 93 196 196 96
121 119 45 88 83 41 79 74 45 90 74 0 152 141 49 201 194 77 231 227 93
223 223 75 218 218 68 222 224 81 159 162 29 163 169 43 158 169 49
175 190 73 167 185 77 162 181 91 114 134 63 91 111 62 72 89 53
70 62 0 145 140 49 199 198 82 235 239 103 227 235 87 235 245 97
221 233 99 152 166 43 130 148 40 128 150 49 130 158 58 119 153 59
120 158 75 106 146 75 87 127 74 61 103 57 72 70 0 113 116 25
150 157 41 211 223 87 213 228 83 222 241 99 188 208 83 151 174 66
124 150 61 115 148 67 99 138 59 93 140 62 89 141 66 90 147 76
63 123 61 39 100 43 98 101 24 98 103 13 112 123 5 195 211 76
207 226 82 209 232 92 153 178 60 141 169 69 148 179 99 125 162 92
83 129 57 78 131 59 64 124 52 72 138 67 44 115 49 29 101 38
