P3
#
16 16
255
198 159 58 202 159 55 184 136 28 130 86 0 84 58 9 46 30 4 54 39 16
37 31 0 52 54 7 93 106 52 54 76 29 67 99 50 83 120 66 61 98 47
40 66 31 10 30 3 162 117 16 169 122 16 174 123 5 216 171 70 120 88 31
54 29 0 70 47 0 128 112 52 157 153 82 103 110 43 72 92 39 98 125 80
44 76 29 73 104 60 58 84 47 8 33 1 176 119 16 178 123 7 213 161 23
226 178 52 177 130 58 74 30 0 180 137 33 225 190 70 201 181 68
132 129 34 147 162 103 45 67 28 19 35 6 75 94 64 65 93 53 38 71 28
184 121 7 189 129 5 219 164 20 245 194 66 155 106 27 93 46 0
190 141 20 245 202 63 222 189 58 159 140 35 95 96 28 44 52 11 23 32 5
75 89 64 72 103 62 63 102 55 223 160 21 235 173 36 204 146 13
229 177 65 111 70 0 100 64 0 165 128 21 230 190 68 237 187 72
195 152 50 133 110 32 83 74 19 29 30 0 65 79 53 67 99 60 46 87 43
207 153 27 227 175 57 167 120 16 117 74 0 119 83 0 197 161 75
203 163 65 212 165 61 188 133 32 150 97 1 214 177 88 132 109 39
50 41 0 70 79 48 38 65 24 60 98 51 128 92 18 124 94 24 86 64 7
72 49 0 178 143 49 235 191 86 195 136 44 170 110 24 143 95 10
208 165 73 242 200 98 189 155 66 106 84 35 85 81 46 58 75 30
75 104 50 83 59 15 75 56 16 81 72 43 92 79 35 164 136 52 227 181 83
186 120 33 176 108 25 158 107 28 217 170 82 230 172 64 219 166 70
117 85 34 106 96 61 64 76 30 96 119 65 75 55 22 55 40 11 58 50 31
70 60 33 151 131 78 155 118 47 215 153 66 168 97 7 157 95 12
189 119 31 218 130 20 189 113 17 89 51 2 73 64 35 85 93 54 107 124 79
79 62 36 126 111 88 63 56 38 72 64 41 75 60 19 115 83 24 181 125 42
183 112 20 198 124 35 187 104 12 249 152 47 217 136 47 97 62 20
84 78 54 87 92 60 85 97 61 72 55 35 121 109 87 61 53 32 90 81 52
135 117 71 126 94 33 163 114 38 186 119 32 213 129 33 200 110 13
232 147 54 195 131 59 88 62 29 73 70 53 74 78 55 79 85 59 57 46 28
58 50 29 68 64 37 86 80 46 138 124 79 106 77 19 174 128 53 210 146 56
226 145 38 204 121 17 160 89 7 122 76 17 88 73 44 64 67 48 81 89 65
104 115 85 46 45 25 65 65 41 67 72 40 67 71 34 107 103 65 107 87 34
152 107 26 234 175 73 240 178 59 225 164 57 152 102 33 138 107 63
81 76 44 60 73 43 108 126 88 85 108 64 39 48 19 65 76 44 73 85 49
76 87 47 80 84 47 103 91 39 144 109 28 231 183 83 225 179 68
143 103 5 124 95 35 107 93 54 103 107 72 87 101 65 104 123 78
69 91 44 45 67 20 51 73 27 63 81 41 89 104 65 105 112 71 85 79 27
109 90 14 199 171 87 187 157 71 138 116 41 108 105 50 77 84 42
95 103 66 92 102 65 80 88 49 81 89 48 63 90 35 59 86 35 69 90 49
91 107 68 83 90 48 93 92 38 102 90 18 117 100 22 124 102 29 109 98 34
85 94 41 95 112 68 85 96 56 111 117 81 102 106 69 87 89 52
