P3
#
16 16
255
36 62 23 81 116 76 113 164 123 108 169 125 85 152 101 46 111 55
34 89 31 65 108 55 71 91 56 66 70 47 60 51 34 34 27 9 32 37 17
16 30 7 43 55 33 25 37 15 28 54 17 27 59 22 95 141 102 112 169 126
102 164 115 74 137 82 41 96 38 60 100 48 73 93 58 67 65 40 100 74 51
59 33 10 32 27 5 47 52 32 26 33 15 17 24 6 33 56 27 24 51 18 34 72 35
113 160 118 112 168 121 96 154 103 52 103 46 60 99 46 78 95 59
70 55 24 153 93 56 126 62 26 65 37 13 42 33 16 19 15 4 23 23 13
33 48 25 35 55 30 44 70 41 73 109 73 107 152 109 114 161 109
92 126 66 67 86 31 95 97 60 107 73 38 148 59 17 176 79 37 154 94 66
54 23 5 33 18 11 25 20 16 30 34 20 38 46 31 61 74 57 53 76 50
112 144 103 119 146 91 126 128 63 114 98 39 120 90 54 129 68 37
151 39 0 193 67 26 186 87 58 98 33 15 42 17 10 34 29 26 30 30 20
32 34 23 40 43 32 57 60 41 83 85 45 150 137 82 175 135 66 159 104 39
135 76 32 150 71 32 200 82 36 187 60 17 143 40 9 116 48 27 48 26 13
23 23 15 29 29 17 37 38 24 51 49 36 69 51 29 152 103 62 159 84 27
207 112 44 166 68 0 147 63 0 151 62 4 179 70 11 177 72 24 123 52 20
85 47 26 51 44 25 25 37 17 32 32 22 42 39 24 63 55 34 109 73 39
184 102 52 203 89 27 217 88 22 234 105 39 199 83 24 184 78 20
187 85 23 177 96 43 91 46 15 58 41 21 62 65 44 43 57 34 32 33 28
42 36 22 74 54 19 154 104 53 209 109 47 240 111 45 234 92 30
226 76 26 187 37 4 163 30 0 181 84 31 144 84 32 73 52 25 49 47 32
45 47 33 46 52 38 35 34 30 50 42 23 78 52 1 184 131 63 220 132 60
207 89 19 194 51 0 177 18 0 177 11 0 184 36 10 174 70 17 173 113 59
75 60 31 51 60 43 27 36 19 28 37 18 71 64 56 50 36 9 102 73 5
199 159 74 188 137 56 167 87 16 209 79 21 183 26 0 184 20 0 212 62 29
217 92 34 176 94 36 93 69 35 41 51 27 25 44 14 51 77 42 50 54 29
65 66 26 102 92 23 172 160 78 124 112 38 114 69 2 195 78 24 183 30 0
203 46 11 189 42 0 219 94 28 161 77 13 90 64 29 50 60 35 33 59 24
45 77 38 85 115 63 92 122 68 75 104 48 56 85 27 44 75 18 76 63 10
169 68 16 188 42 0 225 79 32 174 41 0 203 99 26 205 138 70 62 44 8
44 56 34 21 44 16 26 55 24 84 135 68 57 107 46 44 94 43 38 87 42
42 87 44 85 86 44 140 57 15 214 87 44 221 90 44 174 61 5 148 69 2
123 79 18 47 38 5 21 35 12 23 46 20 17 43 16 64 125 56 56 116 54
51 108 57 59 107 65 73 105 68 77 74 41 96 35 7 125 30 0 155 49 10
175 84 39 118 68 19 71 52 9 47 54 21 19 42 16 20 43 17 19 42 16
84 151 82 69 134 70 60 120 69 69 116 74 51 78 43 64 59 30 101 50 31
119 38 17 137 44 10 120 42 3 79 41 2 74 70 33 66 81 50 34 59 30
27 50 24 26 46 21
