P3
#
16 16
255
80 76 47 48 32 7 74 32 16 72 30 14 60 46 20 57 61 26 58 67 22
53 68 13 73 88 29 50 62 0 79 85 23 66 71 13 64 72 23 46 58 8 56 66 13
72 83 25 58 58 32 40 30 5 69 41 20 59 32 11 62 55 27 55 63 26
56 69 25 51 66 9 65 76 7 115 123 40 145 141 50 103 101 18 62 68 8
53 63 13 68 77 22 65 75 15 51 59 36 53 57 32 51 47 20 39 38 8
85 94 63 79 95 58 57 76 31 47 61 0 68 73 0 207 200 83 235 218 68
210 192 56 54 52 0 58 62 11 127 130 73 64 68 7 64 77 51 68 81 51
50 62 26 43 58 19 46 64 26 62 80 40 63 79 32 57 64 0 79 75 0
220 203 61 250 220 46 241 215 56 128 119 26 63 64 6 80 83 26 58 61 4
28 42 6 61 76 35 70 84 35 44 61 9 33 55 8 49 67 19 42 45 0 66 59 0
157 139 15 207 182 28 190 157 0 225 195 45 165 152 48 59 56 0 56 63 9
49 61 15 68 83 42 50 66 21 86 102 53 48 66 14 38 58 9 57 70 16
58 51 0 228 209 114 235 209 70 215 183 20 201 164 0 245 212 59
209 190 70 77 71 0 63 71 14 35 50 9 52 67 28 43 58 19 86 102 63
43 60 18 44 59 18 59 63 4 142 129 37 242 218 94 221 192 38 201 168 0
234 195 14 230 193 24 218 192 53 135 124 19 49 54 0 27 40 0 54 68 33
58 74 38 31 48 12 32 48 11 37 52 13 51 55 0 130 117 13 217 193 57
227 197 37 219 183 7 248 206 23 220 180 5 231 204 53 121 105 0
57 59 0 34 45 5 51 66 37 82 97 66 26 43 7 33 51 11 35 53 11 54 66 2
82 79 0 231 215 80 201 175 20 217 180 11 234 191 16 249 207 37
241 210 58 132 115 1 37 36 0 34 43 14 27 40 10 68 83 50 57 75 37
62 83 40 36 58 12 49 67 7 68 74 0 195 189 77 170 148 13 230 197 44
189 147 0 235 196 41 237 210 79 98 85 0 40 42 0 29 38 9 53 65 29
80 95 56 84 102 62 84 106 60 101 123 76 90 108 60 61 75 26 63 65 0
132 120 20 221 197 71 206 171 29 197 167 37 136 120 33 40 38 0
35 42 0 32 44 8 61 78 36 61 78 36 57 76 31 38 60 13 27 50 0 65 87 40
63 80 46 74 85 43 67 63 0 158 143 48 187 165 54 107 89 0 47 40 0
44 45 11 51 58 24 40 51 17 69 92 46 49 71 25 50 69 23 36 56 7
60 85 30 54 81 30 26 47 6 41 56 15 64 67 14 96 92 29 85 80 14 28 26 0
49 50 10 39 44 14 32 38 10 30 39 12 71 94 52 59 80 37 60 79 34
62 81 35 71 95 47 48 74 27 30 51 10 40 55 16 60 69 26 60 67 23
51 60 17 65 76 34 45 52 18 43 52 21 26 34 10 21 29 6 44 55 23
41 55 20 57 78 37 85 106 65 74 94 59 78 95 63 53 68 35 46 60 24
55 70 27 43 60 16 41 62 19 63 81 41 51 67 28 57 71 36 34 44 17
34 44 19 34 40 14 32 43 13 54 75 36 104 126 88 27 43 16 26 40 15
46 57 27 32 46 11 17 35 0 37 60 16 24 49 7 45 70 28 17 35 0 52 68 31
33 44 14 29 39 14
