P3
#
16 16
255
60 61 21 85 81 44 121 107 81 115 98 78 76 60 47 59 49 37 60 56 44
51 48 33 61 52 37 66 48 34 66 36 25 54 26 14 42 24 12 32 33 17
20 45 24 12 50 27 55 42 7 78 62 29 113 85 63 124 88 74 106 69 60
91 58 51 84 57 48 75 51 39 55 25 14 69 33 21 80 33 23 71 27 18
57 23 14 47 29 17 37 44 28 34 53 34 76 41 11 96 52 27 118 59 45
134 63 57 140 62 62 124 48 48 107 37 35 108 41 35 99 30 23 109 36 29
115 36 31 110 32 28 99 31 30 93 39 37 85 52 47 78 58 51 107 55 31
119 57 36 127 43 33 141 39 37 158 43 48 144 27 33 127 17 18 138 33 30
144 41 36 139 36 29 133 26 20 126 21 18 124 25 28 122 37 42 110 44 48
101 42 46 127 67 43 138 63 44 145 40 34 158 30 31 177 30 38 169 15 23
155 9 10 168 29 24 168 35 26 165 37 26 162 31 23 153 25 22 149 26 29
145 34 41 138 41 52 133 43 55 138 84 56 148 76 54 163 55 45 176 38 38
192 27 34 188 13 20 176 8 7 174 16 7 167 19 5 177 37 20 187 47 32
178 41 33 163 30 31 157 32 40 160 45 58 165 57 72 137 103 66
140 85 55 159 62 46 173 40 35 186 22 23 197 19 19 193 20 13 175 14 0
167 21 0 171 33 5 170 36 11 158 27 9 147 18 12 146 23 25 152 36 45
158 48 61 121 106 63 117 79 42 136 54 32 155 31 21 173 14 10
203 30 24 214 44 31 189 30 8 201 58 26 181 48 13 157 28 0 141 15 0
141 17 5 149 31 27 152 41 47 149 42 50 121 125 74 96 77 34 125 58 31
148 38 21 174 30 21 193 30 21 188 29 10 214 63 36 211 74 38 184 58 18
169 46 12 145 26 0 139 22 5 147 36 27 140 36 37 147 46 50 104 119 64
95 87 40 116 61 30 139 44 24 172 40 28 197 46 35 198 48 31 207 63 37
201 71 37 179 55 19 170 47 13 151 31 4 152 37 19 161 53 43 142 42 40
134 40 41 77 94 40 96 92 45 112 66 33 133 48 28 152 34 22 167 30 20
180 43 27 175 40 20 174 45 16 179 54 24 189 64 36 162 40 17 145 27 13
149 41 31 139 44 40 144 54 53 48 68 15 87 89 42 108 73 41 134 66 45
139 38 26 130 13 4 154 32 21 151 30 13 151 29 8 174 52 29 196 70 48
162 39 21 131 15 2 131 28 19 135 46 40 150 71 66 38 65 12 70 79 32
94 71 37 134 84 61 142 66 53 125 32 24 140 42 31 142 38 25 151 41 26
167 52 34 185 63 48 161 41 27 140 29 18 140 46 36 131 54 44 133 69 57
51 86 30 53 75 26 69 63 27 107 77 51 128 76 62 121 54 45 119 45 36
118 34 24 140 46 34 161 57 46 190 76 66 175 63 52 149 48 38 137 53 42
118 59 43 125 78 60 58 103 46 50 84 33 62 74 34 71 64 35 92 65 46
106 66 54 101 51 40 108 45 36 131 54 44 152 62 53 187 84 77 175 74 64
143 55 45 117 50 34 101 58 39 116 88 66 56 107 48 55 98 44 76 97 56
61 64 33 70 57 38 107 81 68 114 76 65 134 84 75 144 76 67 142 59 51
159 62 55 154 60 50 139 57 46 117 58 42 93 58 36 99 79 54
