P3
#
16 16
255
91 66 12 99 74 20 95 64 17 109 78 32 84 53 9 84 55 13 140 110 72
122 99 58 119 100 58 113 102 57 105 105 55 100 109 54 97 117 56
97 126 60 101 134 65 101 138 68 104 85 29 121 100 47 112 89 37
111 83 35 88 57 11 97 64 21 140 107 66 107 75 34 106 82 38 95 77 31
96 86 37 111 111 57 118 128 68 109 128 64 102 127 61 102 131 64
107 101 43 114 105 48 105 90 35 109 86 34 94 64 14 96 60 12 126 85 39
99 56 11 116 75 29 92 56 8 87 59 9 110 93 39 126 120 62 119 120 60
108 117 54 110 122 58 119 117 60 102 96 38 95 80 25 123 98 44
122 85 33 111 63 14 134 78 29 135 75 25 121 61 11 97 41 0 86 40 0
104 69 15 121 99 42 115 103 43 98 94 33 87 87 25 111 101 48 92 79 26
92 67 13 122 85 32 136 83 31 132 66 14 152 75 23 165 84 31 150 69 14
139 62 8 128 61 6 130 78 21 142 103 46 138 113 56 111 96 37 83 73 12
97 76 29 104 78 29 110 72 23 121 68 18 141 70 18 161 76 22 177 80 25
183 80 22 196 93 35 185 89 31 163 78 21 145 76 17 144 94 35
148 113 55 133 108 51 108 92 32 109 74 34 129 86 44 143 89 45
148 75 30 168 78 28 192 86 34 204 85 29 213 88 30 211 88 29 196 82 20
171 71 11 148 66 6 135 73 12 129 84 25 119 89 29 108 86 26 103 63 27
115 67 29 136 74 33 153 76 30 173 75 26 184 69 15 192 63 6 219 85 24
215 79 19 207 79 16 203 87 26 197 99 38 176 97 38 143 82 25 118 71 15
111 70 14 102 70 32 108 69 30 127 74 32 151 80 34 164 72 21 172 61 6
195 66 8 221 83 21 225 83 21 222 84 22 215 85 27 214 98 41 185 86 31
153 67 16 149 75 26 137 69 20 101 86 43 97 76 31 105 69 21 133 80 30
166 89 35 175 79 21 189 73 12 218 88 26 228 90 28 228 88 27 222 86 28
225 95 43 204 83 36 177 66 21 176 75 33 168 71 29 83 95 45 92 96 45
88 79 24 97 71 14 138 88 29 165 94 32 185 93 28 214 105 40 227 103 41
233 98 40 221 84 30 223 85 36 207 71 29 182 50 12 184 54 20 181 52 20
88 115 62 116 137 81 103 112 55 81 72 13 105 77 14 143 95 31
172 105 37 199 114 47 223 121 57 230 114 55 213 88 34 211 79 30
199 63 21 173 37 0 171 34 2 172 34 5 133 161 110 143 168 113
127 145 87 109 115 55 119 109 47 136 113 46 156 115 49 182 125 58
198 124 59 208 123 59 191 92 35 193 83 30 192 76 29 171 49 8 172 46 8
178 51 16 107 129 80 80 100 49 76 90 37 97 106 49 106 106 46 98 89 24
103 82 15 123 90 21 147 102 35 165 108 41 152 82 20 162 82 23
180 89 36 167 69 20 171 68 23 186 80 38 101 103 63 68 71 28 77 80 33
106 109 56 103 104 46 97 95 34 103 98 32 100 90 19 97 78 9 118 91 20
108 69 0 123 75 9 150 92 29 141 77 16 145 74 18 162 89 34 88 83 45
75 72 31 94 91 46 95 95 45 66 69 12 78 82 21 97 98 32 72 72 2 80 73 1
100 88 14 88 65 0 101 71 1 129 89 20 118 70 4 119 65 3 136 80 19
