P3
#
16 16
255
201 86 42 160 63 18 125 64 19 126 102 54 131 139 90 128 154 107
135 160 120 156 166 131 139 119 92 150 104 81 159 91 70 164 86 64
163 85 62 155 86 57 145 89 56 144 94 59 195 84 41 155 62 18 119 58 13
109 81 34 106 109 62 101 118 74 103 119 80 117 118 86 148 122 95
154 104 81 158 85 66 159 77 56 155 75 50 150 76 47 144 83 52
146 92 56 182 81 37 151 64 19 114 56 10 99 66 21 98 89 46 102 104 65
107 107 73 117 102 73 149 109 84 152 90 67 153 72 51 154 66 44
155 67 43 154 73 44 154 83 53 157 93 58 167 81 34 147 70 24 118 61 16
104 65 24 108 86 47 122 106 72 133 112 83 140 104 78 144 88 65
149 74 53 154 63 42 161 65 41 166 70 45 164 74 47 161 78 48 158 82 50
142 72 23 133 69 23 120 65 24 113 68 29 118 79 46 130 90 64 133 85 62
133 72 53 145 68 48 149 58 39 159 57 35 174 68 44 185 79 53 179 78 50
165 70 42 153 62 33 112 59 9 112 60 13 112 63 22 118 68 33 126 75 46
132 74 52 131 60 42 126 45 28 139 44 26 140 35 14 151 39 15 178 62 37
199 85 59 199 89 62 181 75 49 163 62 34 103 67 17 100 62 15 104 60 21
117 67 34 135 71 46 146 69 51 153 64 48 160 58 44 146 35 18 140 21 1
143 21 0 169 48 21 200 80 53 208 93 66 194 83 56 176 68 42 113 96 44
102 78 30 99 64 24 112 63 31 133 65 42 154 68 51 176 74 60 197 81 68
173 47 32 155 26 5 145 15 0 164 36 9 191 70 43 201 86 59 187 77 52
170 62 36 109 106 53 82 72 23 87 62 22 106 63 31 110 44 20 169 82 63
191 83 70 195 73 58 172 39 22 156 20 0 173 39 12 185 56 27 180 60 33
178 67 40 165 61 36 165 65 39 72 81 28 55 57 8 65 52 10 94 61 26
111 54 27 164 83 62 166 63 44 167 46 29 186 51 31 177 37 14 192 54 28
178 50 21 158 43 16 164 63 35 161 70 43 153 67 40 48 65 13 47 57 7
59 58 14 93 73 36 123 80 48 169 102 75 161 67 42 165 51 27 179 47 24
182 44 18 204 68 42 177 52 24 138 33 4 155 65 38 159 88 58 144 80 52
34 56 7 46 64 16 58 67 22 83 78 38 108 82 45 148 98 65 143 64 34
164 60 31 174 49 21 181 45 19 212 78 51 186 66 39 135 40 10 142 68 39
148 97 66 137 96 64 33 59 11 56 80 32 72 94 47 87 99 53 95 88 44
126 97 55 131 69 32 164 75 41 187 72 41 186 57 28 210 82 53 191 77 50
139 54 25 124 67 37 126 97 65 132 118 83 28 56 8 51 79 30 78 108 58
95 119 69 91 101 51 122 110 62 134 89 47 169 94 55 191 84 50
182 59 28 192 68 40 179 71 43 142 67 36 120 77 45 115 105 70
144 150 114 31 60 14 36 68 19 60 97 46 79 111 61 68 91 37 106 106 54
122 90 43 145 80 38 171 71 35 169 52 19 169 50 20 157 56 26 143 76 47
119 89 55 103 109 73 138 163 124 73 102 56 55 88 41 66 104 53
76 115 62 58 87 31 97 106 51 114 88 39 126 65 21 157 61 23 165 51 17
161 43 15 146 47 18 143 80 49 116 92 58 85 97 61 113 145 106
