P3
#
16 16
255
46 80 30 51 80 34 34 52 14 30 48 6 35 60 5 11 38 0 35 58 16 71 97 58
72 108 64 87 107 58 96 70 19 133 105 55 116 128 78 89 121 74 71 99 58
57 85 45 84 118 68 67 94 49 25 41 5 25 40 1 59 86 31 43 74 15
39 62 18 74 95 56 77 103 56 88 95 43 141 106 50 157 120 65 143 141 92
63 80 35 63 82 37 81 102 59 72 109 57 80 107 62 19 28 0 23 33 0
75 106 47 68 104 42 43 67 19 84 97 53 109 111 61 116 96 37 171 118 52
183 127 66 120 92 44 46 38 0 69 71 22 78 85 34 39 71 21 52 78 33
26 35 4 22 32 0 82 105 49 99 120 61 64 66 19 103 89 42 144 114 54
218 169 102 228 160 87 204 130 65 114 51 0 129 86 41 111 99 47
76 79 24 29 52 6 48 69 26 53 71 33 31 43 3 65 67 18 114 98 49 71 28 0
168 106 59 219 145 74 211 133 51 220 138 62 220 128 61 198 91 39
168 84 37 107 86 33 75 86 30 42 61 16 58 77 32 55 76 35 57 62 22
64 36 0 153 95 57 175 86 52 195 92 47 227 124 55 210 113 36 185 96 30
194 95 36 222 96 45 171 70 18 86 59 4 67 78 20 47 66 20 48 67 21
37 54 10 42 30 0 112 45 18 173 67 43 185 54 26 203 69 31 206 91 34
201 101 41 134 41 0 138 39 0 204 88 37 160 67 10 96 65 10 87 88 31
65 89 39 62 84 35 30 49 3 50 37 0 112 35 5 173 51 27 197 49 21
212 68 33 171 59 13 117 19 0 134 32 0 205 98 56 218 101 48 175 79 21
146 100 50 97 76 29 60 93 38 72 105 50 37 67 13 86 88 38 129 72 27
171 70 28 182 50 11 172 44 5 150 56 22 103 15 0 202 91 36 234 110 50
217 87 27 198 87 32 155 81 44 78 25 0 69 104 48 81 116 60 78 113 57
87 96 41 122 81 29 154 68 19 184 62 13 199 78 35 132 49 17 111 31 0
223 109 49 217 88 20 202 74 11 192 85 33 147 76 44 75 25 0 106 136 82
102 132 78 78 108 56 92 102 50 113 81 32 165 92 41 184 64 11
217 97 45 124 46 7 108 35 0 221 112 56 220 96 36 185 70 13 139 53 2
107 72 34 89 78 46 68 96 38 57 84 29 78 105 52 86 98 50 99 82 38
130 76 30 186 80 28 212 98 44 148 67 20 124 43 0 160 46 0 194 73 18
189 85 24 171 100 44 117 93 49 90 88 50 70 96 31 50 76 13 38 61 5
50 66 19 40 44 7 51 25 0 164 83 40 177 75 26 194 103 50 200 100 48
185 60 12 187 63 9 183 89 19 181 114 44 131 94 42 99 76 32 80 101 26
56 76 5 46 62 0 41 58 6 36 52 15 35 27 0 105 47 7 187 101 54
198 103 49 195 96 41 184 79 31 171 80 25 157 90 22 177 132 64
133 106 53 63 45 0 119 123 36 68 73 0 50 58 0 53 64 4 40 58 10
50 51 9 67 28 0 182 114 67 175 85 33 165 84 29 129 80 24 129 103 46
73 56 0 84 79 24 59 67 18 60 76 27 138 135 40 78 78 0 116 119 42
120 131 65 29 46 0 37 43 0 53 22 0 151 90 45 165 79 28 131 58 3
101 81 22 99 107 48 27 35 0 36 52 5 55 81 34 58 90 41
