P3
#
16 16
255
114 98 64 104 89 48 109 91 43 108 93 26 116 105 16 209 205 98
151 152 33 118 126 14 103 118 25 103 122 56 74 91 57 84 103 84
58 76 62 65 83 59 78 97 52 70 89 34 97 81 47 94 76 36 117 99 49
153 135 69 179 165 77 243 234 129 206 205 87 185 192 80 145 156 64
119 134 69 77 92 59 91 105 88 69 83 70 64 79 56 72 87 46 70 87 35
116 98 62 102 84 44 121 101 51 166 147 81 198 180 94 220 207 103
223 218 101 219 219 109 177 182 92 126 135 70 81 88 55 93 101 86
78 86 75 66 73 55 70 78 41 75 84 37 106 88 52 97 80 37 115 95 45
160 139 74 197 177 91 188 173 72 219 209 94 212 208 98 164 164 74
116 118 53 82 83 51 87 89 76 80 80 72 70 71 57 73 74 42 76 78 38
89 74 35 104 87 44 135 115 65 176 155 92 210 188 105 183 163 64
202 189 75 170 160 49 131 126 35 103 99 35 93 88 56 81 77 65 79 72 66
78 71 61 79 73 47 73 69 34 90 81 40 110 97 53 136 120 69 165 145 82
194 173 90 179 159 60 188 172 59 144 132 22 111 102 9 100 93 25
110 101 68 82 74 61 76 67 62 80 69 63 81 70 50 70 61 32 93 90 47
91 87 40 102 90 40 121 105 43 155 137 55 176 158 60 192 176 63
165 152 40 114 104 9 103 95 23 121 111 75 84 75 58 77 66 62 77 66 60
78 66 50 70 58 36 121 127 83 101 103 56 94 91 40 105 95 33 132 116 38
163 147 51 171 158 46 155 143 31 123 113 15 104 96 21 123 114 73
84 76 57 78 67 61 73 62 56 73 64 49 72 61 43 111 127 82 94 106 58
85 87 37 96 92 31 92 83 4 130 117 21 180 168 56 148 138 23 122 114 13
107 100 20 115 109 61 80 74 50 72 65 55 64 57 49 77 71 57 73 68 49
93 115 69 82 98 53 69 77 28 67 66 9 64 56 0 120 110 15 199 189 78
192 182 67 145 138 32 108 102 18 91 85 33 63 60 29 69 66 51 65 62 53
73 71 58 66 65 47 69 92 48 75 94 49 81 90 45 79 79 25 78 71 0
139 128 38 215 203 93 215 204 88 191 183 74 145 140 49 102 97 39
69 66 31 68 67 47 60 60 48 65 66 52 59 60 44 57 79 40 71 89 49
91 99 58 97 95 46 108 99 32 164 150 62 210 196 89 196 183 68
204 194 83 182 176 82 130 125 61 85 82 41 67 65 44 54 55 41 61 62 46
56 59 42 60 80 45 62 76 41 76 80 47 85 78 36 114 98 38 174 153 72
199 178 73 180 160 45 172 156 45 179 166 70 123 114 45 82 75 31
65 61 36 62 60 45 65 66 48 54 55 37 61 76 47 58 67 38 74 73 43
87 75 37 125 104 49 180 154 77 192 164 64 181 155 42 162 140 29
168 152 54 98 86 14 70 62 15 69 62 34 71 68 51 67 66 48 48 47 29
60 70 45 63 67 42 91 83 60 101 82 50 127 99 49 169 137 64 180 146 48
190 160 48 191 165 54 185 163 64 93 76 4 78 66 16 78 67 39 70 63 45
64 58 42 56 53 36 63 71 47 66 68 44 94 83 63 90 69 38 100 69 22
135 101 29 160 124 28 198 164 54 214 187 74 198 174 74 98 80 6
90 77 25 82 68 41 60 52 33 62 55 39 79 73 57
