P3
#
16 16
255
58 92 31 41 72 13 53 82 26 76 105 51 101 129 80 76 61 22 136 24 13
166 43 35 169 118 87 148 135 90 136 129 77 91 65 16 114 45 14
110 47 16 85 79 31 136 157 101 50 84 23 62 96 36 94 123 67 82 107 52
127 141 92 88 55 20 148 31 21 191 60 52 167 91 67 148 108 72
153 126 81 127 93 48 134 65 32 126 57 24 127 96 52 143 129 82
53 87 27 49 83 23 67 101 41 75 92 37 101 87 40 130 70 36 185 61 51
214 69 66 188 64 52 197 101 79 163 100 67 154 100 62 174 104 68
165 85 50 189 106 72 161 78 44 63 94 35 51 82 23 47 78 19 74 87 33
109 87 40 142 73 42 205 74 66 212 56 57 176 28 24 191 67 55 163 72 51
113 44 13 129 67 30 110 36 0 182 80 55 183 67 44 87 112 57 72 97 42
69 89 38 48 58 8 102 91 45 141 84 54 192 60 56 203 42 47 203 58 55
194 66 55 164 56 43 115 35 12 138 93 54 125 75 38 122 30 9 139 26 12
57 82 24 74 97 41 105 125 74 52 64 16 115 117 70 126 85 53 165 54 47
180 41 44 168 43 39 185 68 61 157 44 36 151 65 48 151 117 80 91 57 20
101 20 1 137 33 24 50 79 13 83 112 48 119 148 92 71 93 44 136 147 104
127 108 76 108 39 24 164 73 68 102 14 12 142 51 50 161 57 54
156 73 59 80 51 17 73 49 13 116 48 29 133 43 32 100 132 65 93 125 60
90 121 64 35 51 4 172 156 122 168 121 95 127 48 33 136 48 38
109 30 26 128 42 43 151 45 45 161 68 60 87 43 14 93 63 29 139 87 63
110 49 30 81 115 54 56 90 30 79 109 55 64 55 14 188 103 82 178 50 39
191 50 40 174 43 35 134 29 26 162 62 62 149 29 31 159 47 43 130 52 32
92 41 12 104 75 43 82 66 32 95 130 72 83 118 60 125 155 103 109 87 48
188 68 54 184 15 10 202 29 22 192 33 27 155 27 24 167 47 48 196 61 65
174 52 47 132 50 26 109 65 28 118 111 67 66 78 32 123 161 100
115 150 92 128 158 106 94 70 34 182 60 45 201 28 22 209 32 26
192 23 18 171 21 20 170 28 27 186 37 41 155 37 27 139 86 46 106 97 42
94 109 52 41 69 11 139 177 116 136 174 115 127 160 107 104 86 46
167 52 34 188 21 15 209 34 29 204 31 27 185 26 23 176 28 26 183 45 42
136 39 20 133 105 57 77 87 26 89 104 47 80 99 44 89 124 66
128 166 107 105 144 87 126 122 77 168 72 48 188 40 30 191 26 22
187 19 16 179 22 17 158 24 13 168 69 50 140 86 52 91 88 35 81 94 38
110 106 61 123 109 72 58 94 32 115 154 91 98 143 78 138 143 89
168 91 61 173 52 35 163 35 22 150 24 10 163 45 31 171 76 56
167 110 81 111 89 48 42 55 2 70 78 27 120 90 56 108 58 31 92 133 63
117 160 88 88 135 57 123 136 67 171 118 76 149 70 39 138 73 41
156 106 73 165 124 92 165 136 104 120 106 69 69 71 31 40 57 12
76 73 30 127 66 38 135 47 25 131 175 100 110 154 75 73 121 37
111 129 53 162 120 72 152 94 56 142 109 68 159 146 102 152 148 110
139 144 104 105 113 72 35 50 7 60 81 38 99 91 52 138 62 38 140 31 11
