P3
#
16 16
255
104 118 59 74 88 29 85 99 38 91 106 47 60 79 23 86 106 43 101 114 42
120 132 56 94 101 34 97 97 35 119 109 50 113 93 30 129 100 30
118 94 22 100 90 29 66 64 7 127 141 82 84 98 39 91 105 46 108 123 64
114 134 75 100 121 56 95 111 38 90 104 29 81 92 24 81 87 25 86 80 20
96 82 19 100 80 9 100 80 7 66 51 0 85 74 12 103 117 56 96 110 49
85 100 43 80 98 38 84 105 40 88 109 40 94 114 42 78 95 24 72 92 23
77 92 27 74 80 18 83 82 18 86 79 7 121 107 32 130 106 34 121 92 22
53 73 12 89 109 48 84 103 47 82 103 44 77 102 34 93 116 44 101 118 47
97 109 37 80 83 14 61 60 0 66 66 4 109 108 44 99 96 27 101 91 19
99 75 1 103 73 0 61 90 32 59 88 30 62 90 32 78 108 48 84 117 48
107 135 60 122 134 58 109 101 26 117 82 14 97 58 0 98 74 12
147 133 70 132 121 59 107 96 30 118 105 35 120 106 33 60 90 30
82 112 52 99 129 69 106 136 74 104 135 67 110 131 54 135 134 44
175 144 54 198 133 51 188 117 39 149 96 18 152 113 38 131 102 34
87 68 2 134 127 59 148 149 81 83 104 39 101 123 58 110 137 70
99 124 58 64 84 21 79 82 5 144 116 9 215 158 42 211 124 19 224 126 25
221 133 27 201 128 26 166 110 25 131 99 26 120 119 54 60 74 13
101 113 51 112 128 63 131 154 84 118 139 72 91 103 41 131 119 45
210 162 54 247 171 49 228 131 16 221 117 4 230 131 12 216 134 26
180 122 38 85 54 0 88 87 30 49 63 10 96 105 50 80 94 33 115 138 70
61 81 12 74 81 14 100 80 7 174 113 20 226 141 35 233 138 28
238 144 30 233 149 35 182 118 18 114 77 7 102 86 34 114 111 66
35 41 0 53 68 13 25 39 0 71 81 8 114 117 38 116 103 24 116 81 0
161 96 14 133 53 0 162 84 0 182 105 1 191 112 7 141 77 0 128 92 18
122 105 49 106 103 60 33 38 0 64 92 34 90 105 38 143 133 46
196 163 66 200 148 49 209 148 57 134 75 0 109 52 0 128 78 5 140 82 0
170 87 0 197 113 17 197 136 45 120 87 8 51 45 0 23 34 0 66 100 40
82 101 35 122 111 31 89 55 0 123 74 0 151 101 14 132 93 26 85 56 0
69 48 0 118 84 20 202 135 56 188 117 27 177 128 35 136 111 29 60 61 4
37 50 7 65 101 39 74 102 43 29 39 0 31 30 0 50 45 0 68 63 0 56 55 0
72 79 27 80 89 42 57 57 3 138 110 37 141 112 32 78 75 0 53 63 0
46 59 3 54 68 17 73 104 44 80 109 55 88 106 66 57 73 34 77 95 45
57 78 22 46 67 11 26 50 0 30 58 10 48 68 15 58 61 0 63 66 0 50 71 6
52 78 17 43 63 10 43 61 9 46 71 14 44 67 13 35 52 8 65 82 38 71 96 41
47 75 16 41 67 4 45 73 12 52 83 23 49 80 20 51 76 11 39 61 0 47 71 11
68 93 36 59 82 36 15 38 0 67 90 34 48 68 15 19 35 0 64 82 34 58 85 30
20 52 0 50 79 13 45 76 8 60 95 29 65 101 37 60 94 33 63 94 35
71 96 38 84 109 54 80 103 61 38 63 24
