P3
#
16 16
255
191 146 43 171 126 23 171 126 23 190 143 39 199 151 43 202 149 35
200 142 17 192 130 0 218 150 7 221 154 5 208 140 0 183 120 0
176 118 0 184 133 18 178 133 32 161 118 23 168 122 26 167 121 23
172 126 28 178 130 30 189 140 37 215 163 53 232 173 53 225 162 31
225 158 18 229 163 17 223 158 16 203 141 6 183 129 5 177 129 18
179 137 37 180 141 46 177 129 44 174 127 39 176 129 41 177 128 36
175 125 30 192 139 35 213 156 41 218 156 33 231 167 35 233 170 31
234 172 37 226 169 38 207 158 39 190 148 40 184 150 53 188 157 66
161 113 37 143 96 18 151 104 26 171 123 41 165 115 26 157 104 8
172 115 8 191 132 14 212 151 26 214 154 24 217 158 30 216 164 42
211 168 55 199 164 60 182 153 61 167 143 55 131 86 19 123 78 11
146 102 31 180 134 59 186 139 57 181 132 40 191 138 36 203 147 36
175 116 0 188 130 7 189 134 15 181 131 16 180 139 33 183 150 53
169 145 55 146 128 42 131 92 33 145 107 45 166 128 63 176 138 67
181 140 60 194 150 61 198 148 49 183 130 24 162 105 0 182 125 10
183 130 18 162 114 6 152 113 12 163 132 39 167 145 59 160 142 58
119 94 37 134 108 47 143 118 52 135 107 34 131 98 17 151 114 23
161 117 18 148 97 0 170 114 5 181 123 13 179 125 17 162 113 10
152 109 14 157 123 33 164 138 53 165 144 61 98 86 26 98 87 23
107 92 23 110 93 15 113 89 1 134 104 8 163 124 21 175 128 22
170 116 8 166 108 1 161 102 0 159 105 5 158 111 19 153 116 27
148 118 32 145 119 35 87 89 24 96 97 29 106 104 27 111 105 19
105 90 0 143 120 16 202 168 60 199 156 44 209 155 46 186 125 18
176 112 12 165 105 9 176 123 31 155 111 22 146 110 24 132 100 15
107 116 49 109 117 44 111 116 34 123 124 31 128 121 17 156 138 26
206 175 59 213 170 55 226 170 59 247 184 79 245 180 80 186 123 28
159 104 14 148 101 13 158 118 31 144 108 20 122 133 64 134 145 69
143 151 65 168 170 71 174 168 58 166 146 31 170 138 19 163 118 1
176 118 8 205 140 36 207 141 45 152 87 0 138 81 0 147 97 10
163 123 35 148 113 23 111 118 48 136 143 66 143 146 59 163 161 61
182 172 59 186 164 45 196 160 40 197 148 30 181 120 13 172 107 7
166 99 8 145 81 0 152 98 12 150 104 18 160 124 36 154 123 33 94 89 23
139 132 60 153 145 60 166 154 56 190 170 58 213 184 66 236 194 74
235 182 68 212 149 44 181 115 19 167 101 14 154 96 14 169 121 39
159 121 38 170 143 56 173 152 63 103 84 25 152 133 65 175 154 73
180 156 60 186 158 49 209 172 57 232 185 69 218 162 51 211 147 47
179 112 21 153 91 8 134 79 0 162 119 40 172 141 59 175 157 71
158 147 58 131 100 46 152 120 59 161 129 52 161 126 36 155 116 11
183 140 27 228 175 61 222 161 54 208 144 47 190 124 37 172 111 31
145 96 20 164 128 52 166 145 66 159 151 66 131 129 42 141 104 52
150 111 52 165 127 54 175 135 47 157 114 10 166 118 7 199 143 32
183 122 15 166 100 6 178 114 27 199 140 64 183 135 61 174 142 67
149 132 54 156 151 67 156 159 72
