P3
#
16 16
255
108 91 45 70 60 9 80 81 21 76 88 22 66 85 21 71 90 24 77 90 20
88 101 31 67 84 16 73 89 24 78 89 23 65 75 12 58 79 14 51 73 9
61 79 19 73 88 29 59 47 0 62 55 1 64 64 0 77 83 13 74 85 9 74 85 6
80 88 5 63 71 0 75 84 3 70 79 0 87 88 8 70 77 0 63 83 14 67 89 25
73 93 30 76 94 32 60 59 5 63 61 2 82 75 7 95 88 8 92 83 0 81 73 0
97 93 0 88 84 0 86 80 0 132 122 11 126 113 1 105 100 0 78 95 17
71 96 31 64 86 21 64 85 20 73 70 17 80 72 10 124 107 29 173 150 54
206 183 67 206 182 56 220 194 71 159 134 8 162 135 6 210 182 47
220 191 53 199 180 59 77 85 0 77 98 31 62 85 17 68 91 23 83 66 20
86 64 4 152 117 25 218 179 60 235 196 56 242 200 52 245 192 54
206 153 15 236 185 42 219 172 22 236 188 30 206 173 34 122 117 23
77 90 20 62 83 16 53 78 12 111 93 55 84 61 7 113 81 0 170 133 19
177 140 0 226 179 29 197 132 0 188 117 0 203 141 0 218 161 12
242 187 35 221 181 49 104 95 2 70 82 10 63 84 17 60 85 20 57 51 19
60 53 11 63 53 0 84 69 0 94 74 0 202 165 32 220 158 11 207 135 0
192 126 0 163 104 0 200 145 26 165 128 22 103 101 18 70 87 17
59 81 17 52 76 14 48 49 18 45 47 10 68 70 21 67 63 0 80 62 0
195 158 25 246 190 35 251 186 32 200 136 4 175 115 0 166 111 0
120 83 0 71 69 0 60 76 5 44 62 0 38 59 0 46 53 19 35 43 2 62 66 15
80 71 0 194 160 34 243 194 40 243 191 27 243 189 31 197 137 4
211 150 23 225 168 29 217 178 49 127 117 19 72 80 3 50 61 1 48 63 8
36 48 12 47 58 18 50 58 9 81 70 0 221 179 41 238 184 14 240 190 15
227 178 15 211 153 17 182 125 0 232 180 35 220 183 50 108 98 0
64 70 0 56 67 7 51 65 12 30 44 9 41 53 15 46 55 12 69 60 0 221 179 35
237 180 2 238 186 2 246 194 23 218 165 27 194 144 19 218 180 47
178 153 34 94 90 3 52 63 0 46 63 8 53 73 20 45 59 24 50 62 26
42 53 13 66 63 0 215 183 62 239 194 43 235 192 36 232 192 45
160 125 5 113 85 0 126 104 0 104 91 0 71 71 0 49 58 1 42 56 3
50 68 18 31 42 8 30 41 7 47 59 23 55 58 11 100 90 19 114 93 10
127 106 17 123 107 19 69 66 0 51 53 0 60 59 0 57 57 0 54 55 0 58 63 9
66 74 25 52 64 18 19 28 0 13 24 0 25 36 6 31 41 7 45 47 7 35 33 0
31 28 0 53 53 0 57 68 12 66 80 29 74 82 41 44 51 10 50 56 10 61 67 19
48 56 9 68 77 32 33 39 13 11 19 0 0 8 0 19 29 5 37 47 12 30 41 0
48 57 14 64 73 30 48 59 17 61 71 34 48 57 30 20 29 0 34 44 7 50 63 19
38 50 4 45 57 11 30 35 12 18 26 3 40 46 32 33 45 25 26 40 7 23 39 0
33 49 10 42 57 18 34 46 10 14 23 0 9 17 0 20 30 6 41 55 22 46 63 21
36 49 5 42 55 9
