P3
#
16 16
255
86 111 53 104 127 71 39 52 6 81 97 52 63 82 36 34 52 10 35 41 15
26 28 7 69 71 50 29 28 10 32 24 13 84 74 65 41 28 22 42 25 18
50 25 18 73 44 36 35 53 5 83 99 54 42 53 13 59 69 32 84 101 57
51 67 28 44 53 24 27 31 8 41 43 22 34 31 14 42 34 23 47 34 26
55 42 34 50 36 27 62 42 35 69 46 38 64 64 36 32 32 6 34 33 12 30 32 8
88 95 61 62 72 35 58 69 37 58 64 38 48 50 29 52 46 32 51 41 31
61 48 39 64 52 40 64 52 40 79 66 58 77 64 58 85 83 58 47 47 23
64 68 45 60 66 40 91 98 64 74 81 40 40 46 0 69 72 29 63 60 29
73 67 45 65 55 43 71 58 49 82 70 56 74 65 50 92 82 70 79 69 59
76 84 43 73 86 43 49 67 25 97 115 73 60 75 36 62 68 20 102 98 27
107 99 26 108 101 49 102 93 60 58 50 29 76 66 54 87 75 63 103 91 77
87 76 56 86 76 51 70 88 36 58 81 25 90 120 60 87 116 58 38 57 11
55 64 7 146 141 49 225 211 114 186 168 92 100 83 31 75 63 37 86 76 64
101 84 76 113 95 83 104 89 68 79 65 38 51 81 19 44 76 9 83 120 43
66 99 28 67 95 37 68 83 16 146 147 43 215 200 83 215 182 79 119 85 11
100 81 49 101 84 76 109 84 79 122 95 88 109 90 75 66 49 29 49 86 19
46 83 13 72 113 34 49 87 10 44 74 14 61 77 6 97 90 0 173 147 24
219 173 51 185 141 46 110 82 43 105 85 74 112 85 78 127 100 91
79 60 46 84 68 53 45 83 22 59 98 33 68 110 36 57 97 26 33 64 5
52 63 0 135 111 15 178 131 13 234 177 44 208 156 46 136 104 55
104 81 65 116 94 80 124 106 92 84 72 58 73 65 52 46 83 29 66 104 45
99 140 74 25 61 0 38 67 13 59 69 8 113 93 6 220 179 71 235 185 60
205 158 52 133 101 52 112 91 72 117 100 84 113 100 84 83 76 60
74 68 52 49 85 41 81 114 67 68 98 46 47 74 21 41 64 18 58 73 18
67 72 0 153 144 49 213 187 90 130 99 19 65 43 2 101 84 68 120 106 97
93 80 71 89 81 62 85 77 54 53 84 43 43 74 30 25 55 3 27 56 2 40 68 19
37 62 5 64 86 13 87 98 20 98 89 20 68 48 0 75 58 28 105 89 73
106 96 86 82 75 59 82 77 48 123 119 84 58 83 41 51 79 31 51 87 26
27 68 2 70 112 46 35 74 7 47 73 10 58 71 17 71 72 30 79 68 38
99 81 61 111 94 78 96 88 69 90 89 61 87 92 51 94 102 53 68 89 46
62 88 40 97 133 72 109 152 83 90 136 64 75 114 49 81 104 52 90 100 63
100 100 76 75 66 49 111 93 79 113 96 80 96 88 67 86 87 55 96 108 58
93 111 53 33 56 10 10 36 0 49 79 25 84 117 60 97 133 72 98 127 73
99 109 72 102 101 73 98 91 73 83 71 57 109 91 79 110 92 78 114 106 87
84 88 55 96 113 61 89 113 53 40 66 18 46 72 24 19 47 0 37 65 14
72 102 48 57 79 32 63 68 36 81 75 53 89 80 65 92 78 67 116 98 88
102 86 73 89 81 62 85 89 56 89 107 57 88 114 53
