P3
#
16 16
255
138 170 129 120 152 111 91 127 83 70 106 62 49 86 42 29 66 22
37 75 28 70 108 59 70 106 58 62 99 47 73 105 55 75 105 51 70 99 45
72 99 44 64 87 31 77 100 44 77 104 63 79 107 66 87 116 72 98 127 83
95 124 78 70 99 53 53 81 33 56 84 36 62 90 41 66 94 43 73 101 50
59 86 33 59 86 33 79 104 49 73 98 43 72 97 42 74 91 49 75 92 50
75 92 48 74 90 45 66 79 33 56 68 20 55 65 15 61 71 21 65 77 27
66 80 29 79 96 44 67 85 35 70 93 41 78 102 52 66 93 42 61 87 39
93 101 60 89 96 54 93 96 51 98 97 51 96 92 44 94 86 37 87 75 23
72 60 8 64 54 1 49 44 0 73 73 21 80 87 36 92 106 55 76 96 47 64 88 40
68 96 48 93 94 54 83 80 37 98 90 44 129 112 66 151 128 78 164 134 80
153 118 62 122 87 29 85 53 0 66 40 0 86 67 11 77 67 14 90 92 42
75 87 37 74 94 45 77 103 55 88 84 46 86 79 37 116 99 55 142 115 68
143 106 54 158 111 55 182 128 68 181 126 62 160 106 42 152 104 40
150 114 52 86 62 2 82 73 16 74 77 22 73 87 34 56 74 22 86 84 46
98 90 51 149 130 88 176 144 97 151 104 50 145 85 25 170 101 34
182 109 40 202 130 58 207 140 69 213 159 87 130 91 22 115 92 25
92 84 21 77 81 20 41 51 0 101 102 70 87 81 47 120 102 62 155 122 77
147 96 43 144 80 18 162 85 15 161 79 5 173 90 12 185 108 28
223 158 78 174 122 46 166 132 58 123 103 30 96 89 19 61 61 0 93 99 73
77 78 47 108 95 60 120 91 49 131 84 32 151 90 27 152 75 5 165 82 4
176 90 7 220 138 52 201 129 44 217 157 71 176 131 48 145 114 32
130 111 34 102 89 11 79 88 69 72 76 53 91 85 53 104 80 42 111 71 20
135 79 20 161 91 22 184 105 30 205 123 41 218 138 53 179 107 22
199 137 52 185 137 53 173 136 55 161 134 55 128 107 28 66 77 63
70 77 59 79 75 50 92 76 42 100 67 24 124 79 24 180 122 59 208 141 71
218 149 72 203 135 54 150 87 7 161 106 24 159 113 35 152 114 39
146 116 43 123 97 23 60 68 57 73 77 63 73 68 49 91 77 50 96 72 34
115 81 35 180 135 80 198 148 87 184 131 63 169 115 45 128 78 7
124 79 11 112 73 6 95 64 0 102 73 13 99 73 12 65 66 60 76 73 64
71 63 50 86 74 52 89 70 40 97 73 37 138 109 65 139 107 58 124 88 36
117 82 28 103 70 17 98 66 15 86 60 11 68 46 0 81 59 18 88 69 27
81 73 70 81 72 65 76 66 56 81 69 53 79 64 41 81 66 37 92 76 42
81 63 25 86 67 27 80 62 22 84 66 30 77 61 27 83 68 37 72 58 31
78 63 40 74 62 40 87 69 67 75 57 53 78 64 55 72 58 45 70 57 40
80 69 49 73 66 40 62 57 28 74 68 42 68 64 39 78 73 53 63 60 43
78 74 62 72 68 59 73 68 64 63 58 55 75 54 53 57 38 34 71 52 46
58 44 33 60 48 34 83 76 58 72 70 49 69 71 49 68 70 49 67 70 51
83 87 73 61 64 55 75 75 73 72 72 74 77 76 81 70 69 75
