P3
#
16 16
255
62 62 26 64 65 25 68 67 23 97 97 47 107 107 55 93 93 43 96 95 51
94 91 58 96 89 70 108 100 89 107 97 95 97 87 85 94 84 75 83 74 59
66 58 37 59 52 26 65 61 26 74 70 32 72 68 21 91 85 33 108 103 47
116 109 54 123 115 66 108 99 58 101 90 62 104 91 72 104 92 80
101 91 79 100 91 76 99 93 71 93 88 59 81 78 47 66 53 19 87 73 34
88 74 27 100 85 28 120 102 38 132 113 47 127 106 43 90 69 12
113 90 46 100 80 43 104 87 57 107 96 68 100 94 62 108 105 70
112 114 75 94 99 58 63 44 11 88 69 29 98 76 26 123 97 36 150 120 50
165 132 55 162 124 49 126 90 16 116 81 17 100 69 12 112 89 39
119 102 56 102 96 48 108 110 61 118 128 76 101 114 61 72 48 14
84 59 19 98 66 15 137 99 34 169 126 48 180 130 43 184 129 38
164 109 18 132 80 0 122 76 0 140 106 34 144 124 55 116 108 43
110 115 51 117 132 67 101 122 57 55 30 0 65 37 0 91 55 3 155 112 44
202 147 65 205 142 47 201 133 32 184 115 11 174 106 5 171 113 14
185 140 49 181 150 67 143 130 52 116 118 45 108 121 51 94 115 46
39 20 0 48 24 0 76 43 0 157 112 45 225 167 83 245 175 77 245 167 59
225 144 29 204 124 9 208 138 27 214 157 54 205 164 72 173 151 68
135 129 53 109 116 46 99 114 47 71 57 28 60 42 6 60 29 0 117 73 10
185 127 45 221 148 53 232 147 38 209 122 6 199 113 0 210 130 15
215 148 43 212 162 67 195 163 80 160 143 71 130 126 63 125 129 70
80 76 47 59 51 15 71 50 3 82 46 0 158 105 29 196 127 36 207 124 20
205 118 5 194 105 0 202 118 4 205 132 29 201 142 50 190 149 70
175 147 82 149 133 81 128 118 69 67 72 42 79 79 43 95 82 38 73 44 0
118 71 1 165 103 20 194 120 23 205 122 18 209 124 15 202 121 13
188 116 18 176 116 30 173 126 56 166 131 75 142 118 74 117 97 60
48 59 25 55 61 23 90 83 41 97 77 26 124 88 26 135 85 12 158 96 11
198 128 33 212 138 39 205 133 35 184 119 29 162 105 26 152 104 42
146 108 61 132 99 66 112 85 58 59 70 30 48 55 14 77 74 31 112 98 51
141 114 59 136 98 33 139 89 16 181 125 42 199 139 51 207 147 59
195 140 58 164 114 43 136 93 38 128 90 51 124 90 63 118 87 67
100 106 62 90 93 48 88 85 40 92 81 35 114 94 44 137 110 55 136 101 37
156 118 47 183 142 63 192 151 71 182 143 68 150 112 47 122 89 38
117 87 51 118 90 68 116 88 74 118 118 68 99 98 50 85 81 34 90 82 36
94 80 35 109 89 39 105 82 28 141 117 53 165 141 71 165 141 67
147 123 53 119 95 33 107 85 36 115 92 58 114 92 71 103 81 67
112 107 52 86 80 28 77 69 22 100 88 46 93 80 38 85 72 28 70 56 7
115 103 45 134 123 59 138 128 59 127 116 50 103 93 32 98 86 38
107 94 59 105 90 69 91 75 60 113 104 47 106 97 42 87 76 30 84 72 30
76 64 24 94 82 42 68 60 13 83 76 22 104 100 37 125 122 55 130 126 62
111 106 48 97 91 43 100 92 56 97 86 64 86 74 58
