P3
#
16 16
255
43 61 19 65 84 39 62 84 35 39 59 10 43 54 12 40 52 6 81 96 41
71 89 27 56 69 13 52 72 9 59 89 15 95 129 53 54 82 21 85 110 52
82 104 40 27 49 0 46 68 22 70 92 45 57 79 30 49 69 18 33 47 0 43 54 0
90 97 29 85 89 12 85 86 6 80 87 7 73 98 17 96 126 52 34 60 0 60 86 23
108 134 69 67 94 25 38 62 10 66 90 38 53 77 25 37 61 3 38 56 0
53 61 0 106 100 6 145 127 15 150 122 0 202 185 67 74 84 0 70 94 20
33 58 0 68 97 30 111 144 73 96 134 59 57 85 27 50 78 20 58 85 30
62 83 18 86 98 16 121 117 17 140 118 0 224 188 50 240 195 40
226 195 53 91 95 0 62 84 12 60 83 15 52 81 14 97 130 61 107 145 72
82 107 49 53 78 20 50 75 18 62 75 3 133 125 16 194 167 34 207 167 20
245 197 39 233 182 13 233 199 50 105 107 10 60 83 15 63 88 23
52 78 15 64 90 27 103 129 66 82 106 46 57 81 21 76 100 40 80 87 7
185 161 39 219 174 31 208 153 9 244 184 34 253 193 34 227 186 44
120 117 22 62 79 9 59 77 17 36 55 0 50 68 16 83 101 51 49 69 10
58 80 18 67 92 26 102 108 20 219 181 58 220 160 27 183 118 2
167 100 0 229 158 30 236 184 62 105 95 0 81 89 14 55 63 3 28 36 0
21 33 0 59 73 40 44 64 5 48 68 7 59 81 16 115 115 29 216 172 49
201 133 6 205 138 34 140 70 0 140 67 0 208 147 30 161 130 22
120 109 17 92 87 21 53 55 8 29 36 3 49 59 32 56 81 23 49 70 11
41 56 0 119 114 33 223 178 59 216 153 24 206 141 37 143 78 0
174 107 0 227 162 36 233 175 39 213 169 48 121 102 23 62 59 6 43 48 8
27 37 3 67 95 34 58 84 23 58 73 16 90 86 12 167 134 21 220 166 42
217 154 48 166 98 0 162 90 0 220 148 28 238 171 31 220 170 45
152 133 54 64 62 11 42 46 9 24 33 2 56 87 19 73 102 36 77 98 39
85 92 22 101 86 0 194 157 42 215 157 49 170 97 0 162 74 0 194 112 12
218 163 47 181 152 48 85 80 14 43 50 8 15 24 0 22 32 8 71 98 31
71 97 32 89 110 53 71 82 14 106 97 2 194 162 51 201 139 28 183 98 0
214 114 16 206 119 24 160 115 14 83 67 0 67 73 13 20 37 0 22 36 3
23 33 6 79 95 33 58 73 16 79 93 42 62 68 4 101 91 0 189 151 40
216 139 25 233 133 19 224 117 1 216 130 21 177 136 44 81 74 0 49 64 5
25 49 0 31 49 1 34 50 3 80 88 37 72 82 30 83 95 47 68 74 12 110 99 9
205 164 56 208 127 9 242 139 18 241 141 21 220 143 37 160 129 47
79 81 16 44 62 10 42 66 18 42 58 9 48 62 9 70 78 39 64 75 32 70 84 35
64 73 10 97 89 6 179 142 36 221 146 19 242 151 21 230 148 36
172 117 24 106 96 27 58 72 19 36 54 12 33 51 13 34 45 3 51 58 14
62 69 36 43 54 14 58 72 23 64 73 8 79 72 0 156 121 19 199 126 0
246 159 26 195 123 13 127 83 0 101 101 39 47 69 22 38 55 19 34 48 13
43 51 14 40 45 5
