P3
#
16 16
255
23 31 10 15 29 4 22 47 17 21 55 20 19 59 22 34 72 31 19 53 3 39 71 22
13 50 7 16 62 23 50 112 75 75 125 74 90 96 24 90 72 0 113 85 12
67 34 0 52 64 42 15 33 7 6 33 2 10 44 9 44 82 45 61 98 57 45 74 26
23 51 0 49 76 31 49 88 44 72 131 87 85 133 81 128 138 67 145 131 56
147 124 57 78 52 0 25 48 20 32 58 29 25 56 24 36 70 37 52 86 53
67 97 59 68 92 42 54 71 17 68 81 27 53 76 22 75 128 74 61 111 52
67 82 17 113 107 45 90 78 26 64 50 3 10 35 6 19 43 11 15 37 0 17 40 0
32 53 14 82 98 53 125 129 70 148 144 80 143 138 74 105 114 49
63 102 35 52 93 27 52 68 6 49 50 0 50 43 0 73 64 9 22 36 13 23 34 0
45 49 0 35 34 0 24 23 0 74 62 2 190 158 83 201 164 83 152 126 52
124 118 44 94 111 33 61 87 13 35 51 0 51 57 0 91 84 4 160 146 58
32 37 15 28 28 0 136 123 55 168 147 66 120 98 23 115 80 0 219 163 66
190 131 27 149 105 8 135 106 12 159 144 49 159 155 66 83 83 9 49 45 0
84 69 0 166 144 42 35 34 13 35 27 0 196 171 81 238 200 91 194 151 49
190 136 28 248 180 55 223 151 17 240 178 45 231 173 47 218 163 47
177 128 25 166 130 34 143 112 19 164 132 33 181 149 46 38 36 15
34 26 0 175 148 57 243 206 92 222 176 64 170 114 0 220 148 14
229 149 8 218 141 0 251 179 45 255 188 75 196 141 40 158 121 30
103 75 0 114 85 5 126 97 19 35 34 16 49 45 8 106 94 22 224 204 107
234 206 99 205 162 47 205 137 14 233 151 25 236 152 27 227 154 39
216 170 76 145 122 44 64 62 1 34 37 0 23 14 0 33 17 0 20 29 8
66 72 38 85 83 24 107 94 15 140 111 19 205 161 62 195 138 35
226 155 49 222 137 28 158 80 0 119 72 0 85 64 0 49 50 0 30 36 0
28 21 0 31 16 0 19 48 18 76 97 58 89 92 39 96 76 13 148 101 33
167 113 41 174 132 60 176 128 46 183 104 11 204 119 28 172 103 28
111 61 0 71 39 0 92 68 0 103 76 9 83 55 0 23 60 27 53 83 45 65 81 34
86 80 30 135 102 51 107 70 18 80 67 15 162 143 85 207 157 86
215 153 78 205 147 83 161 110 44 169 131 50 167 130 41 159 115 26
168 121 29 42 75 46 42 76 43 61 93 54 75 100 58 63 71 30 92 100 61
98 122 86 109 131 92 96 99 54 106 98 49 112 99 47 120 101 42
143 123 50 135 101 12 175 112 15 212 138 33 46 79 48 47 82 50
30 70 35 27 65 26 56 88 49 88 118 80 73 107 72 48 80 43 46 67 28
77 86 41 89 86 33 98 83 18 101 75 0 140 96 1 182 110 8 182 99 0
66 107 65 54 95 55 54 92 55 79 115 77 80 113 70 58 86 38 50 68 20
57 65 14 64 63 9 79 64 5 97 70 0 160 119 31 207 149 41 209 139 27
207 135 33 170 96 0 33 76 30 61 102 58 56 94 57 45 81 43 73 106 59
79 106 53 82 91 36 90 88 29 115 100 41 130 105 38 136 98 17
176 120 23 221 147 26 207 127 4 171 98 0 147 78 0
