P3
#
16 16
255
68 37 0 72 48 12 22 14 0 26 31 11 28 48 21 67 91 59 6 21 0 21 32 0
38 47 0 134 146 82 56 75 30 11 35 3 16 35 7 12 27 4 12 25 7 9 20 4
115 73 13 133 101 52 38 27 0 54 59 36 31 47 20 74 92 54 43 53 1
94 97 26 144 143 50 147 151 64 87 101 48 25 45 10 34 50 23 23 38 15
22 35 15 16 27 10 183 120 27 164 116 40 45 31 0 36 41 11 28 41 11
60 70 20 64 63 0 191 179 57 230 210 59 203 191 57 132 140 67 31 47 10
25 38 8 56 68 44 25 39 16 19 33 10 183 110 16 169 114 34 58 36 0
53 55 16 43 55 17 46 51 0 181 159 58 242 206 70 249 210 44 202 172 22
93 85 0 55 61 15 37 47 13 20 35 6 20 36 7 37 54 22 134 66 3 141 86 29
82 54 6 65 61 14 76 94 44 73 75 12 203 153 68 207 135 25 239 176 37
206 157 26 153 122 32 78 66 8 36 43 2 20 40 5 35 57 18 33 59 14
148 72 14 130 69 12 108 78 24 63 60 5 71 89 29 68 67 0 147 90 13
164 81 0 188 113 0 233 171 50 213 164 61 127 102 18 70 78 21 56 82 37
51 79 31 55 85 35 196 93 18 177 99 25 100 76 6 74 79 12 82 97 28
103 100 29 171 123 51 137 66 0 153 79 0 236 167 50 241 178 47
204 169 49 104 113 34 101 132 75 90 120 70 64 96 47 212 117 37
165 96 19 97 78 10 55 60 0 57 60 0 173 157 79 184 134 63 145 76 1
163 90 0 237 165 47 253 186 37 230 187 49 106 108 24 71 96 39
43 67 15 21 48 0 149 99 28 84 46 0 60 50 0 55 53 0 81 66 0 209 174 84
203 139 67 152 74 0 159 87 0 252 182 58 253 184 31 222 170 35 86 69 0
63 69 23 61 71 19 46 61 4 112 90 30 45 30 0 41 39 0 51 46 0 111 83 0
212 160 58 194 118 40 157 74 0 140 67 0 228 159 30 255 192 36
205 153 17 92 72 1 60 57 12 60 62 0 132 135 64 74 66 17 46 42 0
51 53 13 52 47 0 174 138 26 208 149 29 201 121 36 161 74 0 194 115 10
218 148 16 215 151 0 196 154 10 78 71 0 53 58 0 80 75 0 183 172 80
82 72 21 49 41 0 61 56 14 90 72 6 193 148 33 236 171 43 218 136 36
194 110 14 182 109 0 222 158 26 248 189 35 225 189 51 94 95 15
67 77 16 77 71 0 185 169 74 128 100 37 72 43 0 95 64 20 104 64 3
190 132 24 233 163 33 237 157 36 218 142 22 193 131 10 206 153 25
237 188 47 214 186 63 82 88 16 77 92 37 80 75 9 139 125 52 113 93 32
64 43 0 68 45 1 100 69 14 149 106 12 231 178 62 208 146 23 201 145 24
120 82 0 184 156 47 177 152 36 140 128 28 73 85 21 79 95 50 83 81 33
120 110 61 57 69 23 27 40 0 31 44 1 59 69 17 79 81 6 139 128 38
171 142 40 168 143 43 73 70 0 103 113 40 111 125 48 94 111 41
87 103 54 79 91 55 81 81 53 85 81 56 36 64 24 39 70 29 37 68 26
49 79 29 51 76 11 102 113 35 96 83 0 86 75 0 67 82 17 72 101 45
63 97 37 73 103 49 87 106 61 74 85 53 59 60 42 53 51 39
