P3
#
16 16
255
93 121 36 111 131 46 108 112 28 153 147 61 155 141 53 163 154 59
167 168 66 150 157 51 163 172 63 164 170 64 168 166 65 166 163 66
160 165 73 153 170 78 142 177 83 137 181 86 94 116 34 117 130 48
130 125 44 134 117 35 152 128 42 167 146 53 190 178 78 190 183 77
168 161 54 173 162 57 180 162 62 185 167 69 182 172 77 174 175 81
160 177 81 151 178 81 107 113 39 131 129 54 161 139 64 140 104 28
180 135 54 196 152 65 208 169 74 212 177 75 207 170 66 204 163 58
202 152 53 198 148 49 195 151 54 189 157 58 177 164 62 170 165 61
143 140 69 147 135 63 155 122 51 131 83 11 179 120 42 208 146 61
201 145 52 225 167 68 239 177 74 234 167 63 226 151 49 220 145 44
216 147 44 210 153 48 199 161 52 194 164 52 117 113 40 125 111 38
134 97 27 144 90 18 172 105 27 195 123 39 167 97 2 204 130 31
221 144 40 223 138 31 226 131 25 227 132 26 227 139 31 224 148 38
214 157 41 208 162 42 75 78 0 98 89 10 114 82 7 145 93 17 148 81 2
162 88 1 151 77 0 192 117 15 219 138 31 218 130 22 217 119 10
213 115 6 214 122 11 216 139 23 220 161 41 223 175 51 92 106 18
106 110 23 111 90 7 122 82 0 124 68 0 138 74 0 176 112 14 208 141 37
222 151 43 223 145 36 222 136 27 217 129 19 211 131 20 211 146 30
213 169 48 218 184 60 92 112 15 117 127 31 143 130 38 157 123 33
173 123 34 162 106 13 191 136 36 170 113 8 169 108 1 186 119 12
206 132 27 213 139 34 206 139 34 191 139 29 175 144 28 169 148 29
98 116 14 148 156 55 192 177 82 171 140 47 181 136 43 190 140 45
192 144 46 162 114 12 147 98 0 160 106 6 186 123 26 200 137 42
188 135 39 167 129 30 159 140 37 168 159 54 98 109 5 171 172 70
242 222 125 229 193 99 216 169 77 193 144 51 183 139 44 158 115 20
129 85 0 133 84 0 145 89 2 155 99 16 156 108 26 154 119 35 157 141 53
167 162 70 147 142 42 187 173 74 228 193 101 204 157 69 191 137 49
170 116 28 167 120 32 151 107 20 132 87 2 135 87 5 145 87 13
155 96 26 166 113 45 172 132 63 174 152 79 177 163 88 143 127 31
170 145 52 206 165 77 196 144 60 191 135 52 164 109 26 149 104 21
129 88 6 122 81 1 133 85 11 150 91 25 161 99 38 167 108 50 165 116 58
153 121 60 145 121 57 73 54 0 110 83 0 164 122 38 170 119 38
173 118 38 149 101 19 150 112 31 147 112 31 123 87 9 134 90 17
149 91 27 154 89 31 147 84 30 138 81 26 126 84 26 122 88 27
188 171 83 192 168 82 199 161 80 171 125 47 160 114 36 140 99 19
141 113 30 138 113 31 148 121 42 145 109 35 147 94 28 142 80 21
131 66 10 122 61 6 127 78 19 141 100 38 170 163 75 169 154 69
171 144 63 146 113 34 151 118 37 146 120 36 151 136 51 141 131 44
150 135 52 135 110 30 129 85 14 129 71 7 119 57 0 111 51 0 124 75 9
151 108 40 140 138 51 152 144 59 162 141 60 126 99 20 117 92 10
117 99 15 147 140 52 159 155 66 144 136 51 128 107 26 125 85 13
134 81 13 130 69 6 117 57 0 124 75 8 151 106 38
