P3
#
16 16
255
89 75 62 93 80 64 100 85 64 111 96 73 94 76 56 99 80 63 92 70 57
102 82 71 98 82 67 91 78 62 73 59 48 64 58 36 63 74 32 41 56 13
40 44 21 35 36 22 95 81 68 93 80 64 95 82 63 98 86 64 83 68 47
77 62 43 90 72 58 98 75 61 103 72 51 112 78 51 83 56 29 84 71 37
83 92 47 35 52 10 35 40 17 43 44 28 77 65 53 81 69 55 91 79 63
83 75 56 78 72 50 76 69 50 83 74 59 109 81 60 141 78 43 173 101 51
127 71 14 99 70 10 71 81 28 30 53 11 19 27 3 52 53 35 86 74 60
82 70 56 89 75 62 89 78 60 80 70 43 73 62 30 82 63 31 106 62 23
171 88 34 212 117 49 215 136 57 162 116 39 74 79 23 41 68 27 37 52 23
23 31 7 85 72 53 95 79 63 80 61 47 88 67 46 99 77 36 80 51 0
124 79 12 170 104 30 211 119 44 240 138 56 236 135 45 181 113 32
76 70 18 30 56 17 29 53 17 34 58 22 101 84 66 97 80 64 96 77 63
98 74 48 121 95 36 206 168 87 206 145 52 220 143 51 184 99 19
181 91 13 210 116 28 173 108 28 94 88 36 47 74 33 31 59 18 42 73 29
105 83 70 96 77 63 97 83 70 99 81 43 152 126 41 229 185 76 224 156 47
199 125 30 136 75 10 105 49 0 149 90 20 76 37 0 38 43 0 36 64 16
47 77 27 66 96 46 106 84 71 97 79 65 96 84 72 96 81 42 126 99 8
227 180 64 235 160 45 210 130 33 133 72 9 133 83 32 174 130 65
123 100 33 70 81 25 57 87 37 34 64 12 63 96 43 105 90 69 99 86 69
94 84 74 106 89 59 129 100 24 236 184 82 232 150 40 197 105 4
166 82 10 137 67 5 181 133 59 154 134 63 67 80 24 59 91 41 42 74 25
79 112 65 100 89 67 99 88 70 90 78 66 90 73 47 108 80 17 180 133 43
215 132 26 212 115 10 219 123 36 190 108 32 185 133 57 65 46 0
46 61 6 64 96 49 64 95 51 55 86 44 108 96 80 97 84 68 97 81 68
91 73 49 126 105 58 149 109 37 213 135 34 230 133 20 246 148 41
207 122 29 176 122 48 81 61 2 62 79 27 37 68 24 65 91 52 53 77 41
100 86 73 110 94 81 101 83 69 93 77 54 93 77 41 170 136 75 202 132 37
229 138 21 227 133 7 216 138 27 173 129 56 79 67 15 58 75 30 48 76 35
50 67 35 51 61 34 100 81 66 101 83 69 106 90 77 91 75 59 90 75 46
124 92 41 201 139 54 239 162 44 250 170 23 227 167 34 90 71 0
65 73 26 58 84 39 53 78 39 57 61 36 70 65 46 102 83 68 98 80 66
92 78 67 97 83 70 84 72 48 89 66 25 150 105 40 167 107 9 245 176 39
224 171 43 80 70 0 55 70 29 78 105 62 87 109 71 74 73 52 68 59 42
90 72 60 86 69 59 92 75 68 116 103 94 66 61 41 81 74 46 83 60 28
114 73 17 230 167 70 211 157 59 108 92 33 48 58 21 94 116 77
93 113 78 68 72 47 70 68 47 106 89 79 83 66 58 82 65 58 104 94 84
79 78 60 67 69 47 79 67 51 99 69 33 151 92 14 144 89 6 65 45 0
59 65 29 81 101 64 101 120 88 77 83 57 67 66 45
