P3
#
16 16
255
32 19 0 25 16 0 27 22 0 34 28 0 45 32 0 212 183 57 232 183 44
155 101 0 142 99 0 231 202 72 88 75 0 78 77 29 85 91 55 31 48 14
13 39 0 60 93 50 82 56 0 133 111 35 124 112 28 93 81 0 128 108 0
244 213 73 237 185 49 250 195 53 211 166 15 232 200 65 140 123 31
63 59 0 77 84 43 19 36 2 35 63 22 66 102 54 224 175 34 238 197 47
244 215 53 248 222 51 245 215 41 250 212 49 224 172 37 171 116 0
250 203 53 239 203 57 198 175 59 37 27 0 28 31 0 15 32 0 56 88 41
59 98 43 255 210 31 255 213 26 252 216 16 255 224 20 255 227 32
255 215 43 211 155 18 138 78 0 183 125 0 235 184 39 252 217 87
157 139 41 50 48 0 47 63 27 73 101 53 48 83 27 253 222 35 255 231 39
255 236 37 248 220 25 250 213 34 253 206 40 228 168 18 197 128 0
183 106 0 221 152 15 191 138 8 236 204 101 113 106 51 50 60 25
36 58 12 48 76 25 198 180 34 246 226 77 250 225 70 235 203 42
235 193 29 225 173 9 242 180 19 242 172 14 237 160 6 247 176 32
158 105 0 178 146 45 60 53 0 29 39 4 31 49 7 72 98 50 45 38 0 61 46 0
91 63 0 128 89 0 229 183 36 206 154 0 246 186 12 250 190 8 250 191 3
243 191 20 181 144 12 84 64 0 44 43 0 28 41 11 37 60 18 39 67 19
32 29 20 44 32 10 63 29 0 169 123 35 240 190 43 241 188 10 252 195 18
247 191 8 250 198 1 255 213 30 228 193 49 101 79 0 45 37 0 39 46 0
40 57 12 6 32 0 34 31 12 47 33 0 104 66 0 204 155 36 250 202 32
249 200 12 248 196 25 223 169 1 238 186 6 255 210 29 251 205 32
237 198 41 214 186 53 148 136 34 29 38 0 16 34 0 48 40 1 103 83 22
177 134 29 214 162 16 251 203 19 250 203 11 230 182 10 200 152 0
219 173 0 251 206 19 255 209 19 246 200 16 254 212 42 247 219 84
87 83 9 33 41 0 61 44 0 178 151 60 223 175 39 225 171 1 240 191 1
255 214 20 255 215 32 212 173 0 251 217 22 255 226 27 255 216 20
248 201 10 250 200 15 249 209 59 165 145 59 48 39 0 69 50 0
198 169 67 231 186 35 231 178 0 225 175 0 247 202 13 252 210 28
255 216 33 255 229 39 255 221 27 234 191 0 246 197 6 255 204 14
240 196 37 184 161 65 38 27 0 58 39 0 181 156 63 231 191 44
229 183 10 230 183 9 255 210 36 248 200 32 241 192 27 226 175 8
219 169 0 220 168 0 253 202 13 250 199 10 239 201 40 186 171 68
34 30 0 66 49 3 114 92 17 210 176 43 220 177 20 212 167 14 197 147 0
199 148 0 197 144 0 205 149 0 227 170 5 236 179 4 248 196 14
250 204 22 238 207 54 151 146 46 65 73 0 54 43 25 61 45 0 125 97 0
224 185 54 186 139 23 166 117 0 199 153 8 220 171 16 220 167 9
237 182 17 243 185 15 240 188 16 239 201 32 211 192 53 95 100 16
71 90 34 40 30 28 49 34 1 110 84 0 223 186 69 183 137 39 149 101 0
188 142 5 225 181 24 215 162 4 224 169 4 232 174 5 219 166 0
195 160 0 115 101 0 72 83 7 53 77 29
