P3
#
16 16
255
78 117 34 71 109 26 100 134 57 80 115 33 105 145 57 101 136 54
69 91 27 69 76 32 78 73 44 72 68 43 68 79 45 106 128 82 110 134 76
106 126 65 63 73 23 85 91 45 93 131 48 76 113 33 99 131 55 95 130 50
98 136 51 68 101 22 90 110 49 49 52 9 71 55 30 72 51 30 153 146 117
139 144 104 88 105 50 91 111 52 59 67 18 66 69 26 131 164 85
96 129 50 82 114 39 78 110 35 103 136 57 103 131 57 130 147 92
62 57 19 78 41 22 119 67 54 167 120 102 170 141 111 96 103 49
95 113 55 83 89 45 82 79 44 129 157 83 84 114 40 58 90 17 66 96 24
91 114 42 99 108 45 154 135 92 98 57 29 142 80 67 126 53 47 136 61 55
153 92 73 105 73 32 120 106 59 133 123 87 56 50 16 103 124 59
79 104 38 119 152 81 115 145 73 97 108 42 144 118 67 160 75 54
186 79 73 175 81 79 137 51 50 130 41 43 150 61 55 191 98 80
190 116 89 91 58 27 76 63 29 83 102 46 64 88 26 125 158 89 97 118 49
110 98 40 154 92 55 170 43 34 195 52 56 168 60 60 136 44 45 145 54 59
152 47 51 194 59 56 167 49 37 162 108 82 98 75 43 105 125 74
87 112 55 127 159 92 137 146 83 143 92 49 144 44 20 180 37 31
194 48 51 163 53 52 141 53 51 163 81 83 123 17 21 191 30 36 180 30 29
168 91 73 139 100 71 160 187 136 136 163 108 127 159 94 164 163 106
171 103 68 157 35 20 187 32 30 223 67 71 162 40 39 131 31 29
126 31 35 147 32 37 189 25 32 177 27 26 142 70 48 107 72 42
157 190 137 170 203 146 141 171 109 164 161 108 175 106 75 160 38 27
195 32 35 202 33 40 188 46 45 160 35 33 171 46 52 169 38 44 176 31 28
169 53 38 125 80 51 72 62 26 122 146 98 169 193 141 127 152 94
123 126 73 149 103 67 148 56 35 177 40 34 190 34 35 176 26 25
177 31 32 178 32 42 176 40 44 177 55 44 165 81 55 175 153 114
165 177 131 98 98 62 107 112 71 104 122 70 106 123 68 103 103 51
75 44 0 140 63 35 151 35 20 176 33 27 206 50 53 192 41 50 200 67 70
169 72 53 169 117 80 174 173 125 151 178 123 106 92 65 98 94 59
106 113 69 116 135 80 83 107 45 99 109 49 129 105 57 153 80 48
186 54 42 181 23 24 176 26 35 174 56 54 151 87 59 129 111 63
136 151 94 117 151 90 110 98 76 106 99 71 104 100 62 115 123 72
118 142 80 107 136 69 124 145 80 143 115 67 171 56 38 179 27 26
174 35 40 150 53 44 162 139 98 119 134 77 71 95 33 69 98 34
129 114 95 118 106 82 115 109 75 122 128 82 133 157 95 118 154 84
121 161 90 111 110 53 148 67 38 150 37 23 166 68 57 151 93 71
111 118 67 129 165 103 122 154 89 104 134 70 123 102 83 116 102 76
106 101 69 153 160 118 160 181 124 127 156 90 106 138 71 59 70 10
119 87 40 144 99 58 141 113 74 114 111 66 99 127 69 116 158 94
128 167 104 95 131 67 120 98 77 106 90 65 96 93 62 160 169 126
146 165 110 123 149 86 90 119 55 58 76 14 118 111 56 130 121 66
129 136 84 140 165 108 144 182 121 93 137 74 119 159 96 96 135 72
