P3
#
16 16
255
21 30 3 32 42 15 11 25 0 24 36 16 27 28 22 27 33 19 40 66 29 56 80 30
41 40 0 88 73 18 116 92 20 48 27 0 36 22 0 55 51 26 69 74 51 23 33 8
34 43 14 29 42 14 30 46 19 38 51 31 27 30 19 28 35 17 39 61 22
61 79 27 48 41 0 155 132 64 189 158 67 124 94 8 87 68 12 81 76 38
65 72 41 34 47 21 51 62 28 36 51 18 22 45 16 23 43 18 39 51 29
35 45 18 56 73 29 51 59 0 87 69 0 175 137 40 223 175 47 216 171 44
181 152 60 70 59 0 73 80 39 24 40 13 43 57 24 48 65 33 29 52 23
33 52 22 40 46 12 61 60 16 91 86 30 70 55 0 153 120 41 188 140 40
235 179 44 238 182 45 219 173 62 69 44 0 51 55 5 29 49 14 25 39 16
26 40 15 51 67 41 71 78 44 94 82 30 156 129 62 162 119 40 111 60 0
112 62 0 148 95 15 195 141 32 225 165 45 212 144 37 148 98 13 58 57 0
52 75 29 35 50 29 28 42 19 28 42 17 42 43 1 62 38 0 177 132 41
197 132 32 194 125 32 144 87 16 115 65 0 135 84 0 177 115 12
212 131 23 180 115 21 85 74 10 46 62 13 43 61 35 30 48 22 30 44 18
44 44 0 119 88 0 206 153 37 209 140 21 192 125 18 131 79 3 127 84 16
132 84 10 162 101 12 216 135 20 221 150 42 118 93 26 63 61 12
27 41 18 17 33 7 43 59 33 62 62 10 165 133 30 231 178 48 233 165 30
213 143 22 156 99 12 142 90 17 125 67 0 161 91 5 235 146 30
221 148 37 122 98 28 61 60 12 40 42 29 31 38 22 34 49 30 71 77 29
149 128 23 226 183 45 238 172 26 243 167 32 186 108 8 171 93 10
172 92 7 186 97 3 240 140 26 230 157 52 79 68 2 47 67 18 59 59 47
48 52 38 32 43 29 50 52 12 109 91 0 221 181 49 241 176 30 216 136 0
194 107 0 199 107 8 208 116 17 202 109 3 223 127 7 201 134 27 67 64 0
39 69 19 50 53 34 52 56 41 43 49 39 64 61 28 111 90 7 196 155 37
225 163 26 227 150 12 219 129 7 202 108 0 213 124 6 191 107 0
224 142 7 175 123 5 54 56 0 50 78 27 55 60 40 63 67 50 39 40 32
50 45 16 113 96 26 188 153 49 204 145 19 214 138 3 232 147 20
231 146 17 222 142 5 228 156 12 230 162 17 212 170 49 88 94 22
48 80 33 25 29 14 46 50 35 47 51 36 53 53 25 93 84 29 156 130 45
188 131 15 213 140 9 243 168 41 229 157 19 231 167 9 243 184 20
235 175 25 203 168 50 84 96 32 47 83 47 51 53 42 57 61 47 59 63 46
65 68 41 60 57 16 90 71 5 191 147 48 199 143 30 149 95 0 195 145 24
219 173 25 231 190 38 223 186 54 153 137 39 78 96 44 55 92 61
68 67 62 52 54 43 55 62 46 56 61 38 74 73 45 79 68 23 130 106 32
179 153 69 84 64 0 140 121 42 185 162 56 203 186 78 96 95 5 67 82 15
62 90 50 55 89 62 63 62 58 66 67 59 59 66 50 66 74 51 64 63 43
76 70 36 76 65 3 88 78 9 80 75 20 96 92 31 70 58 0 69 63 0 52 69 1
55 85 35 75 106 74 51 85 60
