P3
#
16 16
255
45 101 56 34 83 36 47 87 37 64 89 31 81 89 14 176 167 74 212 185 72
202 163 34 196 148 12 192 145 7 177 136 8 164 135 17 105 97 0
105 113 14 100 123 32 99 129 39 30 82 34 42 88 39 45 82 30 67 89 27
117 121 45 194 181 87 196 166 52 200 157 29 203 154 17 199 150 13
185 140 11 171 141 21 150 138 30 152 158 58 141 160 68 123 152 60
31 78 26 63 103 50 57 86 28 86 101 34 167 166 84 229 211 113
202 166 52 220 171 43 240 184 49 227 171 34 194 144 13 157 121 0
163 145 33 159 160 58 140 154 59 110 133 42 25 63 6 56 87 27 56 77 12
92 100 25 178 168 81 237 212 112 211 168 53 227 172 45 248 184 52
246 182 46 217 160 27 167 123 0 179 156 40 166 159 53 143 150 54
112 127 34 27 53 0 51 72 5 73 85 11 114 111 30 171 152 58 236 201 97
229 176 62 232 166 43 233 160 31 249 177 43 235 171 37 182 131 3
178 146 27 147 130 22 115 115 15 87 94 0 41 56 0 70 82 8 113 114 34
143 132 42 163 135 36 227 183 78 236 174 63 233 158 41 231 149 24
238 159 28 221 148 17 171 114 0 145 105 0 117 95 0 96 88 0 77 76 0
56 62 0 105 108 29 143 138 47 143 125 27 139 104 0 197 144 38
216 145 39 227 145 35 232 143 27 222 137 12 203 124 0 183 120 0
157 111 0 155 128 15 141 127 28 123 116 25 87 85 10 153 148 66
175 162 68 145 122 18 134 93 0 185 128 21 207 132 31 242 154 54
239 144 38 222 131 16 208 126 0 218 151 21 190 142 18 190 158 47
153 134 39 116 105 16 77 69 0 198 187 105 206 190 92 165 138 31
133 91 0 171 112 8 200 121 28 216 127 37 228 131 37 217 121 18
211 128 8 235 167 42 230 180 59 194 160 52 154 133 44 104 89 8
69 60 0 179 167 83 205 187 89 166 139 32 151 109 1 166 106 8
189 111 28 195 105 27 216 119 40 204 111 18 202 120 8 225 159 39
221 174 56 196 163 58 155 134 51 88 74 3 85 77 5 188 177 97
196 180 82 148 124 16 106 67 0 127 71 0 153 79 8 167 79 16 173 79 15
168 78 0 179 101 0 204 142 29 192 149 37 173 145 46 142 126 51
75 65 3 49 41 0 172 165 87 206 194 96 199 178 73 135 100 0 150 98 14
156 84 25 170 86 39 157 67 17 152 67 2 169 98 6 191 137 31 163 124 19
133 109 19 115 104 40 66 60 8 36 34 0 123 119 46 196 187 94
229 211 109 199 169 73 158 111 33 159 93 45 171 92 59 182 98 62
167 87 36 168 103 21 183 135 37 149 116 19 103 86 4 84 77 23 51 49 10
59 60 2 73 73 3 158 154 63 197 185 85 224 197 106 126 84 12 144 82 45
152 77 56 182 104 81 166 93 52 147 87 14 153 110 18 134 109 17
93 81 5 65 64 18 35 40 8 42 47 0 58 60 0 129 129 39 165 157 59
185 164 75 116 77 12 131 74 44 128 58 46 150 74 60 165 94 62
142 85 18 128 88 3 117 97 10 90 83 11 63 68 27 43 53 28 55 62 10
99 104 40 104 107 18 102 96 0 60 40 0 72 37 0 97 41 16 102 35 26
133 59 50 185 116 87 167 113 49 129 93 9 112 94 10 89 86 17 73 79 41
63 75 53
