P3
#
16 16
255
97 94 23 96 79 10 126 76 17 163 86 30 189 89 37 200 89 34 196 85 29
184 75 16 176 74 12 182 84 23 195 99 41 170 84 27 158 89 34
162 113 55 107 81 20 45 31 0 67 49 0 97 65 4 139 78 23 159 73 22
172 66 16 193 77 26 192 78 24 167 58 1 174 69 11 186 86 27 212 113 58
198 107 54 183 105 56 176 116 64 115 78 23 56 31 0 87 40 0 121 61 11
160 76 30 169 66 23 171 52 9 189 67 20 194 78 27 177 66 11 186 79 23
181 76 21 197 89 42 190 87 42 184 91 50 178 101 59 125 66 22 77 29 0
159 86 43 162 81 38 184 82 42 199 83 44 203 77 37 210 84 43
214 100 50 209 102 50 181 77 24 160 56 5 169 58 13 173 64 25
179 76 41 176 86 51 124 50 15 80 15 0 183 91 52 176 78 39 189 75 39
207 83 47 218 92 54 224 103 60 210 102 53 186 86 34 146 49 0 143 43 0
175 68 24 194 84 47 197 90 58 180 83 51 123 40 10 80 5 0 162 66 26
180 78 38 201 85 48 206 84 45 218 95 54 231 116 71 200 99 47 144 50 0
123 32 0 141 47 0 193 87 45 208 100 62 191 88 55 169 76 45 125 49 17
102 34 0 161 73 25 189 94 48 212 105 61 206 94 48 200 88 40
207 101 49 184 91 34 138 52 0 128 42 0 144 53 0 184 86 39 184 85 44
164 72 35 153 75 37 129 70 30 118 69 26 154 75 19 167 82 27 185 85 33
176 70 18 151 44 0 144 40 0 143 48 0 137 47 0 142 51 0 147 51 0
174 73 27 169 72 29 157 72 31 156 89 46 129 85 38 111 79 28 157 88 23
171 93 29 176 83 24 157 54 0 153 47 0 158 52 0 148 45 0 150 50 0
164 60 7 164 58 8 180 69 24 171 70 28 154 71 27 147 89 41 125 94 40
105 89 30 166 102 31 183 110 42 194 106 42 192 92 32 203 97 39
216 105 49 200 91 34 188 79 23 184 70 20 178 61 17 182 63 23
171 63 24 150 67 25 136 80 33 109 87 30 91 85 25 125 61 0 171 98 29
210 122 58 219 119 59 221 112 55 224 110 56 216 102 50 201 85 36
193 70 28 187 61 21 181 52 20 170 56 22 151 63 27 128 71 28 104 83 30
93 88 30 141 78 7 187 118 49 220 139 74 229 136 77 220 121 64
219 118 64 223 122 70 207 100 54 185 72 30 187 69 33 175 51 23
164 53 25 141 56 25 107 53 15 87 69 21 81 81 27 198 141 74 207 146 81
206 136 74 215 139 81 211 134 78 213 136 82 215 139 87 177 99 51
159 71 31 178 81 48 159 55 30 144 48 24 117 43 16 72 27 0 54 42 0
49 55 9 177 129 65 183 133 70 183 129 67 203 147 88 187 135 77
164 117 61 158 115 60 112 66 16 113 59 15 149 83 48 127 50 24
114 39 16 95 37 13 53 19 0 38 38 0 30 45 4 138 104 41 146 112 49
152 118 57 179 149 89 147 125 65 106 95 33 110 106 45 71 66 10
76 58 10 122 90 51 95 48 20 85 37 14 85 49 25 56 40 14 47 61 26
32 60 22 144 119 55 122 97 33 100 76 16 126 108 46 105 99 37 79 85 21
99 113 51 67 81 22 73 75 25 121 108 66 88 57 28 78 44 19 87 61 38
65 59 33 58 77 45 34 68 33
