P3
#
16 16
255
25 75 24 28 75 21 51 88 34 53 83 23 58 76 16 68 80 18 61 71 11
67 76 19 77 87 37 69 82 36 34 50 11 16 37 0 45 65 28 67 89 50
69 90 51 73 94 53 19 65 19 25 67 19 59 92 37 65 89 29 62 77 12
73 83 14 69 75 5 63 68 1 61 67 5 53 64 6 26 40 0 20 37 0 54 72 32
66 87 48 46 67 28 32 53 14 34 72 35 27 62 20 65 92 39 86 102 39
98 104 30 134 133 50 137 133 44 113 109 20 101 101 15 95 100 20
60 69 2 35 49 0 45 61 14 47 64 22 34 51 15 34 51 17 39 70 39 16 42 5
51 68 16 85 92 24 121 117 30 183 174 73 196 182 73 159 146 32
140 129 21 147 142 42 119 122 35 81 89 16 63 74 16 45 61 16 40 56 19
55 72 38 43 63 38 23 39 3 64 71 17 103 99 25 140 124 26 204 182 63
223 196 63 194 167 28 184 162 27 173 158 33 131 124 17 94 94 6
88 95 25 80 93 39 77 92 51 92 108 72 36 49 21 40 48 9 99 97 38
143 128 47 171 143 34 215 178 48 231 191 44 221 182 29 215 181 30
191 165 26 145 131 9 129 124 22 147 150 69 138 148 85 103 117 68
86 103 59 28 36 0 42 44 0 105 94 28 155 131 41 185 148 33 211 163 27
214 160 10 216 163 5 196 152 0 206 171 25 204 181 51 205 195 84
203 204 111 152 163 87 81 97 34 46 66 7 52 56 5 56 56 0 106 90 13
156 128 31 199 154 35 216 160 25 201 140 0 200 139 0 197 143 0
227 187 40 234 207 76 208 195 80 164 164 64 102 115 27 65 84 5
69 93 19 57 63 0 49 50 0 87 71 0 131 102 0 196 149 31 203 144 14
219 153 13 194 129 0 195 138 0 228 184 49 228 200 75 211 198 83
138 141 36 90 104 7 56 79 0 73 102 12 43 52 0 55 57 0 78 65 0
125 96 0 205 160 45 230 172 47 211 146 16 172 107 0 184 129 2
214 170 47 213 186 69 211 201 90 163 169 63 112 130 30 65 92 0
78 110 13 73 85 0 142 147 57 164 155 60 183 160 56 218 178 67
224 173 56 167 108 0 137 81 0 140 90 0 187 149 38 209 186 82
218 213 111 187 197 98 119 141 43 43 75 0 36 72 0 42 57 0 151 161 74
189 186 93 207 189 91 212 179 74 215 171 62 137 89 0 131 83 0
178 137 31 196 167 65 158 144 47 106 105 13 79 94 3 56 82 0 38 72 0
58 97 8 10 30 0 94 108 31 126 128 44 162 151 59 190 166 66 229 196 89
150 114 4 139 105 0 160 133 30 179 161 63 143 138 47 81 89 6 72 90 14
66 94 20 45 81 9 30 67 0 29 53 0 68 87 21 88 96 21 115 110 26
147 131 35 226 203 99 175 149 39 152 128 20 133 116 12 133 124 29
105 109 24 58 72 0 71 93 28 83 114 55 64 99 45 13 51 0 29 55 8
47 67 14 74 85 19 72 73 0 91 82 0 204 190 85 195 179 66 159 146 32
93 86 0 73 75 0 61 73 0 31 51 0 42 69 14 55 88 45 52 88 52 2 39 6
48 74 35 49 71 25 77 91 30 56 60 0 66 61 0 201 190 85 205 194 79
142 132 17 110 107 0 74 80 0 66 81 0 33 55 0 25 55 5 32 66 29
62 98 72 36 74 51
