P3
#
16 16
255
45 61 24 13 28 0 41 49 0 104 117 61 89 110 51 75 102 35 62 85 5
51 70 0 53 70 0 51 61 0 31 32 0 26 29 2 18 31 0 50 69 14 51 68 14
45 62 7 46 62 17 20 34 0 50 60 8 49 62 8 63 86 30 82 105 37 70 84 0
67 74 0 98 99 5 69 67 0 26 22 0 12 13 0 22 35 0 43 62 7 52 70 12
46 64 4 65 81 19 44 60 0 61 76 19 37 54 0 4 26 0 55 71 6 130 126 19
126 108 0 207 179 54 162 135 30 53 38 0 24 22 0 24 38 0 38 59 2
63 84 19 57 76 10 60 77 7 61 78 10 53 71 9 37 56 0 27 50 0 49 60 0
186 166 43 232 195 45 234 190 41 170 130 0 128 101 0 145 134 52
67 78 10 71 91 28 73 94 25 53 75 3 52 72 1 51 72 3 58 78 15 43 63 0
73 94 27 90 94 0 202 170 27 244 193 24 226 178 8 242 197 33
221 177 26 200 172 46 86 89 0 68 88 16 71 93 21 47 70 0 40 63 0
45 67 2 50 70 7 69 86 18 85 96 17 111 103 0 224 183 31 248 195 21
230 184 13 236 190 19 226 172 1 223 182 30 137 127 14 48 58 0 67 85 9
42 65 0 52 81 17 66 92 29 52 72 13 48 55 0 49 38 0 193 163 49
228 184 35 192 144 0 157 116 0 220 175 20 229 172 7 245 195 38
222 194 61 71 64 0 81 94 12 47 68 0 78 102 44 47 71 11 46 68 6
38 46 0 124 105 11 215 180 62 228 184 35 170 124 0 165 120 0
195 150 5 228 177 24 237 190 40 230 197 64 94 82 0 89 98 17 52 73 6
51 62 6 54 69 10 40 67 0 35 52 0 142 132 37 170 141 23 233 192 40
181 131 0 192 138 0 211 162 21 223 186 46 196 168 35 215 194 77
102 92 0 89 97 22 44 62 0 55 63 4 78 90 28 65 88 16 51 69 0 67 62 0
136 110 0 224 180 29 236 182 21 235 176 22 191 140 0 176 146 22
45 27 0 115 105 8 68 65 0 84 94 31 38 53 0 56 67 1 78 91 22 79 95 24
78 88 2 106 100 0 171 147 13 211 166 13 228 173 10 235 180 15
192 146 0 169 136 29 45 28 0 25 25 0 71 81 21 75 88 35 23 39 0
48 63 0 60 73 4 75 85 16 92 94 10 134 125 8 223 196 55 232 184 26
227 170 1 234 182 11 202 158 10 194 165 65 60 47 0 26 31 0 73 85 37
56 65 20 23 30 0 28 43 0 37 49 0 67 72 5 101 95 9 141 122 4
223 191 44 244 196 26 246 191 13 222 169 1 203 162 20 162 137 36
43 35 0 43 51 0 73 83 33 60 55 15 45 32 0 50 66 17 49 62 9 49 52 0
56 52 0 83 68 0 215 188 59 239 198 44 239 191 29 197 150 0 185 146 17
133 114 19 30 26 0 44 51 0 75 81 37 54 44 8 53 34 1 31 47 8 32 47 6
36 44 3 30 34 0 32 33 0 119 109 22 197 171 61 202 166 44 147 105 0
192 158 50 120 108 22 35 34 0 28 29 0 27 26 0 35 24 0 69 54 21
16 32 0 6 20 0 46 57 23 25 36 0 30 38 0 72 73 7 65 45 0 91 59 0
114 75 0 177 145 46 87 78 0 41 42 0 31 28 0 28 24 0 37 26 0 80 67 33
