P3
#
16 16
255
100 140 90 128 154 107 120 116 79 91 65 32 112 65 35 148 95 63
159 113 79 162 123 84 153 118 76 145 116 72 164 136 96 149 130 88
126 122 77 104 116 68 61 93 43 57 100 46 118 147 101 139 154 111
141 125 91 121 80 52 122 60 37 139 67 43 148 81 54 151 90 61
159 105 71 140 94 60 155 112 77 150 120 82 139 126 84 120 126 80
84 112 61 84 124 71 144 152 111 149 141 104 164 122 97 163 91 76
153 56 47 155 46 39 168 60 50 174 72 60 176 83 68 147 64 46 144 72 50
142 86 59 136 106 72 120 115 73 89 111 62 88 123 69 169 151 115
152 119 88 170 105 87 188 95 87 181 63 63 177 48 52 188 62 65
191 71 72 178 66 64 154 52 47 140 48 37 137 60 44 142 86 63
135 105 71 109 104 62 92 100 53 176 127 97 149 87 64 163 75 63
193 84 81 195 69 73 185 55 63 182 58 66 173 58 63 158 49 52 155 51 52
150 46 45 156 59 53 172 85 75 173 105 84 148 97 68 110 69 37
145 81 54 132 57 34 147 51 39 178 66 64 191 68 73 181 60 69 164 53 62
151 47 54 135 39 43 147 48 53 148 42 46 167 58 61 185 80 76 182 84 73
155 69 52 109 31 9 124 60 32 131 59 34 144 52 37 157 54 49 170 61 64
163 58 65 146 55 62 141 59 65 130 49 55 130 43 49 129 25 32 160 47 53
180 61 63 169 51 49 157 46 37 130 24 11 137 76 45 158 88 62 158 71 54
148 49 43 153 49 50 148 47 53 139 49 58 147 66 73 143 63 72 125 39 48
110 10 20 150 41 47 172 56 59 159 44 41 168 60 50 167 63 50
157 103 67 158 93 63 158 71 54 150 47 42 145 32 36 145 31 41
141 39 52 139 45 59 139 49 61 127 35 46 131 34 43 147 46 52 155 55 55
147 57 48 149 70 53 162 90 68 171 102 73 164 86 63 166 65 53
166 52 51 168 44 52 158 38 50 140 34 46 125 32 43 129 43 52 140 57 65
146 61 66 131 47 47 108 31 25 103 37 21 115 65 40 133 89 60 183 81 66
171 61 48 170 42 39 178 43 47 185 49 59 172 48 58 146 45 51 126 44 48
118 50 49 134 73 70 137 76 71 113 54 46 96 44 30 100 59 37 98 73 43
87 71 37 176 62 52 163 42 34 158 26 24 165 30 34 166 40 44 155 45 48
137 56 52 128 70 59 132 90 76 141 108 91 143 110 93 132 101 81
128 102 79 128 111 83 105 100 68 74 76 39 162 55 45 157 46 37
155 37 33 151 36 31 140 37 32 124 45 32 114 68 45 113 92 63 102 97 65
100 104 71 103 102 71 99 96 65 94 89 59 84 83 53 63 73 39 46 60 25
133 66 47 141 70 50 151 70 53 145 66 49 134 63 43 123 73 46 116 96 61
113 116 73 103 120 75 80 103 57 67 85 43 68 84 45 75 91 55 71 91 56
57 85 47 44 78 41 93 98 57 107 104 63 119 99 64 119 89 55 121 91 55
127 105 66 121 118 73 110 124 73 88 112 60 67 97 45 57 83 36 62 89 46
73 104 63 68 109 67 47 100 58 27 88 44 84 124 71 92 122 72 96 105 60
91 86 44 101 89 47 115 108 62 108 115 64 88 107 52 77 106 50
93 126 71 112 142 92 110 143 96 95 134 90 74 125 82 50 116 70
35 108 62
