P3
#
16 16
255
34 46 22 56 70 44 42 58 29 50 74 38 66 94 53 72 101 55 73 96 52
60 83 39 67 93 56 38 62 30 59 66 48 67 65 52 77 71 57 82 75 59
85 80 61 81 76 56 51 61 37 90 100 76 57 70 44 51 70 38 59 86 45
32 59 14 78 96 48 68 81 27 65 75 15 68 77 24 67 70 39 68 69 51
74 71 54 68 62 48 87 84 69 73 72 54 62 67 47 70 75 55 59 62 43
45 55 30 86 108 70 38 60 13 55 64 7 124 118 42 171 148 44 138 115 19
61 58 5 65 70 40 80 79 59 72 70 57 85 87 76 67 70 61 54 57 38
92 93 77 40 38 23 49 51 29 94 105 63 113 118 60 118 104 31 179 144 52
236 179 64 206 157 52 110 100 38 62 72 35 62 68 40 70 75 55 71 77 65
68 76 65 63 66 49 64 65 49 59 55 43 59 53 29 70 64 12 168 146 70
230 176 80 204 126 25 191 101 5 229 158 78 132 117 58 77 93 48
63 79 42 55 72 40 67 81 56 68 80 58 51 53 39 63 64 50 71 67 56
76 65 37 103 85 21 166 129 41 223 149 52 180 85 0 170 66 0 174 94 33
134 112 54 89 99 47 79 95 56 59 76 44 76 89 63 76 86 62 67 69 56
59 59 47 77 73 62 81 71 36 99 76 0 190 147 53 183 111 29 150 58 0
146 50 0 160 84 35 130 98 41 96 90 38 70 73 42 69 74 54 64 66 52
89 90 76 58 55 48 62 59 50 67 65 52 79 70 31 187 157 71 217 165 66
212 134 62 160 66 15 159 63 25 155 76 35 177 128 70 117 94 40
88 81 53 86 86 74 100 96 87 99 94 88 75 65 63 71 66 60 64 65 49
78 69 26 199 162 71 226 162 64 207 115 48 138 36 0 137 34 0 147 58 16
189 124 60 152 112 51 106 89 63 80 76 67 97 92 88 100 95 92 74 63 61
69 62 54 66 67 53 79 69 33 132 98 26 203 140 60 170 77 18 169 64 17
181 84 39 154 72 22 153 94 34 159 122 70 110 94 71 102 97 91 95 91 88
97 93 92 72 63 56 51 42 33 59 52 42 80 69 51 90 67 35 121 73 33
147 63 19 173 76 23 196 115 49 179 121 57 121 95 46 100 89 57
103 95 82 98 95 90 98 99 94 91 93 88 64 55 46 72 65 55 71 64 54
84 76 65 94 80 71 123 90 71 166 102 67 162 86 36 169 105 41 127 86 24
103 95 58 93 98 76 95 92 83 98 95 90 93 92 87 94 95 89 103 97 85
79 75 63 81 79 66 84 82 70 86 79 69 147 131 116 136 106 78 118 79 40
143 98 56 121 89 50 99 98 68 87 96 77 91 91 81 106 101 95 90 86 77
95 91 82 72 65 55 75 71 60 84 85 71 75 77 63 88 90 77 163 162 144
126 116 91 118 101 73 119 91 67 116 96 72 102 107 87 96 107 91
103 103 95 103 96 90 102 95 89 89 85 76 65 57 55 73 68 62 74 76 62
78 86 65 104 116 94 150 158 135 115 113 90 93 82 64 104 90 79
105 98 88 105 115 104 96 108 98 95 92 87 105 95 93 93 89 86 84 85 80
73 64 67 70 65 61 78 80 66 54 64 40 101 117 90 103 117 91 92 91 70
90 84 68 102 94 91 103 103 101 97 110 103 89 100 92 103 98 95
104 94 92 92 91 89 87 89 86
