P3
#
16 16
255
185 145 34 194 154 43 189 149 36 167 129 18 155 119 9 153 120 15
138 109 15 115 90 6 84 64 0 68 53 0 47 39 0 42 41 0 46 53 11 44 57 14
47 66 21 65 87 41 156 115 7 179 139 28 190 150 39 175 137 26
159 122 15 152 119 16 143 113 17 130 102 18 106 82 10 80 60 0 47 34 0
42 34 0 58 56 8 66 70 20 77 84 33 94 104 51 154 116 9 173 135 28
183 145 38 173 136 29 158 124 17 151 118 15 144 109 15 131 99 14
111 79 6 83 54 0 53 27 0 57 32 0 85 65 6 105 87 25 113 98 33
125 112 44 187 146 41 184 145 40 178 140 33 168 130 23 162 125 19
157 119 18 144 105 12 127 90 2 143 104 27 131 91 21 121 81 12
137 97 28 175 133 61 191 149 73 191 150 70 194 153 71 186 143 39
182 139 35 177 134 29 171 130 24 167 126 21 160 118 18 150 107 12
142 96 8 139 91 9 147 94 16 156 97 21 179 116 37 209 143 59
219 150 59 211 141 45 213 141 41 154 105 0 165 116 11 175 128 20
176 129 23 163 116 10 151 103 1 153 103 8 162 108 18 161 103 19
177 112 30 189 117 33 206 126 39 226 141 48 230 141 39 227 135 26
231 137 24 168 112 1 177 121 10 185 132 20 183 130 18 163 111 2
146 93 0 150 95 0 165 104 11 180 113 26 197 121 35 206 122 34
213 122 31 229 130 29 234 129 20 235 125 10 242 132 11 224 161 45
214 153 36 206 145 28 194 135 19 175 115 3 156 95 0 153 91 0 162 96 0
187 113 24 203 122 33 211 122 32 218 119 26 233 125 24 238 126 16
240 124 5 249 129 7 251 182 61 231 165 43 224 160 37 203 141 20
197 134 18 177 114 1 145 78 0 173 101 3 183 106 14 214 130 42
199 108 19 210 109 17 224 116 18 245 132 26 234 117 3 255 138 20
242 176 53 227 161 38 220 156 32 216 152 28 216 151 31 202 137 21
175 107 0 179 106 4 181 102 9 206 122 34 201 109 22 211 113 24
216 112 17 230 121 20 219 107 0 232 118 6 225 167 44 215 157 34
205 147 22 216 156 32 218 158 36 210 147 31 201 133 22 174 103 0
170 94 0 185 104 15 191 102 18 200 108 23 200 102 13 212 112 18
210 108 8 215 112 9 192 147 30 194 149 30 190 141 22 207 157 36
205 150 31 201 142 24 206 142 32 166 97 0 170 96 0 174 94 5
184 100 14 194 105 21 189 99 13 200 106 18 207 114 21 207 114 18
146 119 12 165 137 28 178 146 33 205 168 53 203 161 43 200 149 34
208 150 40 169 104 0 175 102 7 176 99 9 192 112 27 201 119 35
203 118 35 200 114 29 201 115 28 192 108 18 108 98 1 133 121 21
164 147 43 196 172 62 210 177 64 209 166 53 203 149 41 177 114 11
163 93 0 175 100 9 201 123 38 218 137 55 233 152 70 212 131 49
192 114 29 176 98 13 93 99 11 101 106 14 129 125 28 156 144 42
191 167 59 202 166 56 175 127 19 165 106 2 160 92 0 179 106 14
206 128 43 219 141 58 248 170 88 209 132 50 171 97 12 151 77 0
97 112 29 83 95 9 94 98 4 109 104 4 160 141 36 179 149 39 142 95 0
143 86 0 175 109 12 195 122 30 210 134 48 214 136 53 243 166 84
190 115 32 141 66 0 119 47 0
