P3
#
16 16
255
83 105 43 105 126 70 31 48 6 13 28 0 66 81 50 46 61 28 36 51 10
82 100 52 115 138 84 98 121 67 82 96 47 29 42 0 58 75 30 4 22 0
57 74 22 47 61 8 50 67 12 117 131 80 96 103 62 66 63 30 55 46 15
52 39 7 65 51 16 82 79 36 111 125 76 88 111 59 112 132 81 84 102 52
76 96 45 85 103 53 81 97 50 68 81 35 43 52 7 74 75 33 131 113 77
107 71 39 149 92 63 173 106 79 183 113 88 172 125 95 165 163 124
152 176 128 147 178 121 128 158 98 107 131 71 99 118 63 74 89 48
37 51 16 73 82 39 38 35 0 80 51 17 127 67 39 164 68 46 181 68 50
172 62 47 159 81 59 132 109 75 107 123 76 98 129 70 84 114 52
97 108 50 106 102 54 42 27 0 46 28 4 81 97 48 119 120 76 70 46 10
140 72 49 179 52 45 182 34 30 177 44 35 196 97 78 106 60 26 78 71 25
85 106 49 91 108 53 105 87 41 113 64 31 130 59 39 104 22 10 59 82 26
114 117 70 131 98 65 116 37 20 189 53 53 202 49 51 205 77 66
202 106 84 118 62 27 141 114 69 151 143 94 130 116 71 90 44 10
137 65 41 149 53 39 166 59 49 88 118 58 137 141 91 141 92 62
126 34 21 151 26 24 176 48 45 160 60 44 149 75 46 164 115 75
159 114 72 212 156 119 199 134 104 143 71 47 141 63 43 148 62 47
151 63 49 84 108 48 155 147 100 137 66 44 142 31 22 177 43 42
204 70 67 158 45 31 168 72 48 183 102 72 193 110 80 176 77 54
156 60 38 116 40 17 160 95 75 102 39 24 78 16 3 84 84 32 112 80 41
172 76 60 214 76 73 228 68 68 231 58 60 205 33 33 199 34 32 196 44 39
198 57 50 197 60 50 222 112 95 140 79 51 153 117 91 60 32 20 28 3 0
75 64 18 99 56 21 171 63 51 195 43 42 212 38 39 228 38 40 239 43 47
215 31 33 203 48 46 196 59 53 205 74 64 186 87 68 128 85 51
114 103 71 23 16 0 14 10 1 75 63 21 76 33 1 158 52 39 195 43 42
200 22 22 214 24 26 217 29 30 199 42 37 173 74 55 160 86 61 139 57 33
126 62 34 103 88 47 76 81 41 25 25 1 25 23 8 64 50 13 68 32 0
102 20 0 140 20 6 181 33 23 195 32 25 205 37 36 175 34 25 150 66 42
154 85 56 153 56 37 141 55 32 124 84 49 71 57 20 38 34 5 36 39 12
69 53 20 73 50 16 85 47 10 118 58 22 123 38 7 145 34 14 160 26 17
147 10 4 141 23 11 185 57 46 202 32 32 199 34 30 148 33 15 121 56 28
62 43 10 43 49 11 63 34 4 79 50 16 107 75 36 105 60 19 128 55 22
145 45 21 165 37 26 188 47 40 166 25 18 191 32 28 210 11 14 206 7 10
180 22 13 158 53 34 63 28 0 43 44 4 82 31 2 81 26 0 96 32 4 130 50 25
149 43 21 146 16 0 160 14 1 169 15 5 190 33 26 183 18 12 218 37 30
216 33 27 194 21 15 208 78 65 98 46 22 53 38 9 96 32 4 96 29 2
123 45 23 153 56 37 161 38 23 174 31 17 206 52 40 206 46 34 195 30 24
189 22 14 186 14 2 194 17 7 209 30 25 179 38 29 90 27 9 64 42 18
