P3
#
16 16
255
215 144 30 210 144 34 156 96 0 132 85 0 121 90 7 107 94 16 78 86 11
89 105 32 105 113 38 120 127 49 113 121 36 117 127 41 114 127 45
109 120 41 117 122 42 121 122 44 144 80 0 171 112 10 164 113 24
157 116 36 145 116 40 96 80 5 81 82 2 114 121 41 111 118 40
114 121 43 115 123 38 121 131 45 120 132 50 126 137 58 125 129 52
119 122 45 141 92 0 198 154 67 137 101 27 84 56 0 75 51 0 90 71 2
112 98 9 120 114 20 104 106 23 111 115 38 126 131 47 127 135 50
127 136 57 115 126 48 123 130 53 130 134 58 102 59 0 105 69 0 98 71 0
83 62 0 91 63 0 138 108 35 179 145 55 183 154 60 131 110 29
142 125 45 159 139 50 156 139 49 140 132 47 137 134 53 141 142 66
136 140 66 135 93 0 80 45 0 75 52 0 93 69 0 121 83 2 149 99 14
168 112 27 171 110 29 173 114 36 191 130 47 207 142 42 203 142 36
186 143 41 155 128 37 141 130 51 142 140 66 215 167 43 221 180 62
166 138 31 132 100 0 197 151 39 212 157 41 177 115 6 140 71 0
135 59 0 126 44 0 183 95 0 224 143 28 201 139 28 181 142 41
152 140 56 145 146 70 202 145 12 221 167 32 255 208 66 224 179 28
238 192 34 251 202 39 255 213 51 243 184 30 212 140 6 225 145 22
198 115 0 222 143 25 182 120 1 166 125 17 149 142 51 139 148 67
207 149 24 178 120 0 205 148 0 245 190 27 248 198 23 230 184 2
235 187 3 244 188 17 228 160 17 253 175 49 237 159 35 222 151 27
242 182 58 204 167 52 136 131 37 121 133 49 147 99 0 176 124 15
184 123 0 255 201 55 255 208 46 255 209 37 254 200 29 237 176 23
160 90 0 152 78 0 240 169 45 250 187 56 238 189 58 188 158 38
146 140 46 131 136 54 76 43 0 143 103 15 162 108 2 184 123 0
208 150 6 207 148 0 225 161 12 193 125 0 172 99 0 176 101 8 171 100 0
175 116 0 187 145 25 145 122 10 137 130 40 119 120 40 48 37 0 85 65 0
143 103 16 139 84 0 168 99 0 211 135 13 208 131 13 169 92 0
184 106 21 187 111 33 161 89 7 150 93 6 160 123 32 144 124 35
138 131 50 140 138 61 104 99 35 136 121 52 98 61 0 144 88 3
207 134 39 209 131 31 204 130 33 175 105 17 123 57 0 118 58 0
142 88 24 136 95 29 133 109 35 141 129 53 127 124 47 135 136 60
124 109 26 109 84 4 125 79 4 147 87 14 155 88 10 167 102 20 152 98 10
155 110 29 111 73 11 73 46 0 71 58 6 95 90 34 113 110 43 118 118 46
123 127 51 121 128 50 189 149 53 134 87 0 149 91 7 159 97 20 119 62 0
105 58 0 95 62 0 124 98 24 115 94 37 70 60 9 62 64 15 73 80 26
111 110 46 128 122 48 131 120 38 132 121 32 191 108 2 223 142 37
215 140 38 195 134 41 141 103 30 92 71 6 97 82 17 118 107 43
118 106 46 108 99 42 90 85 29 90 84 24 108 89 23 123 91 14 170 124 30
157 104 0 203 99 0 244 148 36 208 124 10 134 75 0 89 61 0 69 59 0
98 92 34 74 68 10 85 77 15 43 35 0 50 41 0 90 76 15 113 86 19
142 97 16 207 143 43 209 136 25
