P3
#
16 16
255
93 98 42 50 57 3 53 65 15 56 69 23 74 85 45 80 83 36 97 88 23 81 75 1
74 87 15 82 105 37 71 95 37 65 74 7 150 129 38 202 175 88 69 56 3
64 58 22 62 57 0 44 44 0 64 74 22 93 105 57 94 98 48 93 88 30 93 75 3
124 111 33 78 85 7 83 99 26 69 84 19 70 72 0 104 80 0 175 146 54
99 88 32 70 66 29 140 115 31 72 58 0 83 90 36 131 140 87 109 101 29
118 95 15 128 93 11 146 116 30 100 90 3 111 114 27 93 95 12
116 107 16 134 105 0 158 130 23 85 77 15 64 66 27 202 163 62
139 113 26 75 74 18 78 82 23 117 100 10 222 189 86 198 152 58
120 76 0 187 159 52 170 148 37 167 144 38 203 175 65 196 158 35
203 172 64 85 75 16 67 67 33 199 146 30 172 132 36 50 38 0 67 59 0
159 132 25 231 189 68 210 157 51 120 64 0 229 175 40 228 173 28
228 169 33 236 179 50 209 159 36 154 118 22 95 77 29 71 64 38
168 113 0 174 131 36 86 69 13 76 62 0 148 115 0 230 180 45 233 173 49
179 114 0 244 177 24 247 178 15 232 159 5 221 155 17 226 178 67
98 67 0 75 57 17 66 55 37 154 105 10 146 111 29 61 50 0 65 55 0
158 122 0 237 183 35 252 186 40 221 151 1 236 170 11 249 184 22
221 155 0 237 180 47 185 152 59 83 64 6 70 59 29 61 52 35 125 92 13
84 60 0 40 31 0 76 62 0 229 189 57 226 167 11 248 181 30 222 150 3
200 133 0 230 167 14 234 170 20 221 171 46 81 55 0 74 62 24 67 59 36
59 52 36 89 79 17 57 49 0 36 27 0 124 104 18 243 199 51 246 187 21
226 158 21 191 122 0 175 106 0 226 159 26 241 175 39 208 156 46
76 46 0 59 44 23 60 51 36 63 57 43 59 62 15 40 42 0 35 32 0
137 119 33 240 199 57 225 171 13 182 122 0 177 112 0 178 114 0
199 141 15 212 162 41 174 137 46 73 54 14 54 44 32 58 52 40 50 46 34
35 42 8 52 59 18 35 43 0 104 101 24 208 179 61 211 167 32 188 137 9
196 141 12 155 103 0 197 156 28 155 133 32 110 102 30 71 71 37
46 48 34 43 41 29 47 45 33 49 60 26 41 56 17 35 51 4 52 61 0 84 73 0
146 122 16 150 118 9 193 156 39 195 158 25 198 172 51 110 105 23
73 80 26 58 66 29 61 65 38 49 45 20 58 51 25 55 73 31 56 77 34
35 58 14 47 67 16 37 48 0 67 72 5 117 113 42 143 131 45 193 173 60
185 171 64 78 78 14 64 71 27 69 75 27 81 79 28 62 46 0 85 64 9
34 56 10 27 50 4 29 54 12 32 57 15 20 46 0 34 54 3 107 120 67
98 103 37 90 89 0 85 85 0 55 62 10 47 53 9 77 72 6 143 126 44
143 112 22 169 130 37 20 38 0 28 49 6 39 64 22 37 63 18 34 61 10
42 67 12 77 94 40 88 103 46 63 84 17 59 79 16 63 78 35 60 63 8
115 94 1 198 159 40 226 173 41 227 168 30 22 40 0 43 64 23 46 69 27
24 50 3 37 65 14 42 69 14 63 82 27 70 91 35 53 83 29 48 78 28
69 90 49 89 90 32 163 135 28 212 163 26 228 165 12 231 161 1
