P3
#
16 16
255
38 81 27 32 75 22 55 96 52 64 100 56 28 54 9 41 59 9 27 38 0 81 89 38
19 24 0 13 27 4 57 87 59 61 105 70 62 106 70 40 75 45 14 26 16
12 12 12 45 81 35 32 69 25 76 115 71 95 127 80 74 87 33 57 57 0
99 90 21 154 141 73 100 88 30 67 65 16 78 96 58 75 106 72 35 75 38
31 64 33 24 38 21 12 18 8 19 40 9 17 42 10 85 119 82 104 128 76
102 94 19 136 102 13 205 151 61 214 156 56 231 184 68 193 161 60
92 86 26 45 57 19 65 92 57 17 48 16 36 56 28 26 42 15 34 34 10
21 30 0 86 109 67 91 101 38 156 127 33 184 127 20 194 124 28
174 101 0 229 164 36 242 193 75 93 71 0 48 50 1 67 90 48 50 80 42
48 72 36 15 37 1 50 25 0 44 30 0 82 89 35 119 114 33 224 172 60
233 163 49 175 115 27 161 102 22 181 115 19 214 160 64 155 128 49
48 47 0 45 70 15 55 88 43 34 56 18 6 25 0 112 69 24 118 88 36
82 76 14 164 148 63 207 145 26 216 137 18 171 109 22 168 110 37
154 91 14 153 98 18 197 165 82 62 54 0 32 52 0 43 72 24 24 46 10
18 37 7 153 101 25 167 129 56 73 62 0 119 100 21 198 135 21
245 162 42 192 118 21 186 119 38 157 94 25 114 64 0 174 138 54
164 149 68 44 55 0 34 57 13 23 47 13 51 74 45 132 84 2 140 104 28
64 54 0 144 126 50 202 140 27 225 143 17 238 158 47 178 104 5
170 106 19 120 72 0 104 77 0 106 99 21 61 70 13 30 51 8 28 52 16
26 51 21 128 99 33 99 79 16 70 68 11 137 123 48 205 152 36 242 168 33
231 154 24 218 143 16 222 153 24 190 143 27 71 65 0 48 63 0 44 61 9
52 70 28 38 60 22 58 82 46 109 90 31 102 92 33 105 108 55 83 73 2
177 125 16 244 171 42 241 164 34 226 151 10 229 160 5 220 175 34
113 110 15 37 56 0 48 68 19 48 69 28 32 57 18 44 70 31 87 72 5
104 96 34 84 91 40 61 51 0 172 117 26 196 118 9 201 121 6 213 139 4
247 186 18 235 193 33 166 148 38 50 52 0 57 75 27 67 95 57 73 105 66
64 101 60 121 101 30 105 96 31 41 49 0 61 61 7 175 139 65 176 118 21
225 156 39 234 168 28 243 190 22 221 183 24 178 155 43 81 78 1
59 77 29 44 76 39 38 74 36 55 93 54 161 128 51 127 108 39 51 61 8
54 72 22 56 59 2 109 93 8 205 162 31 247 196 42 217 174 17 183 150 11
183 164 61 114 112 38 80 100 49 45 77 38 51 86 46 73 110 69 115 91 21
74 64 2 66 82 33 47 76 30 53 79 32 64 76 4 150 131 11 217 188 48
211 187 55 136 118 6 124 113 31 78 79 19 78 97 51 75 103 65 83 113 77
61 91 57 56 66 16 53 69 22 42 69 28 50 82 41 39 72 27 42 66 8 76 81 0
171 167 76 142 145 54 86 90 13 48 52 1 37 45 6 42 53 19 47 63 34
31 51 26 24 46 23 22 48 9 46 74 34 41 75 38 40 77 36 49 85 41
60 88 37 54 70 8 55 66 0 68 85 15 40 58 0 33 45 9 31 41 14 29 38 11
15 25 0 6 21 0 2 19 1
