P3
#
16 16
255
36 61 31 43 68 38 36 62 33 19 46 15 30 54 18 29 50 7 65 78 25 65 70 6
63 60 0 74 63 0 138 122 24 143 124 19 117 97 0 138 121 7 153 136 22
148 133 18 49 70 39 42 66 34 30 54 22 19 43 7 39 62 20 43 61 11
81 91 31 84 86 13 94 88 2 106 92 0 164 143 36 184 161 47 182 160 41
196 174 54 176 156 35 149 130 9 51 66 33 45 61 25 36 52 16 27 44 2
38 55 3 37 49 0 81 85 9 97 93 4 155 142 38 164 143 28 192 164 41
204 174 44 217 187 53 225 197 62 197 171 35 175 148 15 46 53 19
45 56 16 44 55 13 37 47 0 45 55 0 53 60 0 129 128 38 176 168 61
227 207 86 241 214 81 241 205 65 232 196 50 242 204 57 241 205 57
227 192 48 227 195 50 59 61 22 54 60 16 47 54 3 41 47 0 59 63 0
81 80 0 170 162 55 225 210 85 229 202 61 251 218 65 243 200 43
234 190 29 242 197 36 230 186 29 219 176 22 224 183 31 58 59 15
55 57 8 54 57 0 66 67 0 106 105 22 130 126 26 195 183 63 223 201 64
241 210 57 255 216 53 235 188 20 234 183 16 245 193 31 233 183 24
227 178 24 225 178 28 54 53 7 57 57 5 63 64 4 84 84 10 139 138 46
175 169 59 232 217 88 242 220 74 234 200 41 240 197 30 213 162 0
209 154 0 209 155 0 197 141 0 200 147 5 195 143 5 84 86 37 78 81 28
63 65 2 55 56 0 94 93 0 135 129 17 206 192 61 228 204 56 228 194 35
241 198 34 225 173 11 220 164 7 200 144 0 173 117 0 179 124 0
171 116 0 94 100 52 73 80 26 50 56 0 72 76 0 65 66 0 85 81 0
219 206 78 210 187 45 222 188 37 235 192 38 226 176 27 198 143 1
175 120 0 169 114 0 162 109 5 151 99 0 83 91 44 66 74 23 47 55 0
46 52 0 65 68 0 97 94 0 188 176 54 204 181 49 224 191 50 215 174 32
204 157 19 191 140 12 170 117 5 151 99 0 155 105 18 173 125 43
62 71 28 53 62 15 46 57 1 32 41 0 79 84 2 123 120 23 177 165 53
208 188 65 199 169 39 179 140 9 164 119 0 162 113 0 150 102 0
139 92 2 148 105 26 171 129 55 50 58 19 48 57 14 48 58 6 41 49 0
86 90 14 128 127 37 185 174 69 208 187 72 198 168 44 186 148 23
164 122 1 153 107 0 152 109 7 160 119 29 164 127 47 165 129 55
55 60 28 50 56 20 46 53 9 52 57 3 73 74 6 107 102 20 195 181 84
200 178 67 191 161 41 186 148 25 168 126 5 149 108 0 141 103 0
147 111 14 154 123 33 155 128 41 55 58 31 46 49 18 42 44 7 50 52 3
62 60 0 90 83 5 188 171 79 200 176 70 207 174 58 204 166 43
200 160 36 196 156 34 181 146 30 169 139 29 178 153 50 199 175 75
46 45 24 38 38 12 45 44 13 44 41 0 68 61 6 85 73 1 139 119 30
178 151 46 188 155 39 194 156 29 201 163 30 208 170 37 204 170 44
189 161 38 170 148 29 160 140 25 39 36 17 35 33 10 55 51 22 35 32 0
75 65 12 74 61 0 71 49 0 132 105 2 186 151 33 202 165 35 207 167 33
206 170 32 218 185 52 210 186 54 153 132 7 83 65 0
