P3
#
16 16
255
34 59 30 51 78 43 65 98 53 53 82 28 83 92 37 95 94 38 112 104 55
119 99 38 163 118 37 154 107 19 137 101 25 122 97 41 99 79 54
69 62 46 58 68 44 89 108 80 32 52 25 44 68 36 44 71 30 71 95 47
81 94 41 97 97 37 97 84 16 159 130 54 212 164 79 216 162 74
159 111 29 160 122 59 112 85 56 78 63 44 45 40 10 68 68 32 40 52 28
48 61 35 35 48 20 63 77 41 95 111 64 93 94 26 168 143 43 213 166 58
219 163 68 202 135 46 222 149 55 180 114 38 117 73 36 108 77 49
115 80 38 85 49 0 55 60 37 44 49 26 56 60 35 67 72 40 60 69 24
113 107 31 212 172 50 231 174 43 201 147 49 160 103 16 180 111 20
152 83 5 129 71 23 139 87 47 165 115 62 91 43 0 65 68 41 71 74 47
73 73 47 71 68 35 77 71 23 147 122 40 237 179 45 247 186 44
174 136 37 139 110 34 146 108 37 159 108 42 151 79 20 181 109 50
202 153 86 98 61 0 72 70 47 76 76 50 84 84 56 87 83 48 92 79 34
174 143 63 231 168 37 236 174 37 171 138 45 136 116 47 135 112 45
130 85 20 161 79 6 191 109 35 182 135 65 111 84 13 70 64 48 76 75 55
80 86 58 65 69 36 82 74 35 150 125 58 220 167 55 222 163 45
153 112 30 136 105 40 141 111 41 129 82 4 170 86 0 202 121 39
160 121 56 102 83 27 74 67 57 82 80 65 81 86 63 69 73 40 92 83 42
123 93 29 214 157 54 172 106 0 171 113 31 123 69 0 152 98 24
169 104 20 192 99 4 205 123 37 135 96 37 86 69 25 73 66 58 72 68 56
73 76 57 84 81 50 116 95 48 171 129 57 184 111 8 215 127 17
199 108 17 156 63 0 180 87 9 184 88 4 229 125 28 227 141 54 117 74 23
103 78 47 93 86 76 85 81 69 95 98 79 106 103 72 121 101 51 164 118 41
222 144 33 251 155 34 255 154 46 216 107 12 199 88 0 207 96 4
197 90 0 205 120 30 150 104 55 96 70 43 97 90 74 90 89 69 93 101 77
114 120 86 108 95 50 172 135 57 240 170 40 249 159 13 255 163 37
212 111 0 226 120 10 236 128 19 244 138 28 216 132 42 137 95 45
92 73 41 99 90 73 102 97 78 98 102 79 113 116 87 115 106 67
173 139 67 233 166 33 253 168 13 245 157 21 209 117 0 208 113 0
234 141 35 194 107 12 194 128 54 95 64 20 80 66 39 102 90 74
110 98 84 89 81 70 63 54 37 115 99 73 157 123 59 223 162 35
247 169 17 225 145 6 233 155 31 209 135 30 189 124 42 130 79 22
99 65 27 88 70 46 75 66 49 105 92 76 97 85 73 85 72 66 81 68 59
109 94 75 130 104 55 203 154 59 222 163 47 178 118 6 232 174 75
187 134 56 95 53 0 97 71 38 104 87 69 70 61 46 62 56 42 99 87 73
112 102 90 94 85 78 98 91 83 106 101 82 110 99 71 120 96 58 130 99 53
130 98 47 131 99 52 102 72 34 105 79 52 97 79 59 99 87 71 81 74 58
78 72 56 96 87 72 97 89 76 112 105 99 109 105 96 103 101 86 103 97 81
113 100 91 118 102 89 106 88 68 109 91 67 108 91 75 103 87 72
95 81 68 99 90 75 95 88 72 70 64 48
