P3
#
16 16
255
40 48 24 36 45 16 58 70 30 57 68 28 22 28 2 34 31 12 51 34 18
59 40 26 64 51 43 53 44 35 48 38 26 60 51 34 60 53 34 51 46 24
47 42 23 39 36 17 31 40 9 44 55 21 78 90 50 27 39 1 48 57 30 36 35 15
48 35 18 59 43 30 63 53 44 57 48 39 50 43 27 66 60 38 62 57 27
67 66 35 59 59 33 43 45 23 36 49 5 52 68 23 69 86 42 50 66 29
36 49 23 36 41 21 42 37 18 63 54 39 54 45 38 54 47 37 49 44 25
55 55 21 62 65 12 91 98 44 67 77 40 26 36 9 66 83 31 64 82 34
58 74 35 24 40 3 32 46 11 48 56 19 47 40 0 69 56 14 62 48 13 49 38 8
50 45 15 47 48 8 86 90 29 89 97 37 46 59 16 20 35 2 79 97 47 63 80 35
38 52 19 35 47 11 53 66 13 96 102 30 125 109 21 102 78 0 113 86 0
133 111 36 52 44 0 49 50 8 83 83 29 100 105 51 51 63 23 14 31 0
47 63 16 57 72 31 29 38 11 55 65 30 47 61 0 144 148 61 201 179 68
202 167 47 188 153 37 197 168 64 96 78 0 53 45 0 68 66 5 75 82 31
35 50 9 37 57 20 47 55 16 56 64 27 27 31 4 44 50 14 54 70 5
121 125 38 217 189 82 175 134 18 151 114 0 198 164 41 213 177 37
195 172 44 86 84 1 39 49 0 30 48 6 31 53 17 49 52 23 34 37 8 36 36 10
46 52 14 51 67 4 71 73 0 203 168 64 155 105 0 150 107 0 202 162 30
242 200 28 234 204 46 116 113 20 52 65 11 49 67 25 36 58 22 64 63 45
46 45 24 46 46 18 62 67 27 50 64 5 80 79 0 197 156 51 170 113 0
165 112 0 201 153 19 239 196 19 237 209 47 122 118 27 29 41 0
39 54 13 44 61 25 64 56 43 46 41 22 44 47 18 35 46 4 54 69 14
119 117 40 195 154 49 194 135 15 166 110 0 220 169 28 248 203 26
233 207 48 105 108 19 44 60 13 23 38 0 27 43 6 57 38 24 47 36 18
29 38 7 39 57 15 48 68 15 79 81 6 175 138 31 194 139 10 205 150 8
236 183 27 247 201 28 224 198 49 48 60 0 46 72 25 38 56 16 31 46 7
53 29 17 56 43 24 65 75 41 56 77 34 41 61 12 53 58 0 104 79 0
192 151 37 207 163 32 221 178 39 235 197 60 155 138 24 33 50 0
47 76 32 52 73 30 21 38 0 53 35 23 60 49 29 64 71 37 63 78 35
47 63 16 75 84 31 66 58 0 139 119 46 194 168 75 156 131 39 77 58 0
42 39 0 15 32 0 29 55 16 48 71 25 42 64 15 78 60 46 73 62 42 95 96 65
41 49 12 80 91 51 100 107 66 59 60 20 67 61 13 86 72 9 80 68 8
77 73 38 70 76 50 69 89 54 50 77 34 35 62 11 44 69 14 79 60 43
108 93 74 125 119 97 131 131 107 118 121 92 83 88 56 87 91 58
85 85 49 104 97 53 102 97 55 96 97 65 72 83 51 80 103 59 63 91 40
54 82 24 54 82 23 62 44 24 67 52 33 51 39 23 43 38 19 42 41 20
43 46 19 37 41 14 43 46 15 53 48 16 52 49 16 42 47 17 52 66 31
46 72 24 45 76 19 52 80 21 39 67 6
