P3
#
16 16
255
150 168 120 60 83 29 60 90 26 97 135 58 107 153 63 134 179 84
154 190 100 92 125 38 105 136 58 111 134 66 90 99 46 141 146 105
104 111 80 24 31 0 64 65 21 87 85 34 137 157 104 37 62 4 87 119 52
95 136 57 101 148 56 147 192 97 166 202 114 141 173 88 119 150 70
127 153 80 92 106 47 79 85 39 46 42 13 28 24 0 45 44 0 65 67 17
120 149 85 68 100 33 82 123 47 94 139 54 124 171 75 140 186 88
145 179 93 89 118 36 50 82 0 83 112 30 173 196 124 83 90 36 43 19 0
49 22 1 46 42 4 63 71 22 115 152 83 89 129 58 112 157 76 122 168 80
124 169 74 129 169 73 128 161 72 83 107 23 117 133 45 176 185 104
188 190 125 111 94 48 122 76 53 75 30 11 62 52 16 38 47 0 161 206 141
141 187 115 127 177 92 117 164 72 135 172 79 128 157 64 130 157 62
140 153 61 181 166 81 185 150 84 155 103 64 131 69 46 137 64 47
88 32 9 78 64 25 97 105 58 114 156 92 107 150 79 130 178 92
116 153 58 138 152 54 151 149 49 146 141 41 159 136 42 155 102 22
138 63 6 149 59 33 160 71 55 129 54 31 103 54 21 88 73 32 122 125 80
32 62 0 65 98 27 129 167 84 133 153 54 161 138 26 193 140 26
202 130 28 201 115 28 202 105 34 164 58 6 177 64 32 150 56 30
130 78 39 86 64 17 102 91 46 88 85 40 161 189 114 141 172 94
106 142 54 112 122 23 192 150 32 247 168 49 234 138 35 227 121 35
214 103 32 175 64 9 167 55 18 190 104 69 148 112 62 103 96 41
77 74 23 103 103 53 142 179 83 131 171 74 121 161 64 125 136 32
177 127 16 229 149 36 231 152 47 193 110 18 193 101 26 175 82 23
148 61 18 185 120 78 147 120 65 140 138 77 111 119 59 149 160 100
126 171 66 126 169 64 114 155 53 109 124 21 183 147 37 237 181 72
208 160 58 152 105 13 162 105 26 163 104 38 158 107 52 154 121 67
144 136 73 145 155 86 123 140 70 122 143 74 141 187 89 105 149 52
126 163 67 108 130 30 138 136 27 172 164 55 150 152 55 130 130 44
108 99 20 120 111 36 137 133 62 131 137 65 131 152 75 141 168 89
119 144 63 141 166 85 141 183 97 152 192 104 141 175 88 135 162 67
117 139 31 141 165 55 110 140 44 92 120 33 83 102 20 108 126 44
122 144 61 127 155 70 120 152 69 99 133 47 130 160 74 137 167 79
96 129 60 106 138 65 100 131 53 120 153 64 108 144 38 136 174 63
108 146 43 85 121 25 99 125 34 131 155 67 112 141 51 124 154 66
133 162 78 140 172 87 150 183 92 128 162 67 91 120 56 58 87 20
71 99 25 148 181 94 95 136 34 139 182 75 134 175 73 107 144 48
98 128 38 115 145 57 80 110 22 107 135 48 77 100 18 139 163 79
122 151 61 117 151 57 84 115 47 68 98 26 106 129 51 167 193 106
85 123 24 150 191 89 160 196 100 110 143 52 98 132 48 110 141 63
111 138 59 101 122 43 78 89 11 144 155 77 105 127 45 146 171 90
64 97 26 95 125 51 105 126 47 176 200 114 57 93 0 123 163 64
183 217 123 122 155 66 67 99 23 130 162 87 173 197 123 139 155 80
117 121 45 147 151 75 120 136 61 133 155 80
