P3
#
16 16
255
84 125 55 64 105 35 79 116 49 57 97 34 46 90 31 86 137 78 80 137 69
73 117 54 89 97 48 98 78 41 93 47 21 69 39 11 37 61 25 67 108 74
26 49 29 24 38 25 67 107 36 67 107 37 49 88 23 44 82 23 92 132 79
104 141 89 85 112 57 114 121 70 117 89 50 141 86 56 121 44 24
98 43 22 97 106 75 89 124 94 12 35 15 15 33 17 93 131 58 56 96 26
44 82 23 39 73 23 60 91 49 106 114 77 90 57 26 150 80 54 167 64 45
164 38 24 156 17 10 141 37 26 128 107 88 63 85 62 8 32 10 20 45 24
59 91 26 68 99 39 52 80 29 54 72 30 80 81 49 113 82 54 143 58 38
147 24 9 173 26 18 194 35 31 179 13 13 184 56 53 115 67 53 39 41 20
6 24 0 38 67 39 70 92 45 79 96 51 58 69 26 96 83 48 119 73 47
137 50 30 177 46 28 172 16 3 182 23 17 174 15 12 179 25 27 147 22 20
130 58 44 82 56 33 43 52 23 56 83 50 69 84 53 69 79 45 84 78 46
124 89 61 139 60 43 150 32 18 192 42 25 199 33 17 201 37 28 185 26 23
157 11 12 131 11 10 136 58 48 74 39 20 49 58 27 81 113 76 37 52 31
54 57 36 107 84 66 118 62 47 111 14 5 162 38 28 193 54 35 193 41 20
214 50 38 177 18 12 159 17 15 155 43 42 121 51 51 49 22 11 40 59 31
76 118 80 54 65 51 69 65 53 113 77 65 96 22 13 154 36 32 164 26 16
179 38 18 225 79 56 202 45 30 171 17 7 169 28 21 156 41 38 122 40 42
59 20 15 44 53 32 45 82 51 60 64 50 84 72 60 143 95 85 133 43 35
170 28 24 177 14 5 189 32 13 212 62 38 214 69 50 177 34 18 200 57 41
156 22 11 141 25 25 99 23 23 41 24 16 22 38 25 88 89 81 83 65 55
114 57 46 152 55 46 177 38 31 189 31 20 212 57 37 184 33 12 171 28 11
158 17 0 177 31 18 180 42 32 149 23 24 123 37 40 47 22 18 22 29 22
77 76 74 79 58 53 132 72 62 164 76 62 185 79 63 194 71 53 198 59 38
173 26 6 165 15 1 162 13 6 150 5 2 165 35 35 128 19 24 105 35 37
64 47 39 22 33 19 76 75 73 91 70 65 114 54 46 149 65 54 174 82 67
147 44 25 150 31 11 168 41 24 148 17 7 165 30 26 170 30 33 160 35 39
136 47 51 107 58 54 62 49 40 33 41 26 79 76 69 97 76 71 123 65 61
125 44 40 137 43 33 145 47 34 116 19 3 140 48 33 136 52 42 141 41 39
165 32 37 178 58 60 119 54 50 77 50 41 46 37 28 39 41 30 86 87 79
91 78 70 119 75 72 113 52 49 118 45 39 137 64 55 115 51 39 131 75 62
99 50 43 129 65 63 134 33 37 152 58 59 96 56 48 78 68 56 69 66 57
51 52 44 79 89 80 78 79 71 90 75 68 100 75 70 104 76 72 107 79 75
103 81 70 99 79 68 95 76 69 104 76 72 107 59 59 108 64 63 71 56 51
77 77 69 75 78 71 60 63 56 76 89 80 82 92 83 86 83 74 103 99 90
90 85 82 92 88 85 100 97 88 91 89 77 87 84 77 103 94 89 97 76 73
99 79 78 77 74 69 64 69 63 61 66 59 59 64 57
