P3
#
16 16
255
65 107 59 16 54 7 18 43 3 61 83 47 101 126 96 99 122 94 107 120 94
101 101 75 120 103 83 121 97 71 116 90 53 104 93 47 83 97 44
73 106 51 70 109 54 99 142 88 66 108 58 47 83 35 19 42 0 42 52 18
64 59 37 110 93 77 141 113 99 120 84 72 126 86 76 127 83 70 121 73 50
132 98 63 98 91 47 65 81 32 58 90 40 60 103 49 63 106 50 82 116 65
56 71 30 58 41 13 91 26 20 145 50 54 164 54 65 158 50 63 135 47 61
149 66 76 140 48 49 148 66 55 138 86 62 113 95 59 83 105 58 83 123 71
49 93 34 70 94 44 142 129 94 140 85 65 164 58 58 178 42 54 199 48 67
194 55 76 150 47 66 132 38 56 138 20 34 153 34 40 147 48 42 128 66 45
111 103 66 108 127 82 64 105 45 94 102 55 154 92 71 155 48 42
172 44 43 179 39 42 167 17 26 173 43 51 109 24 31 121 38 46 159 31 46
180 32 46 192 42 51 190 72 68 158 101 81 94 69 38 68 91 39 96 76 39
178 74 65 191 46 49 246 104 103 175 35 34 163 23 24 158 34 34
134 44 44 156 60 62 183 37 50 176 5 23 195 19 32 197 51 54 157 78 61
115 69 43 82 68 31 134 80 56 188 49 52 197 27 38 192 43 45 161 27 24
153 28 24 167 45 42 156 33 35 178 39 46 207 35 47 201 15 29 190 8 20
185 39 39 158 80 58 147 102 69 109 82 52 134 73 52 174 44 44
181 26 32 180 48 46 182 63 57 159 41 37 166 42 42 166 27 32 181 24 33
195 15 27 208 21 32 187 6 15 171 21 20 151 59 38 131 66 36 123 107 73
123 86 59 142 60 46 159 58 48 172 78 66 150 52 43 135 19 20 130 1 6
147 10 18 172 22 31 185 18 28 211 37 46 216 43 49 187 32 30 170 46 34
182 75 57 109 110 68 119 110 71 150 117 86 156 105 78 172 106 84
141 52 38 140 17 19 144 7 15 137 3 10 158 19 26 177 23 33 190 29 37
184 21 24 186 34 31 162 35 26 190 77 63 74 103 49 47 70 18 65 77 31
94 81 39 140 90 57 145 54 33 161 26 23 160 13 19 141 16 20 199 76 79
184 43 51 191 40 47 177 24 26 164 27 21 151 47 34 161 74 57 41 82 22
32 73 13 47 85 28 94 101 50 116 64 25 145 40 18 160 11 7 175 16 21
154 19 23 164 38 41 158 21 28 158 19 22 160 25 21 151 39 27 118 50 31
147 99 76 74 118 55 72 116 53 69 113 52 77 81 30 129 56 23 154 27 10
177 18 14 190 20 23 190 29 35 189 38 43 166 26 29 147 19 16 143 35 22
142 67 44 96 73 42 89 93 58 47 92 27 66 112 47 68 117 52 91 106 51
135 77 40 154 43 23 171 28 22 177 17 19 191 30 35 212 62 64 145 15 13
131 29 17 122 52 27 133 99 64 126 127 93 83 103 66 85 127 61
97 143 78 95 150 83 107 145 86 112 105 59 107 53 25 152 49 42
165 35 37 184 49 46 178 55 48 122 24 11 111 47 22 106 87 47 98 101 58
50 54 19 69 74 44 121 163 97 109 158 92 68 125 57 68 116 54 80 100 49
91 67 33 155 72 66 175 59 62 187 65 60 154 44 31 160 77 59 149 106 74
92 95 48 82 104 55 44 48 15 60 56 29
