P3
#
16 16
255
77 86 55 68 78 44 80 86 50 59 64 24 92 90 52 74 69 29 80 68 28
96 66 12 168 102 26 218 136 62 144 57 14 153 83 57 115 83 60 72 56 40
86 71 64 81 66 63 66 72 44 59 63 36 71 74 45 78 79 47 114 109 77
85 76 43 96 82 47 146 113 62 204 137 58 153 71 0 118 32 0 138 69 27
120 85 57 91 74 56 93 76 66 92 77 70 93 92 72 78 77 57 87 81 65
80 73 55 80 72 53 96 81 60 96 72 48 138 95 52 180 110 25 190 107 5
189 105 9 185 117 42 138 96 56 95 73 52 107 90 74 89 73 58 92 85 69
86 77 62 100 86 73 91 72 55 105 82 51 103 77 44 111 81 55 140 95 53
213 145 62 217 136 31 221 141 28 199 133 39 140 98 50 101 75 50
87 69 47 101 86 65 94 76 66 102 83 69 122 96 79 152 118 83 165 122 54
195 150 82 133 99 54 115 74 30 166 106 33 211 141 45 233 160 49
196 134 35 138 102 44 100 77 43 93 76 50 101 86 63 104 82 71
102 79 65 122 91 70 124 83 37 164 107 20 226 165 74 164 116 50
110 65 8 139 88 23 204 147 70 208 143 51 141 86 3 124 97 44 89 79 44
84 79 49 75 74 46 108 89 75 120 99 80 125 98 69 122 81 29 199 132 45
188 113 11 195 129 35 169 112 35 112 65 11 149 105 58 149 94 40
103 62 10 91 83 46 70 83 53 71 87 58 59 80 49 114 98 73 124 104 69
136 104 53 146 97 28 240 166 79 181 102 1 211 140 34 174 119 29
113 80 29 87 56 25 104 61 26 111 79 41 67 64 33 84 100 71 91 116 86
63 92 61 111 96 53 149 125 65 170 124 36 192 129 32 154 78 0 158 84 0
201 147 41 142 107 13 96 79 27 69 54 21 76 51 11 91 66 26 73 60 25
74 78 45 66 82 53 29 52 24 98 81 35 154 125 57 230 178 66 223 155 32
200 125 24 181 111 15 228 175 69 127 96 5 78 72 20 59 57 19 80 58 9
108 78 18 130 100 36 91 73 11 55 57 10 35 47 7 110 87 53 165 131 68
221 165 46 236 168 23 243 170 32 232 161 33 201 135 25 147 102 19
70 68 19 42 45 2 99 72 5 203 156 64 219 160 44 219 172 58 159 141 57
62 59 0 100 80 53 105 74 19 200 150 39 230 168 25 227 157 9
233 161 25 195 127 18 113 71 0 73 73 23 56 60 10 123 91 14 220 163 58
241 167 34 229 166 35 175 147 50 83 72 0 89 79 54 101 83 37
142 107 17 226 175 58 233 166 36 230 160 36 225 171 65 151 120 38
91 94 37 34 37 0 143 110 29 222 163 63 199 124 9 213 147 37 121 91 5
83 69 0 78 76 53 92 87 47 105 92 22 138 111 20 177 129 27 167 118 16
141 107 20 84 70 0 46 56 3 34 41 0 89 65 0 154 107 25 162 105 18
188 140 58 111 88 21 68 60 0 78 81 60 90 97 64 75 90 35 100 109 42
92 85 17 113 102 36 71 69 12 53 61 12 27 45 5 20 35 0 39 33 0
97 80 26 74 56 6 124 110 63 42 39 0 62 65 22 80 88 67 75 90 61
63 91 43 73 100 45 63 75 25 59 67 20 50 61 19 50 68 30 42 66 32
48 68 31 65 70 30 23 21 0 61 62 30 53 58 28 57 62 30 64 71 38
