P3
#
16 16
255
20 36 0 17 33 0 28 46 8 50 68 26 55 73 31 48 67 22 54 76 29 74 96 49
62 81 36 46 65 20 64 80 41 88 104 67 81 95 60 69 83 50 63 76 48
53 66 38 14 29 0 39 55 19 53 69 32 44 62 22 40 59 14 51 70 24
58 78 29 54 74 25 59 79 30 73 92 46 96 113 69 96 112 73 71 87 50
52 68 32 51 66 35 52 67 36 27 40 10 36 50 17 44 58 22 39 55 16
31 48 4 35 53 5 54 72 22 74 92 40 87 105 53 97 115 63 86 106 57
62 81 35 47 65 23 40 58 18 39 56 20 44 61 25 50 61 29 50 61 27
55 67 29 57 70 26 49 63 14 46 61 6 65 80 23 92 107 48 92 110 48
91 109 49 61 80 24 35 55 2 36 56 7 30 52 6 27 48 7 38 61 19 45 53 16
70 78 37 79 86 42 62 70 19 53 63 3 62 72 9 66 77 8 58 70 0 64 77 5
66 82 11 54 71 3 45 63 1 42 63 7 23 45 0 20 43 0 43 69 24 59 63 13
69 71 21 77 80 23 79 81 16 74 76 3 72 75 0 79 83 0 87 91 6 85 91 5
61 70 0 40 52 0 40 55 0 44 62 2 33 53 0 30 52 5 45 68 24 85 81 17
81 78 9 105 101 27 141 136 54 141 136 45 120 114 16 134 126 25
168 163 59 150 146 46 103 103 7 62 66 0 47 55 0 44 56 0 49 64 9
48 65 20 41 59 17 60 52 0 97 87 0 150 139 47 186 174 72 188 174 65
175 158 42 172 156 35 181 165 43 189 177 59 159 148 40 127 123 26
92 91 8 56 61 0 54 63 8 56 69 25 40 55 14 39 25 0 125 110 7
192 174 62 191 170 51 194 171 41 203 177 40 191 164 23 194 167 26
220 196 62 210 190 67 160 146 39 118 108 19 59 56 0 69 72 17 56 63 21
43 51 14 70 53 0 128 111 0 185 163 41 209 185 53 202 171 29 185 151 0
202 167 11 234 199 45 218 183 37 231 201 67 229 206 90 171 155 59
95 85 13 54 52 0 58 61 18 61 67 31 127 111 0 134 114 0 149 125 1
205 177 41 230 196 47 222 184 25 237 195 31 226 184 20 226 186 28
222 185 42 250 220 96 218 196 94 160 147 68 70 64 4 65 64 18 69 73 36
99 84 0 152 135 27 187 165 46 231 203 70 226 192 43 220 180 20
255 216 47 234 190 19 239 196 31 207 170 17 232 202 68 231 209 98
192 178 90 87 82 14 65 65 13 69 75 31 52 40 0 144 131 39 209 190 85
248 222 101 223 190 49 212 173 16 255 212 45 234 191 17 228 186 16
215 179 20 226 197 57 209 188 69 145 135 38 72 70 0 57 63 1 69 78 25
53 46 0 99 90 15 149 134 43 213 191 82 238 208 76 233 196 46
240 199 33 212 170 0 206 166 0 210 177 12 210 184 37 166 148 20
105 98 0 64 68 0 61 71 2 56 70 8 41 39 0 65 60 2 107 95 21 165 146 51
213 187 66 223 191 48 225 187 28 228 190 19 210 174 2 194 163 0
207 183 31 174 162 28 144 142 29 75 85 0 66 80 1 49 69 0 40 41 1
52 50 1 77 68 1 117 101 13 187 162 46 227 195 58 226 190 32
240 203 34 236 200 28 191 163 0 236 215 60 230 221 82 212 213 96
76 88 0 60 78 0 59 81 6
