P3
#
16 16
255
30 58 18 45 81 37 42 88 41 31 79 27 82 124 74 109 137 88 141 148 104
141 140 96 129 128 82 109 119 69 176 205 149 195 230 172 173 203 149
150 168 118 149 141 102 95 77 41 36 61 22 38 69 27 35 74 29 85 127 77
123 156 109 136 153 108 172 169 128 114 100 61 123 110 68 189 185 140
202 214 164 187 205 153 208 222 173 137 136 92 88 64 30 101 66 36
26 43 7 53 74 35 82 110 69 138 165 120 149 164 123 145 143 104
149 125 91 136 100 68 153 114 81 218 185 150 222 203 163 209 194 153
198 176 139 131 95 63 124 66 44 134 66 47 62 76 41 110 126 89
169 187 149 167 182 141 166 166 130 160 141 108 101 57 30 195 137 113
228 166 141 238 178 152 217 168 138 197 150 120 134 80 54 92 26 4
134 46 34 110 13 4 134 148 113 156 170 134 194 206 170 170 174 137
164 151 119 160 126 98 90 32 10 186 111 92 214 133 114 240 157 139
171 94 74 150 73 53 146 63 47 125 31 19 147 35 31 155 35 34
182 198 162 177 189 153 181 188 154 173 169 134 139 113 86 129 83 59
128 57 39 144 58 43 190 97 82 219 123 109 150 57 42 135 42 27
160 59 49 153 44 37 144 20 20 156 26 28 196 213 177 178 192 156
174 175 143 148 135 103 121 87 62 121 64 44 149 72 56 138 46 33
126 25 13 128 26 14 113 12 0 126 24 12 127 20 12 160 47 41 164 44 43
158 34 34 186 197 163 158 162 129 147 136 108 81 51 25 108 55 37
133 61 46 120 30 19 135 32 23 139 31 21 135 24 15 131 20 11 132 21 12
112 1 0 150 37 31 151 36 33 153 35 33 167 162 133 150 134 108
111 76 56 93 37 20 119 41 31 135 41 33 134 25 20 140 22 18 146 24 19
140 18 13 138 16 11 139 20 14 139 21 17 137 24 18 146 34 30 156 47 42
117 90 69 115 78 59 109 49 38 115 32 24 140 34 34 156 36 37 158 28 30
156 22 23 157 21 21 158 22 22 155 19 19 154 22 20 160 35 33 169 51 47
166 57 52 157 52 46 103 54 40 107 45 34 126 38 36 145 32 34 163 27 37
187 37 48 200 44 55 195 40 48 179 24 30 179 26 31 173 20 25 165 19 22
175 39 41 189 65 63 176 64 60 148 45 38 130 72 61 126 53 46 146 41 45
162 31 39 173 18 34 202 35 52 228 60 75 226 58 71 202 36 46 195 31 40
183 19 28 172 17 23 178 35 39 182 57 55 163 56 50 138 40 31 132 75 64
126 53 46 144 38 42 162 26 36 175 14 32 203 32 50 225 53 69 219 49 62
208 42 52 193 29 38 181 17 26 177 20 27 173 33 36 165 43 40 150 49 41
140 52 40 102 56 41 109 47 36 136 36 38 160 30 38 182 25 42 200 33 50
203 37 51 193 29 40 189 29 37 177 20 27 174 14 22 172 21 26 163 29 30
148 35 29 135 47 35 135 59 43 89 62 41 110 64 48 133 50 46 153 38 41
178 36 48 188 34 46 178 27 36 175 26 32 166 20 23 168 23 26 172 26 29
168 28 29 156 32 30 140 39 29 119 46 29 109 48 27 105 89 64 128 93 73
138 63 57 143 37 37 168 32 42 171 25 35 164 19 26 170 30 33 163 23 24
179 41 41 188 45 47 174 40 39 159 41 37 143 49 37 114 47 28 87 35 11
