P3
#
16 16
255
28 48 20 56 65 44 65 55 46 65 57 44 77 98 59 97 127 75 100 124 72
116 139 85 101 128 73 70 92 46 56 60 37 66 62 51 68 63 57 73 66 58
63 54 37 83 72 52 59 78 48 53 63 39 61 52 43 43 37 23 63 80 44
97 125 76 105 129 77 112 137 82 69 93 41 82 99 57 73 75 53 64 60 49
79 75 66 70 66 55 68 63 44 90 84 62 85 100 69 65 74 47 52 46 32
60 57 40 103 118 87 83 109 64 106 133 80 96 123 68 51 71 22 77 87 50
66 63 44 73 67 55 65 61 49 72 70 55 84 86 65 71 75 52 51 62 32
49 55 29 59 57 42 56 54 39 62 73 43 102 115 69 94 103 36 99 103 29
81 83 18 71 68 13 82 69 27 70 57 23 77 72 42 72 75 46 117 128 98
56 69 39 34 43 16 43 48 26 54 54 42 62 63 49 52 62 27 44 42 0
140 107 10 224 184 73 181 152 50 172 146 51 157 125 38 160 137 59
111 106 42 101 110 55 94 113 67 46 72 27 43 52 25 41 49 26 48 50 39
56 57 41 67 69 32 99 81 15 191 132 28 255 188 72 227 172 69 137 89 0
169 122 16 212 174 73 180 166 78 109 115 41 98 119 62 75 105 55
50 65 34 37 50 24 44 51 35 56 55 35 58 49 10 119 87 26 197 126 38
237 152 61 194 122 50 142 75 4 161 97 0 232 181 76 217 190 87 97 93 4
106 124 62 93 121 73 66 82 46 33 46 16 41 45 22 57 45 19 94 63 19
126 72 12 152 69 0 221 126 58 173 87 30 124 43 0 159 83 0 255 198 88
223 188 84 120 113 23 95 110 51 84 111 66 113 123 88 41 47 13
52 45 16 95 67 30 183 124 68 167 87 26 135 40 0 150 50 1 177 81 21
161 68 0 186 102 0 241 176 60 178 144 47 74 68 0 72 89 37 53 81 41
63 68 38 65 64 33 51 38 6 132 98 53 222 153 86 151 62 0 156 59 8
184 83 29 228 131 52 201 109 10 232 148 32 210 150 36 161 134 45
78 79 11 31 49 1 65 93 53 39 36 21 46 40 18 49 36 4 150 120 70
216 156 84 152 69 0 174 78 4 219 120 37 229 139 29 233 153 32
185 115 1 174 129 26 152 140 56 84 96 30 32 54 5 93 121 80 40 40 28
47 46 26 54 51 16 87 74 22 97 58 0 149 89 19 166 88 22 185 106 27
199 132 27 234 178 69 153 106 14 162 133 55 128 124 60 112 125 71
51 69 27 94 119 80 33 45 23 54 69 40 30 48 8 65 78 32 52 49 4 66 44 5
106 67 34 106 62 23 122 92 30 131 110 45 87 70 18 74 62 20 85 80 48
80 83 54 77 86 57 77 90 60 20 38 14 41 62 31 34 61 20 43 70 25
48 65 29 52 56 29 80 64 48 81 63 43 77 68 35 74 71 36 77 75 50
67 64 45 91 88 73 86 84 69 62 65 44 53 58 35 40 58 36 41 61 34
35 61 22 53 80 35 49 72 30 56 70 35 63 58 39 79 70 55 68 67 46
70 72 51 81 79 67 64 61 54 88 85 78 82 79 70 66 67 53 68 69 53
33 50 31 42 62 35 46 70 34 65 92 47 69 95 50 52 70 32 73 72 52
70 66 54 69 72 55 57 61 47 59 58 53 72 68 65 89 85 82 66 63 56
64 62 50 62 60 47
