P3
#
16 16
255
96 82 21 66 61 3 62 76 23 61 85 33 57 81 23 52 78 17 58 86 27
60 89 31 75 103 52 73 103 53 74 111 57 67 105 46 56 93 26 66 98 31
79 107 49 68 93 38 99 81 17 74 63 0 58 58 0 48 56 0 52 62 1 54 66 2
63 78 9 83 99 28 94 107 38 91 104 35 85 102 31 84 103 24 86 102 14
85 100 15 75 92 24 77 97 36 70 48 0 71 47 0 89 60 0 94 66 0 76 57 0
81 67 0 92 81 0 117 103 6 152 134 34 138 116 14 137 116 7 168 146 27
181 157 25 149 130 9 103 102 12 88 96 23 143 106 15 188 143 52
209 150 60 188 127 44 174 124 51 133 92 12 196 161 57 212 175 58
213 169 48 193 145 19 210 161 32 234 185 48 229 177 29 229 190 53
183 171 71 93 95 12 184 118 0 202 129 16 188 96 0 191 97 10
181 100 21 154 87 0 212 155 42 208 153 24 227 165 30 210 144 6
216 148 11 246 180 42 247 181 43 211 161 36 122 107 4 87 87 0
226 157 38 211 136 21 216 123 19 217 120 25 217 128 44 167 91 3
166 104 0 196 136 16 225 155 34 226 152 29 216 145 19 227 159 32
177 111 0 162 114 3 149 133 37 126 124 37 176 133 39 174 126 26
147 85 0 242 174 65 206 137 44 171 107 20 150 99 8 153 102 11
172 107 25 153 85 0 170 108 9 187 130 25 191 139 37 211 172 77
172 157 76 121 117 43 90 64 0 102 66 0 174 115 11 245 174 68
213 136 44 186 112 27 164 99 15 160 97 17 129 63 0 122 56 0 145 88 0
154 101 7 171 121 22 181 141 45 184 159 69 129 111 25 62 42 0 88 48 0
182 101 19 220 116 27 211 103 15 203 94 9 212 111 23 209 118 27
194 118 22 161 95 0 164 107 17 163 107 12 185 125 15 185 128 12
196 147 29 192 150 30 75 63 11 140 106 45 186 104 30 206 96 11
221 102 10 222 102 7 211 98 2 205 105 7 212 131 26 188 124 24
148 98 9 129 84 0 169 116 10 181 128 12 174 132 14 171 132 13 57 56 2
129 107 47 179 116 39 205 114 23 224 117 11 229 121 10 232 133 29
216 127 27 196 118 20 163 104 12 130 99 17 130 107 27 144 113 23
143 113 23 124 109 24 101 95 11 42 52 2 64 55 0 121 72 0 191 112 17
225 128 15 245 142 23 225 131 18 228 145 43 211 141 53 109 63 0
68 53 0 80 76 12 94 82 10 95 85 13 92 95 26 80 89 22 29 52 8 62 65 10
129 92 12 189 119 21 227 133 19 232 128 7 239 140 20 230 147 43
191 138 62 59 33 0 36 35 0 45 57 9 63 72 17 77 83 23 86 91 25
77 82 15 17 43 8 44 56 10 93 76 7 164 122 38 189 125 28 195 124 20
211 144 40 189 138 49 109 83 24 33 30 0 45 59 23 40 62 24 45 63 23
56 69 23 72 83 27 66 76 15 23 46 18 21 41 6 48 59 16 70 73 20
108 102 40 131 123 58 123 123 61 109 116 62 53 68 25 34 56 20
42 69 34 36 63 30 39 55 26 36 49 19 52 70 30 58 79 36 5 25 0 2 25 0
8 33 3 25 51 14 48 71 25 69 95 48 76 112 68 74 112 73 55 90 57
24 59 26 22 57 24 41 70 39 24 39 16 14 28 5 43 67 35 39 66 31
