P3
#
16 16
255
201 118 42 159 99 27 94 83 17 117 126 69 111 118 67 151 158 114
67 78 36 68 78 43 59 57 36 54 51 32 52 58 32 90 98 74 38 39 25
29 27 15 36 37 23 42 43 27 138 78 15 107 66 2 97 93 32 69 80 22
129 134 76 125 128 73 171 173 123 81 82 38 73 67 33 53 48 18 89 90 58
80 84 57 30 31 13 22 23 5 38 40 18 54 57 30 51 39 0 51 47 0 76 84 33
55 66 6 120 124 50 157 154 77 194 179 112 115 97 35 104 88 29
96 85 31 101 94 50 62 62 26 35 40 10 24 31 0 66 73 31 68 74 28
31 44 16 44 56 18 85 94 41 64 66 0 121 111 13 190 167 63 197 159 74
198 157 77 94 63 0 185 161 71 161 144 72 56 47 0 45 47 10 66 73 39
72 80 31 70 79 24 11 23 1 34 40 2 68 65 0 133 115 15 226 190 54
232 179 41 188 119 16 215 146 45 223 169 37 230 188 50 226 197 79
117 101 14 60 55 13 56 60 33 64 73 28 60 70 17 21 31 6 51 52 8
91 76 0 202 170 49 236 187 33 239 174 28 165 90 0 164 89 0 238 172 34
241 186 33 243 201 57 161 133 24 51 39 0 46 44 19 51 58 14 49 62 9
49 57 20 61 59 0 146 122 14 231 192 53 232 185 33 226 172 38 140 82 0
133 71 0 213 150 37 235 171 35 247 191 42 220 178 57 48 26 0 64 57 28
46 52 6 50 60 7 67 69 30 62 56 0 159 137 28 229 191 58 223 172 31
220 163 47 129 78 12 109 53 0 162 92 4 222 151 35 241 179 36
222 174 50 81 60 0 75 71 34 59 65 19 61 71 19 65 56 25 50 42 0
110 100 13 181 155 45 223 162 45 183 111 11 125 66 10 129 68 23
129 50 0 186 107 14 236 172 48 220 181 64 85 78 8 67 79 33 54 66 20
42 54 8 36 30 4 36 34 0 75 78 11 128 112 27 200 141 49 157 83 0
122 58 0 125 60 2 150 73 1 175 101 14 196 139 32 100 68 0 65 66 0
52 68 21 62 75 31 51 64 21 31 43 19 27 41 8 75 88 42 111 106 48
146 103 35 144 81 2 161 94 5 190 124 27 201 139 38 191 139 38
179 140 47 62 40 0 52 51 0 60 69 26 35 47 7 30 45 6 25 35 11 27 40 12
71 86 53 81 84 41 50 23 0 130 82 8 190 128 27 218 155 39 194 142 20
194 154 43 150 124 40 69 58 0 41 41 0 36 45 2 51 64 21 33 48 5
38 31 3 44 43 15 71 81 54 75 81 45 53 39 0 144 114 41 203 155 53
214 162 40 200 151 20 210 173 56 122 105 23 96 94 35 47 55 4 52 66 17
58 72 19 49 64 9 94 63 34 74 53 24 95 89 63 60 59 28 53 41 0
107 87 28 136 101 20 112 74 0 191 155 45 178 154 54 87 82 14 80 87 36
74 88 37 51 65 14 45 56 0 60 69 12 95 33 8 103 52 25 115 88 58
56 40 7 46 26 0 41 20 0 33 9 0 39 18 0 72 57 0 80 78 21 76 85 42
50 66 27 60 77 32 62 76 27 59 61 11 68 66 15 114 36 13 111 46 18
88 49 16 50 25 0 45 23 2 78 59 44 79 60 45 44 32 10 40 37 6 34 41 7
56 73 41 73 95 59 47 68 25 32 46 0 66 64 16 72 64 17
