P3
#
16 16
255
118 94 34 112 88 26 110 84 23 110 87 20 106 83 16 93 76 6 88 80 8
92 92 20 74 84 11 70 87 17 114 135 70 86 110 52 102 122 73 86 103 61
88 99 65 65 74 43 100 68 11 123 91 32 133 98 40 123 91 32 118 88 26
114 89 25 109 91 27 108 100 35 123 126 59 116 127 59 123 139 74
110 130 69 101 118 63 83 97 46 81 93 45 63 72 27 90 43 0 146 99 45
164 114 63 138 88 39 123 75 27 117 75 25 113 80 29 116 93 41
146 135 79 141 141 79 133 139 75 126 137 69 94 107 37 81 93 21
81 91 18 78 86 13 111 54 0 166 109 56 178 117 70 144 83 39 124 62 23
113 58 19 115 66 26 129 90 47 139 111 63 143 127 68 172 163 96
139 135 61 101 100 17 99 98 6 105 102 7 122 119 22 140 81 25
152 92 38 141 77 29 120 53 11 113 43 7 109 40 7 109 46 13 121 65 28
128 81 35 140 104 46 223 193 123 157 132 48 133 109 13 137 115 6
148 123 7 179 154 35 196 142 82 164 108 49 137 76 22 130 64 16
131 59 19 133 59 22 133 61 23 131 64 22 116 54 3 128 74 12 222 173 97
168 121 31 166 119 15 173 126 12 192 142 19 220 171 43 166 122 57
134 89 24 129 75 13 127 66 9 112 42 0 117 44 0 138 62 10 135 60 3
140 66 3 142 72 0 187 119 34 191 122 27 207 136 32 207 134 21
232 155 37 239 163 41 137 98 29 132 92 22 164 113 47 165 106 40
125 58 0 137 64 0 185 108 38 196 118 43 192 115 35 181 107 20
166 92 0 218 145 43 237 160 56 226 145 37 251 166 57 239 153 42
120 80 10 149 107 35 154 102 29 156 97 21 151 84 3 169 97 12
218 143 50 215 141 44 213 141 39 193 124 20 196 129 24 219 152 47
235 168 64 242 173 72 238 164 67 223 149 54 114 69 2 145 98 28
159 105 31 169 108 27 161 94 5 169 99 1 210 139 33 214 148 36
189 128 13 187 132 15 193 143 30 201 154 46 211 163 63 222 175 83
215 165 80 186 135 52 112 60 0 154 100 36 186 128 55 206 143 63
199 132 41 190 125 23 207 145 34 210 155 38 196 152 31 179 144 24
170 145 29 162 145 37 155 140 45 150 138 52 138 127 48 115 106 31
122 80 20 163 119 56 190 141 72 197 144 66 199 144 54 203 148 48
209 161 53 210 170 57 176 149 32 125 110 0 95 91 0 93 100 0 81 94 4
66 84 2 69 86 15 78 98 29 127 109 47 149 128 63 146 119 50 123 91 18
139 102 22 172 136 48 190 157 64 197 173 75 184 172 72 123 123 23
85 96 0 78 101 11 72 101 19 68 102 26 84 120 50 102 139 72 95 108 39
106 116 47 95 96 26 70 63 0 96 82 11 134 118 43 138 122 44 148 140 59
130 129 47 100 109 28 75 94 13 59 87 10 59 95 21 83 123 53 104 146 80
106 148 84 49 102 24 57 103 28 63 99 27 60 86 15 94 106 42 105 111 47
83 85 22 99 100 40 82 88 26 76 90 28 74 94 31 68 94 31 72 102 38
100 135 71 128 163 99 129 165 101 35 107 25 36 101 21 49 103 28
62 103 33 96 122 61 88 106 48 56 65 12 84 93 40 96 106 54 85 99 46
83 104 48 78 103 46 61 89 30 60 90 30 77 109 46 90 122 59
