P3
#
16 16
255
51 89 52 54 80 43 79 77 39 98 76 35 103 69 21 112 72 13 121 78 10
121 73 0 125 66 0 161 87 14 191 99 34 194 100 38 179 95 35 152 88 26
131 98 31 139 120 51 76 104 63 66 83 41 82 73 30 110 79 33 128 82 30
143 92 29 153 99 27 154 95 17 165 94 16 183 97 22 195 94 24 194 91 25
185 93 30 165 96 29 145 105 35 144 118 44 93 103 50 75 74 20 89 62 9
126 77 21 156 92 30 177 103 32 190 113 33 196 112 26 199 105 18
206 100 16 212 92 16 208 87 16 196 92 21 183 101 28 167 114 38
160 121 42 76 74 15 68 53 0 95 56 0 140 80 18 171 92 25 190 100 24
206 111 29 218 114 27 207 93 5 213 88 4 220 87 8 213 83 8 192 80 6
180 89 16 166 105 25 155 108 26 51 43 0 62 42 0 109 65 2 157 92 26
182 95 26 195 95 19 214 105 23 230 110 24 238 108 24 230 93 12
228 88 11 218 86 12 199 87 15 192 104 30 179 120 42 157 112 31
42 36 0 68 50 0 120 80 19 164 103 40 183 100 32 200 99 27 220 107 29
234 109 29 245 109 31 220 80 5 205 68 0 197 72 5 189 86 19 200 121 54
190 140 69 157 121 47 46 49 0 68 61 6 110 85 29 144 98 39 167 97 35
197 105 38 220 111 42 224 103 32 207 76 8 183 51 0 172 48 0 160 51 0
141 56 0 149 90 32 148 114 53 115 95 34 51 61 9 64 67 14 90 77 22
116 84 25 148 90 27 188 107 42 215 112 45 212 95 28 198 73 7 189 65 3
190 77 19 164 71 14 114 47 0 107 64 11 109 90 34 85 76 21 38 55 3
64 73 20 89 87 28 105 84 21 134 86 20 180 110 41 209 112 43 201 88 20
201 82 16 222 107 44 193 93 33 149 70 11 112 60 3 94 64 10 81 71 18
70 70 18 41 56 1 64 75 17 84 84 20 98 83 14 133 95 22 175 112 35
202 108 34 204 93 21 215 97 27 231 118 50 201 108 41 154 83 19
114 70 9 90 68 10 78 71 16 72 72 18 69 77 17 89 95 31 96 96 24
111 98 20 153 117 33 178 116 31 186 94 11 195 84 2 221 102 22
228 115 37 205 113 38 153 85 12 116 73 4 88 65 0 78 68 7 81 76 18
57 61 2 74 79 13 77 81 7 107 99 18 170 140 54 196 141 51 199 111 22
216 107 22 214 98 15 213 104 22 194 109 29 135 73 0 105 67 0 79 59 0
78 64 3 89 80 21 47 52 0 56 62 2 49 59 0 80 81 3 153 133 47
186 140 52 196 116 29 216 116 31 218 109 26 206 105 23 191 114 34
117 64 0 92 62 0 73 55 0 73 61 3 89 78 24 55 64 19 54 66 16 41 59 0
60 72 0 115 108 30 153 121 38 176 109 28 197 108 28 222 125 48
207 117 41 191 127 53 102 60 0 83 62 0 69 59 0 67 59 10 77 69 23
31 47 18 36 58 20 39 69 19 54 80 19 91 98 31 134 116 44 170 117 47
187 112 44 201 118 52 185 110 43 176 127 61 77 49 0 68 59 4 60 62 15
57 57 21 58 57 26 24 46 23 39 66 35 56 91 49 65 98 43 78 92 31
110 99 33 145 100 35 155 87 24 170 94 32 158 90 29 156 114 54 55 34 0
54 52 3 55 62 20 52 55 26 47 49 25
