P3
#
16 16
255
121 88 37 144 108 58 160 116 67 152 98 51 145 74 30 151 62 20
170 56 22 182 51 21 193 52 24 185 46 17 194 74 39 183 92 47
160 109 52 138 128 57 90 113 33 55 97 11 117 90 37 110 78 27
121 84 32 146 98 49 153 86 41 141 57 13 158 48 13 190 61 30 200 59 31
189 50 21 195 72 38 179 84 40 154 97 42 134 115 47 90 104 27 60 92 9
111 96 39 103 84 28 120 95 39 155 118 65 161 105 56 142 65 19
151 49 11 185 62 29 196 56 29 187 47 20 195 68 36 180 76 37 156 88 39
142 108 47 104 99 31 78 90 16 91 89 28 120 114 54 153 138 79
168 142 85 168 122 70 164 96 49 170 74 34 179 60 26 192 57 28
186 46 19 197 66 36 188 76 39 170 89 44 163 112 57 133 109 47
113 104 37 80 91 25 119 125 61 151 150 86 160 144 84 172 135 80
192 130 81 197 108 66 190 77 43 202 71 41 192 54 26 195 61 34
182 63 31 170 76 38 173 105 58 155 109 57 141 109 52 104 121 53
116 129 60 131 134 67 147 136 72 172 140 83 195 137 87 203 119 75
204 96 60 211 84 52 188 54 25 181 47 20 159 38 7 149 49 13 160 81 38
148 90 42 141 91 40 113 130 60 118 131 62 127 130 63 141 127 64
158 123 67 175 117 67 191 108 64 205 98 62 201 78 47 176 47 18
168 38 12 151 32 2 144 44 10 156 74 34 141 77 33 128 72 25 88 101 32
118 125 58 139 135 71 136 118 56 137 98 43 156 94 45 182 98 54
200 96 59 188 67 36 168 43 13 169 45 17 161 48 18 161 64 29 169 90 51
146 82 38 127 71 24 96 101 35 113 112 48 123 109 48 160 131 73
144 94 43 152 81 35 177 85 44 199 92 56 191 72 42 175 54 25 164 49 20
162 59 26 149 64 27 174 105 64 154 100 54 147 99 51 122 118 55
117 107 46 113 91 33 145 106 51 155 94 47 164 85 42 180 82 43
177 67 32 185 67 37 180 65 34 171 64 32 153 60 26 137 63 24
178 119 77 175 131 84 172 134 85 127 117 56 126 107 49 129 96 42
144 92 42 158 85 42 160 68 29 182 75 41 172 54 24 165 46 16 168 55 23
154 54 20 120 38 0 96 33 0 147 100 54 158 126 77 159 136 84 113 98 39
112 92 33 126 86 34 131 73 25 153 72 29 153 53 17 188 73 42 177 56 27
169 48 19 167 54 24 148 54 20 113 38 0 86 32 0 132 96 48 146 124 74
154 141 88 113 102 40 95 75 16 94 54 2 105 43 0 144 56 16 159 50 17
196 72 44 182 54 27 182 56 31 166 53 23 148 54 20 126 54 14 98 50 4
129 101 51 132 119 66 142 137 82 126 118 55 107 88 29 97 58 3
109 47 0 132 40 1 145 32 0 186 58 31 190 56 31 190 60 36 167 52 23
148 53 21 130 61 22 100 56 11 114 91 41 98 91 37 98 99 42 111 110 45
104 90 29 101 64 9 133 71 24 137 45 8 145 30 1 176 44 19 194 55 32
195 63 40 184 64 37 167 72 40 144 75 36 112 68 23 124 102 52 94 89 34
76 79 22 82 83 17 70 59 0 71 36 0 139 77 30 162 68 32 177 59 31
183 49 24 184 44 21 179 44 22 182 62 35 174 77 45 148 79 40 119 75 30
140 118 68 109 104 49 81 84 27
