P3
#
16 16
255
99 125 62 98 123 58 123 146 78 111 134 64 108 134 63 94 125 49
88 126 43 96 130 44 124 145 66 119 140 61 135 166 88 131 166 86
132 163 85 140 172 89 125 164 75 130 171 77 109 138 72 107 136 69
88 115 46 105 128 56 89 102 32 103 111 36 130 135 53 142 147 63
135 144 61 133 148 65 145 170 87 155 184 102 132 161 81 138 167 83
134 169 79 118 155 62 117 153 83 110 146 74 99 135 61 134 156 83
153 145 72 167 131 57 170 111 35 151 99 16 168 153 62 160 167 72
149 162 74 156 176 89 141 165 81 139 167 80 125 154 64 136 165 73
86 124 49 88 126 51 89 130 52 81 105 27 92 83 4 124 81 3 151 72 3
222 145 67 221 183 82 199 182 74 189 178 73 170 170 72 149 164 73
139 163 75 145 169 81 141 165 77 60 97 19 62 99 19 74 112 29
85 113 28 86 97 5 118 100 18 142 86 27 164 94 25 200 142 32
230 180 49 196 147 19 192 161 45 164 166 67 155 175 88 150 174 88
150 175 91 58 84 19 84 110 36 95 116 25 144 157 52 175 174 66
142 122 25 113 60 0 158 89 14 196 123 8 253 179 44 245 168 38
223 163 43 195 171 65 164 165 71 155 170 85 146 169 87 58 65 31
56 60 1 161 152 47 249 226 96 228 190 57 226 174 52 202 138 40
211 137 40 232 150 38 230 141 21 200 104 0 214 128 17 220 160 46
203 172 66 165 168 81 149 168 89 30 24 0 68 53 0 167 134 29
231 183 55 232 177 51 206 145 30 201 137 39 167 97 2 172 90 0
229 138 31 219 122 17 231 141 31 213 144 27 198 160 49 167 167 77
142 161 82 136 120 61 202 173 105 204 153 64 171 110 17 152 98 12
161 112 35 173 126 56 147 93 21 137 65 0 220 140 43 228 143 36
221 148 35 226 176 61 196 175 68 157 166 75 149 174 91 147 133 60
159 135 61 162 119 41 175 126 49 161 121 49 146 111 43 129 93 31
121 77 14 137 78 8 164 99 15 178 116 15 174 126 16 164 142 31
152 150 49 132 151 62 128 157 75 126 130 54 112 112 38 116 108 36
103 91 15 130 115 30 138 120 34 140 112 38 120 85 19 139 100 35
154 116 43 156 127 35 182 169 67 142 150 49 133 154 59 120 148 64
112 143 65 109 129 58 106 123 55 114 124 61 100 101 33 155 145 58
171 150 59 160 127 46 135 95 25 150 108 50 121 85 23 172 147 63
165 159 65 117 136 46 124 154 68 99 132 51 111 144 65 60 90 30
33 57 0 74 87 34 103 98 40 148 120 46 134 92 8 142 94 9 133 77 2
103 40 0 119 58 4 130 81 4 146 120 35 125 132 52 105 132 53 97 129 46
93 128 44 36 69 14 48 75 20 55 72 18 85 85 25 128 104 34 170 131 56
163 116 38 135 81 11 107 46 0 139 78 23 165 107 33 152 116 32
120 118 43 100 121 44 93 122 40 81 115 29 103 131 72 70 99 35
68 95 26 109 126 56 142 139 70 127 109 45 98 72 13 73 41 0 96 60 2
146 105 41 185 134 55 155 117 34 106 99 21 99 113 36 87 110 30
90 117 36 43 69 6 43 72 5 84 116 41 98 125 48 98 105 38 61 55 0
79 61 13 88 66 16 96 71 14 95 65 0 143 96 16 111 73 0 97 88 9
91 102 24 93 114 35 81 106 25
