P3
#
16 16
255
31 56 17 61 84 38 63 87 27 100 119 55 108 117 64 75 60 17 127 76 49
119 48 28 123 55 36 133 77 54 138 108 74 113 87 50 143 103 67
90 55 23 25 14 0 8 11 0 36 60 24 95 121 76 121 147 86 100 122 58
97 112 57 129 116 72 167 105 80 174 88 71 170 87 69 183 112 90
171 120 91 170 125 92 165 115 82 75 36 7 29 18 0 13 17 0 55 81 46
95 122 79 105 135 75 98 127 63 121 146 88 162 149 105 207 125 104
220 106 95 200 93 77 175 74 54 169 74 56 199 112 92 183 111 86
98 50 27 29 16 0 9 16 0 116 144 106 136 165 121 103 134 75 28 58 0
100 128 70 157 146 101 190 105 84 193 75 63 179 66 48 171 64 44
176 77 56 169 77 56 186 95 74 140 75 53 55 40 19 21 31 7 110 142 93
116 148 98 70 99 43 35 62 7 84 108 56 148 141 99 150 85 57 177 80 61
208 107 87 164 74 50 159 99 65 180 115 83 150 45 24 185 97 77
90 73 47 11 28 0 68 96 47 116 143 92 96 120 68 85 108 56 113 130 85
138 126 88 150 78 54 172 65 47 176 59 42 201 96 74 180 114 80
199 135 100 165 69 45 148 68 45 90 71 41 27 38 6 64 81 39 76 91 48
79 93 44 55 69 20 72 85 41 137 110 80 203 99 86 204 55 49 186 23 14
193 43 28 190 74 51 237 150 122 103 36 7 105 61 32 96 79 51 90 85 56
65 77 37 36 49 6 87 98 55 80 91 48 88 101 58 102 75 45 190 82 69
206 47 43 214 35 30 202 25 17 208 54 42 220 105 86 119 54 26
128 95 64 124 107 79 127 120 92 79 98 52 55 74 29 57 74 32 71 88 46
89 107 65 93 79 42 166 82 58 190 52 41 197 25 21 241 56 54 236 56 57
194 45 39 181 89 68 89 42 14 136 120 94 124 127 98 125 149 97
91 113 64 80 102 56 48 69 26 85 111 66 110 105 65 132 62 36 186 64 49
209 52 45 231 53 53 209 24 29 206 47 44 195 95 79 107 57 30 57 48 17
95 106 72 106 129 75 110 135 80 102 126 74 95 123 72 69 101 51
125 126 86 173 108 86 175 65 52 160 28 16 193 40 34 238 70 70
222 77 74 181 94 77 164 125 96 78 75 40 47 65 23 128 124 77
116 118 69 110 124 71 100 123 69 70 99 45 113 116 71 105 51 23
174 81 63 170 57 41 214 77 67 218 55 56 193 49 48 161 80 63
131 100 71 106 112 74 83 109 64 136 75 47 122 77 44 117 104 62
102 110 59 85 100 45 116 116 66 107 68 29 135 64 34 157 61 39
212 84 73 223 53 56 201 47 49 138 57 40 110 85 55 162 174 138
146 177 136 136 71 43 117 71 37 113 100 55 106 115 62 91 105 46
145 150 94 126 105 58 141 97 58 171 106 76 185 84 66 200 48 47
188 48 47 123 52 32 61 40 9 87 97 62 111 135 99 92 76 27 74 68 16
71 86 27 96 121 56 78 103 38 129 145 83 135 138 85 142 131 85
173 150 109 160 105 75 172 66 53 173 69 58 98 51 25 51 36 3 58 55 20
54 58 23 74 82 23 90 104 43 105 134 67 82 115 46 91 120 53 106 128 64
110 125 70 128 135 84 70 69 23 120 90 54 185 103 82 185 99 82
76 39 10 66 53 18 59 50 17 60 54 20
