P3
#
16 16
255
64 62 75 58 58 66 40 41 43 24 30 20 28 36 12 35 43 6 48 52 2 68 68 8
75 64 0 73 50 0 151 114 44 180 127 61 198 130 67 184 104 45 182 91 38
192 96 45 50 44 54 47 42 48 33 32 30 32 34 21 51 55 28 62 67 27
63 63 13 66 62 1 98 84 19 132 108 38 161 122 53 166 113 47 185 117 56
160 79 23 165 74 21 171 75 25 47 35 37 52 41 39 46 37 28 49 42 23
69 64 34 80 75 33 74 69 14 72 61 0 106 87 19 169 138 71 155 112 44
140 85 20 164 94 34 141 60 5 154 64 14 158 63 15 49 29 22 63 43 32
66 48 28 65 50 21 81 67 28 96 82 33 103 88 29 113 94 26 126 99 30
166 129 59 151 102 35 134 74 11 147 75 17 144 63 10 156 65 18
159 67 20 53 21 0 64 34 8 71 42 10 87 59 19 118 92 41 142 118 58
157 133 63 173 143 70 178 142 66 163 119 44 165 111 41 152 88 24
143 68 10 159 78 25 156 68 22 163 72 27 91 49 9 84 42 0 85 45 0
117 81 23 170 132 67 195 159 85 199 162 82 205 167 82 214 169 84
171 120 37 169 112 35 162 95 25 141 67 6 166 85 30 158 72 23
171 83 37 158 106 48 134 83 20 123 72 6 157 109 35 205 157 75
217 170 82 212 166 72 220 172 74 220 167 71 196 140 47 159 97 12
149 82 4 137 64 0 158 79 20 159 78 25 183 100 50 205 146 68
176 117 37 160 102 18 186 129 39 217 162 62 219 162 59 219 163 54
239 181 73 222 164 57 233 171 70 154 89 0 137 69 0 137 65 0 144 70 5
158 82 24 186 109 55 213 148 54 190 126 28 168 103 1 213 149 41
219 156 43 218 153 35 226 161 41 248 183 63 240 175 57 241 178 65
165 100 0 145 79 0 112 45 0 156 88 15 173 104 39 196 126 64
205 137 30 190 122 13 177 110 0 231 162 43 242 172 50 237 168 41
230 161 31 231 162 33 246 178 53 250 184 64 196 130 20 181 117 17
159 95 7 179 118 38 191 131 59 207 146 79 202 132 20 197 128 11
194 124 3 242 171 45 245 172 43 242 170 36 234 160 25 225 153 19
232 162 32 237 169 46 209 143 30 194 132 29 180 121 29 164 109 27
168 114 40 174 121 51 211 141 27 211 142 25 212 142 21 250 176 51
236 162 31 238 164 29 245 169 32 236 162 27 235 162 33 237 169 46
226 163 49 209 150 46 199 146 54 155 104 21 156 110 35 155 111 40
213 145 36 208 138 26 209 138 22 252 178 57 241 166 39 250 173 43
253 174 43 231 154 22 231 158 30 233 164 43 229 167 56 207 152 51
199 149 60 145 99 21 149 109 39 151 112 45 203 134 31 180 112 5
181 109 0 237 164 49 242 166 44 255 177 51 245 166 39 203 126 0
210 136 13 216 147 30 207 144 38 178 124 28 160 112 28 108 66 0
113 76 8 116 82 18 205 137 40 167 99 0 161 90 0 217 143 34 219 142 26
235 156 37 235 155 32 200 121 0 201 129 11 213 145 34 199 137 36
167 114 22 137 91 13 92 53 0 94 60 0 97 67 7 223 157 63 180 112 15
163 94 0 204 132 24 191 113 2 210 131 13 237 156 38 226 147 28
192 119 4 211 143 34 194 135 35 167 116 27 135 89 12 99 62 0 99 67 8
104 75 19
