P3
#
16 16
255
32 53 20 32 52 17 38 54 17 40 47 0 63 56 0 107 93 0 134 118 0 94 83 0
62 61 0 51 57 0 37 40 0 47 53 9 39 46 0 53 58 0 79 79 27 44 42 0
56 73 39 38 55 19 35 50 11 38 43 0 96 85 0 228 209 88 228 207 66
209 191 57 167 158 53 53 51 0 33 37 0 37 44 3 58 65 11 104 112 55
75 77 27 31 33 0 51 62 28 51 63 27 43 54 14 40 40 0 138 121 7
230 203 50 235 205 29 239 209 35 219 193 48 118 104 0 58 60 10
33 45 9 54 63 10 84 93 36 72 79 35 31 39 0 36 43 2 37 40 0 40 38 0
58 47 0 183 156 23 231 198 33 239 205 22 246 210 26 233 192 26
219 191 65 64 64 2 45 57 21 39 49 0 41 51 0 34 42 1 39 49 14 52 52 2
51 44 0 123 102 0 165 135 3 228 192 42 172 136 0 153 119 0 198 159 0
234 186 14 246 208 63 50 43 0 19 28 0 35 47 0 46 57 14 33 39 5
39 42 11 51 44 0 166 151 60 244 211 78 228 188 31 221 178 22
184 144 0 175 136 0 234 190 31 249 193 20 236 191 40 166 151 60
44 49 0 33 42 0 46 56 19 25 30 0 22 25 0 93 81 0 224 205 87
228 197 47 208 166 6 209 164 11 176 130 0 232 180 18 236 182 12
238 177 8 227 180 32 196 177 75 90 89 22 54 57 10 51 58 24 32 38 12
23 31 8 116 105 0 166 148 20 214 183 31 218 176 16 204 157 7
214 163 9 242 188 20 223 166 0 215 155 0 229 180 26 119 96 0 58 50 0
41 40 0 34 39 9 17 26 0 26 34 10 62 60 0 164 154 30 227 196 54
183 139 0 219 169 20 214 161 7 242 190 26 226 175 0 242 191 4
243 201 29 201 176 50 48 38 0 34 33 0 22 28 2 20 26 0 44 51 20
48 54 0 181 178 73 174 153 38 175 140 10 216 168 24 198 145 0
203 155 0 223 176 8 254 205 24 234 195 30 198 177 60 41 33 0 52 54 14
18 24 0 23 27 0 58 62 25 44 51 0 102 108 38 76 73 2 101 85 0
218 178 44 226 177 23 191 145 0 210 165 14 241 191 34 235 195 61
128 113 32 19 21 0 42 49 15 16 26 0 30 32 0 36 35 0 72 81 34 56 65 18
72 79 35 89 84 18 188 162 51 187 150 18 176 138 11 185 147 24
187 148 29 144 116 19 39 32 0 13 19 0 36 47 17 36 43 9 41 40 0
110 105 50 49 59 22 35 45 8 33 40 6 46 48 1 59 49 0 160 143 53
158 134 38 141 120 29 43 32 0 29 26 0 35 32 0 25 28 0 32 42 15
39 47 10 30 25 0 127 116 52 19 30 0 20 31 0 31 45 12 39 49 12
60 67 16 87 85 24 91 83 10 38 33 0 18 25 0 25 34 5 31 34 5 36 39 12
20 30 3 19 25 0 43 37 0 151 138 70 34 48 13 41 57 21 35 55 18
33 54 15 45 62 17 45 59 8 39 48 0 48 57 4 52 68 23 44 59 20 24 31 0
45 50 20 31 40 9 15 22 0 35 32 0 137 129 66 26 40 5 55 72 36 31 53 15
11 38 0 32 55 11 29 51 5 24 41 0 36 53 8 49 68 22 40 57 13 38 48 14
39 46 15 53 63 29 26 33 0 30 29 0 101 95 33
