P3
#
16 16
255
107 124 69 123 140 85 122 135 82 93 106 53 77 91 42 87 103 54
101 120 74 100 124 76 93 122 76 97 129 82 89 120 76 65 94 50 44 65 26
41 55 19 57 64 30 70 74 41 111 121 68 124 134 81 134 142 91
129 136 85 115 123 74 101 110 63 85 98 52 71 88 43 73 96 50 67 94 49
62 91 45 57 84 41 57 78 37 60 76 37 68 78 43 76 82 46 128 128 76
129 129 77 133 129 81 130 126 79 121 114 70 107 102 60 101 100 56
99 105 61 85 98 54 73 92 47 65 88 42 67 90 46 67 88 45 67 85 43
74 89 50 86 98 58 141 127 80 135 118 72 122 101 58 103 80 38 93 68 28
101 78 37 120 98 59 132 118 79 113 108 68 100 103 60 90 101 58
82 99 54 70 87 43 60 77 33 76 91 48 100 115 72 173 136 94 166 127 86
143 99 62 119 71 35 120 67 35 138 88 55 148 99 67 136 96 61 119 91 54
104 86 48 93 88 48 90 93 50 78 87 44 67 80 36 78 91 47 99 112 68
191 131 97 183 118 86 160 89 61 142 66 40 158 76 52 182 100 76
173 96 70 142 72 46 129 72 43 112 69 35 101 73 36 104 89 48 104 99 57
97 98 54 89 95 51 88 95 51 175 87 63 173 81 58 164 65 44 157 50 32
166 53 37 178 65 49 177 66 49 160 57 38 155 67 45 143 72 44 136 81 50
136 96 61 136 110 73 132 114 74 118 106 66 106 99 57 173 63 46
187 74 58 202 80 67 202 71 61 189 51 41 179 38 29 184 46 36 192 62 49
173 58 40 174 75 54 172 92 67 164 100 72 157 108 75 155 117 81
151 121 85 147 121 84 178 54 44 197 66 58 216 77 70 231 82 78
200 41 38 190 26 24 220 58 55 196 43 37 181 40 30 183 60 44 191 86 65
190 102 78 175 103 78 162 101 72 165 112 81 176 127 95 188 59 53
192 57 51 205 60 57 230 75 73 224 58 58 226 54 54 239 67 65 200 35 31
192 39 31 187 49 36 179 59 42 171 66 45 166 75 54 166 88 65
172 100 76 174 107 81 163 42 34 174 47 40 195 58 52 216 67 63
207 48 45 209 41 40 222 53 50 197 32 26 189 35 25 187 45 33 181 54 39
170 57 39 166 63 46 168 75 57 172 85 66 174 89 69 164 60 49 179 71 59
204 83 74 211 78 71 196 52 44 198 45 39 214 57 50 209 55 45 180 32 20
184 47 31 194 68 53 197 82 64 188 81 63 176 76 60 180 83 67 189 96 79
156 79 61 160 79 62 174 81 64 175 69 55 177 57 43 189 62 47 199 66 51
201 68 51 194 65 46 185 63 42 190 75 56 204 95 75 197 94 77 181 81 65
186 89 73 207 111 97 155 105 80 162 106 81 179 111 88 177 97 74
185 90 68 205 100 78 215 105 82 231 119 95 227 117 92 203 95 69
185 83 60 187 87 64 180 83 64 168 72 56 177 81 67 198 102 88
109 82 52 114 83 52 135 91 62 132 77 47 147 78 49 170 89 60 169 82 52
188 97 66 208 115 84 204 113 82 195 105 78 180 90 64 163 72 51
158 67 49 171 79 64 188 94 82 89 75 40 72 52 17 76 46 12 83 40 6
125 66 34 153 84 51 124 48 14 117 37 2 147 63 29 187 103 69
210 127 97 189 105 77 162 76 53 161 74 55 185 93 78 201 109 96
