P3
#
16 16
255
78 121 75 69 119 70 60 120 69 68 126 75 77 119 69 103 99 62 153 68 61
160 70 62 107 77 49 112 118 74 116 123 79 110 128 78 93 123 71
109 148 93 85 122 68 113 150 96 57 99 49 83 130 78 90 143 91
102 146 95 103 125 79 112 86 53 135 34 26 164 52 48 147 91 68
159 130 98 129 103 68 105 93 53 97 111 62 136 163 110 106 135 81
112 142 88 63 104 46 72 113 57 53 87 36 68 84 37 132 112 75 136 66 41
161 24 18 188 35 37 175 62 54 182 88 76 178 86 73 119 51 30 119 95 59
148 151 104 141 151 99 90 107 53 46 87 27 62 100 43 62 90 41 93 95 55
125 84 54 130 39 21 172 22 21 200 36 43 173 47 50 163 47 48 175 47 48
150 42 32 132 75 46 151 132 90 151 153 106 116 130 81 59 102 48
59 97 46 81 109 68 104 108 75 139 96 77 134 44 36 184 43 49 196 52 62
151 51 63 134 39 47 173 39 46 171 42 36 187 101 74 168 126 88
151 151 113 131 153 114 80 120 68 50 88 39 58 91 46 107 119 83
139 113 90 134 61 52 178 49 54 173 41 55 122 42 55 113 33 46
184 54 66 208 65 67 188 70 56 149 73 47 123 106 76 82 93 59 94 132 81
54 93 40 57 98 42 117 147 97 97 105 66 132 91 69 154 40 40 152 26 38
135 64 78 126 58 73 160 43 59 201 56 69 201 46 54 156 32 30 111 59 38
75 58 28 67 100 55 29 66 15 80 121 63 56 95 40 93 122 76 123 108 79
134 37 31 138 24 32 134 66 77 135 69 81 160 45 62 202 60 74 200 46 56
168 44 44 144 93 72 108 93 62 13 41 3 48 79 37 109 147 96 31 71 19
58 97 53 121 122 91 141 67 54 147 49 48 119 50 55 131 54 62 161 39 50
188 55 60 192 78 68 167 95 73 151 140 110 124 144 107 50 80 42
93 125 84 46 82 38 59 96 52 100 137 96 136 135 105 165 89 76
154 50 49 108 23 28 104 9 15 152 21 27 172 44 41 143 62 41 140 100 64
133 126 80 108 120 70 93 135 87 68 110 64 56 92 54 60 90 56
104 126 88 76 55 28 144 42 40 181 47 56 163 50 56 150 33 39 175 32 34
160 37 30 152 96 73 149 121 81 146 112 48 183 145 70 95 143 93
59 102 57 70 105 72 54 79 49 89 99 65 112 78 53 135 30 27 181 42 49
175 46 51 187 64 66 183 66 57 134 48 31 144 119 89 153 142 97
170 132 67 168 116 40 67 114 72 77 119 79 40 74 39 48 67 35 73 72 44
106 70 48 134 44 33 178 56 51 173 40 41 194 83 76 156 101 80
121 106 73 138 150 110 132 144 98 149 131 81 107 74 21 49 89 52
44 80 42 49 79 41 45 65 28 46 49 18 109 90 60 128 81 53 176 101 78
127 26 14 129 52 36 122 111 79 98 125 82 63 96 49 102 119 74
161 139 100 137 94 60 67 93 56 47 73 34 48 75 30 83 109 62 83 109 62
119 143 95 156 174 124 115 114 68 107 77 43 93 68 37 95 111 74
100 137 94 49 87 38 99 108 63 144 93 64 137 55 33 50 70 33 50 73 31
63 87 39 88 118 64 53 90 38 115 160 103 125 175 116 90 128 71
117 120 77 122 122 84 81 109 69 103 146 101 77 117 67 93 99 55
123 57 31 135 33 18
