P3
#
16 16
255
73 109 21 78 106 22 90 96 24 138 129 64 149 124 68 152 119 65
181 141 89 139 92 38 136 79 26 154 88 36 146 76 25 142 82 30
123 87 35 85 80 22 70 98 37 66 112 47 62 81 0 74 85 6 93 86 18
148 124 64 161 124 71 165 119 69 189 139 88 152 96 45 138 72 22
154 80 31 149 73 24 151 85 35 132 90 40 87 76 20 64 88 28 58 100 36
107 95 21 116 98 26 131 95 35 173 122 69 178 115 71 175 106 64
191 120 76 160 86 39 153 71 24 163 75 29 157 66 22 159 81 35
136 84 37 84 63 10 58 71 15 55 86 26 168 125 57 170 119 56 172 105 52
193 112 67 187 97 60 176 84 47 185 91 53 167 71 31 176 74 34
181 75 35 168 62 23 164 70 32 134 67 25 78 41 0 56 54 3 59 76 21
186 107 50 184 99 45 187 86 42 199 87 50 194 76 46 183 64 34
185 67 37 178 59 25 192 69 35 198 74 40 185 60 28 175 65 32 140 56 20
82 29 0 60 42 0 64 62 14 179 78 26 179 71 24 187 65 26 199 69 37
202 66 40 192 56 30 185 51 24 185 51 22 192 54 25 205 66 35 195 55 28
189 61 34 157 56 26 104 34 0 76 38 1 66 47 5 186 74 24 182 64 18
189 57 19 198 57 27 206 62 36 198 54 30 183 43 18 191 51 24 190 45 18
204 56 28 193 41 18 188 48 25 173 57 32 135 48 20 103 48 17 80 42 6
189 82 30 180 65 18 180 52 13 186 49 17 196 56 29 194 54 29 184 46 20
198 60 32 191 47 20 200 50 23 183 27 5 179 32 12 179 53 31 159 59 35
127 60 31 97 46 15 173 82 27 174 77 26 173 64 21 173 55 19 180 57 26
192 67 37 196 73 42 195 70 38 199 64 34 184 41 11 179 27 4 187 38 18
183 52 32 162 56 34 133 56 30 120 59 31 167 99 38 168 93 36 165 77 31
162 66 26 174 74 38 195 92 57 202 99 64 201 93 57 185 67 31 194 64 32
192 48 22 172 30 6 159 33 11 159 53 31 150 70 45 138 72 46 150 109 45
153 107 47 154 94 42 154 86 41 174 101 60 201 126 86 205 130 88
197 114 72 183 86 44 184 72 35 174 47 15 160 32 3 161 45 20 172 74 49
162 88 61 145 86 56 126 109 40 134 110 46 138 103 47 142 99 48
166 118 72 195 144 97 192 142 93 175 117 69 176 102 55 160 69 25
148 40 2 152 42 7 158 58 26 159 74 43 157 97 63 164 115 82 108 109 41
112 108 44 113 98 39 115 92 38 133 107 58 156 128 78 152 125 72
138 103 49 142 91 38 147 79 30 157 70 25 156 64 23 140 58 20
128 63 25 138 94 55 161 129 88 96 109 40 93 102 37 89 87 28 87 78 23
95 83 31 108 96 44 109 98 42 106 87 29 107 75 18 145 96 40 175 108 56
173 101 53 157 90 47 138 87 42 110 83 36 91 74 28 76 95 29 75 89 27
77 82 24 78 78 24 80 78 27 82 81 27 83 84 26 89 83 23 104 84 23
134 98 38 164 112 55 172 115 62 164 112 64 133 97 47 76 63 11 29 28 0
56 78 13 60 78 16 74 83 26 86 91 37 86 90 39 78 83 29 75 83 24
84 86 23 115 101 40 123 95 32 141 94 38 148 97 42 126 83 32 84 57 4
48 41 0 36 41 0
