P3
#
16 16
255
55 81 16 66 90 30 54 74 25 29 46 4 39 53 20 23 36 8 21 34 8 37 45 4
45 43 0 44 39 0 57 58 0 94 98 39 39 45 11 12 22 0 19 32 4 75 90 59
72 96 34 86 107 48 57 75 23 28 43 0 59 66 33 16 19 0 30 30 0 66 61 5
192 179 83 201 188 76 146 133 29 110 103 22 25 29 0 26 37 5 25 40 7
36 53 19 67 85 27 90 108 48 68 88 29 62 74 24 49 46 13 58 44 9
68 43 0 80 49 0 233 197 57 248 210 47 253 215 56 207 180 49 52 49 0
32 44 0 21 39 0 16 37 0 42 52 0 85 95 32 89 98 19 82 78 5 59 35 0
73 33 0 198 148 95 197 141 56 237 179 46 251 184 31 255 180 32
244 182 59 176 155 76 59 64 10 67 80 36 53 69 30 36 40 0 81 81 11
140 126 17 145 113 4 114 59 0 165 97 58 159 86 51 141 64 18
185 101 31 223 120 43 180 48 0 166 53 0 146 97 39 43 31 0 29 27 0
41 45 10 46 46 0 130 121 42 230 204 68 240 193 55 170 98 14 146 64 16
126 47 17 120 38 14 126 33 0 178 66 28 173 30 0 171 45 0 172 111 48
60 39 0 46 39 0 52 54 17 58 56 0 140 129 39 234 205 51 243 193 34
174 97 0 125 41 0 117 44 12 117 46 28 139 57 35 133 37 0 189 77 11
210 110 25 188 132 39 67 42 0 58 55 0 51 59 18 70 74 15 123 117 23
231 203 42 251 200 31 239 164 47 164 82 6 122 50 2 133 63 29
132 54 15 134 52 0 206 116 19 230 149 31 227 169 46 154 121 18
87 82 16 79 87 40 95 114 59 126 131 41 229 203 46 252 204 34
228 165 36 200 126 29 141 62 0 143 63 0 172 94 9 197 120 14
231 157 22 233 162 12 229 165 16 216 171 46 119 103 25 87 88 31
115 135 86 126 130 46 213 186 35 241 190 21 209 150 10 229 160 41
185 106 5 234 151 49 237 158 40 243 169 34 244 175 20 234 169 5
237 171 12 215 165 34 145 128 48 97 96 42 99 108 61 134 128 50
206 169 29 241 186 21 239 176 21 230 162 19 214 139 14 230 152 28
237 159 25 245 171 24 245 175 15 237 172 8 230 166 8 212 164 38
125 107 41 86 83 48 74 79 25 155 148 70 229 200 72 224 177 25
220 164 9 240 175 23 215 143 0 211 136 0 214 141 0 235 163 1
234 166 0 238 175 10 236 183 29 173 138 20 89 80 21 52 57 27 75 84 17
141 145 61 169 159 46 183 160 30 206 167 30 232 176 31 240 172 13
246 174 4 250 183 6 244 179 0 240 171 0 253 195 26 235 199 51
130 117 3 62 68 8 55 71 35 88 97 32 100 108 33 78 85 0 103 100 0
155 133 24 164 126 3 227 175 30 254 198 39 250 197 29 249 195 24
255 197 31 238 192 37 220 203 71 108 110 9 95 109 50 84 102 64
56 64 13 81 92 36 64 79 14 68 79 10 85 85 13 102 91 9 167 145 44
188 159 42 205 172 41 216 180 44 221 181 49 210 182 59 169 168 62
94 108 23 60 75 20 53 69 30 89 98 53 85 99 50 90 108 58 94 113 58
92 102 49 92 94 31 101 96 15 109 95 0 111 89 0 154 128 9 106 74 0
96 78 0 73 82 0 87 108 31 74 91 39 53 68 27
