P3
#
16 16
255
172 94 0 209 136 23 203 136 21 134 73 0 93 32 3 73 28 23 47 30 23
29 26 19 39 35 32 41 40 35 63 65 54 77 81 67 59 59 49 44 53 36
35 59 27 42 74 33 219 134 25 227 147 36 240 164 52 196 126 31
139 74 20 98 49 19 66 37 19 49 32 22 47 32 29 47 37 35 41 43 30
32 39 23 41 44 33 23 31 16 23 43 15 43 70 35 217 122 14 222 130 21
242 150 41 208 121 15 207 136 32 213 155 73 164 113 70 78 35 19
75 37 36 62 38 38 40 40 28 18 29 12 24 32 19 30 38 23 27 40 22
38 53 32 209 121 23 190 101 0 209 114 8 223 133 19 210 139 11
194 131 18 168 105 34 110 53 10 102 52 25 78 50 29 70 74 49 34 50 24
37 46 25 35 42 24 28 37 20 45 56 39 133 66 0 200 129 41 207 125 23
222 142 27 180 114 0 166 106 0 191 128 23 188 129 37 197 150 68
98 75 7 77 87 37 53 75 36 55 65 30 40 47 16 52 64 40 50 65 44
151 87 23 217 152 72 155 84 0 226 156 32 244 179 49 243 180 51
208 139 20 225 162 48 218 171 57 187 159 59 104 102 28 70 74 15
92 83 28 68 60 11 33 38 0 36 48 12 122 47 0 149 80 5 183 120 6
230 167 28 238 168 21 239 166 27 231 156 39 236 166 55 247 191 68
221 176 59 157 118 23 162 124 39 188 143 60 170 134 56 112 98 33
50 48 0 178 81 38 146 57 0 199 127 16 244 177 37 255 179 31
244 163 22 184 108 0 236 166 52 237 178 60 187 134 22 187 131 36
160 95 11 167 92 11 163 97 21 178 140 69 60 37 0 185 52 21 168 48 0
207 113 13 245 161 36 251 163 29 244 161 23 227 155 19 245 184 59
237 184 80 118 64 0 160 100 28 153 77 19 153 50 7 153 54 12
177 108 53 83 32 0 168 40 11 159 43 0 184 91 0 207 124 4 189 104 0
223 142 9 238 172 36 246 190 69 185 134 43 113 59 0 133 67 7
157 71 22 174 60 23 141 29 0 150 70 17 162 100 39 138 54 17 170 94 34
221 156 56 208 144 20 207 134 5 231 160 32 227 168 48 198 145 41
129 76 0 114 54 0 146 75 13 162 73 13 184 78 16 165 66 1 151 82 17
161 108 42 132 95 50 147 113 52 180 150 60 205 172 65 188 146 38
184 135 30 152 102 5 190 139 50 156 99 20 187 123 51 184 111 43
183 100 30 208 116 33 202 117 34 188 132 55 80 38 0 95 109 60
95 108 54 84 99 34 68 79 11 91 98 31 102 93 28 101 63 0 155 101 29
175 111 21 218 149 58 186 114 38 182 109 32 212 138 41 225 163 62
204 162 76 93 62 0 47 87 35 46 84 33 74 108 58 69 98 52 49 75 36
54 60 22 99 66 25 123 67 8 173 110 17 203 136 32 199 133 46
195 134 45 223 169 63 217 174 72 202 175 96 99 80 14 58 105 51
44 84 34 40 71 29 26 51 12 16 35 5 52 51 21 109 70 41 116 58 10
178 122 35 210 153 48 241 184 81 218 169 66 220 183 77 197 172 82
82 69 16 35 27 0 69 118 63 58 100 50 40 68 28 30 49 17 30 46 19
52 48 23 80 38 16 113 56 13 169 114 31 205 154 47 190 138 28
168 125 13 150 121 17 70 53 0 55 47 8 31 28 9
