P3
#
16 16
255
56 98 32 51 96 27 74 120 47 72 118 43 65 102 33 61 100 33 95 140 73
77 117 54 90 115 60 67 81 28 52 63 7 46 57 1 42 52 0 43 57 4 58 75 23
57 75 23 61 102 36 66 107 39 81 124 52 73 115 43 52 89 20 60 89 22
136 157 82 78 86 13 86 76 15 91 75 16 115 104 42 68 58 0 81 71 9
62 58 0 62 69 15 67 80 27 74 113 46 76 113 46 79 114 46 72 104 37
44 79 15 63 76 4 175 145 57 191 132 42 169 87 14 171 90 24 169 109 37
162 113 36 194 143 60 127 90 12 51 36 0 54 52 3 71 106 42 71 106 42
101 131 67 92 122 58 68 97 31 78 76 1 209 150 50 232 138 40 172 69 0
229 131 66 138 64 0 163 94 25 184 105 28 217 149 74 97 67 7 112 99 46
40 71 14 73 104 45 104 135 75 74 103 37 101 122 53 148 136 52
220 149 45 217 125 24 164 87 15 130 67 13 140 88 41 121 56 14
144 46 0 187 95 44 133 91 31 104 86 24 71 100 44 63 92 34 96 127 67
59 84 16 83 90 10 188 162 65 239 162 48 189 101 0 178 119 43
133 88 33 96 46 9 123 58 26 140 48 9 138 54 7 151 111 49 108 89 20
96 124 63 74 102 41 77 107 45 84 100 27 204 190 93 225 180 65
241 163 37 221 141 26 198 144 56 122 74 10 106 45 1 120 55 15
114 54 0 119 73 11 115 91 21 94 80 7 77 103 40 59 85 22 82 111 47
64 80 7 141 131 36 143 101 0 207 133 10 219 138 21 226 162 72
131 74 5 140 76 28 99 45 0 107 77 17 111 96 29 90 82 10 85 81 8
56 76 17 42 64 2 80 109 45 65 90 24 74 90 19 110 94 9 204 133 27
212 117 11 200 112 25 144 69 1 115 60 6 108 76 27 142 133 78
104 108 49 88 95 28 73 83 14 89 110 51 51 75 13 83 113 49 58 90 25
58 86 25 125 123 46 199 138 31 218 126 15 210 115 25 157 77 4
116 68 4 113 94 36 141 150 95 138 159 103 69 87 25 73 92 28 98 128 64
74 106 41 91 130 63 58 95 28 72 99 32 142 142 54 211 162 34
241 162 31 210 122 22 184 108 24 224 181 102 143 130 60 138 157 101
93 126 73 54 79 22 71 95 35 54 85 25 93 128 64 119 160 94 80 120 50
51 81 11 138 138 48 230 187 56 249 178 38 215 134 19 182 112 16
170 134 50 128 124 51 100 126 65 85 122 68 71 102 43 82 110 51
84 111 60 92 123 66 136 175 108 112 152 81 71 104 33 104 108 21
219 175 52 255 186 48 224 143 12 185 122 9 121 99 16 89 95 31
77 103 42 87 123 61 73 108 44 81 116 52 27 50 6 116 144 93 122 159 92
86 126 53 102 137 69 125 134 51 197 157 44 219 152 22 245 168 38
220 160 48 130 116 41 69 84 27 72 100 41 83 117 56 92 128 64
85 122 55 10 35 0 41 69 21 84 116 51 67 103 31 97 134 67 95 109 34
146 116 18 191 131 19 221 148 37 184 128 31 111 106 40 49 72 20
56 83 28 81 112 53 73 107 46 71 107 43 25 49 13 13 41 0 53 83 19
72 108 36 87 123 59 84 101 30 161 134 43 171 116 13 166 94 0
161 107 17 107 105 44 49 73 23 35 62 11 65 94 38 56 90 29 68 104 40
