P3
#
16 16
255
4 11 0 14 21 3 18 23 1 13 19 0 12 18 0 3 10 0 6 13 0 22 29 0 41 50 7
38 46 7 37 47 13 6 16 0 0 8 0 0 8 0 11 23 19 0 9 7 7 13 1 4 11 0
13 18 0 13 19 0 17 23 0 4 11 0 36 43 0 85 93 46 117 125 78 91 98 56
58 66 29 31 40 11 1 10 0 0 11 0 5 15 7 6 17 11 12 17 11 4 10 0
13 17 0 10 16 0 38 44 10 40 45 4 87 94 43 134 138 87 163 167 116
155 159 109 119 125 81 80 86 50 11 17 0 0 7 0 2 8 0 16 22 12 0 4 3
1 6 0 15 19 4 21 25 0 92 96 61 133 136 89 173 178 122 181 185 124
172 173 113 180 181 123 172 175 122 127 128 84 63 65 28 31 31 5
18 20 0 7 8 0 2 6 9 0 5 1 13 17 3 39 43 18 118 123 83 162 167 113
185 187 122 181 182 112 184 184 110 159 159 87 173 172 107 153 151 94
143 141 93 73 69 31 43 38 8 7 1 0 16 19 24 5 9 8 16 20 6 73 77 50
129 132 87 149 153 94 159 161 88 182 184 101 181 181 95 127 125 40
157 154 75 164 160 89 177 171 111 76 69 17 58 46 6 41 32 0 10 15 18
9 14 8 23 27 10 107 113 79 149 153 102 175 178 109 172 174 91
208 209 115 166 164 64 125 121 22 154 148 54 161 153 68 162 152 80
82 71 7 85 69 17 92 79 27 8 14 12 19 27 16 23 31 8 105 111 73
135 140 82 171 175 99 144 147 56 158 159 57 165 163 54 143 136 29
150 143 39 150 140 45 150 138 54 124 107 35 124 106 42 116 97 38
9 19 10 29 40 23 50 59 30 99 108 63 138 144 80 137 142 60 144 146 49
149 148 40 157 154 41 164 158 44 147 139 30 150 138 36 145 132 40
126 109 29 133 115 41 144 125 56 12 25 8 57 71 46 95 106 72
130 140 90 136 145 78 124 129 47 136 140 43 148 150 41 144 140 30
152 146 34 135 127 18 139 127 25 147 132 41 140 123 41 147 129 53
149 131 59 16 31 8 66 82 53 107 122 83 141 153 103 148 159 93
144 151 73 159 164 72 161 163 62 171 168 65 170 165 61 145 136 35
140 130 35 148 133 48 140 124 46 140 123 51 134 117 47 14 33 5
61 80 48 105 121 82 139 153 104 151 162 102 161 171 100 184 189 109
176 179 92 167 166 74 159 154 62 129 122 34 133 122 40 141 127 52
128 113 44 133 118 53 137 121 59 34 55 24 85 104 72 133 151 113
158 173 130 151 164 111 158 168 108 185 190 124 176 177 107
185 183 109 162 158 85 126 119 49 125 116 51 116 104 44 82 69 14
86 70 19 102 86 37 21 41 13 48 69 38 82 102 67 110 126 87 105 118 74
107 117 67 118 125 73 90 93 38 68 65 10 58 53 0 38 31 0 54 44 0
59 48 2 40 28 0 57 43 4 82 68 31 29 52 24 27 50 21 43 62 32 71 88 54
73 87 51 80 90 53 87 94 53 48 50 10 41 38 0 46 41 1 32 24 0 39 29 0
46 35 3 37 26 0 49 35 8 58 44 17 8 33 4 3 26 0 14 34 6 31 48 16
17 30 0 22 32 0 48 54 20 29 30 0 18 15 0 37 32 0 26 17 0 22 13 0
29 19 0 30 20 0 34 22 0 23 11 0
