P3
#
16 16
255
156 148 73 154 143 64 151 133 47 166 141 48 163 131 32 154 120 13
161 127 20 147 116 10 149 124 23 126 107 13 126 114 30 113 105 30
93 90 23 88 86 25 78 77 20 81 80 24 144 133 53 157 142 59 160 139 50
169 141 44 170 135 33 180 142 35 200 159 51 182 145 39 161 129 28
128 103 10 119 101 17 100 86 13 79 70 5 82 73 14 88 81 26 108 101 47
150 130 43 171 147 57 179 149 53 191 153 52 204 160 53 223 175 65
233 183 72 196 149 41 173 131 29 138 103 9 130 102 19 111 87 15
83 62 0 76 55 0 85 65 15 111 90 43 158 132 37 166 136 38 166 128 27
186 139 33 211 157 48 234 177 64 236 176 64 192 134 24 169 116 12
138 92 0 137 97 12 125 87 14 99 63 1 90 57 4 102 68 22 133 98 56
178 143 41 176 137 32 171 124 16 191 135 26 210 147 34 231 161 47
246 175 61 223 153 41 198 134 26 165 106 6 157 103 15 137 85 9
109 59 0 104 54 1 117 66 21 145 96 55 175 136 31 190 148 40
203 151 42 220 158 47 218 148 36 220 145 30 238 158 43 225 148 32
206 133 20 181 113 6 180 116 19 162 102 16 138 78 6 132 72 12
130 70 18 143 82 35 158 116 14 185 141 36 203 149 43 210 147 41
204 130 21 207 127 14 219 135 19 197 114 0 175 96 0 164 91 0
179 111 2 178 112 15 173 107 23 179 113 39 170 102 39 167 98 39
170 132 35 189 147 49 187 135 36 182 120 19 190 117 14 221 140 32
241 157 41 211 128 8 195 117 0 181 108 0 188 118 0 177 110 0
173 105 4 185 118 29 177 108 30 168 98 26 169 138 48 166 131 41
176 130 42 179 122 32 181 112 17 196 121 19 223 146 32 235 157 33
226 154 20 191 122 0 192 126 0 188 123 0 194 129 11 185 121 13
194 125 30 172 103 12 143 118 34 150 122 39 164 126 45 175 124 41
153 91 4 160 92 0 197 125 15 238 167 43 249 182 42 230 165 19
239 178 28 225 167 23 210 150 17 189 127 6 207 143 33 208 143 39
128 112 35 135 116 39 145 113 40 171 129 53 136 81 1 135 74 0
164 100 0 231 165 42 249 188 46 234 177 25 247 193 35 232 179 25
209 154 10 173 116 0 188 127 10 199 137 26 121 115 39 122 110 36
121 97 27 174 137 66 149 101 25 149 93 6 157 98 0 227 167 43
255 198 55 237 184 28 244 194 33 240 190 31 231 179 33 186 132 0
177 118 0 174 112 0 112 113 33 113 110 33 114 97 25 177 148 78
170 128 54 168 118 33 164 109 8 229 173 52 249 196 54 239 189 32
249 201 39 252 204 46 255 204 59 206 151 22 176 116 2 158 97 0
109 114 30 119 120 40 123 111 37 169 145 73 167 129 56 158 110 26
155 101 1 215 160 41 222 171 30 232 183 29 249 204 43 245 199 43
247 196 55 196 142 16 167 106 0 153 91 0 97 106 17 109 113 28
110 101 22 133 111 36 148 112 36 140 93 11 142 90 0 189 137 19
214 162 24 236 186 35 250 204 48 233 186 36 232 180 45 189 134 17
170 108 9 164 100 12 76 87 0 83 87 0 77 70 0 91 72 0 135 99 23
139 94 11 147 95 0 181 128 12 210 158 22 232 182 33 236 190 35
209 162 14 213 160 28 180 125 9 167 104 11 163 98 14
