P3
#
16 16
255
46 70 44 74 101 70 82 112 76 55 86 44 46 72 27 32 55 11 12 34 0
35 57 19 37 57 20 38 59 16 63 86 34 86 104 54 37 41 4 44 45 11
57 63 27 51 59 20 24 47 21 76 101 71 92 122 84 83 114 70 55 83 35
45 68 22 21 37 0 36 52 15 35 53 15 10 31 0 59 79 28 53 69 20 58 60 23
73 73 39 44 50 12 35 46 4 11 31 6 77 100 71 96 124 83 89 121 72
57 89 39 59 83 35 31 38 0 35 40 0 52 64 28 24 42 0 64 82 32 63 75 25
72 68 33 57 51 19 52 59 18 41 54 10 7 25 3 53 73 45 92 118 79
90 116 69 73 96 42 90 98 41 85 69 7 124 104 43 58 51 0 52 59 8
57 71 18 57 71 20 69 69 31 57 57 19 59 68 25 49 62 16 14 27 9
36 51 28 79 100 67 98 115 71 91 90 36 141 114 43 209 153 56
206 147 45 163 122 40 68 51 0 72 81 24 40 60 9 48 68 17 53 71 21
54 68 19 47 59 11 11 19 4 22 35 15 35 54 24 85 94 51 103 82 25
196 148 64 217 140 24 234 151 31 210 144 47 140 97 19 92 78 17
45 54 0 58 81 25 53 80 25 48 66 14 43 60 8 13 19 7 14 25 8 16 32 5
36 39 0 95 62 0 196 137 43 230 151 32 238 149 29 203 114 20
210 132 57 154 103 37 79 57 0 49 59 6 84 108 58 48 71 17 49 72 16
17 28 12 12 24 4 24 39 10 60 57 12 110 72 1 204 139 45 237 160 46
224 134 22 188 86 1 195 99 23 210 139 61 139 101 30 61 62 5 51 75 25
54 79 22 46 74 15 10 29 1 14 31 0 38 52 16 59 53 5 106 67 0
187 125 38 227 153 54 195 107 10 134 30 0 209 109 34 203 129 34
161 118 26 75 74 9 67 90 36 64 92 34 71 100 42 17 34 0 22 38 1
41 56 15 62 59 6 111 74 4 185 127 43 209 136 41 163 74 0 165 58 0
204 101 26 234 151 45 186 137 32 85 78 6 64 83 28 59 82 26 76 101 44
47 52 20 26 36 0 43 60 15 54 59 1 102 74 0 190 136 46 226 153 50
166 76 0 167 59 0 202 95 15 235 144 30 217 157 45 87 73 0 72 82 29
77 89 39 59 71 21 94 89 59 57 59 22 40 58 10 55 69 8 74 64 0
177 141 55 196 134 31 185 103 3 148 52 0 189 97 14 226 153 42
193 146 40 90 81 12 78 88 36 60 70 18 73 83 31 95 80 51 70 66 29
51 69 17 45 71 10 55 71 8 85 82 5 164 124 26 176 114 13 169 101 16
161 103 19 149 116 19 150 140 51 65 75 14 59 77 27 59 78 22 68 86 26
67 57 22 65 66 24 41 61 8 53 84 25 46 77 17 59 75 4 100 84 0
180 146 56 167 130 50 113 86 9 67 65 0 66 79 0 63 82 26 68 91 39
74 98 38 60 85 20 49 58 11 53 69 20 45 74 20 40 75 17 49 80 20
61 83 18 72 82 11 105 106 36 76 74 13 84 84 22 73 86 14 67 87 15
70 91 32 63 86 30 50 75 18 48 73 15 51 70 15 51 76 21 56 89 36
63 101 44 67 97 37 56 82 19 47 72 7 64 84 23 48 62 11 62 77 22
63 84 17 65 88 18 73 95 33 60 84 26 47 72 17 40 67 12
