P3
#
16 16
255
221 147 42 227 158 55 188 129 29 130 82 0 83 41 0 62 34 0 62 48 0
42 40 0 56 59 0 103 112 47 51 61 27 77 93 66 84 113 69 72 110 59
16 59 16 0 43 4 189 118 10 179 112 7 173 115 15 225 177 93 139 98 42
54 24 0 61 45 0 128 122 36 151 150 67 110 113 46 93 99 61 108 121 93
44 69 27 69 102 55 67 108 66 0 31 0 170 107 0 190 130 18 218 165 63
213 166 78 161 121 52 84 53 0 166 144 59 203 188 95 199 189 100
116 110 36 142 139 94 62 66 33 10 26 0 82 109 68 41 76 36 43 81 42
173 121 0 188 137 20 222 173 71 217 171 83 166 127 48 79 44 0
179 150 58 222 198 100 200 179 86 185 168 88 118 105 50 41 36 0
38 44 8 64 81 45 73 101 63 76 108 69 202 161 37 217 176 60 186 143 48
211 170 82 123 83 0 105 69 0 164 129 29 231 196 94 217 183 85
169 139 51 139 114 47 78 62 11 38 34 0 73 80 49 88 105 69 49 74 34
195 164 47 213 180 73 152 116 32 122 83 4 116 77 0 191 151 53
216 173 69 206 161 58 192 147 46 135 92 0 221 185 107 132 106 47
38 23 0 95 94 66 45 57 19 62 81 36 127 105 3 111 86 0 103 72 8
87 51 0 183 145 60 223 179 82 204 152 51 166 111 10 157 99 0
208 154 58 238 192 106 197 159 94 101 77 43 87 77 50 70 75 34
99 113 64 75 63 0 84 67 0 94 67 24 98 65 20 177 139 64 224 179 88
179 123 30 178 115 18 174 110 12 222 159 62 230 177 85 205 163 91
121 91 55 110 94 68 75 76 32 98 108 55 64 58 0 50 39 0 75 55 31
74 44 16 163 127 69 159 113 35 202 144 60 175 110 20 165 96 1
186 120 24 197 141 48 158 111 39 89 55 17 70 53 23 99 99 49
108 118 58 73 74 34 117 112 82 65 51 40 89 66 50 96 63 18 147 103 38
174 118 41 168 104 17 180 113 22 156 91 0 226 169 80 195 148 76
96 63 22 93 77 43 99 101 51 89 100 40 63 69 41 100 102 81 60 53 47
96 79 69 127 101 68 116 79 26 166 118 46 185 129 46 205 144 53
191 132 42 204 152 68 167 124 56 97 68 24 71 59 19 68 72 21 77 91 32
40 53 27 51 60 39 59 59 49 80 70 58 161 140 113 107 76 29 166 126 56
206 158 74 194 140 50 199 145 57 135 87 11 129 91 29 102 80 33
63 56 14 102 112 62 106 123 69 30 49 19 62 77 48 61 69 46 71 69 46
97 83 56 120 97 53 143 110 39 216 176 89 236 193 99 194 149 64
137 96 32 145 113 62 95 81 36 64 65 21 112 125 82 70 92 46 32 54 15
55 76 37 68 83 44 91 97 61 77 71 39 112 95 51 120 96 22 223 194 102
207 173 76 153 117 33 132 97 41 113 89 45 100 92 46 104 110 66
92 110 72 89 113 77 41 68 17 41 65 13 69 90 33 104 116 66 105 105 67
88 80 33 111 95 17 189 169 72 177 152 52 148 120 36 125 97 47
87 67 30 101 98 53 101 112 69 50 71 38 75 101 74 56 85 27 69 97 36
62 84 20 94 109 50 86 88 49 89 83 35 103 92 10 120 105 4 133 109 9
113 88 4 112 85 38 117 101 67 107 106 60 101 114 70 91 114 85
63 91 68
