P3
#
16 16
255
113 132 104 139 153 127 96 100 75 87 82 62 89 75 64 92 76 63 99 91 70
113 91 67 124 68 45 138 76 53 115 74 52 80 65 32 144 162 112
112 139 88 61 68 34 92 92 66 51 66 35 90 103 73 93 102 75 78 72 50
98 70 56 107 68 53 110 72 51 131 85 62 121 61 37 149 83 59 121 59 36
115 79 47 130 136 90 89 111 64 58 68 34 95 98 71 71 82 42 49 61 23
64 78 45 82 72 45 119 62 42 150 63 44 156 56 40 165 70 50 151 81 55
143 69 42 169 64 43 142 56 31 147 132 91 82 99 57 55 65 31 72 76 49
76 89 46 67 79 39 52 63 29 95 74 47 156 69 49 171 45 30 179 43 29
173 48 30 158 64 38 163 72 43 162 43 21 156 60 35 124 98 61
118 129 87 60 70 36 58 67 36 42 64 25 69 85 48 69 72 41 89 47 23
163 43 27 199 42 33 193 42 33 183 41 27 187 55 30 186 68 38 160 59 31
127 58 27 111 90 47 85 91 47 51 63 25 46 62 26 35 52 20 57 71 36
103 107 72 116 72 43 177 47 33 189 26 19 191 53 43 172 36 22
202 51 30 196 58 29 166 70 32 123 61 14 141 109 52 73 67 9 59 70 27
43 64 25 39 41 17 47 52 20 70 83 37 116 89 46 155 38 20 186 44 34
152 45 35 158 50 37 183 31 17 198 49 19 183 77 25 152 78 7 209 153 68
130 101 23 110 117 66 51 77 38 42 35 17 63 63 35 66 82 35 96 78 32
134 29 8 162 31 21 161 60 50 163 55 42 203 52 31 219 66 32 208 98 39
215 130 50 235 157 59 198 144 54 105 94 38 67 79 39 48 42 28 63 63 39
83 91 50 101 79 40 138 47 28 164 37 28 155 31 23 175 42 25 227 77 42
206 61 14 188 77 21 240 144 70 249 151 54 207 128 35 120 80 19
105 84 41 48 44 32 44 41 22 113 112 81 94 68 35 130 50 25 164 47 29
171 31 18 190 39 18 237 85 46 192 54 7 160 54 4 191 96 30 237 130 34
205 112 17 160 106 44 122 90 43 48 42 28 56 49 33 81 70 50 151 120 92
121 52 13 167 61 22 194 53 25 212 54 27 214 59 28 178 44 9 179 82 47
164 77 23 237 134 41 233 143 46 150 102 38 104 77 30 75 69 55
71 64 48 99 83 68 163 122 100 176 92 55 204 85 43 235 85 50 213 53 21
196 47 17 187 56 26 168 65 32 165 69 19 225 114 33 227 132 50
147 100 46 83 60 19 40 37 20 56 50 34 84 70 57 117 66 47 183 63 38
206 47 15 236 69 33 231 73 36 186 47 14 194 67 32 190 65 21 193 67 17
229 100 43 215 113 64 131 82 50 84 62 39 53 59 31 50 52 28 65 56 39
108 61 45 180 65 46 189 41 15 192 43 11 205 71 36 175 68 36 153 50 15
213 95 47 227 103 52 188 66 25 158 65 32 125 82 63 86 68 54 76 100 48
48 63 20 59 57 34 84 57 40 132 65 48 164 76 56 157 58 35 170 83 56
146 89 60 151 95 60 186 104 57 182 90 43 173 88 49 156 91 59
115 87 65 81 70 52 104 136 73 115 138 86 65 68 41 91 72 57 106 65 47
124 65 47 160 87 68 138 76 53 119 85 60 124 91 56 137 73 29 167 90 44
155 87 48 119 70 38 96 74 51 83 76 57
