P3
#
16 16
255
43 41 16 96 92 65 56 46 19 100 93 67 125 127 105 29 39 14 44 64 27
117 135 73 133 138 38 116 107 12 79 61 13 73 55 35 56 43 37 54 47 41
66 63 46 78 76 55 95 93 68 98 94 69 59 51 28 65 57 36 72 69 52
50 55 33 58 74 37 99 114 49 177 174 69 219 204 101 141 116 59
89 65 37 65 53 41 63 56 48 68 62 46 87 82 60 136 134 109 77 72 50
52 45 27 63 53 41 65 55 46 75 69 53 70 80 43 78 84 14 208 193 78
227 198 80 166 129 51 89 58 12 74 61 42 79 75 64 93 86 68 67 59 36
99 94 72 76 71 51 65 57 46 63 53 44 70 57 49 65 58 40 70 72 33
88 84 11 207 180 63 173 134 7 164 124 26 137 106 39 79 70 37 90 89 71
75 68 49 74 66 45 65 58 40 71 64 48 70 62 51 61 53 42 65 59 45
64 60 35 74 71 30 99 85 14 176 142 32 171 130 2 202 163 44 176 151 58
113 111 62 77 83 57 77 72 52 68 61 43 80 68 54 84 75 60 78 72 56
63 60 43 65 62 43 69 63 37 82 73 34 154 135 67 251 215 103 200 163 31
214 187 58 170 159 53 100 109 46 63 74 40 71 70 49 81 74 58 79 65 52
78 69 52 72 74 50 66 70 43 67 62 42 73 65 42 93 79 50 143 125 63
239 210 90 231 206 64 222 214 89 154 161 58 81 101 30 49 66 22
55 57 35 75 69 55 76 62 51 82 75 57 60 64 39 62 66 39 79 74 52
80 68 46 102 86 61 116 97 39 162 141 24 226 210 75 159 159 49 51 65 0
61 84 16 86 106 57 65 65 39 77 70 52 79 69 59 70 64 50 61 64 45
69 72 51 78 70 47 85 71 45 127 110 84 107 90 38 125 112 10 158 148 37
81 79 0 59 68 1 63 86 30 76 98 52 87 87 53 82 70 44 72 66 54 66 63 48
72 75 58 70 71 53 81 73 54 100 88 64 120 107 75 94 82 24 151 137 38
201 189 81 167 155 79 93 91 34 70 84 35 95 110 69 95 95 61 84 75 44
86 83 68 75 74 56 76 77 59 76 75 57 81 73 60 104 98 76 97 96 52
91 85 9 197 178 60 208 182 61 169 144 54 99 81 19 98 93 51 83 84 52
143 142 112 66 65 37 91 93 71 81 83 61 85 84 64 76 75 57 89 87 72
86 89 58 85 94 31 167 167 69 199 179 46 200 167 34 193 161 62
167 140 71 106 91 52 89 83 57 84 87 56 103 110 77 78 88 53 80 87 56
69 68 48 63 64 46 105 115 88 79 96 44 107 124 32 226 230 107
247 229 83 202 171 29 224 190 80 181 151 78 96 73 39 95 84 62
82 90 53 153 170 126 68 85 43 75 89 53 71 76 53 80 85 63 81 98 62
87 108 51 140 156 67 185 190 74 250 234 95 225 198 65 195 167 68
138 113 47 101 80 49 88 80 57 65 76 33 85 108 54 65 88 42 93 116 74
112 129 97 69 84 53 64 80 41 106 122 75 95 104 49 144 145 69
211 200 92 215 201 96 134 119 52 97 84 42 99 90 61 95 94 63 93 107 56
74 95 36 85 113 64 137 164 119 87 109 73 51 71 36 84 101 59 82 95 51
82 86 49 91 90 34 105 96 3 109 98 6 105 97 48 92 87 57 98 94 67
99 103 66 111 125 72 93 113 50
