P3
#
16 16
255
5 8 0 9 12 3 8 11 0 6 9 0 11 11 11 5 3 4 11 7 4 15 12 7 12 13 7 6 8 3
13 11 12 17 13 12 47 36 32 28 17 13 19 10 13 19 12 19 10 11 5 8 9 3
8 11 2 8 9 1 2 1 0 2 2 0 6 3 0 9 9 0 6 9 0 15 18 11 11 11 9 15 11 8
23 14 9 18 9 4 20 14 14 19 15 16 8 7 3 5 4 0 1 2 0 7 8 0 13 10 0
61 59 38 12 14 0 1 6 0 7 14 0 12 18 8 10 11 5 14 11 6 18 11 3 22 15 7
15 15 7 13 14 8 7 6 1 9 10 4 4 5 0 3 5 0 32 31 0 183 181 140
139 142 95 100 107 65 68 75 44 10 15 0 14 12 0 36 28 5 55 41 15
23 11 0 26 20 0 30 28 7 0 6 0 22 28 14 12 16 2 5 9 0 56 61 5
181 184 113 188 188 114 170 171 103 171 176 122 76 75 29 79 67 19
96 75 22 138 112 53 73 47 0 85 66 23 45 30 0 1 12 0 18 27 10 12 16 2
20 25 0 181 188 120 169 175 87 184 183 91 150 149 59 161 162 86
151 148 77 131 118 50 142 118 46 155 123 38 102 69 0 114 89 32
42 21 0 1 12 0 10 18 3 7 10 0 24 29 0 146 153 85 173 180 87
193 194 92 106 103 0 166 163 60 140 136 39 139 131 48 125 109 24
167 135 36 144 109 19 106 84 24 35 18 0 4 11 3 6 11 4 11 12 4
55 59 34 150 158 99 171 176 92 173 169 69 165 158 44 164 159 42
140 136 28 139 135 48 156 145 65 146 119 30 123 94 14 92 74 24
40 30 0 7 11 14 9 11 10 7 7 0 17 20 0 115 123 84 160 166 102
147 138 43 152 141 26 153 148 30 156 153 46 134 133 53 114 106 44
79 60 4 84 63 18 32 25 0 36 34 13 2 3 7 6 8 7 14 17 8 15 22 4
94 104 77 139 146 95 135 128 47 163 151 49 171 167 57 161 161 61
114 114 50 59 56 13 42 29 0 37 25 3 23 21 6 32 35 24 5 10 4 2 9 1
6 18 6 7 22 3 98 111 83 131 138 94 152 153 87 183 178 96 193 188 96
135 132 51 47 49 2 19 19 0 22 16 0 23 19 7 15 17 6 20 26 16 0 4 0
4 14 3 6 22 9 13 32 13 81 97 70 155 167 129 144 151 100 164 168 107
136 136 66 54 54 0 25 29 0 15 19 2 8 14 0 24 30 18 17 25 14 1 11 0
0 8 0 4 15 1 3 16 6 14 32 18 30 50 25 136 155 123 131 145 109
88 99 59 42 51 8 13 21 0 9 19 0 11 24 4 13 32 10 15 37 14 21 40 20
10 27 9 4 7 0 3 9 0 2 12 4 16 29 19 24 43 23 60 83 55 80 98 72
15 31 4 28 40 16 48 60 36 32 46 23 31 49 25 37 61 35 24 50 23
29 51 28 29 48 28 7 4 0 12 11 6 8 7 5 8 10 5 27 39 25 11 30 11
10 29 7 13 31 9 8 19 2 21 30 13 47 61 38 35 51 25 25 45 20 20 40 15
26 44 22 20 37 18 8 3 0 6 1 0 6 0 0 11 10 6 29 39 30 15 33 17
13 34 15 11 30 11 10 21 7 4 12 0 2 16 0 33 49 22 23 41 17 15 33 9
14 29 10 11 26 7
