P3
#
16 16
255
41 41 15 69 72 27 51 55 0 81 90 1 65 73 0 60 72 8 74 89 32 55 70 11
63 68 4 86 84 9 93 88 0 97 93 0 84 83 0 79 84 4 58 69 11 59 73 24
56 59 30 59 63 12 84 89 0 210 213 106 166 168 67 81 87 1 63 75 11
48 62 3 92 99 32 109 107 24 174 162 52 188 174 52 127 116 0
139 137 37 67 74 7 43 57 4 83 93 56 77 86 21 131 132 15 231 226 80
228 219 64 170 163 31 88 92 15 63 72 15 114 121 51 97 93 0 217 192 47
214 180 12 226 195 29 225 206 68 91 93 9 47 61 2 46 56 0 68 72 0
156 148 11 186 170 0 234 212 28 229 215 57 82 84 0 59 68 13 62 74 2
87 84 0 235 207 45 244 206 21 213 180 7 216 197 58 84 86 2 63 76 20
56 56 0 162 154 43 228 203 49 215 183 2 241 208 17 240 220 59
107 110 23 51 64 8 61 76 7 76 79 0 222 200 37 233 206 31 168 150 12
116 111 9 56 62 0 74 87 43 80 77 0 217 206 82 219 187 27 246 206 22
232 195 1 219 195 33 74 73 0 98 109 51 66 78 14 90 94 0 223 207 50
234 210 39 137 122 0 84 79 0 56 62 0 17 30 0 67 65 0 173 162 44
213 184 30 235 198 19 244 211 18 248 225 61 92 83 0 51 51 0 55 60 2
110 110 22 224 208 61 234 209 31 228 201 22 222 205 57 51 52 0
29 38 0 54 60 0 170 167 64 182 160 25 210 180 20 232 202 26
230 209 56 140 132 47 49 48 0 57 59 0 88 83 0 187 167 18 222 193 11
253 223 31 243 223 62 72 72 0 74 87 34 65 85 24 66 76 3 132 124 23
200 182 56 204 182 37 166 153 25 77 81 4 48 58 0 68 68 0 154 142 30
247 223 55 239 209 17 249 222 43 217 202 59 47 55 0 63 82 27 66 92 45
75 93 35 91 95 18 132 127 33 170 159 53 54 50 0 49 61 0 55 69 10
50 47 0 197 180 64 239 209 35 227 194 5 217 189 27 90 76 0 80 88 15
63 82 36 51 75 27 49 69 16 43 54 0 86 93 26 82 87 20 45 54 0 30 44 0
44 53 0 59 55 0 189 169 57 221 186 22 226 186 10 213 182 39 104 87 0
43 43 0 39 49 22 71 90 44 41 59 11 52 68 19 53 67 16 50 64 13
58 74 27 63 78 37 38 47 0 66 65 0 117 102 1 244 211 58 219 184 22
197 172 46 111 96 11 35 33 0 26 31 11 79 91 51 47 60 17 56 72 25
47 64 12 54 71 16 57 75 23 64 81 39 40 55 12 74 85 29 76 75 0
229 206 66 229 203 56 173 158 55 61 54 0 46 47 7 37 41 16 44 54 17
33 45 7 40 55 14 38 55 10 37 54 2 45 63 13 49 67 29 25 43 5 54 70 23
58 64 0 147 140 24 164 153 35 109 104 22 49 49 0 53 59 21 30 39 10
39 56 14 27 43 6 50 65 34 24 37 7 14 26 0 52 66 30 32 52 17 34 54 17
28 40 0 52 62 9 53 64 0 79 87 10 79 87 28 84 93 48 45 59 24 25 40 11
44 62 20 39 57 19 38 52 26 32 44 20 39 50 20 66 80 47 26 45 13
51 71 36 46 58 22 61 72 29 56 75 20 31 50 0 46 60 11 75 87 47
55 72 38 25 44 14
