P3
#
16 16
255
61 84 28 71 94 38 62 81 26 82 101 46 47 66 10 53 66 12 91 89 40
109 81 41 135 71 43 158 61 44 178 51 42 192 57 51 193 71 60 177 78 59
164 99 69 176 128 92 41 70 12 66 94 36 83 106 50 93 112 57 58 75 20
52 61 8 83 79 31 121 92 52 141 77 49 168 73 55 187 63 55 196 63 56
197 75 64 182 81 63 165 96 67 171 118 84 52 92 30 65 101 40 89 117 59
85 104 49 92 102 50 88 90 41 94 83 38 122 90 52 150 86 59 178 85 67
191 70 61 189 57 52 187 64 56 179 73 59 163 85 62 163 99 71 77 126 61
78 120 57 99 124 67 78 91 38 126 125 77 144 133 88 128 106 65
134 94 59 142 76 50 170 79 61 178 61 52 170 43 36 173 50 43 178 68 55
169 82 63 167 91 67 56 111 46 67 108 48 90 110 57 69 68 22 127 109 69
160 132 95 142 103 70 129 78 49 123 52 30 153 64 48 167 54 46
164 41 34 174 52 47 184 72 61 177 81 67 171 84 65 63 111 49 64 97 40
74 80 32 85 66 26 148 107 75 186 132 104 157 100 73 119 53 29
125 48 28 153 64 48 169 62 52 173 56 49 182 63 57 181 68 60 164 62 50
154 58 44 119 153 93 97 114 60 90 72 32 139 92 62 186 115 93
209 126 108 183 100 82 137 54 36 134 48 33 153 61 48 165 61 52
170 59 52 177 62 57 170 57 51 148 45 36 138 40 29 140 150 98
118 110 64 106 61 28 171 96 75 177 76 64 176 65 56 173 66 56
154 52 40 130 34 22 140 44 32 146 43 34 153 46 38 165 54 47 160 53 45
148 47 39 146 49 40 140 121 78 139 101 64 151 77 52 170 64 51
183 54 49 184 46 44 176 44 40 169 48 40 151 43 33 123 21 9 150 46 37
156 52 43 147 42 36 153 52 44 142 50 39 144 56 44 140 94 58 140 77 46
154 55 36 172 43 37 187 37 38 189 33 36 182 33 35 173 39 36 165 46 40
136 28 18 147 40 32 142 38 29 144 43 35 161 69 58 139 57 43 116 39 23
158 89 58 156 72 46 166 48 34 180 37 33 193 28 32 192 23 28 180 24 27
171 27 26 165 38 32 153 36 27 154 43 34 136 32 21 136 40 28 155 72 56
132 61 41 94 32 9 170 89 59 169 73 48 177 51 37 186 37 31 196 28 28
195 25 28 184 24 26 171 25 25 159 26 21 169 46 39 175 58 49 152 45 35
136 43 28 137 60 42 121 61 37 96 46 19 164 77 47 165 65 39 172 46 31
180 33 25 191 29 26 194 30 29 185 32 27 174 31 25 165 30 24 179 52 45
181 60 51 170 59 48 149 56 39 124 52 30 106 57 27 97 58 25 165 79 46
166 68 39 170 49 28 175 35 22 183 30 22 186 31 26 179 32 24 169 28 19
172 38 29 175 47 38 163 39 31 166 54 42 158 65 48 122 52 27 97 54 22
87 57 21 164 84 47 165 75 41 167 56 29 167 38 19 173 31 17 176 32 21
169 28 18 158 21 11 167 34 25 174 43 33 153 25 16 160 44 31 162 69 51
130 63 36 109 71 35 98 75 34 151 73 35 154 65 31 156 48 20 157 32 10
165 29 13 173 33 18 167 31 19 158 24 12 161 28 19 181 50 40 162 31 23
163 47 34 170 75 57 144 77 50 133 97 61 128 106 65
