P3
#
16 16
255
69 65 53 49 47 34 59 60 44 61 66 46 59 64 41 61 70 39 55 61 23
55 61 15 58 62 11 50 53 0 42 47 0 42 51 0 45 59 10 45 66 23 50 76 39
55 85 51 106 104 91 75 76 60 68 71 54 57 62 40 49 58 31 56 66 32
56 64 23 67 73 25 62 67 11 62 65 8 58 61 4 50 59 4 47 61 10 50 72 26
60 86 47 67 97 61 108 111 94 82 87 67 72 80 59 58 68 43 53 64 32
59 71 33 66 75 28 88 95 41 74 78 17 85 90 26 85 90 26 65 73 13
45 60 5 42 64 15 50 77 34 55 86 45 76 84 63 69 77 54 75 85 60
68 81 51 67 79 43 68 79 36 73 82 29 107 113 53 163 166 99 179 180 110
172 175 106 129 136 69 81 95 34 59 80 24 52 78 30 50 79 33 58 70 46
62 75 49 75 88 60 70 84 49 70 83 40 71 81 31 83 88 30 132 135 68
174 172 97 187 186 106 174 175 97 126 130 56 74 85 17 50 68 8
46 71 16 46 74 23 59 73 47 63 78 49 69 83 50 66 78 40 75 84 37
80 88 31 103 104 38 167 163 89 186 179 98 190 182 97 172 166 82
127 126 46 84 90 18 65 77 13 64 83 27 68 93 38 68 81 53 70 84 51
74 86 50 75 84 41 92 99 47 98 98 36 111 104 32 171 159 77 202 185 97
197 177 88 174 158 70 136 126 41 93 91 16 62 67 0 47 61 0 44 63 7
80 91 61 85 95 61 90 98 59 96 102 56 118 117 61 109 101 36 99 83 6
145 123 37 158 132 39 157 128 34 149 124 31 135 115 28 107 98 19
77 77 7 56 64 4 48 61 5 93 100 69 87 93 59 92 94 55 143 141 93
126 117 58 123 106 36 131 106 24 137 103 13 147 109 12 149 111 12
149 115 18 159 132 43 153 136 58 74 65 0 60 61 3 48 55 3 108 113 81
108 112 77 106 107 65 144 138 88 142 128 67 165 143 68 175 143 58
158 118 23 154 109 8 158 113 10 181 139 41 188 154 65 171 148 72
99 88 22 72 71 15 52 56 6 70 77 43 79 83 46 91 90 46 130 123 69
135 120 55 160 134 57 176 139 50 160 114 16 163 112 7 163 112 7
201 155 57 197 160 72 161 138 62 111 100 36 76 74 23 47 53 7 56 66 31
65 72 31 95 97 50 145 138 83 143 126 57 140 113 32 169 130 37
178 130 28 177 124 18 168 115 9 202 156 58 176 140 52 125 103 28
101 93 31 67 71 21 43 52 9 77 93 54 79 92 49 102 108 60 132 130 71
131 119 47 134 109 25 183 147 51 203 159 54 203 152 43 188 140 32
204 162 62 163 131 44 100 83 11 90 88 29 62 74 28 41 59 19 73 94 53
73 90 46 77 87 35 77 79 16 93 84 9 134 114 27 210 176 78 219 178 70
227 181 69 219 175 66 206 168 67 163 137 50 98 88 16 87 92 34
61 80 35 42 68 31 63 90 47 63 86 40 71 88 34 67 73 9 90 84 8
132 117 26 220 191 89 233 197 85 232 191 77 234 194 83 188 156 55
149 129 40 88 85 14 68 81 25 48 75 32 32 66 31 60 89 45 61 87 39
89 108 53 97 108 42 105 102 23 113 100 8 197 170 65 227 194 81
225 185 71 230 194 82 161 132 30 124 108 20 68 70 0 43 60 5 30 61 19
20 57 23
