P3
#
16 16
255
101 68 53 99 72 51 104 93 63 105 111 67 90 115 60 86 126 63 90 140 71
85 142 71 79 140 71 102 165 95 74 136 69 85 151 80 77 143 71
81 152 74 83 155 73 80 154 69 98 65 50 88 61 40 88 75 43 96 99 56
100 119 64 102 137 73 104 147 78 97 147 76 105 158 88 117 173 102
84 141 72 91 151 81 83 147 73 88 157 77 93 165 83 97 171 86 100 69 51
93 66 45 90 75 44 95 92 49 96 106 53 95 117 53 100 130 60 104 140 66
129 167 94 129 171 97 98 144 71 99 151 77 93 151 75 91 156 76
91 163 81 98 173 90 77 46 28 81 55 32 88 69 37 105 93 51 120 119 65
123 129 65 122 134 62 126 142 67 135 153 77 132 156 80 116 147 71
116 157 79 116 167 88 108 169 89 103 175 93 112 187 104 86 58 37
97 71 48 99 76 44 106 87 45 130 114 62 136 125 61 131 121 50
132 124 49 122 116 38 120 123 44 119 132 52 113 140 59 118 161 81
112 169 88 108 177 96 118 193 111 75 50 28 156 130 105 212 187 156
221 196 155 212 184 134 178 150 87 144 114 44 136 107 31 149 122 43
146 129 47 151 146 64 120 133 51 119 153 69 109 161 79 101 168 88
109 184 102 71 49 25 159 135 107 195 169 136 168 136 95 149 111 62
150 108 48 173 124 57 207 158 82 203 156 76 205 169 83 212 192 105
159 159 73 142 167 83 122 167 86 101 166 86 100 173 94 78 61 35
150 129 100 165 139 106 136 101 63 141 97 52 163 110 56 180 119 56
197 135 62 205 144 63 215 165 78 230 199 109 169 159 70 148 163 78
119 158 77 87 148 71 76 147 71 81 66 37 114 95 63 130 105 74
128 92 56 135 86 45 188 127 80 172 103 44 178 108 38 200 131 53
198 141 54 190 150 62 171 154 66 139 149 63 110 143 64 91 145 70
87 150 79 62 51 19 86 71 38 105 82 50 120 85 53 146 98 62 196 137 95
182 112 60 186 112 47 198 126 50 176 114 31 151 107 20 139 118 29
134 138 54 123 150 73 105 152 80 92 149 80 62 56 20 73 63 28 87 68 36
116 87 57 155 112 80 194 140 104 182 118 72 185 116 57 186 119 48
167 108 28 145 100 15 128 104 18 111 112 32 98 120 45 87 126 59
82 131 66 69 67 29 68 62 26 74 59 28 98 74 46 131 95 69 148 103 72
146 91 52 156 96 44 147 88 22 141 89 13 136 95 13 127 105 20
109 108 28 91 107 36 83 115 52 87 127 67 88 89 49 83 81 43 79 70 41
90 74 49 111 84 63 108 74 49 120 77 43 138 91 45 143 94 35 134 90 19
127 94 13 129 108 27 117 113 39 95 106 38 77 101 41 72 102 48
99 102 59 92 94 55 83 79 50 89 78 56 107 90 74 94 68 51 116 85 57
135 97 58 144 105 50 142 107 39 144 117 40 138 121 43 110 106 33
76 85 18 62 81 25 68 92 40 94 100 56 86 91 51 72 72 44 80 75 55
110 98 84 91 73 59 112 87 65 115 86 52 111 81 29 126 98 33 144 122 47
144 131 53 112 108 37 75 81 17 71 86 31 89 107 57 112 118 74
101 106 66 82 85 58 93 92 72 134 126 115 113 99 86 125 107 87
113 90 56 120 94 45 123 99 35 136 116 43 144 132 56 125 121 50
86 91 27 62 75 21 60 76 27
