P3
#
16 16
255
187 107 10 177 94 0 181 91 5 144 57 0 132 54 0 166 104 31 169 130 55
173 143 71 79 46 0 82 38 0 110 44 0 143 60 6 142 48 0 191 95 37
197 104 43 159 69 6 183 115 18 178 108 12 195 115 28 173 92 10
160 87 8 176 117 39 167 126 47 164 128 52 101 63 0 158 107 41
186 111 53 168 77 24 137 36 0 182 77 22 183 84 25 150 54 0 147 105 5
151 103 5 179 118 27 183 117 30 188 123 39 198 142 57 172 126 41
146 101 18 173 121 45 215 148 78 226 136 74 205 98 44 170 52 2
199 79 29 209 95 43 207 96 43 142 118 20 151 118 23 170 123 31
179 122 33 191 130 41 197 138 48 153 100 8 96 41 0 197 132 48
197 115 39 201 98 32 201 82 26 172 44 0 211 83 36 228 110 64
215 100 53 108 95 3 133 109 19 154 113 25 164 108 21 176 111 21
187 118 23 156 91 0 99 29 0 189 109 14 191 97 10 211 97 26 197 71 10
141 11 0 199 74 28 228 116 70 177 70 26 109 98 18 141 120 39
173 130 51 201 140 57 216 142 53 228 149 54 232 153 50 202 119 13
209 117 16 205 102 9 229 112 32 212 89 21 121 0 0 150 38 0 198 102 54
186 98 52 113 98 31 119 92 25 139 89 20 193 124 49 221 135 52
220 127 34 232 139 35 220 125 17 212 114 7 204 98 0 209 95 7
205 92 16 132 29 0 118 27 0 140 70 18 171 111 59 112 99 44 83 58 1
92 42 0 179 109 40 235 145 67 231 133 42 240 143 40 233 135 26
192 90 0 216 110 8 206 97 6 197 92 11 169 76 9 150 76 15 112 61 4
113 74 17 80 78 29 86 70 19 66 25 0 104 40 0 213 131 57 251 159 72
255 164 66 212 117 11 219 121 14 187 85 0 197 92 1 175 76 0
196 111 44 189 125 63 123 84 25 52 26 0 37 53 8 57 60 13 73 50 0
64 18 0 143 74 5 160 79 0 152 69 0 219 131 33 226 134 35 185 88 0
173 73 0 153 57 0 166 87 20 182 122 60 156 120 60 125 103 45 9 51 3
38 67 19 68 70 20 56 34 0 138 92 30 186 126 53 180 114 30 200 129 39
176 96 7 162 73 0 163 67 0 167 74 5 164 84 23 181 119 60 160 120 61
148 119 61 0 34 0 12 55 9 48 66 18 70 62 13 106 77 21 154 110 47
205 157 85 148 92 15 117 51 0 145 71 0 178 95 27 209 125 63
194 119 61 198 139 81 159 120 61 133 104 44 11 72 28 10 59 14
32 55 13 51 52 10 54 36 0 60 30 0 107 75 16 69 31 0 85 40 0 128 73 9
160 94 34 190 121 64 173 112 55 178 132 73 145 117 54 108 90 24
44 99 59 58 103 64 87 107 72 42 43 11 50 36 1 52 30 0 37 16 0 52 29 0
93 63 9 112 75 20 120 73 19 136 87 31 128 86 28 128 98 36 109 99 30
70 70 0 19 59 25 80 109 78 124 133 106 58 50 27 46 28 4 53 32 3
62 46 10 102 89 45 121 104 58 102 82 32 90 63 10 106 80 23 118 98 35
98 94 23 94 108 31 62 85 3 54 85 54 49 69 42 46 48 26 50 37 18
53 32 13 53 33 9 117 104 72 119 111 74 123 114 71 75 63 15 53 35 0
80 63 7 112 104 39 86 94 19 98 123 42 77 113 26
