P3
#
16 16
255
60 79 24 64 79 24 68 77 20 39 38 0 53 38 0 64 38 0 101 61 2 108 59 1
116 59 6 125 69 18 122 74 25 103 70 19 88 70 22 86 86 36 92 104 56
95 115 66 92 99 47 80 83 30 69 66 11 103 90 35 100 73 18 107 68 11
107 55 0 134 73 19 132 65 13 128 62 14 122 66 19 115 73 25 101 79 30
87 83 35 87 96 49 93 111 63 137 119 73 113 91 44 101 70 23 143 103 54
142 90 40 141 78 27 137 61 11 166 82 35 188 100 54 166 82 38
147 74 31 135 81 37 113 80 35 86 73 28 78 81 36 87 99 53 137 103 58
126 88 43 132 85 41 122 64 18 144 74 25 146 64 16 179 84 38 192 91 45
199 96 53 179 82 39 154 71 29 133 70 27 106 67 24 84 67 23 78 81 36
87 100 54 105 60 18 121 72 29 144 88 41 125 57 10 138 56 8 146 51 3
186 81 34 201 90 44 207 94 50 201 95 53 178 91 48 142 78 34 106 69 24
84 72 24 75 83 34 72 92 41 90 50 1 117 73 24 140 87 35 169 103 51
150 70 17 154 60 8 155 49 0 180 68 18 183 71 21 187 85 37 176 92 45
143 82 35 106 74 25 81 75 25 63 80 26 53 82 26 93 73 14 108 84 24
131 97 34 181 133 71 176 112 50 169 89 26 149 55 0 157 57 0 130 30 0
133 40 0 130 55 0 118 67 12 95 74 19 76 79 22 62 90 31 59 99 37
92 89 22 91 82 13 125 105 36 153 119 48 199 146 76 188 120 49
182 98 28 162 69 0 168 73 7 152 64 1 137 67 7 130 81 22 108 88 27
79 85 23 64 93 29 70 109 46 72 80 7 98 102 26 114 107 29 157 134 56
162 121 42 182 123 45 190 113 35 176 88 14 181 88 18 163 76 7
152 78 13 146 95 30 123 95 32 86 82 19 71 90 26 82 111 47 63 71 0
86 90 13 104 97 17 150 129 48 154 113 31 171 113 31 187 110 28
188 99 19 192 96 20 180 88 15 171 91 22 165 102 35 140 101 36
105 87 23 83 83 21 82 92 29 67 65 0 75 67 0 88 70 0 149 118 38
163 115 33 180 114 30 196 111 28 202 105 24 196 90 12 188 85 10
178 84 14 173 92 26 160 100 37 141 101 39 121 97 37 108 92 32 85 68 0
72 52 0 79 51 0 156 117 40 187 132 50 201 131 46 208 119 35
210 110 25 205 96 14 194 84 7 177 75 1 170 79 9 172 101 35 176 121 57
160 120 59 139 107 48 108 76 15 89 55 0 95 55 0 177 128 52 205 144 63
211 137 52 212 124 35 217 117 29 219 113 27 208 99 17 184 81 4
171 79 6 180 103 35 189 128 63 172 124 62 146 105 43 127 87 28
109 68 6 112 67 0 186 134 59 202 139 59 202 128 41 208 123 32
221 128 35 213 114 21 205 104 16 185 89 5 171 84 5 171 99 25
174 115 45 158 111 43 134 93 27 143 100 45 113 71 11 101 56 0
167 118 42 189 131 49 197 130 41 206 130 34 215 133 34 206 118 20
203 115 18 186 103 11 163 89 2 147 86 5 141 94 16 134 98 22 126 96 23
155 112 57 108 63 4 75 30 0 142 93 17 182 126 43 205 141 51
211 139 41 208 130 29 221 139 39 219 137 37 199 123 29 163 96 5
131 75 0 117 75 0 121 90 10 130 104 27
