P3
#
16 16
255
63 71 30 37 49 0 67 88 23 95 118 46 80 105 37 100 104 30 116 80 0
222 173 71 217 184 68 142 130 20 89 104 23 60 90 26 28 57 0 56 82 35
36 49 19 48 56 33 66 77 35 69 85 36 64 86 21 92 118 47 84 109 41
85 92 22 126 99 18 207 164 70 138 98 0 127 100 0 91 86 4 88 103 36
44 72 11 86 116 64 38 58 21 15 30 0 63 80 38 77 97 48 94 120 55
89 116 47 89 116 49 69 85 20 87 80 12 113 84 6 127 75 0 199 142 39
135 93 9 65 48 0 49 74 6 93 135 72 50 82 32 26 53 8 73 94 53
80 104 56 86 114 55 97 124 57 79 99 30 68 74 4 88 70 4 120 76 1
200 127 33 216 132 34 206 135 47 133 94 15 82 102 30 57 99 35 29 59 9
53 76 32 82 104 65 90 116 71 85 115 61 95 117 53 90 90 16 127 100 21
187 128 48 219 134 53 216 112 25 224 116 25 226 133 38 182 128 38
98 105 35 51 81 29 19 33 0 24 30 4 102 119 75 99 121 75 89 119 69
94 109 50 114 94 21 153 101 17 172 91 0 240 136 47 221 104 25
200 87 7 233 142 53 152 100 16 79 81 18 55 78 34 24 33 6 29 30 12
131 140 85 117 130 77 103 127 79 110 117 63 129 92 21 182 116 29
246 164 62 191 93 0 174 60 0 179 75 12 143 75 4 121 87 23 61 63 16
37 54 20 30 40 15 28 36 15 120 110 49 133 128 70 127 134 82
135 123 65 173 109 37 226 137 45 244 149 39 249 148 44 165 54 0
195 100 42 145 96 30 95 79 19 41 46 5 30 43 13 19 29 4 13 23 0
108 72 10 124 94 30 148 127 64 175 130 62 209 108 30 221 96 3
252 136 23 255 150 42 181 69 0 176 91 26 160 127 50 99 96 27 42 50 3
46 60 27 40 51 21 16 26 0 152 93 15 153 96 15 157 105 21 207 133 48
226 104 18 213 70 0 247 109 8 241 111 15 194 70 0 200 105 41
181 137 62 85 77 5 21 29 0 49 63 27 66 77 45 28 37 8 220 139 31
219 134 25 213 123 9 241 139 28 239 115 17 218 77 0 218 61 0
243 82 14 233 80 23 208 85 28 178 103 38 73 39 0 47 50 0 43 60 16
55 65 31 41 47 19 206 122 0 218 129 9 228 133 13 245 141 28
253 140 38 229 99 11 224 70 0 213 51 0 221 65 14 195 60 5 206 109 41
131 78 8 57 55 0 37 57 4 45 57 17 27 37 2 209 140 21 203 136 23
171 103 4 194 117 25 214 121 28 218 109 18 222 93 9 218 82 8 198 62 4
177 48 0 221 110 28 185 115 27 97 91 13 40 65 0 39 62 8 47 69 20
152 110 10 154 114 18 126 92 5 155 114 32 174 120 34 172 104 19
214 136 51 203 116 39 191 96 32 156 57 0 235 141 51 195 132 35
121 119 32 74 102 25 30 59 0 32 60 2 71 66 0 102 102 30 111 117 31
105 111 23 109 108 28 105 101 27 133 126 56 135 118 49 103 68 0
134 91 13 190 143 53 191 162 68 122 136 41 93 127 41 56 85 18 37 62 4
35 49 0 53 71 11 102 130 45 107 137 47 108 135 58 68 95 28 109 137 76
103 121 59 77 75 1 142 125 43 168 142 55 148 135 41 92 114 14
91 126 36 59 89 19 41 66 8
