P3
#
16 16
255
41 51 17 50 60 25 35 46 6 45 53 12 37 44 3 32 38 2 24 34 9 29 43 18
40 55 26 41 61 26 34 56 18 56 71 38 46 45 27 43 33 21 36 24 8 36 25 7
45 56 26 39 50 16 27 39 0 54 65 23 41 46 6 43 41 2 32 24 0 28 22 0
32 33 0 33 40 7 41 55 20 35 46 16 42 39 22 49 39 27 44 32 18 43 31 15
30 42 18 38 53 24 29 47 7 71 86 43 44 49 8 52 38 0 105 64 2
148 102 42 86 59 16 44 31 0 32 28 1 40 39 18 52 46 32 43 33 23
53 41 29 48 34 21 49 63 38 46 61 32 37 58 17 77 92 49 36 34 0
108 81 36 185 125 62 188 125 58 137 99 50 58 38 1 44 37 8 57 52 30
40 33 17 45 35 25 61 49 37 52 38 27 53 67 32 45 61 24 53 71 31
83 94 54 46 37 4 91 59 21 181 119 72 166 106 52 112 83 25 71 61 8
51 50 6 44 43 12 39 34 15 47 37 27 57 43 32 59 42 32 39 51 13
53 65 27 58 70 32 90 91 49 62 38 0 120 74 25 151 84 41 136 70 18
119 72 4 120 90 18 91 76 11 84 76 29 39 28 6 57 44 35 57 43 30
54 41 25 48 54 20 66 72 38 71 75 42 88 74 25 144 98 20 212 145 66
157 82 27 158 75 21 192 99 19 203 123 28 202 151 59 121 91 19
61 42 12 61 47 36 60 47 30 56 45 23 69 68 37 88 87 56 75 74 43
95 75 22 176 120 23 218 140 39 178 91 20 171 74 5 233 123 28
236 135 27 226 158 51 139 97 15 66 40 7 64 46 34 64 51 34 56 44 22
61 52 23 74 67 38 58 58 24 69 54 0 154 102 0 228 148 35 199 100 6
206 101 9 220 120 9 233 146 31 213 145 38 126 77 0 72 39 6 64 42 29
79 61 47 64 48 32 77 61 35 65 56 27 66 66 32 83 69 8 187 135 25
242 163 34 233 133 19 236 131 22 250 155 39 232 152 41 195 140 40
144 106 31 68 42 7 66 47 32 70 52 38 68 52 37 70 53 27 66 55 27
68 65 32 86 68 4 213 157 34 252 171 27 240 149 19 238 141 24
218 122 12 230 155 54 180 148 61 98 89 20 60 53 11 67 60 34 72 60 44
74 60 47 80 43 16 76 51 21 71 65 29 87 76 12 201 156 39 245 176 37
254 172 46 221 136 20 204 125 22 145 90 0 71 59 0 78 84 24 85 86 44
67 62 33 63 52 34 77 65 49 136 61 32 116 63 29 79 70 29 72 73 13
111 90 0 211 167 60 207 136 30 206 137 33 181 137 42 109 88 5
77 83 13 72 82 30 73 70 37 93 82 60 83 71 49 80 68 46 149 62 34
118 55 20 80 72 25 62 73 13 76 76 2 114 97 15 185 143 57 115 75 0
105 90 9 107 111 37 82 96 35 83 97 48 64 63 32 80 69 47 76 61 40
72 55 35 113 36 10 119 66 32 81 75 27 49 67 7 53 69 4 60 71 3
73 75 10 76 77 17 56 64 7 62 75 21 82 99 44 115 129 80 89 93 56
73 68 39 93 78 57 65 46 29 115 43 18 101 52 19 65 62 11 57 78 19
70 94 32 51 77 16 59 83 31 76 98 49 47 66 21 77 94 49 69 87 35
111 125 74 119 126 85 88 85 54 89 72 52 93 71 57
