P3
#
16 16
255
72 101 34 81 110 43 58 84 19 59 85 20 57 78 19 69 90 31 75 93 35
86 101 42 75 85 24 73 85 23 71 89 29 70 90 29 96 112 47 107 113 49
132 120 62 107 86 31 56 85 19 78 104 39 63 89 24 74 99 34 59 81 17
71 93 29 76 96 35 89 107 45 82 96 34 57 71 9 73 91 29 96 114 52
80 94 32 83 89 27 100 95 39 99 90 35 58 84 21 62 88 25 81 105 43
63 85 21 72 95 27 83 106 36 66 89 21 76 98 33 79 99 36 62 81 17
85 101 36 97 109 45 94 104 44 65 74 17 54 65 9 79 92 36 64 90 27
63 85 21 68 80 18 85 91 27 89 95 25 103 109 35 99 107 30 95 104 25
74 77 0 96 97 19 77 80 1 85 91 17 75 83 23 65 78 22 42 63 7 39 64 7
48 72 12 65 79 17 79 69 7 112 87 23 114 80 16 121 89 14 103 80 0
152 129 25 183 146 39 161 124 18 126 106 7 99 95 8 101 114 45
81 105 45 62 90 32 51 82 23 56 74 12 77 78 12 133 95 24 155 93 20
178 105 36 190 121 43 182 128 30 234 182 70 230 166 42 214 153 26
213 166 48 174 147 42 113 112 29 96 113 43 82 106 44 77 105 46
62 72 3 132 114 38 186 115 25 208 105 12 208 93 10 206 100 16
215 130 40 224 150 45 249 174 46 255 180 39 228 151 13 211 150 23
171 144 37 123 119 32 86 93 25 69 83 22 73 75 0 121 96 12 224 142 42
236 123 19 210 94 0 228 119 28 192 103 21 165 86 0 200 122 0
235 154 11 254 164 16 230 150 11 223 177 57 149 127 28 93 86 16
73 74 17 93 95 11 139 118 27 210 143 39 217 129 19 227 143 31
179 104 3 153 87 11 138 75 0 174 104 0 247 171 36 255 173 27
254 173 30 235 176 50 196 158 59 78 61 0 77 71 19 117 121 34
170 154 58 210 154 45 193 118 0 191 119 0 222 156 46 157 97 11
138 77 0 190 123 18 244 170 49 240 158 23 240 168 34 192 142 27
120 94 1 94 86 23 74 78 28 90 98 15 119 106 10 176 125 8 187 112 0
181 99 0 213 133 12 217 143 34 202 131 27 210 138 36 214 143 37
196 123 10 203 149 41 143 130 38 106 118 42 115 139 79 120 150 98
89 100 21 152 146 50 237 193 68 247 180 40 255 184 45 247 165 30
224 150 25 231 164 51 146 87 0 139 86 0 161 117 22 138 114 26
104 116 42 103 135 72 107 144 92 114 153 106 70 87 9 114 116 19
207 173 40 247 192 39 250 184 25 241 174 21 219 161 28 231 184 70
211 177 80 120 104 17 93 96 19 97 114 44 104 132 71 115 148 95
130 161 119 133 165 128 95 119 43 93 103 14 152 140 22 210 178 41
224 182 36 218 177 37 147 115 0 146 124 22 128 118 31 41 48 0 39 65 0
33 68 10 47 77 25 53 80 35 56 82 47 65 90 60 62 92 18 68 95 18
79 94 11 68 74 0 125 120 26 98 93 0 81 87 0 71 82 3 69 78 11 50 64 3
33 57 0 37 64 11 29 51 4 26 47 6 22 41 9 13 32 4 64 98 24 69 102 31
66 97 30 71 96 30 63 76 7 58 71 1 55 78 6 57 84 17 66 86 27 51 70 15
45 68 14 34 57 5 35 54 9 35 51 14 40 57 25 36 52 25
