P3
#
16 16
255
39 45 19 53 60 29 89 97 56 105 114 67 81 89 40 47 55 8 37 41 6
37 39 15 30 30 22 26 24 25 25 25 27 26 26 24 37 41 26 48 55 24
50 59 16 96 106 54 47 53 19 35 41 3 45 53 6 48 56 5 47 54 0 36 43 0
52 54 14 56 57 26 40 39 21 39 36 27 27 26 21 15 16 8 30 33 14 20 27 0
40 49 6 43 53 3 46 52 4 36 43 0 58 63 7 55 61 1 58 62 1 36 37 0
42 42 0 33 32 0 52 49 14 47 43 16 25 23 2 39 38 17 35 39 12 19 26 0
40 48 9 24 35 0 39 42 0 33 36 0 54 55 0 42 42 0 49 47 0 43 39 0
78 73 5 86 80 18 60 53 0 40 34 0 28 25 0 64 62 23 38 40 3 37 41 6
38 46 9 45 53 16 68 67 0 66 65 0 82 78 0 73 68 0 82 72 0 92 81 0
128 117 28 137 125 39 94 82 0 57 48 0 82 75 3 48 44 0 31 29 0 35 36 0
31 35 2 40 45 15 179 172 58 185 177 66 199 188 80 211 197 90
210 191 88 214 193 88 201 180 71 179 159 47 165 145 33 131 114 6
177 165 65 51 41 0 54 46 0 36 32 0 37 34 3 23 21 0 206 192 59
212 198 67 208 189 61 226 202 78 211 183 60 236 204 81 221 188 57
205 173 38 216 187 47 203 177 40 231 210 85 119 102 0 112 96 18
66 55 0 45 34 2 27 19 0 214 194 47 231 209 64 219 192 53 234 202 65
198 160 25 233 192 52 224 180 32 224 181 25 225 185 25 229 195 36
225 194 51 196 172 48 156 135 42 98 80 16 41 25 0 44 30 4 232 207 55
240 213 62 230 195 49 235 194 50 195 149 2 209 158 5 227 173 12
222 170 0 216 166 0 234 188 17 233 194 37 234 202 67 172 144 44
103 79 9 41 20 0 41 22 0 217 191 44 237 210 61 217 181 35 201 159 11
172 123 0 202 147 0 235 177 5 240 181 3 237 181 0 234 183 6
223 178 17 220 182 45 191 160 54 138 112 37 70 48 0 39 19 0 144 122 0
205 179 43 211 178 39 200 159 15 183 134 0 204 149 0 231 169 0
238 176 0 239 178 0 229 173 2 218 169 14 199 159 27 191 160 54
155 130 50 102 81 26 51 34 0 67 50 0 151 130 11 195 167 41 213 177 39
215 170 19 212 158 0 222 161 0 229 167 0 231 170 1 217 162 1
211 163 19 181 141 19 181 151 53 154 133 54 115 100 41 54 42 0
48 41 0 97 87 0 140 122 12 188 163 37 224 187 46 210 164 9 214 160 0
224 166 6 221 162 8 210 155 13 211 166 41 181 144 38 167 143 55
136 122 49 102 96 34 41 39 0 56 57 0 57 55 0 89 80 0 163 145 33
225 197 64 208 170 23 209 162 10 210 156 6 198 145 5 205 156 28
223 181 73 191 160 69 133 114 37 90 81 12 74 74 12 47 53 0 46 55 8
38 43 0 85 84 4 167 158 57 226 205 80 205 174 34 214 173 29
207 160 20 196 146 21 188 142 31 190 151 60 165 138 59 86 71 2
51 50 0 51 59 0 53 67 6 35 49 13 39 49 0 104 107 36 180 174 78
218 202 81 197 169 34 227 190 50 231 187 52 224 177 59 163 120 16
118 82 0 110 86 14 61 50 0 56 57 0 49 61 0 41 59 0
