P3
#
16 16
255
68 118 47 58 105 37 95 137 74 108 128 77 111 95 62 120 57 39
152 38 27 166 27 24 175 34 43 148 19 24 162 55 49 122 50 35 93 67 50
69 68 47 52 52 28 43 43 17 65 115 42 90 137 67 110 150 88 77 91 42
74 45 15 112 35 19 165 32 25 196 42 42 182 43 48 162 39 41 140 39 29
102 35 19 75 49 34 71 68 49 35 34 13 28 30 6 90 143 63 123 169 96
98 132 71 41 42 0 68 16 0 146 37 30 185 16 19 212 33 37 179 41 38
187 80 70 156 68 54 110 48 33 70 42 30 53 45 32 33 35 14 38 43 20
78 120 48 83 122 55 89 120 60 75 78 31 109 64 35 156 52 39 186 16 16
205 25 26 202 68 59 197 91 75 127 35 12 114 43 21 80 41 26 55 39 24
42 44 23 42 54 30 53 72 26 68 95 42 106 142 81 139 163 105 128 120 74
138 75 44 178 40 29 243 81 76 197 65 53 248 129 109 224 105 75
195 96 64 121 61 37 69 42 21 62 64 42 49 67 43 77 77 41 70 81 38
85 114 56 117 143 82 104 98 50 135 85 52 168 56 42 181 42 35
159 26 19 176 44 29 203 62 35 191 70 39 134 60 35 114 82 59
120 124 101 65 88 62 93 75 39 89 82 40 79 93 40 87 94 43 125 91 56
154 88 66 158 64 56 120 4 4 152 20 18 181 33 29 180 19 9 163 25 12
122 44 24 123 92 71 106 111 89 70 96 71 86 71 30 82 75 31 59 67 18
102 95 53 147 95 71 185 103 91 175 82 75 148 36 34 163 25 25
183 25 26 179 7 7 165 20 15 115 37 25 81 52 36 62 65 46 50 69 49
77 83 37 85 93 46 107 120 74 123 113 77 150 87 72 199 102 96
134 25 18 163 39 31 170 22 18 188 24 23 198 22 22 173 30 26 107 36 30
62 38 28 51 45 33 36 40 26 76 93 39 107 124 70 101 115 64 101 85 49
151 79 65 204 97 91 159 40 32 184 47 37 180 23 16 209 36 32 209 29 28
192 46 46 94 27 21 64 44 35 52 42 32 36 32 20 73 93 30 90 108 46
84 92 35 143 120 76 135 58 32 180 68 54 147 23 15 167 24 16 209 42 34
244 62 58 210 22 23 180 32 30 90 26 16 61 44 28 42 32 20 35 29 15
85 111 48 77 99 37 69 83 24 100 82 34 119 50 19 145 42 23 145 23 12
161 17 9 199 25 18 214 22 17 216 20 22 185 33 32 107 45 32 69 56 37
53 41 25 51 44 26 78 112 61 99 132 79 97 126 72 77 79 32 107 62 29
136 54 32 133 23 6 161 19 9 230 49 42 215 13 11 232 26 30 181 23 22
111 52 36 81 73 50 59 48 26 78 70 47 75 113 62 92 129 77 102 137 81
75 92 40 84 65 23 121 72 39 128 57 29 154 49 27 188 43 26 195 29 17
212 48 39 164 40 30 90 49 27 66 66 38 55 54 26 69 68 38 78 114 53
78 112 52 55 87 24 43 67 7 48 55 1 90 87 36 95 84 38 105 73 32
140 68 30 154 70 34 135 60 28 102 53 21 87 81 49 61 76 43 60 76 39
83 101 63 66 101 37 78 113 47 54 84 20 60 86 21 59 79 18 79 97 39
95 116 60 115 119 68 121 87 39 106 62 15 110 79 35 100 88 46
119 129 92 71 96 57 72 97 57 104 131 88
