P3
#
16 16
255
46 64 12 39 56 2 63 74 16 86 97 37 68 81 25 50 68 10 43 63 4 57 74 6
92 101 20 130 120 35 108 68 0 135 76 0 216 144 46 165 110 17 62 46 0
22 28 0 48 65 13 32 49 0 58 75 20 52 67 8 62 78 16 69 84 15 78 89 11
98 102 15 124 116 18 166 140 45 157 102 22 156 85 3 180 103 0
216 157 57 110 88 15 48 46 0 78 92 39 27 46 0 64 91 36 30 58 0
67 89 17 79 88 0 165 155 40 159 134 5 147 108 0 219 160 42 189 106 12
189 96 1 209 122 6 225 156 39 179 143 47 92 72 0 91 108 54 27 47 0
72 103 46 64 93 26 71 85 0 147 143 35 217 189 56 253 205 61
230 164 26 235 155 30 200 108 5 177 84 0 214 125 7 214 144 23
203 162 57 109 85 0 68 88 35 29 52 0 87 116 58 79 100 23 105 99 0
213 184 56 216 167 38 245 176 47 230 142 18 241 150 33 206 127 24
182 108 3 185 105 0 217 151 39 188 154 56 110 91 0 46 71 13 48 73 15
77 105 44 42 54 0 166 145 20 217 170 28 219 152 19 228 142 19
217 112 0 201 98 0 170 91 0 184 118 21 155 84 0 206 149 46 142 118 28
105 98 17 46 77 10 60 89 23 44 66 4 37 39 0 223 188 58 249 188 37
220 139 0 247 145 19 227 106 0 223 106 13 172 83 3 167 96 16
166 101 7 165 120 27 96 87 10 77 87 18 83 116 47 102 131 65 91 111 50
85 80 0 217 177 46 244 177 28 237 151 12 240 136 11 228 105 0
229 108 17 193 91 16 179 97 23 201 137 49 116 80 0 76 78 5 57 78 13
57 87 23 41 67 4 77 95 33 93 88 6 180 140 16 234 171 30 226 147 20
221 126 8 232 120 10 228 108 11 218 99 15 200 99 17 207 142 50
110 81 0 75 83 6 56 83 12 42 70 9 27 53 0 44 62 0 57 56 0 217 181 61
194 132 0 192 116 0 250 158 47 247 140 36 242 129 35 190 81 0
177 91 8 194 149 58 101 90 1 70 84 9 48 75 8 45 71 10 59 83 23
57 81 19 47 52 0 170 137 21 221 161 31 208 127 12 217 119 18
228 120 32 226 125 45 169 97 15 121 80 0 99 94 12 74 90 15 65 85 22
38 61 5 48 69 10 60 84 22 78 107 40 69 84 3 112 95 0 183 140 28
209 140 39 172 84 0 156 55 0 148 61 0 161 114 34 84 72 0 78 92 15
75 100 32 66 81 26 54 66 16 49 69 10 58 83 18 88 120 45 105 134 52
79 90 11 98 87 8 134 95 18 179 116 47 126 44 0 130 58 0 166 133 52
83 79 0 80 94 19 82 98 33 81 81 27 70 64 14 38 59 3 37 61 0 53 83 9
96 126 52 73 95 31 48 56 0 87 71 9 106 70 12 102 44 0 105 54 0
104 88 10 72 80 0 62 79 8 50 64 2 86 80 22 113 98 43 30 57 6 41 66 11
41 63 1 56 76 13 67 84 29 52 62 9 55 58 3 84 73 19 95 67 19 101 80 25
77 83 9 62 85 7 73 100 31 54 73 9 77 73 10 111 95 33 34 62 14
56 80 30 54 73 17 43 58 1 59 73 22 62 76 25 48 58 6 57 60 7 90 78 30
96 89 34 76 93 22 47 79 3 43 74 7 74 95 30 67 63 0 73 58 0
