P3
#
16 16
255
84 83 29 80 82 32 85 94 47 76 89 43 70 79 34 65 65 11 77 56 0
126 85 3 175 112 15 176 105 0 199 129 17 186 134 24 164 139 38
94 99 7 67 100 21 57 105 31 80 81 23 98 103 45 109 118 65 83 93 41
70 77 23 86 82 21 109 87 14 153 111 25 175 113 14 187 116 8
213 145 34 206 154 45 182 157 57 115 115 25 76 105 25 57 99 25
94 101 33 103 112 45 107 116 51 85 92 25 84 85 17 107 98 23
131 103 20 172 127 34 189 127 26 203 135 28 222 158 48 210 159 52
183 155 58 125 119 31 84 101 21 59 87 12 137 149 73 106 118 42
96 104 27 102 105 26 128 121 40 145 125 38 156 120 26 195 145 46
208 147 41 212 148 40 208 147 40 180 131 28 147 117 21 112 98 10
81 86 4 61 74 0 128 147 66 94 109 26 87 93 7 109 103 15 152 133 39
175 141 43 179 131 29 208 151 46 218 155 49 210 147 41 182 125 20
149 101 1 116 83 0 102 81 0 89 79 0 81 76 0 82 103 24 83 96 14
97 97 11 113 98 5 155 123 24 190 143 39 195 138 31 214 152 43
215 152 46 202 141 35 165 112 10 142 98 1 118 82 0 124 94 4 122 98 8
127 106 17 70 87 16 82 93 17 113 106 25 137 112 22 172 126 28
196 137 33 198 130 23 215 147 40 202 138 32 183 126 23 146 96 0
139 96 1 126 87 0 146 110 16 154 118 24 170 134 40 69 79 19 65 65 1
99 81 9 141 104 23 177 118 26 176 104 6 164 86 0 189 115 10
187 119 18 162 104 4 121 75 0 124 84 0 119 79 0 147 107 9 164 118 20
188 143 42 65 62 17 82 70 20 111 81 21 147 97 28 154 83 3 166 85 0
153 66 0 182 99 3 180 110 12 173 115 16 129 83 0 127 87 0 135 96 0
165 122 20 166 117 14 190 139 34 72 57 18 99 75 31 138 94 45
149 87 28 134 54 0 132 40 0 142 50 0 194 109 18 217 144 49 200 140 42
165 117 17 164 122 20 156 114 12 167 124 20 166 115 10 183 130 24
68 36 0 108 69 28 166 109 64 161 90 38 146 57 0 127 32 0 149 53 0
197 109 22 192 118 23 177 115 14 168 119 16 184 141 36 177 136 30
185 142 38 187 139 37 193 144 42 96 48 2 133 79 32 185 117 70
164 84 35 165 74 19 157 59 0 169 72 1 187 98 14 181 105 11 170 107 2
179 127 18 188 144 35 175 134 28 173 131 29 161 119 21 136 93 0
153 89 27 178 110 49 198 121 65 153 68 13 160 66 12 169 73 12
177 83 11 178 89 5 186 108 10 186 119 12 201 145 32 194 148 36
178 137 31 163 125 28 130 94 6 76 41 0 171 95 17 191 113 38
201 118 50 162 74 11 160 67 8 172 78 16 172 80 7 174 86 0 179 100 0
190 120 8 212 153 35 205 155 40 199 158 53 172 137 45 134 103 23
81 53 0 176 92 0 182 97 6 184 97 17 176 88 16 172 80 15 178 86 19
167 77 1 184 99 9 198 117 10 206 135 17 224 164 42 213 162 45
207 165 63 149 117 30 106 82 10 76 55 0 206 118 12 181 93 0 162 72 0
174 84 8 171 79 12 180 88 21 168 78 0 202 117 26 207 126 18
211 139 19 223 162 37 211 160 42 201 159 57 119 89 3 76 53 0 70 51 0
