P3
#
16 16
255
38 51 31 49 60 43 61 64 55 60 61 56 77 73 74 69 65 62 57 57 45
68 70 56 65 67 62 54 54 54 55 49 51 51 47 44 55 61 51 64 79 60
53 71 49 34 54 29 49 57 42 70 76 64 73 74 68 70 69 65 84 83 81
77 74 67 85 82 65 65 63 42 60 58 45 61 59 47 60 51 46 60 55 49
58 64 52 63 75 61 51 65 48 47 64 46 58 55 50 76 73 68 77 73 72
77 76 74 82 82 74 87 84 67 88 81 53 80 71 38 86 75 43 72 61 31
71 59 37 68 61 43 47 50 39 58 68 60 49 55 51 50 59 56 70 65 61
75 71 68 62 58 59 65 64 60 77 78 60 92 86 52 120 94 45 182 146 88
175 136 81 139 101 52 150 118 79 81 61 34 53 54 38 55 66 58 48 59 53
49 60 54 65 66 58 74 75 69 75 73 74 76 76 68 72 79 48 111 96 41
193 133 47 224 137 44 208 119 39 216 133 65 197 128 73 120 78 38
62 60 37 58 79 60 57 82 60 54 82 57 66 72 58 70 73 62 73 72 68
97 95 80 110 113 66 155 132 56 222 139 37 230 118 16 206 95 14
197 94 28 176 82 30 118 55 14 77 65 39 82 99 80 52 78 53 63 93 65
82 87 67 72 74 60 75 72 65 86 80 54 121 114 44 208 172 76 247 153 55
236 120 35 185 84 28 133 35 0 156 49 13 185 102 72 98 66 45 66 67 51
39 51 37 60 78 64 78 79 63 80 81 67 90 90 78 70 69 38 110 110 38
193 161 74 213 118 38 184 64 1 128 21 0 137 36 8 160 50 17 150 61 29
90 53 27 74 67 49 54 57 46 51 61 52 78 71 65 63 60 51 55 57 43
65 78 48 87 114 63 97 88 33 179 90 46 165 38 3 152 32 5 156 41 10
149 40 0 136 54 7 105 72 37 75 71 44 54 57 40 48 54 40 66 63 58
74 75 67 60 69 50 57 77 50 83 114 80 101 99 61 118 35 5 146 21 0
185 56 25 183 61 22 192 85 31 193 118 63 134 102 61 74 70 41 68 70 49
87 94 78 59 67 56 57 69 55 59 76 57 73 93 68 60 80 55 40 26 0
140 62 23 193 76 33 206 75 33 205 79 29 189 85 22 203 131 72
141 107 69 67 60 34 47 48 30 67 75 60 41 58 39 52 71 51 53 77 53
96 118 95 53 68 49 58 44 18 128 66 25 204 106 57 179 54 8 190 68 19
129 39 0 152 92 38 113 82 51 85 74 56 55 53 40 51 54 45 41 66 37
90 116 87 60 90 62 109 135 110 32 46 29 65 58 39 91 55 19 171 100 58
154 45 6 179 70 31 139 70 29 98 60 24 80 59 38 66 56 46 75 67 64
51 45 45 58 90 53 76 110 75 112 149 115 45 80 48 27 51 27 68 81 55
96 92 55 98 66 27 140 67 34 144 65 35 123 72 43 94 66 42 82 73 56
67 67 55 62 61 56 56 55 51 48 91 46 93 139 93 77 124 80 41 88 44
92 137 94 98 139 95 99 132 89 82 98 59 51 39 13 84 56 34 114 78 56
95 68 47 63 64 46 52 69 50 55 73 51 56 76 51 87 135 87 87 137 88
77 129 81 107 161 111 108 165 112 96 153 100 80 132 84 22 62 25
42 62 37 49 46 27 79 48 30 104 77 58 70 78 57 71 97 72 73 99 70
50 80 46
