P3
#
16 16
255
52 81 27 61 84 32 53 62 15 79 81 31 97 92 36 108 93 24 150 119 39
161 143 61 96 117 50 59 97 40 24 52 11 21 42 9 25 37 13 25 35 8
38 50 12 54 67 23 58 88 34 42 69 16 50 68 18 24 34 0 37 45 0 49 48 0
80 68 0 105 101 28 116 140 78 64 101 47 18 45 0 20 42 4 23 40 6
27 43 7 39 55 16 52 69 25 44 81 27 38 75 21 58 93 39 49 79 25
56 84 23 57 83 20 66 92 29 80 108 49 114 147 94 41 73 24 28 56 7
42 69 18 35 59 7 35 59 9 52 75 31 45 67 28 24 56 0 80 110 46
96 123 54 64 94 24 56 88 21 59 94 28 39 76 6 41 74 3 73 100 31
51 73 9 41 65 7 37 62 5 24 53 0 32 61 7 15 42 0 9 35 0 81 95 18
113 122 39 145 145 49 101 105 11 47 68 0 57 84 7 97 117 20 134 147 39
125 133 22 102 110 11 70 86 11 29 53 0 17 47 0 19 52 7 33 61 21
30 56 19 98 103 23 174 169 85 213 191 92 183 163 68 110 111 35
93 100 20 171 173 63 227 224 95 233 227 89 232 228 103 176 180 86
116 129 57 54 80 19 44 74 22 63 90 47 43 68 29 69 75 5 172 165 93
183 149 75 181 141 69 175 148 81 141 120 39 170 150 37 231 213 77
249 233 85 244 229 88 175 162 47 129 125 28 109 123 36 64 86 14
58 78 27 47 68 27 61 61 1 79 67 7 137 98 39 140 94 35 121 80 24
115 81 9 128 99 0 172 147 21 206 186 39 198 177 26 203 177 40
218 198 73 189 186 71 134 141 46 101 110 45 58 66 15 49 37 0 81 61 10
148 112 62 150 110 61 139 101 56 116 81 27 132 102 29 143 118 18
142 123 0 214 193 40 232 198 38 235 200 44 227 205 60 192 177 58
160 148 62 146 136 67 45 33 0 130 114 62 192 171 116 135 110 54
156 130 73 149 125 65 107 92 27 126 118 37 131 129 20 209 202 70
223 206 58 225 204 53 210 197 59 164 153 35 139 129 42 139 131 58
91 92 26 128 131 62 117 123 51 92 93 13 178 169 78 178 173 82
125 139 64 121 147 74 127 156 74 92 121 31 135 156 55 138 157 52
115 137 39 97 120 30 80 97 26 95 111 46 76 93 22 73 93 21 73 97 23
83 102 21 69 78 0 125 132 36 117 135 49 122 145 63 107 126 44
77 97 12 111 133 48 106 134 49 112 149 71 101 139 66 55 90 24
45 80 16 102 138 74 65 101 39 46 79 22 42 72 12 24 49 0 70 84 5
142 139 42 190 173 65 197 165 52 183 153 41 146 128 26 140 144 50
119 146 67 77 117 46 79 118 51 68 108 45 102 146 83 95 136 76
47 84 32 32 67 13 44 82 23 115 139 65 156 152 52 199 169 49
229 172 41 238 178 48 199 156 44 155 136 41 91 108 30 62 97 29
74 108 47 96 130 70 101 141 78 89 128 65 78 112 52 70 106 44
86 129 60 112 149 69 81 96 1 173 157 44 209 151 17 217 143 10
211 149 36 140 104 10 79 83 9 65 89 27 45 64 9 47 65 15 97 136 71
70 106 42 58 90 27 65 100 34 76 122 47 37 79 0 73 98 6 130 122 11
222 162 29 244 164 27 216 144 33 128 83 0 74 71 0 57 75 17 90 102 52
81 90 45
