P3
#
16 16
255
41 44 13 46 46 0 73 64 0 214 195 67 237 202 50 252 201 48 255 194 66
251 169 69 226 142 72 165 85 34 170 103 60 132 84 36 76 50 0 55 47 0
79 87 14 74 90 15 44 41 8 84 77 23 129 116 22 217 191 68 237 195 49
247 189 43 255 184 59 215 129 30 198 105 35 155 68 14 175 102 49
158 102 43 126 89 21 98 79 2 98 93 11 84 88 1 44 29 0 126 107 51
194 169 79 229 192 77 239 185 51 249 179 47 255 172 57 192 93 0
162 59 0 147 45 0 184 93 23 192 116 38 194 137 47 173 131 31
156 127 23 145 123 14 53 28 0 64 37 0 114 79 0 213 168 65 251 190 75
230 153 39 208 114 16 176 72 0 155 44 0 156 48 0 195 96 11 209 122 25
236 164 53 225 165 45 211 161 38 213 168 43 65 33 0 104 70 22
142 102 32 213 162 79 205 140 50 201 121 34 169 75 1 158 53 0
168 59 0 177 69 0 211 111 15 217 126 11 246 164 36 236 163 25
229 161 24 241 178 39 66 32 0 145 108 63 177 135 75 195 144 78
148 83 17 165 87 25 145 53 4 148 48 0 163 59 4 176 74 0 215 119 17
220 130 7 242 161 20 232 156 8 227 155 9 239 168 24 69 34 0 62 25 0
76 34 0 138 88 39 141 80 36 125 52 17 103 22 0 141 51 24 145 54 10
157 68 0 206 123 21 217 140 12 238 166 22 233 163 13 231 163 18
234 166 23 74 34 0 107 65 17 136 90 40 127 75 28 119 59 23 116 46 20
118 41 23 139 57 35 143 61 21 150 71 2 202 128 23 218 148 16
237 171 23 237 172 20 236 171 27 232 167 25 105 54 0 131 80 17
160 104 43 132 73 17 127 62 20 117 46 14 133 57 34 129 49 22
144 66 18 165 91 16 198 128 17 226 160 24 236 175 24 235 174 21
229 169 23 227 166 24 159 98 17 155 94 13 162 97 17 136 70 0 130 58 0
110 34 0 125 46 7 134 53 10 149 71 9 183 107 21 216 146 25 230 163 20
235 172 15 240 177 20 236 175 25 228 166 23 237 168 64 242 173 69
228 156 48 175 102 0 166 87 0 174 91 11 187 100 31 172 85 14 171 86 3
210 127 23 238 160 26 236 163 9 232 163 0 242 173 8 243 174 19
233 163 13 248 181 64 255 193 71 246 177 50 201 130 4 188 111 0
200 119 11 206 119 24 186 99 4 201 114 11 226 141 22 240 159 16
234 156 0 230 155 0 238 166 0 244 170 11 239 166 11 247 195 73
241 188 60 247 191 52 255 203 59 248 183 41 220 150 16 214 135 16
230 149 34 228 145 27 229 146 16 229 147 0 229 151 0 232 157 0
239 167 0 248 174 13 253 179 22 181 149 28 196 163 34 223 187 41
255 219 65 248 202 44 228 173 21 214 148 10 226 156 26 237 162 35
229 151 17 222 146 0 228 154 0 238 167 1 246 177 11 253 183 25
255 187 33 108 100 0 153 145 21 189 178 34 225 209 52 225 200 37
239 203 44 225 177 31 219 163 28 231 168 37 231 164 31 228 161 18
228 163 9 239 175 17 250 188 29 250 187 34 239 178 28 74 80 0
107 111 0 145 147 4 207 201 43 217 203 36 229 204 39 220 180 31
231 182 43 224 167 36 237 177 44 240 177 36 231 170 20 237 178 22
250 191 35 240 183 34 217 159 13
