P3
#
16 16
255
82 73 34 65 60 18 70 73 26 94 101 47 76 75 18 64 54 0 67 42 0
152 122 50 129 100 22 121 104 22 166 165 83 81 94 15 42 61 0 50 67 13
89 97 58 78 81 50 67 65 24 24 27 0 82 91 36 60 69 6 95 95 25 80 67 0
143 111 28 159 119 31 238 202 108 187 161 66 139 134 40 95 105 18
55 76 1 35 56 0 34 49 8 86 97 63 76 94 44 39 58 2 67 87 18 71 82 3
74 69 0 148 125 21 218 170 59 206 147 27 227 172 46 223 182 58
152 136 15 86 92 0 67 90 0 45 76 8 35 63 15 83 111 73 77 105 46
74 100 35 58 82 4 105 119 24 78 70 0 209 177 56 245 186 56 241 169 31
238 170 27 255 213 71 214 190 56 90 90 0 84 106 8 51 83 8 38 72 21
17 52 12 60 89 23 75 103 29 84 108 22 118 129 27 155 144 28
217 180 50 244 178 40 235 156 11 246 168 20 232 170 25 202 170 33
111 105 0 115 131 33 98 126 52 87 117 67 47 79 40 90 111 42 99 120 45
103 122 33 133 139 39 209 196 84 215 176 55 223 158 28 214 136 2
246 169 31 229 165 31 214 179 51 147 135 23 94 103 12 96 116 47
56 75 29 28 48 13 131 138 68 121 129 54 92 101 20 147 147 59
212 196 100 218 183 81 200 138 35 179 107 0 189 117 7 197 136 29
221 184 80 136 119 27 79 77 3 89 94 38 34 36 0 26 26 0 124 123 56
91 92 22 77 81 5 135 134 52 220 204 119 210 176 89 190 133 46
133 63 0 171 100 10 148 88 0 190 152 67 98 79 2 102 94 32 92 88 41
45 36 7 63 51 29 134 135 69 111 112 46 59 62 0 88 86 12 201 185 108
152 119 42 159 102 25 164 95 18 164 93 15 153 91 14 159 120 45
156 133 66 137 125 73 86 78 41 78 63 40 34 18 3 105 114 51 119 128 63
70 80 11 72 74 1 98 84 9 95 59 0 146 84 9 186 113 36 158 82 6
141 78 1 130 88 14 123 100 33 120 110 59 77 71 35 64 56 37 33 21 9
70 96 33 86 111 45 46 68 0 73 84 6 82 71 0 142 106 20 183 117 30
181 101 12 185 104 15 180 110 24 140 95 12 106 84 11 95 90 35
54 56 19 39 41 20 25 27 16 26 61 0 66 98 31 80 110 36 117 134 54
93 87 3 154 120 33 196 132 44 182 102 13 211 130 39 234 164 76
172 130 44 101 82 6 71 69 12 35 42 1 23 31 8 26 34 19 45 82 15
70 106 36 106 140 66 115 138 60 78 77 0 101 76 0 149 94 14 135 67 0
195 125 40 234 173 90 164 127 47 83 66 0 51 52 0 35 44 1 26 32 6
27 35 14 82 112 42 63 93 23 76 107 37 77 100 28 84 90 20 89 74 7
105 64 0 73 18 0 161 104 37 190 143 75 118 91 24 60 49 0 47 47 0
46 52 8 31 30 0 25 23 0 62 75 5 57 74 4 66 88 23 63 85 23 80 93 39
81 79 31 78 54 16 63 27 0 116 78 39 130 98 57 72 55 9 54 48 0 50 47 2
49 44 4 36 21 0 40 20 0 56 62 0 55 66 0 44 63 0 40 61 4 69 85 40
82 86 51 62 46 20 54 28 5 74 46 22 83 60 29 44 34 0 58 55 14 50 47 6
40 31 0 39 16 0 64 34 6
