P3
#
16 16
255
147 104 35 119 86 32 86 71 48 81 77 68 76 71 65 104 102 90 72 71 51
85 90 67 69 84 61 73 98 66 75 108 55 56 91 33 135 166 122 68 96 55
35 60 18 53 79 34 125 87 25 155 124 77 78 66 44 77 73 64 82 77 71
93 89 80 89 86 67 97 95 70 76 77 46 68 79 39 87 115 64 60 94 43
118 149 107 82 110 70 48 75 32 61 88 43 93 62 16 103 79 43 73 62 44
67 63 54 79 76 71 90 85 79 81 69 55 107 87 60 110 79 33 95 78 24
108 128 79 40 75 33 93 120 87 57 84 49 53 82 38 55 84 36 112 89 57
68 51 25 79 70 55 74 70 61 75 75 67 79 73 61 106 85 68 133 97 63
201 145 86 148 107 43 133 135 86 41 66 26 107 133 94 31 59 18
52 84 35 52 87 33 78 63 40 61 48 29 70 62 51 76 72 61 69 70 52
89 81 58 96 65 36 149 96 52 199 121 55 189 122 52 157 136 79 46 54 3
80 103 49 62 95 38 70 108 49 61 101 39 62 55 39 61 53 40 70 63 53
79 73 59 87 82 53 88 70 30 143 99 50 140 71 12 145 56 0 204 125 58
156 117 58 73 68 12 35 55 0 74 108 47 76 112 50 66 105 42 50 51 43
51 51 41 62 58 47 82 71 51 107 88 46 140 104 42 197 135 58 162 83 4
160 68 3 190 110 51 188 139 80 59 44 0 45 62 8 64 97 42 67 98 39
59 91 28 59 61 56 51 52 44 68 66 54 76 64 38 105 75 25 204 156 82
210 140 45 201 114 19 152 60 0 180 101 34 147 98 32 51 32 0 45 59 8
62 92 42 69 97 39 68 97 33 62 63 57 63 64 56 71 71 59 69 57 31
104 72 15 212 159 79 213 138 37 229 143 34 196 107 3 207 132 39
166 124 48 65 50 0 74 88 39 68 94 46 73 101 42 90 116 51 71 70 65
73 73 65 66 66 56 75 64 42 90 62 15 164 115 46 169 95 6 196 111 5
225 138 23 228 160 53 157 124 43 62 56 0 74 90 41 63 89 41 64 92 34
72 101 37 70 62 60 77 72 69 75 72 67 82 76 64 80 64 41 105 70 30
129 65 3 174 94 7 238 154 42 223 159 49 125 104 21 74 80 18 70 90 39
77 105 57 68 98 44 64 98 38 88 80 78 80 75 71 78 75 68 75 73 61
65 59 47 78 58 33 126 78 32 181 117 45 186 118 17 168 121 17 89 82 4
74 89 30 69 93 41 67 97 47 69 102 47 64 99 41 71 71 61 81 79 67
74 72 59 75 73 58 70 72 58 65 59 35 79 49 11 158 118 59 180 142 57
120 98 12 37 43 0 60 84 32 76 106 52 52 87 31 48 81 24 58 92 32
62 64 53 76 76 64 81 79 64 72 73 57 60 67 51 67 71 48 64 55 22
103 89 40 123 114 45 76 78 5 59 76 21 64 92 43 67 100 47 78 113 57
49 83 23 60 94 33 72 72 64 65 65 57 60 60 50 71 73 60 67 76 59
62 74 50 49 65 29 67 86 40 68 92 34 58 82 22 71 94 42 74 97 51
69 96 51 59 91 41 69 105 43 55 94 27 70 69 64 80 79 74 61 62 54
72 75 64 53 61 46 63 78 55 56 84 46 65 101 55 62 101 48 56 93 39
71 95 47 79 101 55 73 100 57 60 92 43 61 100 37 55 96 26
