P3
#
16 16
255
62 73 67 39 52 43 52 66 53 32 56 34 54 87 58 44 81 47 66 100 65
18 56 19 38 86 46 54 109 70 60 113 83 48 90 68 31 49 35 39 56 37
40 71 39 42 83 41 47 60 53 35 51 41 50 67 51 54 78 56 41 78 47
34 74 40 18 49 18 21 55 22 34 81 39 71 124 82 56 112 77 54 103 74
56 88 67 27 57 33 38 78 43 37 84 40 62 81 75 23 43 31 41 60 38
47 73 46 48 91 63 24 64 37 29 55 30 29 54 25 31 69 28 70 122 74
66 129 86 59 124 84 60 117 82 47 103 68 42 99 58 14 73 27 50 72 60
40 61 44 60 80 53 46 73 40 67 111 76 24 66 28 42 65 19 55 79 27
58 101 45 61 118 65 56 125 78 54 125 83 65 129 92 66 128 89 65 126 85
47 108 67 55 80 58 40 63 37 47 63 34 77 99 63 77 116 71 77 117 54
96 122 25 153 184 81 76 129 47 67 136 73 72 145 100 54 124 88
70 126 91 61 110 78 71 120 90 58 107 77 35 59 35 49 69 42 67 80 52
84 98 62 64 92 43 80 104 28 193 201 82 204 219 94 127 172 77
51 111 41 93 150 99 100 150 112 78 119 87 63 99 73 34 69 47 23 61 40
38 59 42 56 71 52 71 76 53 78 82 49 71 77 31 139 132 60 195 163 52
187 162 44 201 216 121 75 106 28 100 117 49 108 122 69 54 75 42
67 92 71 34 58 44 31 57 46 57 71 54 74 85 68 60 63 42 71 70 40
84 81 38 207 188 119 223 178 63 244 204 82 170 170 72 131 135 51
135 109 32 128 104 42 59 66 32 47 70 52 39 61 49 34 55 46 61 69 46
98 103 81 86 87 69 93 93 69 91 88 53 139 126 56 228 198 68 232 203 63
171 167 60 169 149 63 153 80 3 171 103 42 72 69 34 41 70 50 43 70 53
63 90 75 69 77 56 90 95 75 75 76 58 100 95 73 110 101 70 101 90 26
228 213 96 215 208 78 148 159 63 172 161 81 190 113 35 177 106 40
91 96 56 37 76 49 32 64 40 65 93 70 55 68 58 62 70 57 77 75 60
117 105 83 109 89 56 135 119 67 133 138 56 144 170 83 74 119 50
137 164 95 210 178 93 173 140 61 132 158 110 65 115 80 47 81 48
69 94 62 56 71 66 58 68 59 85 82 65 138 121 95 130 97 62 151 129 82
93 104 48 74 114 54 45 108 55 92 143 86 139 147 70 132 138 66
116 164 114 71 132 91 59 102 59 95 128 85 53 66 59 70 78 67 71 64 46
127 103 75 132 91 47 119 87 40 71 73 33 62 97 55 58 120 71 46 113 60
68 115 63 84 130 81 106 173 130 61 132 88 95 153 102 74 125 69
55 68 59 63 71 58 85 79 63 101 81 54 131 92 51 88 56 15 50 53 22
68 101 72 62 123 82 58 127 83 63 125 86 63 128 88 119 191 151
53 126 81 49 113 61 67 128 71 50 66 53 74 86 72 75 77 63 89 78 58
124 98 71 65 48 18 43 52 31 62 97 75 66 121 92 64 128 93 39 97 57
99 157 116 96 161 118 86 154 107 63 129 83 59 125 77 57 75 59
56 70 55 58 62 48 82 76 60 85 67 45 58 48 23 45 58 41 56 90 73
84 138 114 45 106 75 47 103 64 96 153 110 96 155 109 95 158 113
67 132 89 86 153 110
