P3
#
16 16
255
107 84 94 106 89 95 94 89 86 93 99 87 93 106 86 92 108 81 104 113 82
107 108 77 119 105 78 111 91 67 114 89 69 104 87 69 87 81 65
92 103 86 100 125 106 85 118 99 102 81 90 103 87 90 95 90 86 94 98 84
89 101 79 88 101 73 99 104 72 106 101 69 116 99 71 117 91 66
120 92 71 120 97 79 115 108 89 119 126 108 113 136 116 98 130 109
105 86 92 105 91 91 103 98 92 98 99 85 91 96 73 90 95 63 98 94 59
109 95 60 115 88 58 126 91 63 126 90 66 132 101 80 140 125 104
129 131 109 99 117 93 79 105 80 106 92 92 103 92 90 109 102 92
99 96 79 93 92 64 98 92 58 102 86 50 119 91 52 128 88 53 140 94 61
135 88 60 140 100 74 153 129 103 129 123 97 82 92 65 60 79 51
100 90 88 93 84 77 104 98 84 97 91 69 100 91 60 116 98 60 118 86 45
137 94 52 157 102 61 162 102 65 150 90 56 147 96 65 154 121 90
131 116 85 91 92 61 77 86 55 95 91 82 82 78 66 101 96 77 102 92 65
117 101 65 144 117 74 138 95 50 156 100 53 178 110 63 174 101 58
158 89 48 145 87 50 134 94 59 112 89 55 88 82 48 82 83 49 91 93 80
75 73 58 101 95 71 108 95 63 135 112 70 166 128 81 147 94 42
157 90 37 168 88 35 164 82 32 164 87 41 154 89 47 125 77 37 97 67 29
82 68 31 72 68 31 85 92 76 65 68 47 95 89 63 106 90 56 140 109 63
170 124 72 140 78 21 144 68 8 142 58 0 147 61 4 171 91 38 175 107 58
139 88 45 107 74 33 93 75 37 76 68 31 70 82 62 76 81 59 79 76 45
95 77 39 118 84 36 167 116 59 151 83 20 141 62 0 149 62 0 137 52 0
200 121 62 209 142 89 171 120 73 132 99 58 76 58 20 75 65 30 59 72 52
75 83 59 84 81 50 98 80 40 119 83 31 159 107 47 146 77 8 150 72 0
153 69 0 156 73 3 209 135 72 226 165 108 195 151 104 143 114 74
82 63 30 72 61 29 59 74 53 78 88 63 88 85 52 108 91 48 138 103 49
171 120 55 145 81 7 151 78 1 128 52 0 150 78 2 183 120 51 203 153 94
190 154 106 139 115 77 86 73 41 69 62 34 62 79 60 74 87 61 79 79 45
109 92 48 156 124 67 193 146 78 154 95 17 148 83 1 184 118 34
195 134 54 161 108 38 128 88 27 111 84 37 87 71 35 74 67 39 69 67 44
56 75 56 65 77 53 68 68 34 95 81 36 143 112 55 196 153 84 171 120 39
165 109 24 202 148 62 215 168 86 165 127 54 105 76 16 80 63 19
72 66 34 69 68 47 59 62 45 52 71 52 61 75 52 70 71 39 84 71 26
112 86 27 185 148 77 195 150 67 192 146 58 164 120 31 180 144 60
161 135 60 106 90 30 77 70 26 74 75 44 64 68 51 54 62 49 56 74 58
60 74 51 76 77 45 81 70 25 94 70 10 179 147 74 202 164 79 186 147 56
159 125 35 142 116 29 140 124 49 90 82 20 43 44 2 43 49 23 40 51 37
58 71 62 60 78 62 55 69 46 72 73 42 79 68 23 87 65 5 178 148 75
194 158 72 150 115 23 107 78 0 86 64 0 128 116 40 111 109 48 65 70 29
49 59 34 30 44 31 56 71 66
