P3
#
16 16
255
49 44 4 77 42 10 160 63 47 186 36 35 206 11 19 219 8 17 192 0 0
213 36 28 195 52 35 172 56 31 151 53 26 143 56 29 141 54 35 120 37 21
105 21 10 110 28 17 61 45 9 89 45 16 165 69 53 183 40 36 212 29 34
224 25 30 209 20 18 201 30 20 169 26 9 146 26 2 128 22 0 128 36 11
137 52 31 119 44 25 93 26 9 86 25 7 64 27 0 84 28 5 146 50 36
159 30 24 185 27 24 195 26 23 201 34 26 165 7 0 181 38 21 168 39 18
154 35 15 147 45 23 140 58 36 106 49 22 68 35 4 55 35 2 68 31 5
81 31 8 122 43 26 152 48 35 162 36 24 177 39 28 196 54 40 162 19 3
152 9 0 161 21 4 163 27 13 153 36 19 133 45 25 100 43 16 72 50 13
72 67 27 50 35 4 60 35 5 94 47 21 142 74 51 138 50 30 161 56 35
185 68 48 181 52 33 183 40 24 196 44 33 192 38 30 171 30 21 135 28 12
92 20 0 58 25 0 53 41 1 18 22 0 31 25 0 83 56 27 126 79 51 134 67 41
150 64 39 172 67 46 187 66 47 185 43 29 196 39 30 193 30 25 183 31 26
169 48 37 139 54 33 99 56 22 84 62 23 9 25 0 29 33 0 119 100 70
125 84 56 169 103 79 165 81 57 177 74 55 187 67 50 191 53 40
205 52 44 207 45 42 199 47 42 187 61 49 152 59 41 106 51 21 83 47 11
16 17 0 40 31 2 156 126 100 124 74 51 194 123 103 170 83 64 172 71 53
166 51 33 170 36 24 200 53 45 217 64 58 216 73 65 201 83 71 167 80 60
125 76 44 109 79 41 65 26 9 84 37 21 150 91 77 112 40 26 151 68 54
167 75 60 185 85 69 210 98 84 179 53 41 179 42 32 219 78 69 161 33 22
134 35 16 148 87 58 144 125 83 103 105 56 148 81 73 128 60 51
145 73 61 136 62 49 197 121 105 235 158 138 202 120 99 185 90 72
173 57 44 175 47 38 177 42 36 167 45 34 109 21 1 145 99 66 148 147 99
89 112 56 137 60 54 124 50 41 118 52 38 117 60 41 145 99 73
185 140 111 140 89 60 131 61 35 222 120 105 198 75 67 176 38 35
189 64 58 122 35 16 122 79 47 122 132 82 51 89 30 99 33 21 117 58 42
129 83 60 112 78 50 97 79 43 107 93 54 89 67 28 108 65 31 180 102 80
155 49 36 176 49 43 183 64 58 149 63 46 92 51 21 100 112 64 73 112 55
40 8 0 69 44 14 101 86 53 96 94 55 105 118 72 109 125 78 111 120 73
128 116 74 138 89 59 141 63 43 185 81 70 164 61 52 134 57 39 78 37 9
49 55 11 55 83 32 56 50 14 82 78 40 110 112 72 117 129 83 142 166 116
146 174 123 148 175 122 153 165 117 163 145 107 167 123 94 174 106 85
156 83 66 128 74 50 139 110 80 64 71 29 35 61 13 69 80 37 92 101 56
85 92 48 90 99 54 85 101 54 94 117 65 90 120 66 100 129 75 73 89 42
53 51 10 55 35 0 73 48 17 62 43 10 111 109 71 95 117 71 44 76 27
42 62 13 59 75 28 26 35 0 46 53 9 36 48 0 81 101 50 85 118 63
109 147 90 74 104 52 31 51 2 60 65 24 76 74 35 32 32 0 30 41 0
110 137 92 73 109 61
