P3
#
16 16
255
64 96 11 90 121 41 112 139 70 62 81 26 35 41 7 36 36 12 24 28 5
18 23 1 18 21 2 22 23 7 39 31 18 25 18 0 31 32 1 64 60 12 83 66 0
134 109 17 90 122 39 73 104 26 95 122 53 75 96 39 38 51 8 63 70 36
71 78 47 35 40 10 33 28 0 35 25 0 24 13 0 22 14 0 23 22 0 43 39 0
74 60 0 188 167 84 97 128 50 79 110 34 78 105 36 96 122 57 72 100 39
74 99 42 128 144 99 54 55 13 73 53 3 113 86 41 37 18 0 45 33 7
45 40 8 53 50 5 61 52 0 152 142 73 78 103 35 77 102 36 56 82 19
82 104 40 104 120 55 111 115 56 167 146 103 96 54 14 156 100 49
149 98 45 117 90 45 95 83 43 69 66 23 61 63 16 50 50 0 58 59 1
50 64 11 61 79 27 39 63 11 62 75 22 107 86 33 137 78 34 199 94 72
185 64 43 175 61 25 213 127 78 148 112 50 112 104 41 60 64 5 73 82 27
62 75 21 34 48 0 23 32 0 33 46 0 51 75 27 51 53 6 112 59 15 157 54 21
184 37 21 180 20 4 177 39 11 179 84 40 118 82 22 84 83 16 78 87 22
96 112 50 48 67 11 33 53 0 25 32 0 54 66 20 73 93 44 53 42 0
136 58 22 181 53 24 213 57 35 184 28 6 178 50 21 171 89 52 106 83 39
81 90 37 73 88 23 67 83 18 51 71 10 41 61 2 61 69 22 66 76 26
71 81 31 58 35 0 156 63 30 184 46 20 193 34 12 181 27 3 190 67 36
200 120 85 175 143 105 135 134 88 78 88 25 74 91 21 71 90 24 59 80 15
92 102 49 63 67 16 67 64 11 113 76 31 175 82 51 186 54 31 201 45 23
178 24 0 200 75 45 214 121 87 196 133 98 137 106 60 98 98 36 76 91 22
87 107 36 57 79 7 99 109 56 79 82 27 96 81 26 138 90 42 160 66 32
206 76 50 189 35 11 197 41 18 184 53 23 197 87 54 175 78 46 154 89 49
119 101 39 108 118 47 92 107 38 56 77 8 79 92 39 74 74 20 114 89 32
142 85 32 166 67 26 198 68 34 196 42 14 203 45 16 194 49 18 201 66 36
180 45 23 184 81 46 147 106 42 116 112 39 88 97 34 77 95 37 62 72 22
69 69 19 81 60 7 131 85 35 152 78 33 158 59 18 194 70 32 194 60 23
194 57 21 204 65 32 184 43 13 188 76 36 146 98 32 98 92 18 82 94 30
91 110 54 58 64 18 56 57 13 53 45 6 71 57 18 108 87 44 176 140 90
180 117 64 184 99 45 199 94 47 172 55 11 184 62 13 187 94 37
135 105 33 80 88 11 44 67 0 85 116 49 59 62 19 52 52 14 41 37 10
23 22 0 44 53 10 123 126 73 132 113 57 161 121 62 191 124 69
172 91 35 182 102 41 176 119 52 121 109 37 63 79 8 83 110 41
92 124 57 45 47 7 43 40 7 52 41 23 34 28 6 43 54 12 122 138 89
125 137 87 125 124 70 100 79 16 161 134 65 150 136 65 119 116 47
112 118 54 71 85 24 109 131 69 74 100 39 77 79 40 53 50 19 61 45 32
44 35 18 55 66 26 104 128 78 131 158 113 75 95 42 89 90 24 127 130 53
100 118 44 116 139 69 103 119 57 53 66 10 104 123 67 51 72 15
