P3
#
16 16
255
27 48 5 47 60 14 59 59 5 70 56 0 95 64 0 117 79 6 139 100 23
158 125 48 160 138 65 132 123 56 66 67 10 49 61 11 32 48 9 27 47 12
28 47 19 40 58 32 44 63 17 48 60 10 59 58 1 86 71 6 120 87 16
129 90 15 134 93 14 144 108 30 127 103 29 110 97 29 57 57 0 60 69 16
53 69 24 51 69 29 48 63 30 52 69 37 58 75 20 59 69 9 66 61 0 87 67 0
109 73 0 110 67 0 120 75 0 143 102 22 151 122 44 125 108 36 62 59 0
58 64 4 55 65 12 63 77 28 72 84 38 85 98 54 59 71 5 89 95 25
113 103 31 115 89 12 107 66 0 103 52 0 125 73 0 160 112 28 157 120 40
136 113 35 79 69 0 74 73 6 62 67 3 59 65 5 56 61 3 65 70 12 64 68 0
131 128 49 180 162 80 176 141 57 156 106 19 149 89 1 164 102 15
186 129 42 191 145 60 169 134 52 104 83 4 88 76 0 65 59 0 57 55 0
62 60 0 77 75 1 92 88 0 157 146 57 202 175 84 199 156 64 194 133 42
199 130 37 206 135 45 210 143 54 214 157 70 185 140 55 111 80 0
87 67 0 63 48 0 62 50 0 73 61 0 94 83 0 121 106 11 167 144 48
196 157 62 199 145 49 208 138 42 219 139 44 221 138 46 219 139 50
212 145 56 206 150 63 170 129 41 181 150 60 172 147 54 156 136 41
135 115 16 130 110 11 132 108 10 170 138 39 204 156 58 220 156 58
230 150 53 226 138 41 217 124 31 213 125 35 175 100 9 179 115 25
163 114 22 201 162 69 213 180 83 202 174 74 173 146 41 158 131 24
151 121 23 166 128 29 185 131 31 195 125 27 214 127 30 235 138 43
217 118 24 169 76 0 160 79 0 146 79 0 163 110 18 188 145 50
195 159 62 205 173 72 207 179 72 190 162 53 162 129 34 144 104 8
148 92 0 168 96 0 180 92 0 186 89 0 190 91 0 183 90 0 156 75 0
159 92 1 168 117 25 165 125 30 155 122 25 165 137 37 193 166 63
209 185 79 166 135 45 146 107 16 157 104 10 187 118 23 196 113 17
193 103 7 203 110 15 209 125 29 189 116 22 175 116 24 135 92 0
95 64 0 92 69 0 122 103 8 171 152 57 208 192 94 111 86 2 115 83 0
144 98 10 179 118 27 195 121 26 200 120 23 203 123 26 196 122 25
203 143 47 191 144 52 145 114 23 104 87 0 109 100 9 126 121 30
141 137 48 161 157 68 83 70 0 94 73 0 132 97 13 174 127 39 198 137 44
208 142 45 209 143 46 197 139 40 192 148 51 186 157 63 149 135 46
112 112 24 107 115 30 104 117 35 100 115 34 110 125 44 73 71 0
80 71 0 126 103 23 180 144 58 203 154 61 202 148 50 198 146 45
190 147 45 181 153 54 148 135 39 101 104 15 77 92 7 79 104 23
78 109 33 71 101 27 67 99 26 84 91 23 101 103 30 140 129 50
172 148 62 186 150 56 199 157 59 204 165 62 195 163 60 147 132 31
101 103 6 72 91 1 76 108 23 85 126 48 81 127 54 65 110 41 42 89 21
59 71 5 88 95 25 106 98 23 89 71 0 99 66 0 148 113 13 182 147 45
168 143 40 117 110 6 72 82 0 58 83 0 60 100 14 51 97 22 50 103 31
66 118 52 68 123 58
