P3
#
16 16
255
78 59 0 105 76 10 138 89 33 165 92 47 185 85 53 193 71 50 187 49 38
177 29 25 173 25 25 190 48 47 193 59 60 181 59 56 171 60 53 154 53 43
137 43 33 133 43 32 92 58 0 114 72 12 142 80 29 158 75 33 170 62 34
176 51 31 179 41 31 178 33 28 188 44 43 193 55 55 186 61 59 175 60 55
163 59 50 146 52 40 136 48 36 138 55 41 121 59 8 139 69 20 155 70 29
157 57 23 158 37 16 162 30 15 172 31 24 177 35 31 191 56 53 182 57 53
173 60 54 163 62 52 147 57 46 133 51 37 134 58 42 145 74 56 153 59 21
161 63 26 170 61 30 168 48 24 164 31 16 163 25 14 170 28 24 173 35 32
175 47 44 161 46 39 160 57 48 157 68 54 139 60 45 127 56 38 140 73 54
158 96 75 172 46 21 175 45 23 180 45 26 184 42 28 184 37 29 179 35 27
176 34 32 169 37 33 152 33 27 141 37 28 154 62 51 160 81 66 141 70 52
135 70 50 156 94 73 175 114 93 176 28 14 176 26 12 181 29 18
191 38 30 199 46 41 194 44 43 183 41 39 170 40 38 146 31 26 136 35 25
152 64 52 163 84 69 147 74 57 149 81 62 173 105 86 180 113 94
182 24 15 178 19 13 183 24 20 196 37 34 202 46 47 196 46 47 185 43 42
173 43 41 155 40 35 137 34 27 148 54 44 156 68 56 146 60 47 159 73 60
179 93 78 171 85 70 187 30 25 183 26 21 186 28 25 196 38 37 199 45 47
192 42 44 181 41 42 173 43 43 167 48 44 142 30 26 143 38 32 148 47 39
141 38 31 162 58 49 181 72 65 160 52 42 173 30 22 187 43 35 182 34 30
180 32 30 197 49 49 196 50 51 177 37 38 172 38 39 158 30 29 158 36 33
149 30 26 137 18 14 149 25 23 174 46 43 184 50 49 175 40 37 178 52 38
168 40 29 152 19 12 157 20 14 185 43 42 197 55 54 181 41 42 165 26 29
149 15 16 154 24 24 153 23 23 148 16 14 158 22 22 183 41 40 192 46 47
187 39 39 153 50 31 133 26 8 125 9 0 136 12 2 160 26 23 180 42 40
176 33 35 154 11 13 153 13 14 157 19 19 155 17 17 148 10 8 158 16 14
178 33 30 191 41 40 190 40 39 119 33 8 109 19 0 124 21 4 139 26 12
144 17 10 159 24 21 170 27 29 157 12 15 160 17 19 155 15 14 146 8 6
139 4 0 148 13 7 168 34 25 183 46 38 186 49 39 114 40 11 111 31 4
131 39 18 148 41 25 147 24 16 160 25 21 179 35 35 175 29 30 165 23 22
151 16 12 138 10 1 135 13 0 144 29 11 157 46 26 165 56 35 167 58 37
128 63 31 122 48 19 128 40 18 142 39 22 156 33 25 170 35 31 184 40 40
185 39 39 178 39 36 164 33 25 150 30 16 144 37 17 143 47 22 140 53 23
137 57 24 136 58 22 132 69 34 131 60 28 130 44 19 141 38 19 162 40 29
171 34 28 174 28 28 182 36 36 186 48 45 170 46 36 155 48 30 146 54 29
134 59 27 126 64 25 127 74 30 134 86 38 122 62 26 138 69 36 143 57 32
152 49 30 170 46 36 166 29 23 163 17 17 179 33 33 176 41 35 162 42 28
149 46 27 139 56 26 127 63 27 126 78 32 146 106 57 167 134 81
