P3
#
16 16
255
52 100 16 83 122 41 61 84 12 50 77 6 34 84 13 38 94 21 53 96 24
75 111 41 75 106 39 74 104 42 70 104 43 69 107 46 57 95 38 32 67 13
62 88 41 71 92 49 53 94 18 52 88 14 71 98 29 57 88 20 64 111 41
67 119 47 64 107 36 70 106 34 75 101 30 81 103 31 42 62 0 41 66 0
48 79 19 49 82 27 47 75 24 62 88 40 54 82 21 60 90 30 67 103 41
51 91 28 75 118 49 67 113 41 57 102 33 54 90 18 61 75 0 121 123 39
149 141 58 77 75 0 48 67 3 54 83 25 53 84 25 55 89 28 47 64 10
32 52 0 51 78 7 66 98 23 63 99 25 87 125 52 76 113 44 63 85 10
107 101 7 213 186 83 208 173 71 133 102 9 82 71 0 83 90 20 65 87 22
45 77 12 57 67 14 67 74 6 126 126 30 159 164 62 129 153 67 90 118 43
81 101 30 130 128 45 214 173 59 198 137 10 215 149 29 230 167 53
224 170 64 190 159 68 107 108 38 55 73 13 80 66 0 113 93 4 194 163 47
227 201 80 132 123 22 75 71 0 79 72 0 136 110 23 211 151 37 213 135 9
209 126 6 235 154 37 209 137 26 167 119 21 109 99 28 83 92 35
198 145 29 228 172 49 233 171 36 243 179 47 180 115 0 191 132 28
146 99 9 169 122 34 199 136 41 200 127 25 163 81 0 206 127 26
181 115 18 101 56 0 67 53 0 56 59 4 192 145 27 199 150 31 197 141 18
241 177 53 246 170 50 232 156 46 178 114 17 130 69 0 136 69 0
165 92 0 176 93 1 205 124 32 190 124 30 132 86 0 108 89 20 56 52 0
87 94 14 96 98 15 109 99 14 159 134 41 205 162 58 222 165 62 159 95 5
147 80 0 175 103 5 203 125 27 201 114 21 159 72 0 155 77 0 158 102 5
158 133 49 81 74 0 70 99 43 42 66 8 54 65 5 45 45 0 92 74 0
170 131 38 207 144 49 214 136 38 223 140 36 237 150 47 235 142 46
250 162 65 233 155 54 183 127 30 155 133 50 80 74 0 82 104 57
61 79 31 54 68 17 45 54 0 72 77 11 91 70 0 222 158 52 230 141 25
219 123 13 215 117 10 223 127 24 238 152 49 214 146 45 166 122 33
132 119 49 86 87 29 53 68 29 73 88 47 64 81 36 41 59 9 49 66 12
84 80 9 195 147 45 201 134 21 195 126 22 207 138 35 199 130 26
220 161 59 207 167 71 124 103 20 98 100 37 49 62 9 60 69 40 42 56 21
57 81 33 63 90 37 44 67 15 41 51 0 126 118 33 140 127 33 70 69 0
74 70 0 140 125 30 180 167 73 149 149 63 76 87 11 71 91 30 72 97 42
21 29 5 25 39 6 25 44 0 49 66 14 63 68 14 57 51 0 109 93 18
146 130 52 106 102 31 70 73 2 64 71 0 61 72 0 57 74 3 44 69 4
49 74 17 73 102 48 18 32 6 27 38 6 46 51 11 41 29 0 138 99 40
184 127 60 180 110 40 177 99 33 140 67 16 121 71 22 78 69 12 54 68 9
48 65 11 59 77 25 57 77 26 51 74 22 20 39 11 59 70 38 79 76 41
88 61 14 147 89 26 145 62 0 162 63 0 152 46 0 136 27 0 121 43 7
62 48 1 44 60 11 33 49 4 32 48 3 39 57 9 28 46 0
