P3
#
16 16
255
65 51 40 49 46 31 44 58 35 46 69 40 62 79 47 52 69 27 47 63 14
84 101 49 36 47 4 77 59 13 148 74 13 130 61 0 81 79 18 53 82 28
48 73 31 82 104 66 72 58 47 62 56 40 52 64 40 47 63 34 59 65 31
53 50 5 67 55 0 123 107 45 75 59 10 120 83 31 169 86 20 179 109 39
88 86 25 52 80 29 72 95 53 79 99 62 73 59 46 91 84 66 54 62 38
59 62 31 70 55 16 110 71 16 181 114 33 185 109 25 126 56 0 158 82 24
192 91 13 200 124 46 92 87 29 82 110 62 86 104 64 76 90 54 81 68 51
88 80 61 61 61 37 63 54 23 82 45 3 160 94 33 219 121 32 242 134 43
178 84 14 158 65 0 217 117 23 196 122 27 75 65 0 74 92 40 79 91 51
64 76 40 89 77 55 78 67 47 50 43 25 66 45 18 104 50 4 194 113 48
228 123 40 222 114 26 157 65 0 153 69 0 170 83 0 253 186 69
158 135 41 103 104 34 74 80 34 55 65 30 71 60 40 66 55 37 84 72 56
94 67 40 111 53 5 195 110 43 204 92 16 179 64 0 194 95 14 214 125 31
216 132 10 255 191 68 224 194 98 98 91 19 44 47 2 40 49 18 61 54 38
53 44 29 73 61 45 83 58 28 96 46 0 184 105 38 191 77 6 208 80 5
205 88 11 192 84 0 203 107 0 224 154 43 210 177 98 86 79 24 53 57 24
38 48 24 60 52 41 62 52 40 69 60 43 82 63 31 87 51 0 211 145 69
220 115 32 209 87 2 210 91 11 211 101 12 211 118 12 217 152 52
99 68 1 55 48 4 65 72 39 62 76 50 75 61 50 70 58 44 50 43 27 60 49 17
75 54 0 215 172 80 235 155 42 218 121 8 193 94 1 223 132 43
234 159 57 182 127 36 107 78 22 61 53 16 56 64 27 73 91 53 61 45 30
71 58 42 58 51 33 48 40 4 78 65 0 163 131 32 241 178 47 227 144 12
208 117 12 194 110 14 195 130 28 158 114 27 118 96 46 61 56 24
44 54 17 76 92 53 74 57 39 74 59 40 67 56 36 61 51 15 81 68 0
177 150 47 209 156 16 240 164 19 247 154 35 203 115 9 212 151 44
157 123 34 101 89 41 61 64 35 47 56 25 64 78 45 72 59 40 65 54 34
60 52 33 81 72 39 106 97 32 184 160 60 231 185 40 246 177 22
255 169 36 197 114 0 214 159 43 176 147 55 102 99 44 81 93 57
56 70 35 49 65 29 48 43 23 65 62 43 40 38 25 49 48 20 90 87 32
172 156 61 231 189 43 246 187 25 252 182 35 199 132 0 208 158 35
185 160 59 111 116 49 86 106 55 58 82 32 71 95 45 62 59 42 65 63 48
52 52 40 58 60 38 102 105 58 140 135 53 216 191 64 233 197 51
233 193 59 177 141 18 204 176 67 109 95 7 81 91 28 66 85 30 56 70 9
83 95 31 94 88 74 53 50 35 49 50 34 55 59 36 85 93 54 77 85 25
123 128 38 158 161 58 139 143 46 99 105 17 88 95 27 60 71 15 64 80 35
51 59 10 83 68 3 132 108 34 102 94 83 46 40 26 64 65 49 60 65 42
81 92 58 90 106 57 96 113 43 71 93 11 73 97 19 78 105 36 83 107 57
54 76 37 67 84 48 57 59 12 114 85 19 187 144 66
