P3
#
16 16
255
40 62 16 33 59 14 23 54 12 23 51 3 54 63 8 71 74 21 70 75 35 71 82 48
38 60 22 45 67 20 46 55 0 65 74 7 40 64 6 18 56 0 75 126 67 54 112 51
45 67 21 38 64 17 20 53 8 37 60 8 72 63 4 107 85 28 108 89 46 49 39 3
48 54 18 38 46 0 115 116 38 97 101 17 54 74 11 21 56 2 43 93 34
74 130 69 40 63 17 53 81 32 62 101 48 53 68 9 115 70 5 194 123 61
161 98 45 112 63 20 73 42 13 93 73 22 225 209 98 173 168 50 58 71 1
14 44 0 51 96 39 76 127 68 61 80 35 47 73 25 53 93 33 77 86 21
151 83 18 199 101 38 193 108 51 142 74 29 123 73 48 129 89 40
248 208 97 247 222 96 132 128 39 28 48 0 44 84 24 86 137 80 74 85 45
64 82 34 54 85 25 100 103 36 154 80 15 161 59 0 203 122 67 152 87 45
153 97 74 156 97 63 164 95 17 249 188 82 228 196 83 70 73 0 36 72 2
62 115 61 39 49 14 31 44 0 44 66 4 117 110 38 190 117 38 185 88 11
131 52 0 166 99 46 157 94 61 147 79 42 142 61 0 190 116 21 255 211 82
207 197 74 47 75 0 55 104 49 30 45 14 37 49 9 36 44 0 136 117 38
202 138 30 230 144 31 184 105 12 148 74 0 157 88 29 139 70 13
172 95 27 164 98 4 211 167 36 230 215 86 69 86 6 45 80 24 37 58 25
60 75 32 65 66 6 156 132 44 218 157 32 214 133 0 218 136 26
208 128 33 197 121 35 192 117 34 200 125 44 113 55 0 195 167 44
217 216 100 70 88 14 56 85 31 31 58 15 55 75 22 81 84 13 172 150 51
244 184 52 245 162 24 203 112 0 220 129 22 237 152 35 212 131 14
203 126 20 153 105 3 131 137 37 85 119 32 12 43 0 66 95 47 36 66 14
52 76 18 95 105 34 154 139 46 224 176 52 242 169 38 211 125 6
230 137 18 242 155 22 236 154 19 228 153 28 230 188 76 128 143 52
68 110 38 33 70 18 33 66 23 55 89 29 63 91 32 107 121 60 114 112 38
183 161 60 163 118 1 205 133 12 233 148 21 230 149 14 224 148 11
241 169 33 238 192 72 155 151 60 64 87 17 60 94 43 26 65 21 98 137 70
89 124 58 101 122 65 76 83 15 84 75 0 128 96 0 170 108 0 254 177 47
255 185 50 235 162 24 234 165 28 250 204 82 193 188 97 60 81 14
68 100 51 45 82 39 74 120 45 95 137 65 94 124 60 82 96 19 137 126 18
183 152 27 170 119 0 209 144 16 255 184 48 254 182 44 218 148 16
241 198 85 109 117 32 41 73 10 48 77 29 55 86 44 76 120 43 73 115 39
105 142 72 106 130 46 164 164 52 191 171 48 179 146 30 176 131 12
222 167 40 215 154 27 198 136 13 233 194 89 143 149 75 74 103 49
53 79 34 58 80 41 91 124 53 80 118 43 74 118 39 126 165 76 130 149 44
171 177 69 139 137 34 147 135 33 165 137 30 192 154 45 175 133 21
197 164 69 96 90 30 24 32 0 18 33 0 49 65 28 97 127 57 89 125 51
67 114 33 99 146 54 103 131 31 111 129 27 89 104 9 81 85 0 108 94 0
154 126 26 172 139 32 162 135 44 48 35 0 27 27 0 55 62 28 99 111 75
