P3
#
16 16
255
125 77 57 134 87 57 136 94 46 134 96 33 134 104 34 140 117 49
138 121 65 126 120 72 111 111 73 106 114 75 110 121 79 106 117 75
92 98 64 87 87 63 85 74 68 74 60 60 127 81 55 133 89 52 148 105 50
166 128 57 174 139 58 166 134 57 147 122 56 131 114 58 125 117 70
105 104 60 108 114 66 120 127 83 104 108 73 80 80 56 77 70 64
81 72 75 123 84 43 128 88 37 156 114 42 194 150 63 213 169 72
201 157 62 180 138 54 165 129 55 154 129 65 125 109 50 114 108 50
114 112 61 91 93 54 69 73 50 74 74 72 86 87 92 136 99 44 145 106 39
169 125 36 199 150 45 222 167 51 225 165 51 216 154 53 203 148 58
179 132 54 159 125 54 139 118 51 111 101 42 81 80 36 71 77 51
75 81 77 71 78 84 165 129 55 182 142 55 197 149 41 206 148 23
221 153 20 240 163 33 241 160 43 229 150 47 200 134 40 182 127 44
159 123 45 128 109 41 93 87 35 74 79 47 65 75 66 51 65 66 178 137 49
200 155 54 214 158 37 214 146 11 228 147 4 254 164 24 255 165 42
245 153 42 228 146 47 181 116 26 149 103 17 131 104 27 97 87 26
67 68 26 61 69 46 65 77 65 185 131 33 197 139 31 208 139 12 214 134 0
232 141 0 254 157 18 255 158 37 250 152 43 230 142 45 180 109 17
149 98 7 139 104 20 114 96 22 89 83 23 83 84 44 85 88 57 204 132 30
198 124 15 199 117 0 208 120 0 225 129 0 239 138 8 244 140 29
237 139 40 203 115 26 184 113 25 176 123 31 169 130 39 154 128 43
141 123 47 117 106 44 89 80 25 199 109 12 207 116 11 212 119 0
213 117 0 216 118 0 219 122 9 216 119 25 204 113 32 180 101 26
175 109 31 195 144 55 192 152 56 178 144 47 168 139 45 141 113 29
124 97 18 212 111 19 223 123 25 226 128 19 213 116 3 195 99 0
183 89 0 176 86 8 168 87 21 186 117 52 173 114 44 197 149 64
212 170 72 210 172 65 201 163 56 174 132 32 160 118 20 228 124 39
234 130 41 230 130 32 211 115 13 188 95 0 167 81 0 153 75 9 144 75 18
145 85 31 145 95 32 182 137 54 203 161 61 213 171 59 218 171 55
184 132 20 154 101 0 231 129 54 224 125 44 212 117 25 202 112 16
192 107 16 178 101 21 161 91 29 145 84 30 135 84 31 147 103 40
180 139 57 184 145 44 200 157 45 231 182 64 212 155 40 178 116 3
210 121 53 203 117 42 197 113 25 192 111 19 185 110 19 175 104 24
162 97 33 153 94 38 162 113 57 157 113 48 173 133 48 170 130 32
183 139 30 220 170 57 229 171 63 225 164 57 182 108 45 189 117 45
197 125 40 192 121 29 174 105 14 156 90 6 151 88 19 154 96 33
158 108 47 138 93 25 156 116 29 171 131 33 179 136 31 196 147 42
209 154 54 229 171 72 148 89 29 164 105 37 184 124 38 187 127 31
171 108 11 151 87 0 144 83 3 148 90 17 147 94 24 139 93 16 162 121 31
172 132 34 180 138 36 201 155 57 208 157 68 216 162 76 121 71 12
134 84 15 159 104 21 175 119 24 173 114 14 156 96 0 144 82 0 138 81 4
142 88 14 152 105 25 165 121 32 141 101 3 152 110 12 207 163 68
221 173 89 207 156 77
