P3
#
16 16
255
39 52 32 52 63 47 46 49 42 40 42 37 33 44 30 32 43 29 44 49 42
41 39 26 42 27 0 92 85 43 99 116 71 107 136 92 40 67 36 57 82 53
56 76 48 29 48 18 34 49 28 56 69 51 47 53 43 48 51 44 42 50 37
37 45 32 56 59 52 56 50 34 91 73 37 142 130 82 123 132 85 81 102 59
16 35 7 26 44 20 33 49 23 27 43 16 58 77 55 45 63 41 54 65 48
49 55 41 50 51 43 50 51 43 57 56 51 46 38 19 135 112 62 161 139 79
124 118 66 41 43 3 30 34 11 46 53 35 45 52 34 39 48 29 68 94 65
57 82 53 45 60 37 48 57 40 67 69 56 68 68 58 58 58 48 56 46 19
110 81 21 151 118 47 171 151 92 50 42 0 46 44 21 66 68 55 25 27 16
47 48 40 66 105 61 51 86 46 41 64 36 48 62 39 79 89 65 73 81 58
51 55 38 65 56 23 159 124 56 161 119 37 178 145 74 105 85 32 61 59 34
53 58 51 27 27 27 28 26 29 63 111 59 76 119 73 91 125 88 64 89 57
42 61 33 55 68 40 53 62 33 106 95 49 177 131 53 190 137 45 141 106 24
143 127 67 79 86 53 35 49 36 29 34 30 26 26 28 52 105 53 64 117 63
74 129 72 92 138 91 43 72 42 31 47 20 37 44 3 137 119 55 200 141 47
183 121 18 142 117 25 89 90 20 67 88 47 29 54 32 35 49 32 28 36 21
80 127 81 44 93 37 89 140 63 111 152 76 77 96 41 52 62 12 69 76 22
161 147 72 225 169 56 216 160 37 225 208 100 146 160 75 101 135 84
61 101 67 29 55 26 44 67 39 75 110 78 56 86 32 150 170 71 175 182 68
176 167 62 125 118 28 81 88 20 160 160 74 240 208 71 218 183 31
215 204 76 151 169 69 109 158 93 64 121 78 43 87 51 53 90 56 38 64 39
72 92 41 134 139 36 195 187 60 189 171 43 188 175 61 99 103 18
99 101 2 240 219 66 244 224 63 165 172 43 114 148 51 75 134 66
79 143 93 52 100 58 50 90 53 29 47 23 48 61 15 94 99 9 156 153 36
173 165 41 153 144 25 111 109 6 137 132 14 224 206 46 175 170 14
109 145 39 111 169 93 59 123 62 56 114 63 39 80 36 28 63 21 39 51 29
56 65 22 131 135 50 175 175 65 164 161 44 165 160 40 229 223 101
211 201 67 250 235 74 224 228 81 139 184 89 114 181 114 86 150 90
37 91 39 40 79 34 17 48 6 40 49 30 43 50 8 93 96 9 194 194 84
180 179 71 162 157 40 228 214 79 222 207 56 249 239 80 230 239 98
131 172 76 94 153 85 103 162 104 30 84 34 38 77 32 16 47 5 54 58 43
55 61 25 81 87 15 158 164 74 67 75 0 77 79 0 170 160 37 190 180 46
197 200 71 225 245 132 102 141 58 71 123 59 77 134 81 28 81 35
17 58 16 24 59 17 51 49 37 42 47 25 69 84 43 59 79 28 62 82 33
26 40 0 64 67 0 166 174 88 93 119 45 74 113 46 65 109 50 78 126 74
85 140 98 24 79 40 23 67 31 37 77 40 73 69 60 71 75 60 36 56 31
40 69 38 68 93 63 43 64 23 57 67 7 80 96 33 76 114 67 42 89 47
11 57 10 37 84 38 69 124 85 47 101 65 38 85 51 24 68 33
