P3
#
16 16
255
99 79 16 93 74 8 113 95 29 99 82 10 130 111 35 122 101 18 120 95 5
151 123 26 155 119 22 149 111 10 181 138 43 187 146 54 178 142 58
119 87 10 83 54 0 47 22 0 116 96 33 130 111 45 140 121 53 96 78 4
123 102 23 150 125 41 163 133 43 177 143 46 177 137 39 161 119 19
173 129 32 176 135 43 193 155 72 166 133 56 125 96 28 66 41 0
126 107 41 136 117 49 136 116 45 106 84 8 146 119 38 196 164 77
215 179 85 218 176 78 203 155 55 176 126 27 165 117 19 168 123 32
204 166 83 210 177 100 164 135 65 83 58 0 120 101 33 98 78 7 91 69 0
107 80 1 155 120 36 184 143 53 190 141 46 189 137 36 204 146 46
174 119 18 156 103 7 164 117 25 205 165 80 222 189 112 176 149 78
98 75 7 114 97 27 91 71 0 93 67 0 146 111 29 186 142 53 202 149 55
206 147 47 209 144 42 190 123 19 170 105 5 155 97 0 168 117 26
190 148 64 203 170 93 163 136 65 102 82 13 94 80 7 99 80 4 111 82 2
164 124 37 184 131 37 206 142 44 220 149 45 217 140 34 197 120 16
184 112 10 165 102 5 168 114 24 162 121 39 171 139 62 131 107 37
81 62 0 125 113 37 135 118 40 144 114 28 195 152 58 201 142 42
219 148 42 227 145 37 207 121 12 202 120 12 194 119 17 163 99 2
148 97 8 135 97 16 157 130 53 117 97 28 62 45 0 100 93 15 99 84 3
108 78 0 191 145 47 214 151 45 233 155 44 233 146 31 205 115 1
190 104 0 186 109 5 145 82 0 124 74 0 120 85 4 166 142 68 130 113 44
63 49 0 83 77 1 90 78 0 127 97 7 164 119 16 221 155 43 250 169 51
236 146 24 212 122 2 190 106 0 205 132 27 122 63 0 116 71 0 107 78 2
173 154 85 119 108 42 57 49 0 72 70 0 106 98 17 145 119 26 168 124 19
209 144 28 240 160 35 242 155 26 238 150 26 222 143 25 225 158 53
132 81 0 115 78 0 97 73 0 153 140 72 111 105 43 64 62 1 59 63 0
122 117 36 159 136 42 174 132 24 193 131 10 212 138 7 222 140 5
232 153 22 224 154 33 217 160 53 123 82 0 98 71 0 68 53 0 110 104 42
84 83 26 57 60 3 49 56 0 113 111 34 147 126 33 182 144 35 199 141 15
203 134 0 204 131 0 220 151 14 229 171 48 217 173 64 128 99 7 98 82 4
61 56 0 84 85 27 66 71 17 53 60 9 49 60 0 88 91 14 112 97 4
193 159 49 223 172 44 225 164 22 222 157 13 235 176 36 228 183 56
208 178 66 120 105 14 86 83 6 50 55 0 60 69 16 49 58 11 45 54 9
61 76 11 71 77 3 87 77 0 198 171 58 233 186 54 239 182 39 237 180 31
238 187 44 201 166 36 175 155 43 90 85 0 56 62 0 34 45 0 48 62 11
46 59 16 43 55 15 61 77 14 67 75 2 86 77 0 207 181 68 223 181 47
231 181 34 232 181 30 210 168 22 187 160 29 161 150 35 83 86 0
55 69 0 48 66 8 66 84 36 62 78 39 51 65 29 44 62 0 61 71 0 93 86 0
216 193 79 216 176 42 226 179 31 228 181 29 189 151 4 185 161 29
161 154 40 89 96 3 62 80 6 61 80 24 70 92 45 59 75 38 34 50 14
