P3
#
16 16
255
45 74 44 39 69 33 44 76 29 43 77 17 18 49 0 12 42 0 41 67 0 81 102 37
105 119 68 117 130 86 39 51 15 30 48 10 49 76 35 26 63 12 43 86 30
40 88 26 38 65 34 68 94 57 44 70 22 33 58 0 50 73 3 37 55 0 39 52 0
77 86 19 90 95 37 113 120 69 59 68 23 31 47 2 62 86 36 47 80 23
21 61 0 29 74 5 10 34 0 52 73 34 60 76 27 98 108 47 130 133 62
86 83 6 77 68 0 96 84 8 85 75 4 75 67 2 101 101 39 91 99 39 48 67 1
34 61 0 51 85 8 90 127 47 132 153 114 120 135 92 107 112 58
109 101 38 104 85 9 109 81 0 180 146 59 182 148 61 162 131 48
108 87 6 108 99 20 104 107 28 69 81 0 63 83 0 80 106 17 95 125 35
57 76 31 65 75 25 81 75 17 80 55 0 106 60 0 147 92 2 214 151 56
176 117 17 177 127 28 177 139 40 110 90 0 92 86 0 126 132 34
107 121 23 84 104 5 100 122 22 84 103 48 70 79 22 90 75 10 110 72 0
186 124 39 191 112 19 202 116 15 202 121 13 181 113 2 161 111 0
119 89 0 146 134 24 175 177 70 127 136 31 90 105 2 101 118 16
79 101 36 45 56 0 115 97 23 168 123 42 255 180 92 243 149 51
233 132 26 255 159 46 241 160 42 150 90 0 145 109 0 190 173 57
197 193 85 169 174 71 104 114 17 47 58 0 58 86 9 39 52 0 158 143 62
175 129 43 212 135 43 243 145 44 250 144 34 223 120 2 209 123 2
191 125 2 216 174 54 180 159 44 182 175 69 213 215 118 131 137 49
57 66 0 55 87 2 73 91 5 56 46 0 145 108 17 218 149 54 211 122 20
239 139 28 206 109 0 210 125 6 198 132 12 209 166 51 175 151 43
158 149 54 91 93 9 96 102 30 71 80 13 97 131 44 99 122 32 84 83 0
151 124 33 189 135 39 167 94 0 199 112 6 209 122 9 213 136 20
175 112 0 182 138 29 205 177 78 165 153 67 76 76 4 53 59 0 96 105 52
62 96 10 89 115 28 119 127 41 177 166 77 205 171 81 192 139 43
208 143 41 230 159 53 170 102 0 162 104 0 142 97 0 134 103 13 95 79 4
88 84 23 42 49 0 83 92 49 59 87 10 58 83 2 63 77 0 88 92 8 145 133 47
180 153 62 165 122 27 146 94 0 132 75 0 170 115 14 147 101 7 86 50 0
73 53 0 135 129 71 59 65 19 34 45 5 17 38 0 45 66 0 67 88 19 50 66 0
49 57 0 67 65 0 76 59 0 102 71 0 131 87 0 159 109 12 159 110 18
93 52 0 79 52 0 94 84 25 38 42 0 37 48 5 59 72 18 51 68 13 52 76 18
60 86 23 76 102 31 82 98 23 81 83 0 105 89 1 207 172 80 165 118 26
151 100 11 143 96 14 181 151 79 158 142 80 76 79 24 38 50 0 86 91 50
75 86 43 53 77 29 54 87 32 61 100 37 64 95 25 87 104 24 124 119 35
137 107 17 156 111 20 191 137 49 194 143 60 184 148 72 129 110 41
75 75 13 40 51 0 37 39 2 48 59 19 33 56 12 41 78 26 61 105 46
65 106 36 75 97 22 71 73 0 174 148 61 157 114 22 136 80 0 139 87 3
135 98 18 114 94 21 80 81 15 34 44 0
