P3
#
16 16
255
43 65 19 46 67 26 11 26 0 47 61 35 48 61 41 17 35 9 30 57 16 42 77 23
41 81 19 49 94 27 48 94 30 57 103 41 52 90 33 51 85 34 63 99 55
75 110 68 44 66 19 42 63 20 33 50 16 21 36 7 22 35 5 34 50 14 16 42 0
26 59 2 34 69 3 57 94 25 28 73 6 51 95 32 70 109 52 48 85 34 53 84 42
100 130 92 74 99 44 39 63 15 43 60 26 23 37 2 34 44 0 54 67 11
40 65 8 32 61 0 55 77 4 48 75 0 54 92 19 53 98 31 71 112 54 57 93 45
30 56 19 84 105 74 59 83 33 57 79 33 36 56 21 19 31 0 76 74 0
160 155 63 62 66 0 63 70 0 77 73 0 161 165 70 95 117 34 64 95 25
68 103 49 36 69 26 17 39 3 54 71 39 39 55 19 36 53 17 41 63 27
38 45 0 204 176 50 236 197 57 184 151 48 131 96 2 185 146 27
222 192 70 157 149 50 91 99 24 66 88 39 41 67 28 28 51 9 43 64 21
17 31 6 32 48 21 47 71 35 74 82 9 228 197 55 244 193 39 204 154 43
124 73 0 180 125 0 235 189 51 223 195 70 98 92 0 58 71 15 58 83 43
46 72 25 45 71 23 15 32 14 16 35 13 39 63 29 62 73 5 161 143 19
227 189 54 198 155 50 136 88 0 164 114 0 233 188 45 240 206 47
187 171 34 59 72 0 44 72 23 38 71 18 45 78 25 24 41 23 9 28 6
41 62 31 50 61 1 108 100 0 232 204 79 205 164 50 144 93 0 151 98 0
227 181 36 241 207 48 221 208 70 47 62 0 54 84 30 46 79 26 51 86 32
30 46 19 20 36 9 37 53 24 52 62 12 104 100 9 211 189 69 200 154 17
230 169 26 228 163 19 212 159 21 165 137 11 120 118 15 53 72 6
52 82 32 51 81 29 47 76 22 35 50 21 32 47 16 36 49 19 45 54 9 70 72 0
142 125 17 226 182 31 228 169 3 239 174 20 193 141 6 175 152 46
65 69 0 65 87 25 62 92 42 53 82 28 56 85 29 17 30 4 40 53 23 45 55 21
45 52 11 48 52 2 104 94 5 222 189 32 249 203 22 242 187 32 212 168 37
186 167 65 68 71 0 60 80 17 53 84 27 49 83 22 43 79 15 26 35 8
37 46 17 56 66 32 41 49 12 50 56 18 115 111 38 203 180 38 237 200 34
202 160 14 176 141 21 91 80 0 70 77 7 59 81 17 52 83 23 68 100 37
50 85 21 32 30 5 42 45 18 41 54 24 47 62 29 46 56 21 81 81 21
121 107 0 200 175 48 196 164 41 122 99 0 82 83 7 61 79 17 63 93 31
47 81 20 78 106 47 53 77 19 62 35 0 81 64 20 72 77 37 46 60 24
47 57 23 60 62 13 115 103 21 196 176 77 207 185 83 157 148 55
74 85 19 46 74 16 49 83 22 49 83 22 67 95 37 63 86 30 175 105 20
179 127 51 113 101 41 49 56 12 52 59 25 62 60 19 98 80 18 146 124 48
158 148 63 128 133 53 60 82 18 55 86 29 42 75 18 49 83 23 57 88 29
68 99 40 188 97 0 191 125 31 134 111 43 56 60 10 46 52 16 54 52 14
100 79 26 91 68 1 84 80 6 63 75 1 48 76 15 53 88 32 40 71 14 50 83 26
57 91 31 54 90 29
