P3
#
16 16
255
150 121 77 130 98 49 158 115 62 175 127 63 192 142 71 167 121 43
137 102 21 75 56 0 55 55 0 25 40 0 56 78 31 60 84 50 29 41 27
35 37 36 59 49 58 68 51 67 100 72 32 89 56 13 100 57 6 125 73 15
132 73 5 136 80 5 115 68 0 75 42 0 53 36 0 57 56 0 96 106 54 81 95 59
38 46 25 38 39 31 61 52 53 77 64 71 97 74 42 101 71 35 115 70 28
162 102 50 169 95 34 196 117 50 185 111 38 173 109 35 160 113 41
126 95 30 102 87 32 76 72 27 82 79 46 96 94 71 73 66 50 48 40 29
97 81 56 94 69 39 108 62 26 153 86 43 174 87 33 202 104 41 223 122 54
243 151 78 231 153 81 187 128 60 131 93 31 85 62 10 89 76 32 99 91 54
75 70 40 73 69 40 75 66 49 77 56 35 118 73 44 163 91 53 200 102 55
191 75 18 208 84 20 231 110 41 224 117 47 191 104 35 145 81 17
105 63 3 102 77 23 94 82 32 77 73 26 100 101 57 47 40 30 63 46 30
118 73 50 154 83 51 202 101 57 179 58 5 187 53 0 198 65 0 211 89 22
174 71 4 143 65 1 133 79 17 149 117 60 133 116 62 85 79 27 79 82 29
72 67 63 99 82 72 117 79 60 130 65 35 168 75 32 189 73 22 203 75 14
214 85 20 194 75 9 187 84 18 189 108 45 181 122 62 174 137 82
148 128 75 96 89 37 80 80 30 45 40 37 102 87 80 119 83 67 131 76 46
150 71 30 185 88 37 167 57 0 155 43 0 196 90 28 196 103 42 205 130 73
192 136 85 183 147 99 167 146 101 116 104 62 83 78 36 62 54 51
76 61 54 93 64 46 108 64 35 153 94 52 206 135 83 238 158 99
235 153 93 201 122 65 170 100 48 142 84 38 130 85 44 121 88 53
106 83 52 95 80 51 93 81 55 57 46 44 76 62 53 102 79 61 111 82 52
113 74 31 129 83 33 175 124 69 218 166 109 160 108 58 144 95 52
130 87 52 123 88 60 112 84 62 98 75 57 91 74 58 95 79 64 71 57 54
86 72 63 102 85 67 107 90 60 92 73 31 91 69 22 112 86 37 141 115 66
125 98 55 108 82 47 98 72 47 101 75 58 104 82 69 102 82 73 101 82 75
104 85 79 88 70 66 99 85 76 94 81 64 91 81 54 81 73 37 96 89 47
90 81 40 84 75 36 105 94 62 100 86 60 95 78 62 92 74 62 90 71 64
93 76 69 107 89 85 123 105 101 87 67 66 103 86 79 91 79 65 89 83 61
68 64 35 88 87 56 88 87 56 97 93 64 97 91 69 109 100 83 117 105 93
106 91 84 86 71 64 81 66 59 102 88 79 128 114 103 92 72 71 92 74 70
80 70 58 108 103 84 84 84 60 86 86 62 71 71 47 89 86 67 100 92 79
103 93 84 109 96 90 113 98 91 114 100 91 112 98 85 110 98 82
107 99 78 101 83 83 88 73 70 68 55 47 106 98 85 92 89 72 100 97 80
70 64 50 75 67 56 106 93 87 103 85 83 104 85 81 115 98 91 132 116 103
131 120 100 113 106 78 93 88 56 102 84 84 97 82 79 62 49 43 76 68 57
65 59 47 104 101 86 95 86 77 100 89 83 106 88 86 119 99 98
129 108 107 126 107 100 116 100 85 105 95 70 99 94 62 98 96 58
