P3
#
16 16
255
35 54 22 19 30 0 31 28 0 42 38 11 57 69 49 68 71 50 78 46 21 91 55 19
130 118 68 108 94 45 121 81 45 108 64 37 64 37 18 39 40 9 78 112 52
58 110 36 46 49 22 42 35 9 64 38 13 73 46 25 69 62 44 90 84 62
80 50 22 78 50 11 82 76 26 108 102 54 123 93 57 113 78 48 84 60 32
40 38 0 86 114 56 60 101 33 75 46 30 106 63 47 116 44 32 125 53 41
91 49 35 102 76 53 76 50 17 86 71 28 70 76 28 111 120 73 84 76 40
77 61 27 78 61 17 108 101 49 91 102 46 62 83 24 92 45 25 89 26 9
128 34 22 156 60 46 111 40 20 108 55 23 122 74 25 112 82 20 83 78 14
77 77 13 117 105 45 138 117 60 117 93 33 114 95 37 117 114 63
57 60 13 118 70 32 125 62 27 157 67 40 168 70 41 128 39 5 164 78 27
203 112 33 215 139 45 163 121 23 88 56 0 175 133 25 210 162 64
189 141 67 116 77 22 83 64 22 71 61 26 151 82 23 163 87 35 193 99 61
129 35 0 102 25 0 176 97 31 212 111 19 218 120 13 225 155 44
215 159 40 234 171 40 229 164 44 195 136 44 129 81 15 85 61 15
86 72 37 255 148 66 234 127 57 183 76 30 134 51 11 82 45 0 92 58 0
177 97 8 219 121 22 224 137 34 238 160 49 223 152 24 208 143 17
210 152 44 154 110 23 116 98 36 87 81 33 195 87 12 166 61 0 144 43 0
138 61 19 143 104 47 133 93 21 195 113 29 232 131 39 221 127 31
199 116 12 206 135 17 198 138 18 179 123 14 159 116 24 117 97 28
92 83 24 146 73 32 152 78 39 153 81 43 127 52 10 146 65 9 223 130 63
225 114 35 228 118 33 207 118 28 150 77 0 112 55 0 135 83 0 104 50 0
124 77 0 137 108 40 129 108 43 130 83 57 140 89 60 140 81 49
126 52 13 162 62 12 164 48 0 181 53 0 192 76 3 183 97 12 207 141 47
196 141 41 196 144 43 207 153 57 133 83 0 145 109 31 142 114 40
120 87 56 105 66 35 90 35 5 122 49 17 160 67 26 177 66 23 163 31 0
172 48 0 161 74 0 190 122 21 184 121 8 199 139 17 204 146 20
190 141 22 164 126 29 161 129 42 82 67 36 99 78 47 132 98 71 94 47 19
86 23 0 119 40 7 143 48 18 148 59 15 198 136 59 218 169 67 217 160 44
214 159 33 201 156 31 207 171 57 165 140 50 89 70 0 33 37 10 51 57 29
90 100 73 65 69 42 32 23 0 43 27 0 65 47 11 68 52 1 115 103 31
190 173 81 213 181 70 192 158 48 141 120 29 98 90 17 76 81 23 14 24 0
0 19 0 13 33 6 61 89 64 77 102 80 45 63 39 16 32 3 18 43 4 45 72 21
74 95 30 100 108 31 123 116 26 91 81 0 31 31 0 20 30 0 63 84 41
24 51 10 27 52 20 0 25 0 16 35 15 51 70 51 53 72 50 29 54 24 11 41 3
46 79 34 56 91 37 45 76 19 33 54 0 44 60 11 19 34 0 13 31 0 48 72 24
57 84 33 39 69 33 33 58 28 23 40 21 26 40 23 43 65 44 53 79 50
34 68 31 29 68 23 12 54 8 18 60 14 17 51 16 27 57 23 22 46 14
39 61 22 41 67 19 50 77 22
