P3
#
16 16
255
191 116 1 170 98 0 150 89 9 124 73 7 154 115 48 145 116 60 128 107 76
82 65 45 54 39 20 31 29 6 43 64 31 55 91 47 52 91 38 47 86 29
56 90 39 59 93 43 207 145 34 176 121 21 147 105 31 88 56 0 66 44 0
52 36 0 39 29 0 49 42 16 36 30 6 40 44 19 47 71 37 59 95 51 48 88 35
53 94 36 56 93 41 62 96 45 207 173 66 148 123 30 106 102 38 61 69 22
24 32 0 52 62 27 34 42 3 27 37 0 31 42 12 17 36 6 24 50 11 60 96 50
66 111 56 74 119 62 68 105 51 68 101 48 205 195 100 117 115 32
72 83 23 45 61 12 29 38 0 56 61 7 106 107 41 102 105 38 47 54 2
44 60 13 58 82 34 57 90 37 52 90 31 68 108 48 80 115 57 80 115 57
95 107 33 66 76 7 103 103 43 115 106 41 137 117 31 149 122 19
182 150 31 182 152 38 112 92 3 67 63 0 60 76 13 60 86 25 75 98 30
88 115 46 82 117 51 77 116 51 61 89 30 63 83 24 74 73 17 183 164 95
212 172 76 211 159 41 223 167 30 244 192 56 212 171 57 159 130 38
104 90 17 84 75 6 115 99 22 128 121 41 90 106 33 83 110 39 53 89 41
80 108 59 121 131 81 165 149 89 213 164 85 183 118 16 233 165 40
234 170 38 214 154 30 180 119 13 149 84 4 159 90 15 200 125 34
224 165 73 168 147 66 111 109 34 40 75 33 31 60 16 63 82 37
114 109 53 213 171 95 190 127 32 228 161 48 227 159 36 228 162 40
235 163 53 184 98 13 153 62 0 189 100 10 195 125 37 136 104 29
98 85 15 11 32 0 35 57 18 52 81 37 82 97 40 207 190 108 231 191 95
236 181 80 246 183 78 226 161 57 201 132 31 213 136 44 158 86 1
152 97 15 153 116 45 136 121 64 102 99 48 56 54 3 19 27 0 18 44 0
51 71 20 62 55 0 131 103 19 180 136 49 186 134 48 207 156 73
210 162 80 204 158 73 127 92 10 126 110 35 88 87 23 88 95 44 85 94 49
183 151 68 89 71 0 39 48 3 37 49 11 65 59 9 98 76 16 129 92 22
146 109 41 104 77 22 74 62 10 77 81 20 69 88 22 64 95 25 72 107 41
70 99 45 72 100 51 189 141 43 114 81 0 56 53 8 34 39 7 47 41 5
90 76 31 89 68 15 110 93 41 89 80 41 41 47 9 38 66 18 54 95 37
63 114 48 54 105 38 66 107 49 72 109 55 143 94 1 159 123 45 81 70 24
30 29 0 43 38 6 46 42 7 41 43 6 53 57 20 65 66 32 54 60 24 58 80 34
67 100 47 59 100 40 49 95 31 48 90 27 73 113 51 166 126 41 154 126 53
78 71 27 17 20 0 11 14 0 18 24 0 4 18 0 18 30 6 58 62 37 37 42 10
62 79 37 47 75 26 45 84 29 57 101 42 63 103 43 54 94 32 169 149 76
79 69 7 35 41 3 36 52 23 30 49 17 20 39 9 11 26 7 10 21 5 23 25 11
28 31 10 54 68 32 48 76 28 46 85 32 41 84 30 65 103 52 57 94 43
63 54 0 36 35 0 34 48 12 27 52 23 31 57 22 37 62 32 30 44 27 24 32 21
19 20 12 16 19 2 26 40 5 36 62 17 39 79 27 31 75 22 39 77 30 58 94 48
