P3
#
16 16
255
136 155 91 158 176 114 194 211 157 116 133 78 161 177 112 127 147 76
131 153 81 157 183 110 137 167 97 120 151 75 125 155 69 133 161 76
81 104 36 61 80 16 129 135 71 120 123 56 144 163 97 112 131 67
182 202 139 119 139 76 174 193 127 145 160 93 157 163 99 76 85 20
74 97 27 73 104 26 132 162 76 140 168 83 89 115 42 53 74 9 137 149 85
68 77 12 141 161 90 140 162 89 118 142 66 189 215 141 169 192 122
146 152 90 126 98 50 116 90 39 98 111 41 159 191 108 131 161 73
98 128 42 70 98 21 80 105 37 119 139 76 57 75 15 169 191 119
158 182 106 126 153 72 176 203 122 180 203 131 132 132 72 126 83 41
136 93 51 170 168 107 148 170 95 117 145 60 85 118 31 80 113 32
136 166 94 105 127 65 111 130 74 68 95 24 82 110 35 104 131 52
150 174 96 164 184 112 134 132 73 135 91 54 124 75 42 79 58 13
85 89 30 118 141 63 105 139 53 77 112 32 100 130 58 119 137 77
161 171 118 145 173 114 150 179 115 144 172 97 133 156 78 157 169 97
160 148 90 151 97 61 155 85 59 122 61 30 76 44 0 100 110 39
110 141 61 57 89 13 98 125 54 111 126 67 137 148 92 50 74 42
79 105 60 111 138 71 145 166 89 174 176 103 159 128 71 157 78 45
163 54 33 161 40 19 150 62 26 79 65 4 91 114 42 92 113 44 45 66 0
112 130 68 135 153 93 32 47 28 14 31 0 66 87 30 123 139 66 175 173 98
185 154 89 183 106 64 170 56 29 203 61 37 193 80 46 140 115 59
147 167 98 117 137 68 101 121 52 132 155 87 175 200 134 21 24 7
15 21 0 67 81 32 86 98 32 163 167 83 172 155 73 208 158 95 177 91 44
223 95 60 177 71 32 178 153 97 131 151 82 133 157 81 154 181 104
122 148 74 111 139 65 31 26 7 24 22 0 45 53 12 61 75 13 151 165 77
185 189 94 220 198 122 179 128 63 189 105 45 179 104 47 175 155 96
118 130 66 111 137 63 129 160 84 138 164 93 124 147 79 34 23 5
38 34 9 45 51 17 51 71 12 141 175 78 142 171 65 201 211 125
171 166 85 177 162 69 175 158 70 178 164 101 93 94 36 82 109 42
169 201 134 155 175 116 113 128 73 65 59 33 75 74 44 84 92 55 35 54 0
116 150 63 114 150 52 164 188 100 168 182 95 161 171 72 146 146 56
121 112 47 88 85 30 142 167 102 159 189 127 98 114 65 118 127 82
94 105 63 91 102 59 89 101 55 52 66 13 90 111 46 134 156 81
120 140 53 144 154 67 134 127 49 72 57 0 100 85 28 103 102 45
148 169 104 90 116 53 126 138 92 60 66 28 50 68 16 78 95 41 88 102 49
72 85 32 47 61 8 61 77 14 156 178 95 144 158 71 176 172 101
138 127 65 103 97 39 123 129 69 101 122 53 111 133 69 131 140 95
110 114 77 78 93 36 104 119 62 103 117 64 113 127 74 55 70 15
58 77 13 109 136 57 139 167 82 130 149 68 102 115 43 108 120 56
101 117 54 118 142 68 118 141 71 141 151 101 88 90 51 116 130 69
69 83 24 118 132 79 92 106 53 116 131 74 103 124 59 99 130 52
105 139 55 127 159 74 87 114 35 39 61 0 146 169 101 151 178 101
135 159 85 157 165 114 82 84 44
