P3
#
16 16
255
54 80 17 22 50 0 62 90 31 65 96 39 49 81 31 54 87 40 37 73 29
56 88 47 45 75 39 46 72 37 56 76 41 71 87 51 78 88 54 69 75 39
56 57 23 49 49 13 33 61 0 18 46 0 52 81 23 47 78 21 45 78 25
72 106 55 64 97 50 69 100 56 63 91 50 59 84 44 57 78 39 61 77 40
59 71 33 46 54 17 51 55 20 79 81 44 24 55 0 48 79 22 89 120 63
56 89 32 34 67 10 65 98 41 76 107 50 88 117 61 67 94 41 76 100 50
77 99 52 80 97 52 69 82 39 32 43 3 27 35 0 63 71 34 29 63 12
70 105 51 105 138 83 63 94 35 24 56 0 39 70 3 50 79 12 64 91 24
61 83 19 81 103 41 89 108 52 93 110 58 87 103 56 52 65 22 29 41 3
47 59 23 55 91 45 80 116 68 94 127 74 64 93 35 45 72 5 47 73 0
42 65 0 41 62 0 56 73 0 70 86 13 67 82 15 63 78 19 76 90 39 76 92 47
67 83 46 70 86 50 63 97 60 91 124 81 94 124 74 70 95 37 57 78 9
54 71 0 52 66 0 59 69 0 60 68 0 66 74 0 64 72 0 53 64 0 55 68 14
74 87 43 78 94 57 66 83 49 43 72 42 86 113 78 87 110 64 60 79 23
54 65 0 60 67 0 78 81 0 95 95 0 94 91 0 98 97 7 118 117 37 107 110 41
67 74 20 58 67 24 58 69 35 36 51 20 51 73 50 91 110 80 80 95 56
60 70 17 81 84 17 115 112 31 140 130 41 144 134 37 142 129 35
145 134 44 180 171 92 168 163 95 93 91 40 52 57 16 52 59 28 34 44 17
67 80 62 91 101 76 91 97 63 75 74 26 97 89 27 154 142 66 191 173 89
191 170 79 169 145 57 197 175 90 211 193 119 171 157 94 105 97 50
69 65 28 55 55 29 40 44 21 76 80 63 85 88 67 85 82 51 75 68 26
91 76 21 136 117 49 184 158 83 206 179 98 200 171 91 179 151 77
163 138 72 141 120 65 100 85 44 64 55 24 45 39 17 31 28 9 93 92 74
93 88 68 87 80 52 83 69 34 81 63 17 100 75 19 139 111 48 175 144 79
167 133 69 131 99 38 107 77 23 98 74 30 87 68 35 76 62 36 62 51 33
46 37 22 102 97 77 103 97 75 104 94 67 99 84 51 88 68 31 87 63 19
105 77 29 128 98 46 124 92 41 117 86 39 104 76 36 84 60 24 71 51 24
75 58 38 64 51 35 37 25 11 91 85 61 102 96 70 110 100 73 108 94 65
104 87 57 108 88 55 114 92 55 117 93 57 107 81 46 111 86 55 111 87 59
93 73 48 76 58 38 75 59 43 65 53 39 39 29 17 84 79 50 97 92 63
102 95 67 98 88 61 101 89 63 117 101 76 123 105 81 116 98 74
118 97 76 101 83 63 102 83 66 106 89 73 93 80 64 78 66 50 66 56 44
54 46 33 92 89 58 99 96 65 98 94 65 89 85 58 88 82 60 96 88 69
102 90 74 99 87 73 121 109 97 106 93 84 105 92 83 106 96 86 93 83 71
73 65 52 57 49 36 42 36 22 101 101 67 102 101 70 100 99 69 93 91 66
86 81 61 82 76 60 84 76 65 86 77 68 72 63 58 87 78 73 103 94 87
98 89 80 85 78 68 86 80 68 77 71 57 52 46 32
