P3
#
16 16
255
32 41 10 58 73 42 56 85 54 14 44 16 15 33 11 42 56 31 93 107 72
100 112 72 61 67 33 61 62 30 55 54 24 75 71 46 83 80 61 60 54 42
56 47 38 57 46 40 36 45 14 49 64 31 60 88 50 24 54 18 33 53 25
48 64 35 66 82 46 68 80 42 50 55 23 65 65 37 62 58 33 65 60 38
77 72 53 63 55 42 70 60 51 55 44 38 29 40 10 41 57 21 48 74 27
62 90 42 21 46 4 38 60 21 48 69 30 86 100 65 43 49 21 51 50 29
61 56 37 71 62 45 86 78 59 56 44 28 72 59 50 66 53 45 30 44 9
41 59 19 28 50 1 72 99 48 45 71 24 51 73 26 54 67 13 100 105 49
83 81 30 47 42 0 68 58 33 63 52 34 77 70 44 89 83 59 84 77 61
63 55 44 43 60 15 46 65 19 34 56 9 60 83 37 35 62 19 48 67 11 70 68 0
172 158 59 145 131 24 113 100 8 78 64 17 73 64 33 62 63 23 104 110 72
70 74 51 59 62 45 50 75 18 61 85 33 51 74 28 76 99 53 47 70 18
58 66 0 173 153 41 229 197 60 233 205 59 227 203 79 146 126 55
78 62 11 147 142 74 115 120 56 71 81 44 73 89 62 37 69 4 51 85 25
51 83 34 74 98 46 52 63 0 124 115 14 230 191 51 227 178 13 237 195 25
246 210 64 159 125 35 118 89 11 234 206 97 168 156 54 79 95 33
63 96 53 44 72 11 49 78 22 77 109 62 78 99 40 111 110 17 201 177 51
227 179 21 233 177 6 244 197 31 230 188 42 124 82 0 220 179 73
236 198 65 135 116 0 79 96 25 72 108 60 47 58 16 48 63 20 61 88 43
79 96 25 178 164 42 234 198 48 240 192 30 210 161 6 188 148 14
213 174 47 174 125 0 227 181 43 237 200 60 155 138 22 80 91 25
75 100 58 56 62 26 66 77 37 70 89 44 82 95 25 157 146 30 226 200 61
177 144 3 203 170 41 123 94 0 171 134 28 222 170 32 233 183 34
220 186 52 124 112 4 72 82 19 69 92 50 51 64 21 48 61 17 58 70 22
28 39 0 77 86 7 149 152 61 119 114 20 145 135 46 110 93 23 167 136 53
230 176 50 217 164 26 218 192 73 121 116 24 46 62 0 75 102 57
66 86 37 68 86 36 40 54 1 59 74 19 76 97 38 80 100 39 112 122 61
74 75 18 62 55 9 96 76 15 217 178 77 176 138 27 142 129 33 122 129 51
78 102 44 61 93 44 92 115 59 84 108 50 125 149 89 61 87 26 48 77 19
61 85 33 41 52 10 63 64 30 73 73 45 77 73 36 131 121 62 105 100 32
77 88 22 79 101 39 78 107 53 69 103 53 82 107 52 97 125 67 77 105 44
42 72 10 50 83 26 76 104 56 74 83 52 63 65 43 50 55 35 34 43 16
37 45 8 46 59 15 70 94 46 96 126 76 84 118 67 75 112 60 23 49 4
86 112 64 101 126 69 40 68 9 62 95 38 65 93 45 50 59 28 53 55 33
55 63 40 31 44 16 37 52 13 75 93 51 112 137 95 71 100 56 54 91 40
81 120 65 33 58 19 47 73 28 82 105 51 70 98 39 76 109 52 56 84 36
52 59 28 39 41 19 74 82 58 35 50 19 83 99 62 113 134 93 81 106 67
47 78 36 41 78 27 68 109 53
