P3
#
16 16
255
96 93 22 71 62 0 59 35 0 89 52 0 101 53 4 116 66 15 186 143 88
208 180 115 175 167 94 101 110 31 68 91 11 69 97 22 51 75 13 59 77 25
62 73 33 34 40 6 119 121 48 103 96 28 97 77 16 119 86 32 129 83 33
131 84 32 160 120 61 174 144 80 161 152 77 99 106 26 71 90 8 72 96 20
59 81 16 57 76 20 65 76 33 58 64 26 113 121 48 113 114 44 127 113 52
139 112 57 146 106 55 145 102 49 140 100 41 161 132 64 155 142 64
92 94 10 55 69 0 57 79 0 73 93 21 63 81 19 61 73 23 63 72 27
86 102 27 102 109 39 126 121 57 136 115 58 138 105 52 144 104 52
124 86 24 160 131 61 157 140 58 114 110 19 83 92 0 80 96 7 99 116 36
71 86 17 70 81 21 92 102 49 76 99 19 87 103 28 108 110 45 129 119 60
134 109 55 141 108 54 105 71 8 136 108 34 133 113 26 135 127 29
144 146 45 126 136 37 115 128 38 58 71 0 73 86 17 126 138 74 67 95 11
71 94 14 87 97 28 139 137 76 145 128 72 146 122 62 104 75 9 114 87 8
127 106 13 150 137 33 186 182 74 170 173 66 156 164 65 80 93 3
84 97 18 120 133 61 47 77 0 62 87 4 83 99 26 162 167 101 147 139 77
135 117 55 111 87 15 120 94 10 152 128 28 173 153 41 220 209 93
216 213 96 213 216 109 129 139 42 102 116 29 90 108 26 34 63 0
65 91 2 95 114 35 180 190 119 132 131 66 105 94 28 110 91 15
134 110 22 141 117 11 170 148 29 239 221 97 236 226 103 223 221 108
127 136 31 86 101 8 54 74 0 66 86 0 83 103 8 123 138 55 145 157 81
130 133 64 109 105 32 115 103 21 132 112 17 152 126 15 187 161 38
230 207 77 253 238 109 237 232 114 138 146 37 82 99 3 49 72 0
124 131 27 133 141 42 133 143 54 128 137 56 128 134 60 133 134 58
134 127 39 133 118 17 164 141 25 210 182 56 237 210 77 235 216 85
231 225 105 173 179 71 127 144 50 73 97 9 155 145 34 170 166 59
158 159 65 135 141 55 133 140 60 136 141 59 148 147 55 175 164 59
199 179 58 223 196 65 220 192 56 198 175 43 191 182 63 138 144 38
91 107 18 30 55 0 170 143 26 186 164 53 174 165 64 159 160 67
145 153 68 119 129 42 134 138 41 197 193 85 219 201 77 212 188 54
202 175 36 198 175 43 194 183 67 123 125 24 75 93 9 39 66 0
197 151 29 204 165 48 184 161 55 163 157 59 144 150 60 107 120 28
113 121 20 169 169 57 215 202 74 210 188 51 211 183 47 218 195 65
211 199 87 128 132 37 85 104 25 61 88 19 204 140 14 221 169 47
204 172 61 163 150 48 123 128 34 98 112 17 109 122 17 151 156 40
189 180 51 214 195 57 225 199 62 214 191 63 197 185 75 124 127 36
80 97 26 41 67 4 217 140 10 224 160 36 213 172 58 174 157 53
124 128 31 99 115 17 116 132 25 150 158 39 165 158 26 211 193 55
231 205 68 207 186 59 191 180 72 135 139 52 97 116 50 50 78 20
255 172 40 217 148 21 194 149 34 187 166 61 152 157 57 118 134 35
117 133 26 134 143 24 174 167 35 217 199 61 232 209 71 210 189 62
191 180 74 130 134 49 94 113 49 52 79 26
