P3
#
16 16
255
91 80 60 90 78 62 83 73 63 93 80 72 81 66 59 71 57 46 66 52 41
61 48 32 56 37 22 100 78 64 54 34 25 83 64 57 96 84 72 97 75 51
118 71 27 173 114 58 102 91 73 92 83 66 86 73 64 93 80 71 91 77 68
94 80 69 77 63 50 79 61 47 117 89 77 97 65 52 67 38 24 75 49 36
90 71 56 92 66 41 87 43 0 152 100 43 62 52 40 72 62 50 77 65 53
99 85 72 98 82 69 97 84 68 88 74 61 98 76 63 114 69 63 126 74 63
129 81 61 107 65 41 108 76 55 100 69 40 101 63 18 155 114 60 59 52 36
108 99 84 109 97 85 94 80 69 99 85 72 98 82 66 106 85 64 98 63 44
134 77 66 143 74 58 150 77 44 162 90 50 154 92 55 142 89 47 132 91 35
155 121 57 71 67 42 108 101 82 86 73 64 76 63 57 77 69 58 84 67 49
102 63 32 155 102 68 137 73 48 165 86 55 194 93 39 210 101 36
196 88 24 180 91 23 132 80 4 178 146 63 100 94 70 95 87 68 93 80 72
99 86 80 76 66 56 104 83 56 132 82 29 197 131 73 160 85 45 162 69 26
194 74 11 201 71 0 216 94 9 199 103 17 135 84 3 165 136 58 102 89 73
84 70 57 83 70 62 77 64 55 96 83 67 119 91 51 187 132 49 235 158 68
167 74 13 176 66 15 189 59 0 211 84 5 251 144 46 185 111 14 100 61 0
123 104 48 102 85 75 85 71 60 88 75 67 101 88 79 95 82 65 118 89 47
234 177 87 242 160 60 146 44 0 202 84 22 203 72 4 227 105 22
237 146 41 174 114 16 68 42 0 69 60 19 103 89 76 108 96 84 95 86 77
100 91 82 103 91 77 109 80 46 192 133 63 196 111 28 189 83 7
209 91 17 202 79 1 239 129 42 228 145 43 169 118 27 53 37 0 40 41 7
112 100 86 104 94 82 97 88 79 104 95 86 106 94 82 111 85 60 137 86 41
181 105 43 205 105 30 196 85 4 180 68 0 198 102 25 199 133 47
132 96 20 64 60 13 27 38 4 123 111 95 102 90 76 97 87 75 134 121 112
83 69 58 100 78 65 106 75 57 145 93 56 196 116 47 201 105 28 156 60 0
148 71 15 124 84 25 101 90 36 86 95 52 67 88 49 116 102 89 116 102 89
111 97 84 99 85 74 88 71 63 98 79 73 109 89 82 128 91 64 214 145 78
202 120 44 148 71 19 121 66 25 75 53 14 69 71 34 77 91 56 60 79 47
122 105 95 118 102 89 122 106 91 79 63 50 101 82 76 106 87 81
98 82 69 111 81 47 210 146 75 188 116 40 161 109 59 107 77 41
81 75 43 84 90 64 39 48 27 28 39 22 112 96 83 131 115 102 101 87 74
103 91 77 97 83 74 97 84 75 98 86 70 106 83 51 186 135 78 187 135 75
133 104 62 88 77 47 85 88 59 82 90 67 44 48 33 40 42 29 100 87 71
128 116 102 104 95 86 93 86 76 86 83 68 91 86 67 69 61 42 97 82 59
123 97 70 107 84 53 82 75 47 75 78 51 70 81 49 54 65 35 58 57 37
53 46 30 101 90 72 92 83 68 105 100 94 125 122 115 108 109 91
104 103 82 93 86 67 90 81 64 87 73 60 76 69 53 81 82 64 85 95 70
59 74 41 45 56 24 73 68 46 75 64 46
