P3
#
16 16
255
97 23 0 93 39 0 64 43 0 52 40 0 79 42 0 93 47 0 152 108 37 152 123 53
69 71 21 38 54 15 21 35 0 32 50 8 83 110 59 74 97 45 61 66 25
60 56 19 124 51 10 131 77 31 93 70 18 106 93 41 122 95 50 98 62 14
136 98 35 136 108 43 65 57 8 44 46 7 37 45 8 35 50 11 52 79 28
73 96 42 83 89 43 77 75 34 122 51 7 113 57 8 136 107 49 147 135 77
87 76 30 63 50 5 110 87 37 129 102 49 149 121 73 70 49 6 41 35 1
49 57 20 70 92 43 80 103 47 106 115 62 91 94 41 110 40 0 141 81 19
146 108 45 113 94 35 76 79 24 86 85 31 128 99 41 128 81 25 120 63 10
141 87 41 100 56 17 84 59 19 65 63 15 75 83 32 80 87 36 65 72 21
172 97 6 178 112 28 164 114 45 92 67 3 86 95 28 107 108 32 204 149 66
210 125 45 140 46 0 194 97 46 199 98 46 162 79 27 113 64 21 82 60 19
102 100 62 46 56 19 178 108 10 190 126 36 124 74 3 74 45 0 105 106 30
140 129 40 207 134 39 199 93 5 163 53 0 211 93 43 213 84 27 176 65 10
132 70 23 90 65 24 83 85 46 29 45 8 155 101 15 131 83 1 98 64 0
66 42 0 136 118 36 157 120 31 186 101 8 213 104 22 142 32 0 180 64 23
220 89 43 182 76 26 123 82 30 87 86 32 81 95 42 81 105 53 152 117 51
73 38 0 103 69 0 176 139 58 192 147 56 189 124 30 188 93 3 203 96 18
176 75 21 127 28 0 189 90 48 151 78 33 90 73 19 64 79 22 81 104 48
91 120 64 73 59 20 51 26 0 136 87 8 201 135 38 222 143 40 212 123 21
198 94 7 199 96 21 174 86 15 133 67 7 112 75 30 85 73 31 68 78 28
76 99 47 80 107 56 78 108 58 19 18 0 26 10 0 125 77 5 217 143 48
225 129 26 235 129 29 198 91 9 185 85 10 176 95 16 178 130 58
89 89 37 66 92 47 58 86 38 79 108 60 35 64 16 64 93 45 14 17 8
23 15 0 68 32 0 190 126 55 232 138 48 215 107 16 197 89 16 171 73 2
168 87 6 164 118 40 72 81 18 79 116 64 50 88 39 80 116 70 24 56 7
78 108 58 31 40 35 25 23 10 39 16 0 124 77 25 161 85 7 212 122 36
169 76 6 147 59 0 183 106 26 166 123 44 78 91 22 92 133 73 60 100 48
79 117 66 75 110 56 94 127 70 37 53 43 27 35 20 26 20 0 86 64 23
169 128 62 185 129 52 126 62 0 166 97 22 188 120 39 165 122 44
93 104 38 85 123 62 89 129 67 76 116 54 73 112 49 67 106 41 20 42 21
25 38 18 22 24 3 41 28 0 106 81 24 109 75 4 101 61 0 118 76 2
125 86 9 115 96 20 98 115 47 62 101 36 73 114 48 68 109 41 66 107 41
64 105 39 89 116 75 49 66 30 40 38 15 44 27 0 69 38 0 128 98 38
100 81 15 100 95 27 104 115 47 75 100 32 65 98 27 59 99 28 59 102 33
56 98 32 66 106 43 61 101 39 45 75 23 38 57 12 44 40 15 42 22 0
99 66 25 126 99 44 109 99 37 96 108 42 52 91 26 44 90 25 52 94 22
64 104 31 60 103 34 58 103 38 49 89 27 46 86 26
