P3
#
16 16
255
51 84 29 68 101 44 83 113 53 69 98 32 66 92 21 75 98 20 38 56 0
77 91 4 87 96 5 70 75 0 128 127 35 137 132 40 97 88 0 95 84 0 92 76 0
81 65 0 66 97 40 65 94 36 52 80 19 85 110 42 54 74 2 60 78 0 36 48 0
100 107 14 136 138 41 140 138 38 143 135 36 151 139 41 142 128 31
125 109 13 121 102 7 115 96 1 50 75 18 53 77 17 51 72 7 94 110 39
58 69 0 53 57 0 75 75 0 127 119 18 169 156 51 202 184 74 172 152 40
189 166 54 215 189 79 175 149 39 147 120 13 132 105 0 30 50 0 49 68 4
75 88 18 88 95 17 94 92 5 100 90 0 194 177 71 206 180 67 192 161 44
219 183 61 200 162 39 215 177 54 246 207 86 214 175 56 171 132 15
149 112 0 56 71 6 66 77 8 73 77 1 89 83 0 114 98 2 145 118 11
248 211 94 231 186 61 231 178 48 217 160 27 218 160 26 214 156 23
223 168 39 230 177 49 202 151 26 192 142 19 66 73 3 65 69 0 54 49 0
138 121 29 155 123 20 196 153 40 234 179 53 219 152 21 250 177 39
216 139 0 230 153 15 216 140 3 208 135 4 233 165 38 222 158 34
214 152 29 51 54 0 64 61 0 81 67 0 200 172 73 213 169 60 244 185 65
246 171 43 249 163 28 241 148 9 228 131 0 227 131 0 218 126 0
211 123 0 219 139 18 217 140 24 202 129 16 76 74 0 100 90 3
137 116 23 206 171 69 211 158 46 211 141 19 224 135 7 238 137 5
236 128 0 245 134 0 211 102 0 205 101 0 206 109 0 198 108 0
207 121 18 191 109 9 86 79 0 129 116 24 161 135 38 208 165 61
198 136 25 214 135 16 235 137 14 242 132 7 226 108 0 244 124 2
221 104 0 214 102 0 193 89 0 191 96 4 180 90 4 205 119 36 106 95 6
137 120 30 165 135 39 213 168 67 214 147 42 228 144 32 245 144 30
250 136 21 242 122 9 241 119 8 219 100 0 216 103 7 191 87 0 184 89 9
173 85 13 193 109 39 92 77 0 114 94 7 140 106 17 190 141 48
197 131 34 209 125 26 229 130 28 235 126 23 248 132 31 229 111 13
210 96 7 211 105 21 185 88 11 176 88 17 168 87 22 175 97 35 84 66 0
103 80 2 132 97 16 175 127 43 184 118 32 191 110 21 223 128 36
236 133 41 233 124 33 209 101 13 201 96 13 203 106 29 184 98 25
181 102 35 174 103 39 158 90 29 80 59 0 101 76 10 131 96 28
156 109 39 155 93 20 156 80 4 199 112 33 220 125 45 204 107 26
189 92 11 191 100 21 191 108 30 190 116 41 191 127 55 181 122 52
146 92 22 69 46 0 89 62 7 113 78 22 117 71 12 113 55 0 111 42 0
161 82 13 177 93 20 182 95 18 171 85 8 177 98 19 181 110 30
196 135 55 188 135 55 169 124 43 134 91 12 75 52 10 89 62 17
103 69 23 97 53 4 107 52 0 116 51 0 166 95 33 171 94 26 171 94 22
152 79 2 156 89 8 166 109 22 195 145 56 162 121 31 134 99 7 114 83 0
78 54 16 86 58 19 95 60 18 89 46 1 115 61 14 137 76 22 189 120 61
179 108 42 169 96 27 139 72 0 139 77 0 157 103 15 189 146 52
134 100 3 101 71 0 98 73 0
