P3
#
16 16
255
189 190 124 168 180 108 136 170 86 125 172 80 109 163 69 161 208 116
182 207 124 160 172 98 163 162 97 140 139 75 92 101 34 86 103 32
100 127 46 117 147 59 136 165 73 130 157 62 93 93 31 114 125 56
109 142 63 130 174 87 148 197 106 175 215 127 142 163 84 111 117 47
122 114 52 118 112 52 92 94 31 86 99 29 93 117 39 109 139 53
140 169 77 142 171 78 119 120 63 140 152 88 110 140 68 113 154 75
145 187 103 171 202 122 140 147 77 128 120 57 118 97 42 138 118 65
135 129 71 136 142 78 120 140 68 100 129 47 105 133 46 97 127 37
123 127 76 142 153 97 118 147 81 120 156 84 135 167 92 161 178 107
141 136 72 134 109 53 119 83 35 133 99 53 140 123 71 163 161 102
150 165 96 110 137 58 93 122 38 78 111 24 62 68 22 86 98 48
111 136 78 140 169 103 137 158 91 166 171 107 167 144 90 151 109 61
140 87 47 121 72 32 105 72 27 132 121 67 136 147 81 107 131 57
93 124 44 84 118 32 30 37 0 57 70 24 104 127 71 149 173 111
142 156 94 175 169 109 186 148 99 166 109 66 165 95 59 135 71 35
99 56 14 114 94 43 122 128 64 104 128 54 91 122 42 71 109 24 8 16 0
49 62 16 92 115 59 145 165 104 159 165 101 177 161 101 158 110 61
137 68 26 148 66 29 145 71 34 119 66 24 115 89 38 118 120 55
113 135 62 98 131 50 62 102 16 20 31 0 62 76 27 74 95 38 114 133 69
158 161 94 181 161 98 156 103 49 156 79 35 144 56 18 166 87 48
141 84 39 108 78 24 94 95 29 95 117 42 84 118 34 37 77 0 26 35 0
40 54 3 63 85 23 101 121 52 153 156 85 188 168 99 191 137 77
172 96 44 173 87 40 177 96 51 144 88 37 110 81 23 125 124 57
106 127 50 86 118 35 55 93 6 45 53 4 46 59 5 69 90 25 107 127 55
148 155 77 187 171 94 205 156 89 194 124 64 181 100 45 176 103 50
153 102 47 152 126 65 145 146 76 130 151 74 111 143 60 106 141 57
82 89 38 67 78 22 91 112 45 130 153 75 152 166 81 185 179 95
215 177 102 208 151 82 191 123 62 176 114 55 161 119 59 172 152 89
142 145 74 135 156 81 132 161 81 148 181 100 89 91 42 61 70 13
86 109 39 127 154 75 137 157 70 163 168 78 197 175 92 192 150 74
206 151 84 185 135 72 177 146 82 151 137 74 114 121 53 118 138 67
138 164 91 151 179 105 95 92 47 56 63 9 71 94 26 106 137 57
113 142 52 141 158 66 181 173 88 182 157 77 191 153 82 175 140 74
184 164 101 113 107 45 104 114 51 119 138 74 155 175 112 144 166 102
117 110 68 71 75 24 60 82 17 76 111 31 87 123 33 119 146 53
158 163 73 164 153 71 140 116 44 127 104 37 154 144 82 85 86 28
118 132 73 140 159 103 170 187 132 150 169 114 120 111 72 76 78 31
44 68 6 49 86 9 69 112 22 104 139 45 134 150 61 140 142 59 128 116 44
95 84 18 114 112 53 79 87 30 133 147 94 144 162 112 141 157 110
138 154 107 122 112 76 87 88 44 52 76 14 58 96 19 91 137 47
129 170 74 154 174 85 158 166 81 167 160 88 111 103 38 102 103 45
91 100 45 134 150 101 126 144 96 89 104 61 109 122 79
