P3
#
16 16
255
66 131 63 78 127 62 90 108 50 167 170 113 158 162 101 128 128 64
101 89 29 97 88 23 148 152 76 106 123 45 81 104 36 123 143 71 57 61 0
182 172 59 241 215 70 237 204 41 83 144 75 97 148 81 105 131 68
147 153 93 196 187 128 188 166 109 155 118 65 141 109 52 146 133 65
141 141 71 80 81 21 132 132 68 115 108 28 204 186 86 237 207 77
222 184 41 17 72 4 39 90 21 59 102 31 97 112 47 152 119 66 199 132 89
202 117 80 202 123 82 150 103 49 135 100 44 114 73 29 138 100 53
149 119 57 199 167 90 216 173 78 120 71 0 50 103 35 78 128 59
93 132 65 106 105 48 144 75 34 165 57 29 209 97 73 196 98 69
155 96 54 168 121 77 148 88 54 132 63 30 163 94 52 140 78 21
140 86 14 130 83 1 49 100 34 75 114 51 86 99 43 112 75 33 154 39 18
156 14 2 210 92 78 159 73 50 142 96 62 126 90 54 158 100 76 140 53 33
160 38 17 156 44 7 132 70 9 145 112 35 45 93 33 33 66 11 40 43 0
106 56 23 164 34 21 196 45 38 201 85 70 158 74 50 152 97 67
189 135 107 162 85 69 128 27 15 156 30 15 171 63 34 147 100 44
83 66 0 81 123 75 39 71 24 28 41 0 85 51 16 173 60 42 200 64 48
168 62 36 163 74 44 182 95 67 161 65 43 158 41 34 146 35 26 146 66 43
144 96 58 116 103 50 84 88 27 94 137 91 59 95 49 42 60 18 82 58 24
144 48 26 149 26 8 151 43 17 160 54 28 171 57 31 173 48 30 190 53 47
162 51 40 174 130 95 101 99 48 111 129 71 127 153 92 74 127 71
51 94 41 36 59 13 109 91 55 155 74 53 185 72 58 156 34 21 197 67 53
174 39 20 179 40 21 235 97 86 183 87 63 154 138 87 73 104 37
106 147 79 115 160 91 87 145 87 38 82 29 40 62 15 83 63 26 148 67 46
190 72 62 171 36 30 205 58 51 221 69 55 214 61 45 222 70 57 167 63 36
130 119 63 66 106 35 91 143 69 119 175 102 111 168 115 93 137 86
84 102 54 99 71 34 145 46 27 174 35 28 187 39 37 216 58 55 215 51 41
200 28 16 242 63 58 186 54 33 139 106 53 95 122 51 99 147 73
119 177 101 60 114 62 120 164 111 109 133 81 101 78 36 146 46 23
168 27 17 173 30 22 181 32 25 198 40 29 200 38 27 200 42 31 195 84 57
148 126 69 101 133 60 92 144 70 72 132 58 2 56 0 68 118 57 106 147 87
96 93 40 140 55 24 170 48 25 149 32 12 145 24 5 168 35 20 173 48 30
167 76 49 162 121 77 109 132 64 94 153 73 92 154 79 51 117 43
26 78 14 96 146 83 85 130 71 77 90 36 123 74 33 149 73 37 147 84 43
166 101 63 130 49 19 121 50 18 121 88 45 125 133 76 93 144 67
107 176 93 119 187 110 63 129 55 86 142 71 108 159 93 62 102 50
44 70 23 90 96 48 132 135 80 113 132 68 109 128 62 111 112 54
105 106 49 86 104 46 114 151 84 101 160 78 105 175 87 108 173 91
83 148 68 61 117 44 70 121 55 25 63 16 16 49 6 52 85 32 68 110 46
100 161 84 111 172 92 91 133 61 92 129 60 83 124 58 94 146 74
83 147 61 76 145 56 83 148 64 60 123 42
