P3
#
16 16
255
53 80 11 72 97 29 84 100 38 105 117 55 96 100 41 104 98 24 181 156 56
108 86 0 113 111 37 84 99 40 88 113 58 44 72 24 20 37 5 26 39 13
19 29 2 37 46 19 72 98 33 87 112 47 89 109 46 68 82 20 78 87 24
100 92 20 177 144 51 125 87 0 146 120 36 96 86 14 78 82 21 49 63 14
19 33 0 19 29 4 21 29 5 58 63 40 78 103 46 84 109 51 83 109 44
53 76 8 72 87 22 108 99 30 139 92 12 167 98 7 212 137 35 202 138 41
136 100 26 49 36 0 25 26 0 14 22 0 16 19 0 36 37 21 77 104 53
79 106 51 75 105 43 57 80 12 86 91 25 127 104 34 187 121 43
219 128 37 240 133 27 221 124 21 202 141 60 87 57 0 44 42 4 22 32 8
20 22 8 28 28 16 81 110 62 75 105 55 63 94 37 75 91 28 95 77 11
187 135 60 202 116 29 247 138 43 251 131 34 217 110 16 206 136 51
107 74 5 79 82 35 34 53 23 12 20 5 23 26 19 86 119 72 82 114 64
80 110 56 74 82 22 132 95 27 165 94 14 203 109 13 227 117 20 206 91 8
188 88 10 200 134 56 67 38 0 72 79 27 39 61 23 13 27 4 20 29 12
90 127 76 96 130 79 90 117 64 105 105 45 156 104 31 183 101 15
229 135 35 191 94 0 148 55 0 121 46 0 122 76 14 77 58 0 56 63 11
41 60 15 36 52 13 41 57 20 109 124 69 119 134 79 116 130 77
115 107 45 148 92 17 193 110 18 251 156 48 223 127 27 149 57 0
175 105 53 139 104 40 64 57 0 54 65 7 47 67 14 36 55 9 39 58 13
117 87 25 119 97 39 133 128 73 133 119 58 131 82 5 200 122 24
245 146 27 255 148 35 199 89 12 214 131 63 168 136 51 93 96 9 51 71 0
43 68 10 31 53 6 50 68 28 151 90 9 149 101 25 142 122 59 102 79 12
143 86 5 202 115 20 229 114 5 255 134 32 205 77 2 206 104 30
191 138 44 137 125 27 99 116 36 54 83 17 39 61 12 57 75 33 211 136 17
195 137 29 153 125 41 103 67 0 192 116 32 200 88 2 210 67 0 243 89 17
221 71 10 224 95 27 211 116 26 183 133 38 119 123 38 57 87 13
57 78 19 43 61 9 203 128 0 203 144 26 160 131 37 142 105 17
226 139 44 235 111 21 204 56 0 213 61 0 199 59 0 202 75 8 231 119 33
190 121 26 115 118 27 95 128 47 59 81 17 54 73 17 198 136 25
177 128 23 123 103 6 153 119 21 242 152 42 249 129 19 223 96 3
211 90 11 191 88 22 176 82 12 221 121 35 195 129 33 116 126 30
104 144 58 74 101 34 58 79 22 148 108 21 111 84 0 124 117 27
145 122 26 212 140 32 225 130 24 213 128 37 205 132 53 157 103 31
162 110 37 191 123 40 154 107 19 82 95 5 96 134 51 74 100 35 49 70 14
67 60 6 87 87 25 113 125 49 115 115 29 156 119 30 169 124 41
141 118 50 142 137 71 157 161 87 146 147 71 106 88 16 66 54 0 61 74 2
76 103 34 44 65 8 47 67 16 29 39 2 20 34 0 83 104 35 112 123 44
104 85 6 85 67 0 68 77 20 90 118 59 143 177 103 135 163 86 98 105 38
53 58 0 68 83 18 68 88 25 49 69 16 36 56 7
