P3
#
16 16
255
91 122 80 99 109 74 118 81 62 133 45 43 165 20 35 202 28 51 207 36 52
174 28 31 146 46 30 125 58 31 102 51 22 83 41 16 77 34 18 57 27 16
36 29 19 37 43 33 82 107 65 69 73 38 84 48 26 125 37 33 170 28 40
202 31 50 208 38 51 188 39 41 169 63 47 136 60 34 109 48 20 101 47 23
100 47 33 75 37 26 51 39 27 56 56 44 101 117 72 64 60 22 67 27 2
117 33 23 168 29 36 187 21 33 198 28 37 197 43 43 193 76 59 176 82 57
163 79 53 150 74 51 128 54 41 91 34 23 79 53 40 106 94 80 119 128 81
78 73 31 75 38 9 115 39 23 155 30 28 176 23 26 198 38 40 210 58 53
212 89 71 214 105 82 207 105 82 184 87 68 151 61 50 115 45 35
106 70 56 130 111 96 112 122 70 98 96 48 103 77 40 125 65 39
148 46 32 175 43 38 202 59 51 213 71 59 209 84 62 214 95 71 202 81 60
176 61 42 162 56 43 145 63 51 116 75 57 105 84 63 115 130 75
123 130 78 135 124 79 136 98 62 141 65 42 163 57 41 177 55 40
169 42 23 164 42 19 185 63 39 186 53 34 161 31 15 149 31 21 136 46 35
102 59 40 82 62 37 108 132 74 119 138 82 127 135 84 121 108 66
125 78 48 148 72 48 154 55 34 134 24 1 128 14 0 164 39 17 182 42 25
166 25 15 147 20 11 122 28 16 87 45 23 75 58 30 82 105 49 88 109 53
91 108 56 96 95 51 116 86 52 152 92 66 164 80 56 147 45 23 140 25 4
162 31 13 177 26 17 177 24 18 171 32 29 140 36 27 90 42 22 71 50 23
70 87 35 61 77 28 77 93 46 91 92 52 127 100 70 162 108 84 148 67 48
149 46 31 166 44 29 159 17 7 191 26 24 190 21 24 193 38 42 150 30 29
94 31 16 71 34 15 75 78 33 73 79 35 93 100 59 109 103 67 123 92 64
171 113 93 139 53 40 151 40 29 171 40 32 172 19 14 207 28 32
203 17 28 204 32 44 165 29 33 112 29 21 85 32 18 96 84 46 106 97 58
119 111 75 133 114 84 131 86 65 187 115 101 153 54 48 168 46 41
173 31 29 185 19 21 225 31 42 214 13 29 216 25 43 184 27 38 135 31 30
106 29 21 100 85 46 120 104 68 112 98 63 122 95 66 128 77 58
162 86 73 166 63 56 164 39 35 165 22 18 185 19 21 230 34 44 216 11 26
217 22 38 193 29 40 149 35 34 118 31 22 99 88 43 124 112 70 102 90 50
110 86 52 139 89 66 136 60 44 179 81 70 151 33 23 152 18 7 174 19 14
220 37 39 207 13 21 211 24 33 193 32 37 152 41 32 123 35 21 89 89 37
109 109 57 96 94 46 102 87 46 143 99 70 115 49 25 169 80 62 136 31 12
142 25 7 162 25 9 206 42 33 196 21 16 205 33 31 186 39 32 147 45 30
120 42 20 71 92 27 75 95 32 83 98 41 84 84 34 109 81 42 98 45 13
125 54 26 122 37 8 138 43 13 150 36 9 192 53 32 186 35 18 196 46 32
174 47 28 135 51 23 112 49 16 88 119 49 76 105 38 96 121 56 90 98 41
96 75 32 110 66 29 113 48 16 145 69 35 140 56 20 146 46 10 187 59 32
183 44 21 194 55 34 169 53 28 129 54 22 107 53 15
