P3
#
16 16
255
98 108 47 115 103 29 164 106 7 210 142 31 185 137 27 150 117 10
129 100 0 127 116 24 111 130 48 82 116 42 71 103 38 47 78 18 31 63 0
42 73 16 45 76 34 53 83 47 47 62 0 98 95 18 133 89 0 179 121 11
191 141 26 192 150 32 203 164 47 182 160 49 111 116 16 74 94 7
80 106 35 51 80 16 36 66 4 36 67 10 62 91 47 81 112 71 67 92 11
90 102 18 110 95 2 167 130 23 205 150 24 216 153 12 221 164 13
226 180 32 196 172 38 93 87 0 74 83 0 73 92 26 61 87 24 58 87 31
69 97 49 80 109 63 75 107 22 82 106 22 120 128 43 170 156 57
200 155 28 221 159 12 237 169 8 242 180 17 240 194 39 200 171 35
151 139 31 110 110 20 84 91 11 120 133 63 111 131 72 80 103 51
71 108 28 92 126 49 108 134 63 148 157 74 194 175 57 215 172 33
235 167 20 227 154 0 225 162 5 244 193 39 224 187 37 203 174 36
187 161 42 173 157 61 91 95 21 105 119 57 72 109 31 81 113 38
56 77 10 121 128 50 118 106 0 220 182 55 245 177 44 219 142 4
231 164 21 255 202 50 250 201 36 224 178 20 208 162 25 177 145 32
137 135 50 83 96 24 77 105 30 85 101 26 113 107 33 159 138 55
142 119 17 213 173 59 252 186 66 218 146 26 176 115 0 239 185 59
231 180 29 211 160 6 185 133 0 146 113 0 112 116 21 110 132 49
72 59 0 114 90 16 185 136 57 179 121 37 152 98 8 177 124 30
207 147 51 126 68 0 124 71 0 151 103 0 226 174 36 229 178 27
228 177 32 206 173 44 176 177 75 105 124 35 146 60 0 168 75 6
195 89 5 221 112 29 197 100 29 140 62 0 101 51 0 86 49 0 112 71 0
159 113 17 232 181 56 255 214 69 255 212 54 242 210 65 211 200 94
109 109 23 185 85 25 190 85 17 228 113 30 236 127 44 164 74 11
125 64 10 62 39 0 105 94 38 160 138 63 159 128 35 184 143 29
225 181 48 214 177 26 185 158 17 96 84 0 65 63 0 149 94 27 161 101 29
170 99 17 180 119 38 137 108 42 86 81 23 55 69 10 65 81 16 124 132 47
193 187 89 187 165 56 185 156 39 207 179 56 196 179 63 159 158 65
53 61 0 132 117 50 106 87 18 87 57 0 98 76 3 99 105 43 31 55 0
16 47 0 41 76 8 70 97 16 126 142 53 137 136 46 94 83 0 69 58 0
97 93 4 68 79 0 35 56 0 60 82 20 54 72 12 65 73 14 100 108 51
71 88 36 26 53 0 33 68 14 55 95 35 58 97 30 29 60 0 74 94 31 79 93 34
45 56 0 65 80 21 64 90 25 34 66 0 46 85 32 47 79 29 76 95 50
97 114 70 64 87 41 28 57 9 45 79 29 63 102 49 69 110 54 50 87 35
29 56 11 12 35 0 51 72 33 62 87 45 35 69 18 44 85 27 58 94 50
50 77 36 93 99 65 51 57 23 53 80 37 49 85 37 35 69 19 72 106 56
86 122 74 65 96 52 33 54 15 32 50 12 36 57 18 15 42 1 50 86 42
72 114 66 74 109 69 91 113 77 129 128 98 93 94 63 57 84 43 56 95 48
62 94 45 52 84 35 82 115 72 66 94 54 40 57 21 24 38 3 34 55 16
53 80 39 73 110 69 81 122 80
