P3
#
16 16
255
120 140 77 86 103 48 113 120 78 57 62 21 117 119 69 75 73 24 89 76 42
110 96 69 120 114 88 175 175 141 139 138 94 123 123 71 98 96 45
100 100 50 103 104 64 114 116 79 78 96 38 97 114 59 122 135 89
67 76 29 84 88 37 129 123 75 109 82 52 120 84 60 137 103 78
190 156 128 176 142 105 156 132 86 137 131 79 99 104 50 113 116 69
121 127 81 61 75 24 109 128 73 91 115 57 89 108 52 87 96 43
117 102 59 168 112 85 169 91 71 171 83 61 202 106 84 152 50 27
187 111 79 141 125 74 114 128 67 137 149 87 146 156 95 45 52 8
45 57 7 78 98 39 86 101 44 81 77 30 113 75 39 175 86 68 183 62 51
195 67 54 184 52 37 181 50 32 209 111 84 169 141 94 120 128 68
149 162 93 158 174 101 60 56 19 63 61 20 83 87 37 71 65 17 103 69 34
149 74 53 191 59 54 188 32 33 206 54 51 200 62 52 175 56 36
200 111 81 165 120 78 121 108 53 112 119 49 143 161 85 56 47 14
79 71 34 92 85 41 105 77 37 135 67 44 166 59 49 171 27 27 185 30 34
164 22 21 131 4 0 162 50 30 197 106 77 146 82 46 150 116 68
106 107 41 119 137 61 75 69 33 98 90 51 124 111 67 98 52 18 172 64 51
192 57 54 157 27 29 135 16 18 139 40 35 131 35 23 149 39 22 203 98 76
140 54 29 120 66 28 118 108 47 93 106 34 91 94 49 95 94 50 111 99 57
124 75 42 162 44 30 197 55 51 167 43 43 144 40 37 128 45 37 129 41 29
156 34 21 227 102 84 171 69 47 159 95 59 102 91 35 86 101 32
108 126 68 103 116 62 81 82 38 123 89 52 205 107 80 199 72 53
168 46 35 143 32 25 134 41 33 141 37 28 193 41 36 191 39 28 189 79 52
167 106 62 106 99 44 108 129 64 100 124 64 86 105 49 89 98 51
124 101 60 174 94 59 156 42 16 184 58 43 150 23 14 166 45 36
185 50 44 189 17 17 201 38 29 174 65 36 144 87 42 137 132 77
99 119 58 94 119 64 81 101 48 104 116 66 121 107 62 146 82 44
150 46 19 167 35 20 177 24 16 203 36 27 196 17 12 254 69 67 199 38 30
154 54 28 148 99 58 151 141 90 113 122 67 55 77 28 73 93 42 97 111 60
135 121 76 158 92 57 162 52 29 196 54 40 193 26 17 206 24 11 210 17 8
218 20 21 188 23 19 169 73 51 110 64 30 113 95 55 86 85 41 81 97 48
72 88 39 101 118 66 153 134 91 142 54 30 166 33 18 205 49 37
196 28 17 209 42 26 212 31 20 220 14 18 199 20 23 165 70 52 109 65 38
83 59 33 97 83 57 127 144 90 115 134 79 141 162 106 125 113 65
150 69 40 164 41 23 166 31 12 177 42 20 176 55 26 196 64 39 189 22 13
189 42 34 139 66 47 92 60 37 71 48 32 84 64 53 114 138 76 117 143 78
106 135 69 123 127 68 155 104 59 151 73 35 151 71 34 138 71 29
126 82 33 136 90 40 156 82 37 155 85 49 92 63 33 75 64 42 44 30 19
51 36 29 98 125 58 120 149 82 91 124 53 84 96 30 127 91 39 177 121 74
170 119 74 136 103 52 106 100 42 112 108 45 123 93 33 141 111 59
127 119 83 42 41 20 43 34 25 64 50 47
