P3
#
16 16
255
99 132 87 89 120 78 97 122 90 79 98 70 77 86 59 68 67 36 85 73 31
81 62 4 97 75 2 116 94 8 171 152 58 158 148 53 119 119 31 103 114 35
116 136 67 80 105 40 107 139 90 89 118 72 87 112 72 68 84 48 63 70 36
59 55 17 90 76 27 102 81 18 132 104 30 176 149 62 195 172 78
168 152 57 166 160 74 121 126 46 92 105 35 85 105 36 110 139 83
87 114 59 82 102 51 57 71 20 59 61 11 67 60 5 114 94 31 135 107 34
170 135 54 187 150 62 214 180 90 206 179 88 192 176 89 137 132 50
100 104 27 69 80 4 111 135 75 98 120 58 94 110 47 71 80 15 87 87 17
117 103 30 162 135 58 167 130 49 170 124 38 170 120 33 205 159 71
221 181 93 215 185 99 161 143 57 121 113 30 80 78 0 95 113 51
96 111 46 101 111 40 84 87 8 119 112 24 164 143 52 192 157 65
167 120 28 150 93 3 173 112 23 179 117 32 192 136 51 241 195 109
189 155 66 136 113 20 137 121 26 97 108 52 100 109 46 112 116 42
107 102 18 156 142 45 203 176 73 217 174 72 174 116 17 161 92 0
155 79 0 162 87 4 179 108 26 217 157 69 192 146 52 174 139 37
168 140 33 112 115 72 102 104 54 115 112 45 126 115 33 185 163 64
225 191 84 238 185 79 201 133 32 181 100 9 142 53 0 167 77 0
187 104 24 190 119 31 188 130 31 203 157 46 168 129 12 90 86 59
67 63 26 78 69 14 102 86 11 163 137 44 199 157 55 219 157 56
196 120 22 179 89 1 168 71 0 176 78 3 183 92 13 208 131 41 196 131 29
188 137 22 174 130 7 69 60 51 60 52 33 62 48 9 103 81 23 143 110 31
171 124 34 193 126 35 178 97 6 184 89 7 179 77 2 190 90 15 214 121 43
215 135 46 192 124 23 171 118 2 170 125 0 75 65 66 78 68 59 81 64 38
100 76 32 116 78 15 131 79 3 153 85 4 143 61 0 158 62 0 179 77 3
210 109 37 232 139 62 221 144 56 190 126 28 164 112 2 154 109 0
50 41 46 61 51 49 67 50 34 84 60 26 103 65 16 128 77 14 156 87 18
145 63 0 142 49 0 189 91 20 221 124 53 221 133 59 221 149 65
216 157 65 171 125 27 115 76 0 57 53 52 61 54 48 56 43 27 77 53 25
108 73 31 143 93 40 161 95 35 134 55 0 150 61 0 185 92 22 209 121 50
211 131 58 209 143 65 199 148 67 159 121 38 116 84 0 58 59 45
59 56 39 51 43 20 75 56 26 113 81 43 153 106 60 171 110 56 142 68 7
150 69 3 161 77 5 187 107 36 205 135 63 177 123 53 131 91 22
118 90 25 137 116 53 37 44 13 43 46 17 47 42 12 72 57 24 106 77 43
148 105 63 185 127 77 177 108 49 144 69 2 156 79 7 160 91 16
152 92 22 131 85 23 111 80 25 101 80 33 98 85 41 53 65 19 53 62 17
51 52 12 70 61 22 93 69 33 130 91 50 175 123 75 182 120 61 165 96 27
159 90 15 131 67 0 101 48 0 100 64 6 115 91 45 95 82 50 56 50 24
65 80 25 55 65 13 43 46 1 64 57 15 94 70 34 133 95 56 182 132 83
193 132 75 202 135 65 152 86 10 108 48 0 102 53 0 100 67 13 85 66 26
74 64 39 75 72 55
