P3
#
16 16
255
40 45 22 9 18 0 54 68 35 62 87 47 58 96 45 40 88 30 36 84 24 30 71 11
38 65 14 27 54 3 53 88 34 37 76 23 16 47 5 33 58 26 22 39 21 6 19 9
47 57 30 3 16 0 20 35 2 78 103 63 49 87 38 58 101 45 77 115 54
56 85 18 97 110 38 38 52 0 53 78 10 57 88 28 40 69 21 25 51 16
15 33 11 6 20 5 38 60 22 12 34 0 11 30 0 57 81 45 30 67 23 42 77 23
65 81 19 115 117 34 197 186 70 135 125 4 74 80 0 66 83 5 61 86 29
13 38 0 20 36 9 14 28 5 60 88 47 27 55 14 63 89 50 26 53 12 18 50 1
58 79 20 71 67 0 115 95 0 208 178 46 229 200 60 194 179 54 128 125 22
79 90 12 27 44 0 19 35 0 17 33 4 38 67 23 41 73 26 71 108 57 55 88 33
31 52 0 74 78 4 179 155 59 156 116 3 156 111 0 223 180 49 203 165 20
209 182 43 201 188 76 87 86 4 28 40 0 29 49 12 11 38 0 17 49 2
55 93 42 96 128 65 52 65 0 151 141 43 227 191 71 144 92 0 112 60 0
184 132 12 237 187 38 204 162 14 173 147 34 60 53 0 40 52 2 37 59 23
39 63 29 27 53 14 41 72 30 50 73 5 88 88 0 231 211 76 225 184 42
175 122 0 123 68 0 141 87 0 200 148 12 183 143 11 74 52 0 33 31 0
43 55 19 27 47 20 62 81 51 21 42 9 41 72 30 59 81 9 181 177 52
241 218 63 233 193 36 242 191 48 150 92 0 219 161 53 216 160 25
202 158 33 120 99 20 63 61 12 31 47 11 13 38 9 31 44 16 33 53 18
66 99 54 56 82 8 155 155 31 221 202 48 237 202 38 229 180 25
179 120 0 203 142 15 203 142 0 208 159 28 148 123 33 55 51 0 29 48 3
10 42 5 40 47 14 40 56 19 66 99 52 38 68 0 101 106 0 209 194 49
232 207 53 215 175 25 185 132 0 219 161 18 215 156 2 234 188 50
148 129 34 54 59 0 32 56 6 28 63 21 68 69 25 32 44 0 54 83 35 45 75 5
98 106 0 216 211 81 151 141 17 149 128 0 201 160 18 232 181 27
237 186 19 211 177 28 126 126 26 59 82 14 25 54 6 29 64 24 79 86 34
27 41 0 49 78 30 66 96 36 117 132 41 185 191 91 105 105 15 161 151 53
177 151 28 196 163 24 200 169 26 202 191 63 95 114 24 66 97 37
25 54 10 47 74 39 48 69 13 64 88 36 29 56 11 90 119 73 67 94 39
77 97 38 71 80 25 93 92 27 147 135 49 120 111 16 84 88 1 58 77 0
59 91 26 81 115 64 54 76 40 37 53 24 29 53 3 79 102 56 37 59 21
36 60 26 3 31 0 23 48 9 43 55 19 25 31 0 53 54 0 72 81 18 57 80 26
32 66 16 52 92 42 36 72 28 63 84 53 25 39 14 30 42 2 38 50 14 16 29 3
12 26 0 11 33 0 67 88 49 80 91 59 20 30 0 35 48 5 70 92 46 57 85 45
10 44 7 41 79 38 16 50 13 43 68 39 50 70 45 34 42 5 41 48 15 26 34 13
29 41 17 79 97 59 67 85 45 69 80 50 23 33 6 27 47 12 68 94 57
63 94 62 13 48 15 30 65 32 5 39 6 12 38 11 54 76 53
