P3
#
16 16
255
81 120 63 81 117 56 50 81 13 100 108 35 109 73 0 154 115 40 77 68 0
73 77 16 72 71 27 67 61 29 80 67 48 93 75 63 96 75 70 82 61 56
95 81 72 83 71 59 83 122 65 107 139 76 109 126 55 115 106 27
156 105 26 171 112 34 127 94 17 118 101 32 106 99 47 85 79 43
77 62 41 59 41 29 81 61 54 65 46 40 54 41 32 66 56 44 80 119 64
101 126 61 134 126 45 177 133 44 187 106 17 206 110 23 188 103 12
160 102 18 123 105 39 106 102 55 68 52 27 70 48 35 77 60 50 57 44 35
71 61 51 58 50 39 92 129 75 119 134 69 166 135 52 204 135 42
227 123 34 221 103 13 232 115 20 219 125 35 135 86 10 131 100 45
79 46 13 77 48 30 85 67 53 72 59 50 87 77 67 42 32 23 87 122 66
114 120 56 212 161 80 202 112 24 228 116 32 225 101 15 223 95 6
213 91 5 206 100 22 173 88 23 136 74 27 92 51 21 91 68 52 55 41 32
89 71 67 67 49 45 161 188 137 145 143 82 229 170 90 204 105 20
206 87 7 245 115 37 255 137 53 212 82 0 239 113 26 211 104 24
179 108 46 86 41 0 65 42 24 66 51 44 72 53 47 62 38 34 165 176 136
173 162 108 205 148 67 214 120 32 189 67 0 237 105 33 255 138 58
215 98 5 236 124 16 231 135 33 209 145 71 89 51 4 85 67 47 73 60 52
58 38 29 71 47 35 76 76 40 130 110 57 243 186 99 223 132 41 210 88 23
207 77 17 193 75 1 203 94 3 229 127 19 238 154 55 162 109 41
102 70 29 81 64 48 68 55 47 70 51 37 80 57 39 48 40 1 111 87 27
245 187 88 245 157 60 177 62 7 145 20 0 181 63 0 229 122 44
221 127 39 166 94 18 103 60 18 94 72 49 71 57 46 88 78 66 92 77 58
72 56 33 83 73 37 117 92 38 221 164 77 187 98 14 140 25 0 202 76 38
193 69 15 202 93 28 216 129 60 158 97 40 98 64 36 90 72 58 80 68 56
85 73 59 93 78 57 106 90 65 55 48 20 76 54 17 168 115 61 162 75 21
159 37 0 210 72 36 199 66 21 166 52 2 151 70 17 150 99 52 96 71 41
67 54 37 96 82 69 89 73 58 72 53 36 102 81 60 37 34 3 67 47 14
107 54 14 175 86 42 188 63 17 219 82 36 226 99 54 154 51 6 166 102 56
143 105 66 87 70 44 82 71 53 88 72 57 99 82 66 84 65 48 88 69 52
70 76 32 77 60 16 103 45 0 176 82 28 187 65 0 239 116 48 193 89 34
145 71 22 121 80 36 93 75 39 78 67 47 71 62 47 103 86 70 79 62 44
77 64 47 61 50 32 85 92 40 94 81 26 154 99 42 184 95 27 222 101 18
231 114 34 179 99 40 108 60 12 86 63 22 111 100 70 90 82 63 76 64 50
90 73 57 84 67 49 70 59 41 76 70 48 90 95 37 116 105 43 148 101 33
202 121 42 247 126 35 220 108 22 117 56 0 74 46 6 70 53 23 69 57 33
100 90 65 78 65 46 81 63 53 62 46 33 80 67 48 63 56 28 108 112 53
105 94 30 145 103 29 211 133 48 252 132 37 223 113 26 142 91 34
71 53 17 69 55 29 61 49 27 88 76 50 95 83 61 69 50 43 68 51 43
75 63 41 89 80 51
