P3
#
16 16
255
74 77 30 65 71 23 65 77 31 65 81 36 57 74 30 48 66 26 32 46 10
37 46 15 35 38 11 51 46 24 49 36 20 74 58 43 57 41 28 56 42 29
50 38 26 56 46 34 82 88 44 73 82 37 63 76 30 46 62 17 37 54 10
42 59 17 36 51 12 34 41 7 43 44 13 55 48 22 51 39 17 72 57 38
61 45 29 66 53 36 62 53 36 71 64 48 68 79 39 64 77 34 53 70 26
32 49 5 27 46 1 44 61 17 63 74 31 54 59 18 59 55 17 63 53 17 59 44 11
63 48 19 50 36 9 51 41 16 46 40 16 56 51 29 47 63 26 45 63 25
48 66 26 35 53 11 36 53 8 51 65 16 95 102 51 92 92 40 67 60 8 71 58 6
76 60 11 67 50 6 52 40 0 58 50 14 61 58 25 79 80 49 38 59 26 30 52 16
40 62 23 41 59 17 42 58 11 49 58 5 122 122 62 133 125 60 117 102 33
113 93 24 115 94 27 76 58 0 49 36 0 48 42 0 54 55 11 80 85 44
28 53 21 16 40 6 30 52 14 37 54 10 47 57 5 56 57 0 156 147 78
172 156 78 201 177 91 187 160 71 186 160 73 122 100 17 80 66 0
63 58 0 60 61 4 80 87 35 23 47 15 16 37 4 32 50 12 38 50 4 57 60 5
74 67 0 184 165 86 184 158 65 166 133 30 158 124 16 183 150 43
129 102 0 99 82 0 76 67 0 52 53 0 58 64 0 31 52 19 31 48 12 47 62 21
48 54 6 70 65 7 89 72 0 192 165 76 169 134 30 159 118 0 162 121 0
210 170 46 170 138 19 150 129 24 115 104 12 66 65 0 54 58 0 30 46 9
33 48 9 54 61 19 57 57 7 74 63 1 114 91 15 184 150 53 175 132 19
156 107 0 174 125 0 192 149 11 217 180 48 216 191 75 153 140 38
78 76 0 53 56 0 44 56 16 36 44 3 52 55 12 65 59 9 85 69 9 116 89 12
185 147 50 187 140 24 163 111 0 175 124 0 201 155 10 231 193 56
230 206 84 178 165 61 106 102 15 60 61 0 59 68 25 51 57 13 58 57 13
61 53 4 84 65 7 114 86 12 182 143 48 185 140 25 182 132 0 184 136 0
212 167 22 231 195 57 212 187 68 169 156 54 106 101 20 43 45 0
69 76 32 69 75 31 69 68 24 55 47 1 73 56 2 107 80 13 175 139 51
179 139 28 211 166 37 211 168 27 236 197 57 228 198 64 172 152 39
132 122 27 91 91 17 34 39 0 82 89 45 72 78 34 66 67 27 63 58 18
79 66 21 90 70 11 158 129 51 189 155 55 206 170 50 212 178 45
240 210 76 211 190 65 123 110 6 80 78 0 67 71 10 28 36 0 101 110 67
68 75 34 59 63 28 83 80 45 98 90 51 75 59 8 131 111 40 190 165 73
188 160 50 197 171 48 223 202 77 189 174 59 93 88 0 52 54 0 50 60 10
29 44 5 117 128 86 85 95 58 71 78 45 87 90 59 102 99 68 65 56 13
101 87 26 143 126 44 157 138 36 155 138 24 166 153 38 140 133 27
74 73 0 46 55 0 53 68 29 45 63 37 125 137 97 113 125 87 94 100 72
80 84 57 91 90 62 64 59 21 79 68 12 85 72 0 92 78 0 77 65 0 76 66 0
61 57 0 28 31 0 24 35 0 42 57 26 44 63 43
