P3
#
16 16
255
28 28 16 47 44 35 48 41 35 46 32 29 46 27 23 78 54 44 107 80 59
99 77 40 129 116 64 118 117 50 110 121 45 104 123 42 75 97 22
68 89 20 92 110 50 91 106 51 63 60 45 51 45 31 43 29 20 59 39 30
76 46 36 79 46 29 90 56 29 99 70 30 115 94 41 82 71 7 85 85 13
77 85 12 67 80 10 72 86 24 70 85 28 85 99 46 49 41 20 54 39 18
62 35 16 78 40 19 102 54 32 96 45 16 104 54 17 135 88 42 120 80 28
88 56 0 117 93 33 114 98 39 117 110 55 119 119 67 74 82 33 86 98 50
39 28 0 75 54 25 102 61 31 96 40 5 141 73 34 156 85 39 155 88 36
167 104 50 165 105 51 141 85 34 147 95 47 123 79 34 115 84 40
118 101 57 86 88 41 98 107 60 62 50 12 88 63 22 121 68 24 111 38 0
180 91 33 202 110 45 172 88 18 152 71 5 171 92 33 173 93 44 163 79 43
135 58 28 108 49 17 98 62 26 91 83 37 77 84 33 72 68 20 89 67 17
154 99 42 159 78 12 213 113 37 203 101 16 175 81 0 175 84 3 144 50 0
149 49 0 155 44 14 155 49 27 127 43 17 113 59 23 104 88 37 61 65 6
61 69 12 87 75 15 202 152 83 220 139 58 242 142 48 211 105 3
204 107 2 237 140 45 184 80 7 128 13 0 134 0 0 143 14 0 127 21 0
137 65 25 120 96 34 76 76 4 31 53 0 61 62 0 195 156 81 216 145 57
236 143 39 210 110 0 208 117 2 235 142 38 246 141 60 141 18 0
158 15 0 177 36 9 168 49 17 177 97 48 121 91 18 72 68 0 56 92 30
98 115 47 163 140 62 208 155 63 225 151 42 224 141 23 215 139 19
220 138 28 222 122 36 234 114 51 226 83 41 214 70 36 219 98 55
226 142 82 128 96 11 98 93 0 44 88 29 60 86 21 85 77 2 118 82 0
173 118 15 217 154 41 208 147 30 179 111 2 185 97 8 155 46 0
208 73 26 214 78 36 177 63 13 170 91 24 179 148 57 92 87 0 17 61 8
25 56 0 40 45 0 73 56 0 135 104 11 197 158 57 211 170 65 198 148 49
215 144 62 187 95 28 172 56 5 170 54 5 171 74 19 154 87 16 166 141 49
103 100 0 36 72 26 31 57 9 43 52 0 70 66 2 101 87 12 123 102 19
136 112 26 149 114 32 162 108 36 191 117 56 143 51 0 165 73 24
199 122 66 179 130 63 113 96 14 102 106 12 67 85 47 46 61 22 39 48 5
56 59 12 78 78 24 83 78 20 76 66 5 73 53 0 93 54 0 111 58 8 139 72 27
153 89 43 125 75 24 114 85 27 70 65 0 74 84 11 49 48 18 45 46 15
34 39 7 34 41 8 52 62 27 73 81 44 71 71 33 59 47 7 73 48 8 68 30 0
123 79 40 93 51 11 58 31 0 39 26 0 37 44 0 46 60 7 39 19 0 43 28 5
35 33 12 22 30 9 17 32 13 27 42 23 34 42 21 37 32 12 30 12 0 52 26 0
67 40 10 49 29 0 72 64 28 46 50 15 29 44 11 32 53 20 49 21 0 35 14 0
26 20 4 28 36 21 23 39 29 11 28 18 15 25 16 30 30 18 29 16 0 59 41 19
15 0 0 28 17 0 37 38 7 44 54 27 36 56 31 36 60 38
