P3
#
16 16
255
87 120 63 58 92 31 77 114 45 79 121 49 142 187 120 165 209 148
120 149 105 78 92 56 127 119 83 190 186 148 182 210 161 166 208 158
166 203 160 125 136 106 107 64 57 153 85 86 70 103 50 52 85 28
55 90 26 67 104 37 137 177 114 184 217 160 147 166 121 87 83 48
91 54 27 145 110 82 172 177 136 191 219 171 195 228 185 202 213 181
108 70 57 113 49 47 35 68 21 52 86 35 54 84 30 49 78 22 127 154 99
194 211 159 190 189 143 126 87 54 136 38 27 145 44 36 143 102 74
144 142 103 148 169 126 186 198 160 207 174 155 92 38 28 15 44 0
62 94 45 47 80 25 72 99 44 112 121 76 215 210 168 207 189 149
119 64 34 142 23 19 152 24 23 133 54 37 199 160 129 125 120 80
89 87 49 94 68 45 56 17 0 61 79 39 63 89 41 76 118 54 110 140 80
98 86 48 234 203 175 214 183 154 105 51 27 177 79 70 159 41 37
141 33 21 196 109 89 136 85 56 125 96 66 73 52 25 74 58 33 67 79 43
89 113 65 110 157 85 134 159 93 104 65 34 233 167 153 224 172 151
94 33 15 111 21 13 127 15 11 158 33 27 181 64 54 131 45 28 163 109 85
76 55 28 50 45 15 79 93 58 43 69 21 124 171 93 146 159 89 129 54 31
184 76 73 197 113 103 107 27 18 112 18 16 144 34 35 166 38 39
211 83 80 150 43 35 153 77 63 95 65 39 46 40 8 65 80 49 29 55 8
138 181 109 156 168 104 140 72 51 142 32 31 137 29 26 139 31 28
138 25 27 148 23 29 169 26 30 201 58 60 163 41 38 143 59 48 80 53 26
51 51 17 35 51 22 43 70 29 151 195 136 164 191 138 128 104 80
138 65 59 147 25 24 158 13 16 162 17 24 174 20 28 188 17 26 191 28 33
155 26 21 139 57 43 62 42 15 73 85 49 42 52 27 57 79 43 158 198 146
173 205 156 120 113 87 108 48 38 157 27 29 175 11 18 198 38 48
224 60 71 199 23 34 180 19 25 155 38 31 112 45 28 96 82 53 81 95 60
62 61 41 74 87 57 160 196 148 179 205 158 125 105 80 108 35 28
168 33 37 180 19 27 220 66 76 210 56 68 179 17 32 173 36 43 145 61 51
86 45 25 72 63 34 70 77 44 76 70 58 84 89 67 156 183 142 191 207 168
129 102 83 106 33 27 163 40 45 173 23 34 187 29 43 197 36 51
175 21 33 146 27 29 128 75 59 69 58 28 87 94 60 102 120 82 79 71 68
91 89 77 131 141 116 164 166 142 118 90 79 111 51 51 138 43 49
144 12 25 196 23 43 199 21 37 172 21 26 126 28 17 97 72 42 79 100 57
118 156 105 137 184 130 73 65 62 91 87 78 104 105 89 111 105 89
108 88 77 118 84 75 92 39 33 124 34 33 172 28 37 181 30 37 149 34 29
105 43 22 83 85 48 143 185 139 147 200 148 149 208 152 68 64 53
84 80 68 101 97 85 101 98 83 113 112 92 106 106 80 59 63 28 109 89 56
141 70 50 126 47 30 79 34 13 84 77 49 150 180 146 163 213 175
150 203 161 144 200 155 77 75 60 87 84 69 99 92 82 105 102 87
109 117 93 99 119 82 86 116 66 88 102 51 101 65 31 106 62 33 85 76 47
76 95 65 167 211 178 153 209 174 164 216 180 104 156 118
