P3
#
16 16
255
129 128 100 93 92 64 54 53 25 53 49 22 68 62 36 61 54 28 49 38 16
49 43 19 40 38 13 42 48 20 36 51 20 32 51 19 49 66 34 71 84 54
74 80 52 58 61 34 110 113 82 81 82 51 51 47 18 51 46 17 70 58 32
67 55 29 58 46 22 61 54 28 61 60 32 46 51 21 48 57 26 63 77 44
67 81 48 60 71 39 71 76 46 89 94 64 78 88 53 65 71 37 56 51 19
74 60 31 99 79 52 100 80 53 90 75 46 93 82 52 86 81 49 72 72 38
78 77 46 91 92 60 80 81 50 55 58 27 64 69 37 95 102 69 69 71 34
73 67 31 88 65 34 118 81 54 146 100 76 140 94 70 120 83 56 117 86 57
97 72 41 106 81 50 111 84 55 103 76 49 90 64 37 83 63 36 82 71 43
85 78 49 93 73 38 105 72 39 126 68 44 155 78 58 177 88 70 164 75 57
133 58 35 123 57 31 108 47 19 127 63 36 135 63 41 125 50 31 124 52 37
131 70 52 120 75 54 97 63 38 117 79 43 130 75 44 151 63 43 176 63 49
197 69 58 185 59 45 155 46 26 141 45 21 140 46 21 145 46 25 154 42 28
160 43 33 164 53 44 156 62 50 133 65 46 116 59 39 133 79 43 149 74 45
173 58 40 200 56 47 222 64 55 213 57 45 181 46 27 167 45 21 169 49 25
170 43 24 183 39 30 191 42 36 188 45 41 171 48 41 145 56 40 136 61 42
141 83 45 158 77 47 187 62 44 214 60 48 238 67 57 224 56 43 185 41 17
166 35 5 165 37 8 180 46 21 198 44 32 198 36 31 188 36 31 177 49 40
159 66 49 147 72 51 125 76 33 158 86 48 191 75 50 206 59 41 215 52 35
210 51 29 194 60 25 194 72 33 185 69 30 170 47 13 185 43 21 193 45 31
178 40 29 170 54 39 154 76 53 133 73 45 137 89 43 154 85 44 172 61 31
183 43 18 200 46 22 206 55 24 196 67 27 195 80 33 189 81 34 167 54 12
173 44 13 183 51 28 181 58 40 176 75 55 150 83 56 117 66 35 141 84 41
162 88 49 181 72 41 189 55 26 200 52 22 199 55 20 187 62 16 184 73 20
182 78 25 184 79 31 200 84 47 192 77 48 164 58 34 148 60 36 140 80 52
133 88 57 144 79 39 176 96 59 201 94 60 200 76 42 196 59 23 186 53 12
180 62 12 188 81 25 200 104 46 183 88 34 166 68 23 152 56 18
141 54 24 137 63 36 121 70 41 106 65 35 159 83 49 182 98 62 197 94 59
195 79 42 195 72 31 198 76 29 205 94 39 219 119 59 227 137 75
200 118 60 163 83 32 136 62 17 133 68 30 138 82 49 131 87 58
122 87 57 152 79 44 167 89 53 176 88 50 190 93 50 214 112 64
227 126 72 224 132 69 223 140 72 223 153 84 212 151 84 175 123 63
139 93 41 128 91 46 132 103 63 140 116 82 152 132 99 128 70 32
140 81 39 150 88 41 169 103 51 200 130 71 208 139 74 193 129 57
179 123 46 182 139 61 159 130 52 112 95 23 82 77 11 98 97 41
107 111 61 95 100 59 90 95 55 118 69 28 128 80 34 131 81 32 135 84 27
152 98 34 156 103 33 149 97 21 142 100 18 119 91 8 124 109 26
93 96 17 60 73 1 56 74 12 53 73 20 50 67 22 58 75 33
