P3
#
16 16
255
94 141 86 107 138 94 70 72 51 67 61 45 65 79 46 79 95 59 72 77 47
64 62 37 51 49 26 49 54 24 44 65 22 28 49 6 35 44 17 52 57 34
40 56 29 35 56 25 96 141 86 101 129 88 54 56 35 76 70 54 60 69 38
93 101 62 80 72 35 66 51 18 48 41 13 66 66 38 87 99 59 68 83 42
63 72 41 49 59 32 35 54 22 56 80 44 99 137 86 86 113 72 74 75 57
75 68 52 73 72 42 111 102 59 128 93 39 103 66 14 68 48 15 90 83 55
129 125 90 76 78 41 39 49 14 39 55 19 49 74 32 53 82 36 110 137 92
55 72 36 75 72 55 81 66 47 88 69 26 129 98 34 177 120 43 168 108 35
113 73 22 88 59 17 113 82 35 81 60 15 36 36 0 37 51 15 49 70 29
29 55 10 83 94 60 56 61 31 79 70 53 95 70 39 145 103 31 209 149 53
211 137 32 186 108 8 201 136 52 174 112 35 167 98 20 130 75 10
55 37 0 47 51 24 40 46 18 20 29 0 66 64 43 66 60 38 86 68 46
109 74 34 176 123 43 202 133 30 227 142 33 204 119 13 183 109 22
193 118 37 215 127 38 192 119 42 86 53 8 50 43 15 23 25 1 25 30 7
56 46 37 70 53 37 106 70 44 117 70 28 106 55 0 191 128 48 219 139 42
178 97 8 122 56 0 136 67 12 203 115 41 189 110 35 110 64 12 63 45 5
29 35 1 26 42 13 55 44 38 80 57 39 131 82 42 146 85 30 119 61 0
127 61 0 225 141 55 192 106 29 138 68 16 124 52 2 202 109 39
175 87 15 138 78 24 79 48 2 48 43 3 41 49 10 51 47 35 83 62 33
154 96 33 198 123 42 157 82 1 145 64 0 234 137 60 154 58 0 170 91 22
155 72 4 201 94 24 190 86 23 146 72 23 84 35 0 89 63 14 69 53 2
57 56 38 88 70 34 159 105 33 209 136 44 203 124 31 205 119 32
203 110 33 152 58 0 183 98 17 189 100 18 179 71 0 176 68 4 104 20 0
115 54 9 152 111 57 109 78 21 60 57 38 80 66 31 142 108 37 201 147 57
186 118 19 210 134 38 192 114 32 142 64 0 163 82 0 223 136 43
219 123 39 191 94 23 117 28 0 134 63 11 165 116 58 126 90 28 65 58 40
74 63 33 113 92 37 159 122 42 169 110 6 204 134 23 212 142 46
138 69 0 172 103 12 197 126 38 177 101 23 149 71 0 150 69 6 163 93 34
153 110 55 130 101 45 69 55 42 85 74 56 93 86 58 115 93 35 187 135 26
223 154 24 225 157 34 181 120 14 122 73 0 92 51 0 96 52 0 109 59 0
156 92 21 180 122 58 75 47 0 58 44 5 71 54 44 83 71 59 91 85 73
93 77 41 175 134 46 208 155 43 223 172 63 158 115 21 79 50 0 73 52 0
87 65 16 88 58 4 117 78 11 173 139 76 52 38 1 23 21 0 74 60 49
80 67 58 87 72 65 93 76 58 109 82 39 122 97 41 76 61 6 84 75 20
79 67 17 77 65 17 73 60 16 73 60 15 70 63 11 77 73 26 22 22 0 17 20 3
80 68 56 88 74 65 80 62 58 79 60 53 86 68 46 67 58 29 49 52 23
57 64 30 128 125 82 66 59 13 66 57 16 62 59 18 63 70 26 53 65 27
14 22 1 22 28 16
