P3
#
16 16
255
61 71 44 65 74 43 81 82 50 92 88 51 86 72 33 67 48 8 68 40 3 77 48 14
94 65 35 110 87 56 91 76 45 51 47 10 39 46 4 46 64 14 48 76 18
46 77 17 63 68 46 72 76 51 83 82 51 89 81 44 91 74 31 89 66 22
89 60 16 91 58 15 94 62 23 112 84 47 100 80 45 66 57 18 47 48 6
45 57 9 40 60 7 32 57 0 58 56 43 74 71 52 89 80 51 95 81 42 110 88 39
126 97 41 125 90 32 113 74 15 95 56 1 115 79 27 116 88 41 91 70 27
63 51 9 49 46 5 38 44 0 29 38 0 65 56 47 73 61 47 82 67 38 98 75 33
125 96 40 153 115 50 158 116 42 149 103 28 128 79 10 144 99 34
153 112 56 128 94 46 87 59 19 60 40 3 48 35 0 39 29 0 85 67 63
80 61 47 88 62 35 112 81 35 146 106 44 170 124 46 182 128 42
183 126 36 179 119 33 184 125 47 194 136 72 170 119 64 116 71 29
81 43 7 70 36 8 60 30 4 88 63 56 96 69 52 121 88 55 158 118 67
188 141 71 198 142 57 193 130 35 187 119 22 191 118 24 180 108 24
190 120 50 184 118 60 142 81 36 111 57 21 101 50 21 85 38 12 84 55 37
106 74 49 139 100 59 169 122 66 197 141 66 210 146 58 204 130 35
190 110 13 177 92 0 153 67 0 164 80 8 183 101 41 165 89 39 145 76 34
129 63 28 100 37 4 92 59 28 111 75 39 124 82 32 130 79 16 156 94 17
195 125 37 214 133 41 210 121 29 180 86 0 144 49 0 155 61 0 186 96 34
183 98 44 168 88 39 139 65 20 97 26 0 87 54 9 114 78 28 112 70 10
126 73 5 128 65 0 170 95 12 234 148 63 198 106 23 186 86 8 166 65 0
161 62 0 175 81 19 173 84 26 146 64 6 122 46 0 119 44 0 82 49 0
120 85 27 135 91 26 143 90 20 123 60 0 141 65 0 200 115 35 181 88 11
169 68 0 175 74 6 178 80 17 174 80 18 163 78 14 148 69 3 128 53 0
112 42 0 89 58 1 127 95 34 155 114 48 171 121 50 148 86 11 145 74 0
188 106 30 180 89 16 176 81 13 181 86 22 190 98 35 203 115 52
205 126 60 188 115 47 146 79 8 110 46 0 95 68 15 122 91 34 153 115 52
188 141 71 187 129 55 182 115 36 203 126 48 195 112 36 176 88 17
160 73 6 165 81 17 191 113 49 197 126 62 167 104 37 133 76 7 119 65 0
81 58 17 100 73 28 131 98 44 175 134 68 192 140 65 192 131 48
203 136 49 205 131 46 172 95 15 157 81 5 148 75 6 145 77 12 124 66 3
105 53 0 115 69 9 141 100 38 67 46 19 85 61 27 118 87 41 152 114 52
169 123 46 175 121 33 190 130 34 210 146 49 189 122 31 174 108 22
144 82 7 111 56 0 95 46 0 99 58 2 114 78 26 123 91 42 72 50 37
85 60 40 106 78 41 128 93 37 151 110 31 166 120 26 188 135 31
219 163 54 197 140 35 162 106 11 117 65 0 94 47 0 96 56 0 102 68 20
93 65 25 78 54 16 82 61 56 83 60 46 93 67 34 110 79 24 146 107 30
176 132 35 194 146 36 224 173 58 206 152 43 152 100 0 103 55 0
92 50 0 92 57 1 83 54 10 79 55 19 84 63 32
