P3
#
16 16
255
58 69 27 63 71 32 79 78 50 56 62 28 40 64 16 33 63 13 35 55 18
33 47 21 17 29 9 23 35 15 17 32 9 30 36 8 74 59 26 96 63 10
146 100 14 186 133 29 66 70 37 77 76 45 82 75 49 90 84 52 79 78 30
65 67 17 48 48 10 29 32 1 32 41 14 20 30 3 25 35 0 40 42 3 77 65 27
60 37 0 126 90 14 188 147 59 81 68 52 91 76 57 97 75 54 105 72 41
126 78 30 160 109 56 111 73 28 53 31 0 47 49 9 37 46 0 57 52 0
56 50 0 50 48 0 62 58 11 59 46 0 98 79 23 90 70 61 88 66 52 100 72 50
113 68 35 141 67 20 151 70 15 148 79 24 109 62 6 66 51 0 55 48 0
167 143 57 130 102 18 75 56 0 74 63 9 46 41 0 43 39 2 82 65 49
95 77 57 86 62 34 120 78 40 130 56 7 168 79 19 183 97 24 149 78 0
92 50 0 159 123 27 223 167 54 220 157 43 159 101 4 140 98 24 44 33 0
15 21 0 76 63 47 101 84 64 104 83 52 139 98 54 176 105 43 146 60 0
207 125 41 169 96 2 193 135 35 182 124 16 236 159 41 225 142 24
216 134 26 169 109 23 58 44 0 43 53 19 73 65 54 81 68 51 88 68 33
162 123 66 198 127 45 174 100 5 140 85 0 127 77 0 216 156 44
198 125 14 201 112 18 158 65 0 230 142 36 219 156 63 81 64 12
41 48 14 87 78 69 87 76 58 98 82 49 139 104 50 179 117 32 214 146 49
156 109 21 178 131 39 211 149 38 205 128 20 192 104 17 159 68 0
221 135 36 188 129 39 62 49 0 41 51 14 88 79 64 84 76 57 89 78 56
94 71 30 133 83 14 191 129 46 183 121 46 144 83 0 207 143 43
178 109 6 177 102 11 198 122 36 185 111 22 139 90 11 82 80 23
40 62 15 97 85 71 98 89 72 70 63 44 75 60 29 106 70 20 182 128 64
173 109 38 159 93 15 162 107 25 140 89 6 141 88 12 190 136 62
178 128 55 109 78 11 61 64 11 56 73 29 100 85 78 100 88 76 90 85 65
86 79 53 112 88 64 116 74 34 176 116 44 193 136 59 113 78 22 73 50 6
84 60 14 106 86 36 101 90 36 80 74 24 74 72 34 68 69 37 107 90 82
109 97 83 94 92 69 90 88 65 104 90 77 118 88 64 165 116 57 164 118 56
106 82 48 56 44 22 74 64 37 118 113 83 72 76 41 82 86 53 78 72 48
77 66 48 109 96 79 100 92 71 104 104 78 89 89 65 96 87 72 112 93 76
119 88 57 135 105 71 97 75 54 88 72 57 93 80 63 89 81 60 93 88 68
70 64 48 71 58 50 72 57 54 94 81 62 104 96 73 84 87 56 93 96 67
82 77 58 88 75 59 112 96 73 115 97 75 98 80 66 91 75 62 98 85 69
87 75 61 96 86 74 77 64 56 76 58 56 74 56 56 103 90 74 98 92 68
93 101 62 90 101 61 84 83 55 90 84 60 108 101 73 109 102 74 88 77 59
89 77 61 101 85 70 95 79 64 91 75 62 88 70 60 75 57 47 78 60 50
102 88 75 107 101 77 98 109 67 78 91 45 85 86 55 82 78 51 89 86 55
85 81 52 81 75 53 91 82 65 91 75 60 96 78 64 99 79 68 90 70 59
81 62 48 77 58 44
