P3
#
16 16
255
75 75 21 67 63 2 77 64 0 99 76 0 143 106 17 167 120 30 160 99 16
166 102 28 158 93 35 107 51 0 108 64 19 101 75 26 88 79 22 87 97 28
74 97 15 76 106 18 83 78 23 75 65 4 82 63 0 100 71 0 148 106 20
183 129 41 175 113 30 180 112 37 173 108 44 128 69 13 117 71 21
99 69 17 80 70 9 89 96 26 93 112 31 102 130 45 79 62 6 91 69 9
113 82 15 124 85 10 162 110 27 194 132 47 194 123 41 201 128 51
180 110 40 151 90 25 138 90 28 106 74 13 83 68 3 91 92 22 102 114 38
113 135 53 103 71 14 139 103 43 175 130 65 168 114 44 168 105 28
176 105 25 171 93 11 181 103 21 200 124 46 200 134 56 195 143 68
166 128 57 133 113 42 126 119 47 125 131 59 127 139 65 122 72 11
159 105 43 193 132 69 181 112 47 173 94 27 174 90 17 167 80 1
178 92 7 182 102 13 206 137 46 211 154 65 188 146 62 154 127 48
126 112 39 114 109 43 106 106 42 150 82 19 162 91 29 173 97 37
162 81 18 171 81 19 184 89 21 177 81 4 185 93 6 187 104 8 220 148 48
220 161 61 205 159 65 174 142 59 136 114 41 120 106 45 112 103 46
198 113 48 187 99 36 177 84 25 159 63 5 165 65 6 174 72 8 165 63 0
175 79 0 187 101 0 217 143 36 207 144 38 195 146 44 168 130 45
123 94 24 107 86 31 102 84 36 195 98 30 184 85 20 178 75 16 164 59 2
169 62 6 177 71 9 178 74 1 199 103 17 205 119 18 232 158 49
215 153 44 203 154 52 180 140 55 129 96 29 113 85 37 109 84 44
188 81 11 189 82 14 186 78 16 177 68 11 167 56 1 167 58 0 180 78 6
193 98 16 206 124 25 217 146 42 215 156 52 189 139 44 152 111 32
125 91 30 115 84 40 111 82 48 183 72 0 190 79 8 191 82 17 180 70 9
162 53 0 156 52 0 167 70 1 179 92 13 200 123 33 198 132 36 187 131 38
160 114 28 130 91 22 108 75 21 96 64 26 86 57 27 190 80 5 200 92 19
206 99 29 196 91 25 181 79 15 175 80 14 186 99 30 198 120 46
196 127 49 178 119 39 151 102 25 127 84 15 109 74 18 101 70 24
93 64 32 85 58 31 183 76 0 193 87 11 200 98 23 198 100 27 193 100 30
193 109 39 198 121 53 198 129 62 195 136 70 168 117 54 135 90 33
110 72 23 101 70 26 100 74 39 101 75 48 99 75 49 189 88 8 198 99 18
206 111 31 211 122 42 211 129 53 205 131 58 185 120 54 166 107 49
170 120 71 148 105 63 122 86 50 106 75 46 98 72 45 94 72 48 93 73 48
91 74 48 210 115 33 221 129 46 229 143 58 229 149 64 220 148 64
197 134 57 160 105 40 128 78 27 113 71 33 104 68 42 99 67 52 98 72 59
95 73 59 86 69 51 80 65 42 78 64 38 200 111 29 217 131 46 224 144 55
207 136 46 182 118 30 155 100 18 126 78 12 102 62 13 82 47 19
76 46 35 79 53 52 86 64 66 87 69 65 78 64 53 70 59 37 68 58 31
189 103 20 209 127 41 213 136 46 185 116 23 146 87 0 125 74 0
118 74 9 113 76 31 97 65 42 85 58 51 80 55 61 81 62 68 78 62 63
69 56 47 61 53 32 60 53 25
