P3
#
16 16
255
184 92 45 176 66 17 222 78 25 214 80 27 143 67 18 110 83 38
128 140 100 126 159 114 126 153 102 100 110 57 82 63 20 90 46 7
122 56 24 161 71 45 157 42 23 156 29 14 181 110 58 190 96 45
211 77 26 207 83 32 119 55 7 77 59 13 99 111 73 120 145 106
156 173 131 149 150 108 132 104 65 116 70 36 109 54 23 132 55 27
168 54 30 155 23 2 149 117 58 165 105 51 174 59 14 141 34 0 116 79 27
81 81 31 93 100 66 98 104 78 107 105 84 163 142 121 154 108 84
141 91 64 143 110 79 137 82 51 188 73 42 203 58 27 115 113 52
121 91 37 129 46 2 151 66 27 102 68 22 91 76 35 126 102 74 125 98 79
145 117 105 130 88 76 148 72 56 139 64 43 142 102 76 128 77 46
185 76 43 210 73 37 114 128 75 110 107 56 98 60 13 120 65 26
112 57 27 141 76 54 154 71 53 159 80 65 129 73 58 132 66 52 166 50 37
171 54 37 139 69 44 134 70 42 172 77 45 180 70 37 96 118 72
120 132 84 105 99 49 103 72 28 121 59 36 150 58 45 171 53 39
156 45 28 127 50 34 127 41 26 179 41 28 203 60 44 194 95 72 157 82 53
174 99 67 152 78 43 59 75 38 63 78 35 56 69 15 91 81 32 119 63 38
169 76 61 182 59 41 170 48 27 122 29 12 114 14 0 169 27 13 203 53 36
198 76 52 167 81 48 117 69 31 106 78 38 55 69 34 44 61 19 45 70 13
56 58 8 105 49 22 165 65 49 230 101 82 202 69 50 138 22 9 145 27 15
177 37 20 240 98 76 213 87 62 158 72 39 83 58 17 91 97 51 58 72 36
39 57 15 37 67 13 60 64 14 154 93 65 192 86 70 191 59 44 176 33 19
172 33 26 191 54 44 171 39 18 197 71 46 192 78 52 149 72 42 91 79 37
38 60 11 41 59 19 64 87 41 97 132 76 67 77 25 146 98 62 158 64 38
173 48 30 186 44 30 190 44 31 203 62 45 187 61 36 169 61 33 142 58 30
127 81 48 76 79 36 40 68 20 22 49 4 28 57 9 100 138 81 96 117 60
125 105 54 133 71 30 158 53 24 174 46 21 207 72 43 166 36 4 150 32 2
177 92 61 121 87 52 119 117 79 71 86 45 35 58 14 66 104 53 55 94 41
91 132 72 57 85 24 123 121 62 120 78 28 201 106 74 179 54 26
212 79 46 205 81 47 122 22 0 159 100 68 113 111 72 85 112 69 50 77 32
35 61 16 35 85 26 91 139 79 77 122 57 61 92 25 96 101 37 116 79 27
197 102 70 172 43 21 196 56 31 184 63 36 127 53 24 125 96 62
116 133 91 91 129 80 86 123 72 93 130 78 30 76 14 76 122 58 92 134 68
74 106 41 73 89 27 110 93 41 128 64 29 157 63 37 146 40 16 127 37 11
115 74 42 89 87 49 150 177 132 131 173 123 99 138 91 91 131 81
57 85 24 46 76 14 72 108 47 76 111 53 61 92 35 79 96 44 112 107 65
104 84 47 112 79 44 124 100 62 96 97 55 112 134 87 111 145 95
150 189 142 142 178 142 96 131 98 59 77 15 44 68 8 64 95 38
101 138 84 69 108 55 73 107 56 103 129 82 90 107 63 85 90 49 67 76 33
41 63 16 51 83 33 99 137 86 79 118 73 79 112 81 11 43 19
