P3
#
16 16
255
49 49 41 45 45 33 57 56 38 65 61 34 86 75 43 87 65 26 135 98 56
143 92 49 139 71 34 110 36 1 150 75 46 137 70 44 122 65 45 102 61 41
85 58 41 61 42 25 63 63 53 58 59 45 64 63 42 69 64 35 91 77 40
101 76 35 156 113 68 166 109 64 164 93 49 117 38 0 140 60 25
152 79 47 135 75 47 110 66 39 95 65 39 95 73 49 47 50 33 54 57 36
69 68 40 87 79 43 109 90 47 127 93 45 175 124 71 181 114 61
184 103 50 142 54 4 143 55 9 159 78 35 138 73 31 131 79 39 114 76 37
114 85 45 46 49 28 56 58 34 71 66 36 92 78 41 111 82 38 131 88 37
173 110 56 180 101 44 184 91 34 181 82 27 166 69 18 160 72 22
137 65 17 158 100 52 130 88 40 97 63 15 81 83 62 83 78 56 76 65 37
93 69 35 98 56 14 121 60 13 162 82 29 177 82 28 183 76 22 207 96 41
191 84 32 179 83 32 158 78 29 175 111 63 139 91 43 90 50 1 91 84 66
91 78 59 89 65 41 119 82 53 117 61 24 127 52 10 154 59 13 168 60 11
186 68 20 204 83 36 192 80 34 197 96 52 181 100 57 161 96 54
130 81 40 98 56 14 77 59 45 85 59 44 98 61 42 156 102 78 151 77 48
145 52 18 151 42 3 163 41 2 179 51 12 181 57 19 173 59 23 181 82 50
173 94 63 121 60 31 104 59 30 91 54 27 87 58 40 89 54 34 101 53 30
166 101 73 157 72 41 146 43 8 149 29 0 162 34 0 160 32 0 163 41 4
152 43 10 146 55 26 142 72 47 82 30 8 78 41 22 67 38 20 84 48 16
111 68 34 142 83 49 156 82 43 162 69 26 165 57 11 168 46 0 164 38 0
169 47 0 144 33 0 148 52 14 136 60 28 121 65 40 62 26 4 57 34 18
68 52 37 103 65 18 146 102 53 176 116 66 171 95 43 178 83 27
200 91 32 201 85 24 180 64 3 163 53 0 152 55 0 160 82 33 142 83 41
116 77 44 58 38 11 55 47 26 65 64 44 136 102 39 150 111 46 176 121 56
194 124 54 202 114 42 203 103 27 208 105 26 216 115 35 203 111 34
178 102 27 160 103 36 133 94 37 116 98 50 89 86 45 85 92 59 82 95 65
131 106 40 129 98 31 157 110 40 196 134 61 206 129 51 194 107 27
203 113 27 227 141 54 217 143 56 189 133 50 153 115 40 116 95 28
98 93 37 85 93 46 76 92 55 64 86 50 82 69 14 107 88 30 146 112 51
177 127 64 198 134 63 206 134 58 207 132 51 201 133 48 209 153 68
210 169 87 188 166 90 145 138 70 99 104 48 77 93 46 63 83 46 55 79 45
57 55 17 75 67 28 120 97 55 169 133 85 199 147 90 197 137 74
187 127 55 182 129 53 166 125 46 167 140 63 139 129 58 107 109 46
68 78 28 61 77 38 45 64 34 35 55 30 60 68 57 52 54 40 83 70 53
139 113 88 169 126 92 156 107 64 148 98 47 158 113 54 150 118 57
138 120 58 100 95 39 84 90 42 67 79 41 83 97 71 67 81 64 52 68 57
57 71 72 60 66 64 69 62 56 86 64 50 111 75 53 129 86 52 129 84 43
118 80 31 123 96 41 123 110 55 102 100 51 95 104 61 73 84 54 81 94 74
63 76 67 56 68 64
