P3
#
16 16
255
55 37 25 104 86 72 75 54 35 81 60 41 63 41 28 65 43 30 74 47 36
77 51 24 97 70 17 97 63 2 101 55 5 90 47 5 95 69 34 68 60 23 51 63 17
48 68 17 65 49 36 70 54 39 56 39 21 70 51 34 68 49 35 70 50 39
80 58 47 88 61 31 117 82 14 193 146 68 173 107 46 107 45 0 110 73 29
50 37 0 52 61 14 59 79 30 49 39 27 46 34 18 55 44 24 59 46 27
75 59 46 69 52 44 83 64 57 92 62 24 183 133 38 233 160 47 247 143 56
216 119 50 150 94 35 86 64 14 100 103 56 38 55 10 42 30 16 60 48 34
58 46 30 69 56 40 68 54 43 76 58 46 87 65 51 116 79 34 222 157 53
234 141 22 236 113 20 190 68 0 183 93 30 135 84 29 66 59 13 39 54 11
63 44 30 71 51 40 67 47 38 80 61 54 78 60 50 76 55 38 96 65 34
144 93 36 219 140 48 219 115 18 211 88 11 209 75 12 195 62 3 143 46 0
79 55 11 53 65 25 84 61 47 63 39 27 79 56 50 79 59 52 92 74 64
81 55 30 133 87 37 176 112 41 200 115 35 178 78 0 181 71 10 210 85 29
208 64 4 193 80 22 103 72 25 72 83 41 91 68 54 69 45 33 81 57 47
83 63 52 90 74 58 103 73 35 183 119 45 218 136 50 171 91 18 143 63 4
153 75 27 152 60 11 199 77 12 213 116 48 102 79 25 62 76 27 93 70 52
82 61 42 83 61 47 88 69 54 96 81 60 109 77 30 202 129 37 218 130 30
187 108 33 157 82 25 145 72 27 149 68 15 182 76 2 192 109 31
101 85 26 37 55 3 102 83 53 58 41 13 92 78 52 82 67 44 93 75 51
106 68 19 208 136 36 235 149 38 206 125 36 150 67 0 161 72 16
178 84 23 191 91 6 203 133 47 85 79 17 32 61 7 108 94 59 57 45 7
98 89 50 72 60 22 97 81 47 107 72 16 209 146 43 228 147 30 233 147 48
170 78 0 189 85 14 182 80 8 203 113 25 179 125 37 69 71 6 51 82 25
86 83 42 75 73 25 138 132 74 100 91 32 111 99 47 111 86 20 186 137 35
226 155 39 231 141 31 214 108 6 218 100 12 195 89 5 201 127 40
114 77 0 71 78 11 49 77 16 89 93 43 101 104 49 113 112 47 130 127 60
97 91 33 96 81 16 146 119 28 177 132 29 215 143 43 217 128 34
218 118 30 205 119 36 181 130 51 78 60 0 74 85 17 66 92 27 89 94 38
89 95 35 102 109 42 84 86 23 77 71 21 110 105 50 113 119 45
124 122 45 114 85 19 131 90 26 142 95 27 152 114 43 128 108 39
75 72 5 57 72 5 58 83 17 100 108 48 88 98 37 69 79 16 78 88 28
76 83 31 118 128 75 131 152 87 94 110 47 56 50 0 84 70 21 82 72 13
81 75 13 86 91 27 69 79 16 56 75 11 70 92 27 69 83 22 56 70 9
55 69 10 70 88 30 105 133 72 131 160 96 108 129 62 77 87 26 91 87 39
60 56 9 82 87 33 76 90 31 70 90 27 70 92 28 73 93 30 68 88 25
68 86 24 59 77 17 73 86 32 95 116 59 114 153 88 102 142 72 84 105 38
120 128 68 101 99 50 62 61 15 57 71 18 53 77 19 60 88 27 74 103 39
65 85 24 49 67 7
