P3
#
16 16
255
105 111 37 100 103 32 100 101 33 88 87 23 100 97 42 97 100 47
69 78 31 82 104 57 71 105 55 61 103 53 44 86 38 41 80 33 51 80 34
34 52 10 16 24 0 25 27 0 83 84 8 102 100 26 127 120 50 119 110 45
118 108 49 106 99 44 75 78 25 83 97 44 60 87 36 55 89 38 48 85 34
47 80 33 50 77 32 40 57 15 25 31 0 20 22 0 118 105 26 132 116 38
144 125 49 136 113 43 138 113 47 128 107 44 92 78 17 76 74 15
66 75 18 52 71 16 49 73 21 52 76 28 50 68 26 47 59 21 37 43 9 22 23 0
161 139 56 165 140 58 160 129 49 141 105 29 137 99 26 140 103 32
125 95 25 108 88 19 98 89 24 61 61 1 52 60 3 59 71 21 55 63 22
49 57 20 47 48 17 30 30 2 154 122 37 173 138 54 177 137 52 158 111 29
139 87 4 147 95 12 170 122 40 175 134 54 141 112 36 88 68 0 69 59 0
83 80 25 77 74 31 58 58 22 49 45 18 35 33 8 136 104 21 154 118 34
163 118 33 166 114 28 158 98 10 167 106 15 200 139 48 198 143 52
178 130 45 132 95 15 111 84 13 118 99 40 107 95 47 76 66 30 51 44 15
41 35 9 128 101 24 127 96 16 126 88 5 150 103 15 162 103 9 178 114 16
214 146 45 204 136 35 207 147 49 190 136 46 163 121 39 144 111 42
125 103 46 95 78 34 65 52 17 55 46 15 106 89 20 103 83 12 104 75 0
130 93 5 140 87 0 163 101 0 222 154 45 231 159 49 226 158 51
232 168 68 199 145 55 154 111 33 131 100 36 106 85 32 78 63 20
70 61 20 87 86 29 89 85 22 73 61 0 133 108 26 127 88 0 158 107 2
232 169 56 227 158 41 233 162 48 254 186 77 209 149 51 178 128 41
123 87 13 105 79 18 85 69 17 80 70 19 71 85 36 70 79 26 64 64 0
106 94 18 142 115 24 178 137 32 212 156 43 227 162 44 229 158 42
255 186 74 245 182 79 197 146 54 153 116 36 94 70 0 83 71 11 71 66 8
56 78 39 61 80 34 64 75 17 68 68 0 148 134 46 206 177 77 211 168 56
229 172 56 234 169 53 235 169 56 252 193 89 220 171 78 199 167 84
84 66 0 66 61 0 52 54 0 36 61 29 56 78 39 64 78 27 44 49 0 130 124 40
205 185 88 231 194 87 227 177 64 230 170 56 196 136 26 213 158 57
222 179 87 227 200 119 93 81 9 58 60 0 46 56 0 25 44 16 40 57 21
50 64 15 57 63 1 117 111 33 169 152 60 226 194 93 215 173 65
207 154 48 181 128 24 179 130 37 195 159 75 196 178 104 103 102 37
67 81 20 57 78 21 32 42 15 28 39 5 43 50 6 84 88 29 120 114 38
133 117 29 182 154 57 200 161 60 194 146 46 209 160 65 190 148 62
170 141 63 141 131 62 96 102 42 68 91 37 50 83 30 44 44 18 40 41 9
46 47 3 77 75 16 108 100 27 121 105 20 121 95 2 170 134 38 189 144 51
221 175 87 209 170 91 171 147 77 127 123 62 76 90 37 51 83 36
28 70 24 44 40 13 55 52 19 51 48 3 39 34 0 79 71 0 122 106 21 76 49 0
139 103 9 178 134 45 200 155 72 204 168 92 183 162 95 152 149 94
71 89 41 38 75 31 19 66 24
