P3
#
16 16
255
96 123 108 30 60 36 57 94 51 50 92 44 54 95 55 43 83 48 52 83 52
36 63 32 41 62 29 59 84 45 62 95 50 71 110 66 22 59 26 75 112 81
41 75 42 42 74 37 91 115 99 36 64 39 79 111 74 78 113 71 39 73 38
33 64 32 37 64 33 35 60 28 48 69 36 74 99 60 41 72 30 61 98 55
40 77 43 88 123 91 39 68 38 13 38 8 68 92 70 46 70 44 66 91 62
58 81 52 48 67 39 40 56 29 27 46 16 42 63 30 46 68 32 30 54 18
36 64 26 57 89 50 46 84 45 77 111 76 22 40 18 19 30 13 40 58 34
36 54 30 50 68 44 52 66 40 48 55 24 61 63 23 58 59 2 74 80 20
58 75 23 52 75 31 65 91 52 59 89 53 51 86 46 52 82 48 15 28 10
26 32 20 67 75 54 59 68 47 53 65 43 58 67 36 66 68 19 101 93 18
215 192 80 198 178 63 90 96 10 54 74 11 48 74 29 41 68 33 52 80 42
31 55 23 21 36 17 31 42 28 67 67 41 56 58 34 64 69 47 54 59 29
66 70 20 140 132 51 229 197 74 221 188 59 156 148 49 83 87 11
63 71 12 35 48 4 57 77 40 18 38 10 32 45 27 32 43 29 126 122 84
73 70 37 65 64 43 84 87 66 65 76 42 98 99 42 202 177 87 216 182 82
121 96 3 134 110 24 170 143 64 76 61 0 56 67 27 27 46 24 20 33 16
41 49 36 70 68 29 76 76 42 80 79 59 65 69 52 63 78 49 95 103 54
91 71 0 136 104 19 146 112 23 197 160 69 207 164 72 116 90 13
47 58 15 27 51 27 25 38 21 35 41 29 68 77 48 58 66 42 78 84 70
70 77 59 78 92 56 97 104 52 104 89 20 139 112 33 143 111 26
170 135 43 177 141 45 85 68 0 74 94 43 46 77 46 31 44 27 43 46 35
63 79 50 57 75 49 64 81 63 84 98 73 111 120 75 126 122 61 164 141 71
150 115 31 151 109 9 170 128 20 225 189 77 118 101 9 76 93 41
59 83 59 37 45 30 45 47 36 89 114 72 57 85 45 66 101 69 87 113 74
108 106 49 158 134 62 159 116 37 185 131 31 222 163 33 242 187 43
243 198 57 186 159 52 71 68 25 46 52 40 62 62 52 60 56 47 77 109 59
48 84 36 108 149 109 95 124 80 84 85 27 141 122 54 168 135 64
145 102 10 243 190 60 235 188 40 228 195 54 148 129 26 68 63 25
54 55 49 80 77 70 66 63 54 67 106 51 86 124 73 83 115 74 41 67 28
72 91 45 93 107 58 57 64 22 91 87 26 210 188 87 215 194 77 198 192 82
113 116 35 82 87 55 76 81 74 66 72 60 70 74 60 75 115 53 82 120 61
75 107 58 57 86 42 65 96 52 57 88 47 58 85 54 88 103 64 95 90 24
101 94 14 99 107 32 70 83 27 65 75 51 67 75 64 67 73 59 77 84 68
100 136 66 85 122 53 76 112 50 74 109 51 69 106 54 55 88 43 72 97 65
87 101 75 86 85 55 108 103 71 85 91 53 75 86 54 81 90 73 78 84 72
63 67 50 67 70 51 92 126 52 85 121 49 73 110 41 74 113 50 79 118 61
81 114 67 78 103 71 80 94 71 94 94 84 92 90 78 99 103 86 85 94 73
72 80 67 82 88 74 84 87 70 79 81 60
