P3
#
16 16
255
58 55 4 68 67 13 72 75 18 75 84 27 94 106 56 132 118 73 162 82 45
135 54 9 107 87 24 89 89 25 101 80 33 95 76 33 63 62 8 66 80 21
66 90 30 58 86 27 51 50 2 94 97 44 84 88 29 88 92 33 63 70 18
102 75 30 144 54 19 150 51 10 123 71 13 112 86 27 97 76 29 75 64 18
56 64 7 47 67 6 57 81 23 46 74 15 33 42 0 58 66 17 59 60 0 70 66 3
91 82 27 129 82 38 182 68 34 183 44 11 203 84 41 159 79 30 92 69 19
61 71 18 44 68 8 43 71 10 52 80 22 38 63 6 26 43 1 50 64 15 62 71 8
96 95 30 82 71 15 133 81 34 206 82 48 182 25 0 179 32 0 163 62 10
115 90 34 54 72 12 56 82 21 62 92 32 41 64 12 44 64 15 89 112 66
63 86 34 60 81 14 93 106 37 98 99 39 104 61 10 177 55 14 187 34 0
212 75 21 186 90 29 111 84 17 62 73 7 67 85 27 121 139 89 44 56 16
54 64 29 146 169 117 111 135 77 62 85 17 79 92 23 105 99 39 130 80 27
202 84 34 219 74 21 214 82 20 182 83 15 154 107 35 89 79 8 44 52 0
118 134 87 59 69 32 44 51 17 112 131 67 109 128 62 56 76 5 104 107 40
159 126 72 147 76 22 209 94 31 231 96 28 219 86 19 234 120 50
181 99 25 122 78 7 74 72 13 83 101 51 70 83 39 75 86 44 81 98 28
103 118 49 111 123 57 110 100 41 149 97 49 158 70 20 209 90 24
211 80 8 212 87 20 210 99 30 222 131 58 144 91 21 94 89 33 63 81 33
66 79 33 66 78 32 94 114 45 112 127 60 132 135 78 90 67 17 107 39 0
172 71 29 218 89 31 216 84 19 216 104 40 150 58 0 174 104 35
136 96 34 89 89 39 78 94 49 78 87 40 67 74 23 122 143 74 97 112 47
100 101 44 96 72 24 92 30 0 174 78 40 210 86 35 211 82 24 187 70 16
172 81 24 150 95 31 106 84 24 121 127 79 47 64 19 78 88 36 61 68 14
127 150 82 104 123 57 110 120 59 112 105 51 94 57 15 137 68 29
177 72 27 204 78 30 190 51 8 183 73 24 135 93 33 72 73 13 149 167 115
52 74 25 71 86 31 75 84 27 103 122 58 113 129 66 55 67 5 101 100 44
114 89 48 123 75 37 133 60 19 165 68 25 191 68 26 165 67 20 107 81 24
73 87 28 135 160 105 98 122 70 57 72 17 69 80 22 104 115 57
112 121 64 59 64 6 125 119 69 73 51 14 84 54 18 131 102 58 104 62 14
151 83 34 128 71 18 103 94 39 75 92 37 83 108 53 101 124 72 52 66 13
77 87 34 92 102 49 63 72 17 70 75 19 97 94 43 98 79 39 94 75 35
151 143 96 82 72 19 96 71 17 97 76 21 82 85 28 87 106 50 78 103 46
56 79 23 57 74 19 47 60 6 85 106 50 62 79 24 69 78 21 101 100 46
84 68 19 89 71 23 118 111 57 120 119 63 85 93 34 75 86 26 59 73 14
86 104 44 61 85 25 41 67 6 78 98 37 87 105 43 92 117 60 66 87 30
63 74 16 112 113 56 88 75 22 89 73 21 109 100 45 82 87 29 89 110 51
60 88 27 61 79 19 95 113 51 69 93 31 49 75 10 70 92 28 73 94 29
