P3
#
16 16
255
33 28 22 29 30 14 36 48 12 70 85 42 41 48 15 41 53 13 63 88 31
66 87 28 45 40 2 78 61 31 70 54 28 51 36 13 47 33 22 56 43 35
62 45 37 44 27 19 21 16 10 36 37 21 27 38 4 53 68 27 47 57 22 26 37 0
63 79 14 100 108 35 81 60 0 94 64 12 101 83 43 78 67 39 60 48 34
52 39 31 59 45 36 49 35 26 19 16 7 35 38 21 34 45 15 28 44 7 44 59 20
36 46 0 77 79 0 165 146 43 209 156 44 199 145 45 127 108 40 74 71 30
78 70 51 43 33 24 53 43 33 48 35 26 37 33 21 24 26 5 47 58 24 30 45 2
48 62 11 71 72 4 102 82 0 212 166 46 235 156 27 222 145 27 130 88 2
82 60 3 85 66 34 57 42 23 45 33 17 40 31 14 34 29 10 27 27 1 40 49 6
79 90 32 90 97 27 108 97 7 167 119 8 224 148 26 232 137 17 229 131 22
222 137 44 168 100 25 116 70 20 89 61 24 68 51 23 51 41 14 32 27 8
48 48 22 67 79 33 80 91 25 104 102 15 190 161 57 233 166 49
232 139 20 213 112 0 216 107 4 215 100 11 203 101 26 150 80 20
102 60 12 83 63 26 61 52 19 28 20 9 40 39 18 59 74 35 69 78 13
131 113 13 215 168 54 219 138 30 220 122 13 206 104 0 229 115 18
178 47 0 213 90 31 177 87 27 108 53 0 72 51 6 79 77 38 34 26 15
34 33 13 38 49 15 55 53 0 151 111 13 213 143 32 198 106 7 227 129 32
237 140 43 246 140 54 196 61 3 184 57 6 181 91 31 141 89 29 94 78 29
95 96 52 31 23 10 29 24 5 47 48 17 77 57 6 178 110 27 234 137 42
192 90 5 221 124 45 225 146 69 178 86 19 162 32 0 203 81 32
177 105 47 113 78 20 95 85 34 119 121 74 36 30 16 32 26 4 46 36 1
112 72 20 187 93 23 206 84 7 169 51 0 220 115 50 108 29 0 103 15 0
169 40 0 211 90 45 135 74 17 94 74 13 72 69 16 118 125 74 20 16 4
51 41 16 106 83 33 147 87 24 178 60 0 186 40 0 222 79 23 210 86 35
136 44 5 105 8 0 173 34 1 190 64 23 151 95 34 98 87 21 91 97 37
104 117 61 18 19 5 42 35 7 86 63 9 139 78 15 186 63 4 211 60 5
202 53 0 214 84 32 140 44 6 119 22 0 173 37 11 168 50 14 125 79 20
111 108 41 73 85 23 90 110 49 27 30 9 66 65 37 53 41 0 117 72 17
211 107 44 203 68 0 201 63 0 234 111 43 153 62 9 120 31 0 161 41 17
126 25 0 118 87 33 101 110 45 67 85 23 73 97 37 42 51 24 46 53 22
32 34 0 91 68 16 205 132 64 171 74 0 190 90 5 227 137 59 165 101 39
137 76 31 128 48 21 118 55 24 112 99 47 89 103 42 71 93 31 63 89 26
51 64 34 31 45 10 25 40 0 74 74 20 130 102 29 174 133 51 170 132 47
133 104 24 113 97 35 109 99 50 86 74 34 91 88 47 75 83 32 88 108 49
66 90 28 85 111 46 39 54 21 38 56 18 40 58 16 69 82 26 100 94 20
108 96 12 102 96 8 83 84 4 58 67 4 52 69 17 61 84 38 64 90 43
83 103 54 83 104 47 61 85 23 95 122 55
