P3
#
16 16
255
29 65 19 32 63 19 60 83 41 16 31 0 9 18 0 32 46 21 61 90 42 43 76 21
48 72 24 63 76 33 49 45 7 47 41 5 49 51 14 43 33 0 77 33 0 99 39 2
22 50 2 31 57 12 57 78 37 24 39 6 7 17 0 44 59 30 76 102 55 58 83 28
51 64 11 70 69 15 116 95 40 62 39 0 46 38 0 41 22 0 101 43 5
159 84 44 43 52 5 44 55 12 62 77 38 41 56 23 19 32 4 75 89 56
85 100 57 64 71 19 60 52 0 131 101 29 204 144 58 133 72 0 59 29 0
77 37 0 144 57 14 158 49 6 85 66 7 111 98 43 93 92 46 69 74 33
55 60 19 106 108 61 112 102 49 117 97 38 140 110 46 151 98 20
202 113 13 243 151 52 164 107 30 118 56 0 176 70 20 188 60 15
134 78 0 153 105 29 137 109 44 99 83 23 86 72 7 156 131 64 161 112 43
174 117 46 150 101 35 125 57 0 218 107 15 235 115 18 221 130 41
163 73 0 178 59 3 189 57 9 201 116 25 217 141 55 143 87 10 116 69 0
113 69 0 164 109 29 209 132 50 178 97 18 143 75 4 158 76 2 232 113 23
240 113 18 243 142 54 182 89 12 166 63 4 169 61 12 201 101 13
197 101 14 200 111 29 178 93 13 166 79 2 207 115 38 224 128 42
173 79 0 189 104 24 213 120 42 241 126 37 228 114 26 204 113 42
140 69 7 116 55 1 81 25 0 189 77 0 191 79 0 212 101 11 199 87 1
181 69 0 201 90 18 243 135 47 195 96 5 166 75 0 211 119 36 212 104 13
223 119 34 134 53 0 135 75 23 120 83 30 68 43 0 177 54 0 214 90 4
243 119 19 217 94 0 209 90 24 193 78 15 236 124 38 225 124 32
147 64 0 207 125 43 203 103 7 222 124 35 119 45 0 136 84 34 105 76 20
57 38 0 184 66 0 209 88 9 255 128 35 240 112 25 196 73 13 176 60 0
236 124 40 198 100 11 117 40 0 168 94 19 211 114 20 240 142 51
171 93 27 142 87 31 132 98 37 61 40 0 173 76 7 166 61 0 222 101 30
202 77 11 166 45 0 199 83 22 225 116 34 193 100 20 125 57 0 132 62 0
180 80 0 217 111 23 176 88 14 156 87 20 173 124 57 60 21 0 140 81 21
135 65 6 175 79 21 167 60 6 164 63 11 183 83 24 219 119 41 174 89 9
110 51 0 118 59 0 198 107 24 233 132 44 157 64 0 167 90 22 184 131 65
69 30 0 72 74 27 86 68 20 155 97 47 158 84 35 129 65 19 142 73 18
186 103 25 176 99 17 123 79 8 134 92 20 202 135 46 206 121 31
132 39 0 174 95 36 155 113 55 76 54 0 63 73 36 78 74 36 80 51 9
71 33 0 104 71 26 112 75 22 164 105 37 166 112 38 112 87 20 63 44 0
112 75 0 128 76 0 125 59 0 133 77 26 69 45 0 73 65 19 89 60 26
50 27 0 35 24 0 23 19 0 48 46 0 94 84 31 88 66 16 90 70 20 48 50 0
54 64 12 56 58 9 33 31 0 48 37 0 44 35 0 43 39 10 35 37 13 105 56 24
58 25 0 26 25 0 24 38 3 30 42 0 52 59 7 47 42 2 56 54 16 40 55 12
45 68 26 56 80 44 23 45 9 27 45 7 22 36 1 24 33 12 13 19 5
