P3
#
16 16
255
53 71 19 50 68 16 53 69 22 50 66 19 40 53 9 65 77 29 71 80 25
69 83 21 56 81 13 60 91 21 44 73 6 41 62 3 79 88 41 41 50 5 41 59 11
44 68 16 52 73 16 36 55 0 40 58 8 37 53 6 42 56 5 52 65 9 45 51 0
74 85 17 63 89 16 39 71 0 57 86 20 67 88 29 56 68 20 30 42 0 35 55 4
43 67 15 47 72 4 63 87 25 48 66 16 39 57 7 56 74 12 66 79 9 67 70 0
85 92 14 71 95 19 70 102 29 52 78 13 51 72 15 53 70 18 56 72 23
31 51 0 48 71 19 75 97 24 77 98 31 64 79 24 42 56 0 74 83 2
137 139 40 165 152 47 117 106 0 73 80 0 63 79 0 45 65 0 44 64 5
36 57 1 39 62 10 38 61 9 51 75 23 114 124 53 92 102 33 80 89 24
52 55 0 75 67 0 220 200 65 241 204 51 227 188 31 178 150 6 166 152 30
69 74 0 40 58 0 46 71 14 30 58 7 39 66 15 44 71 20 137 116 49 94 77 8
106 99 27 115 105 16 212 186 67 241 200 56 249 200 35 250 198 26
241 194 28 231 203 60 144 140 43 34 47 0 31 57 0 36 65 9 37 61 9
44 69 14 143 74 15 110 55 0 129 100 24 176 151 59 219 176 63
195 142 12 187 131 0 233 182 31 245 201 32 238 209 55 182 171 63
49 56 0 36 55 0 34 60 0 65 86 29 69 89 30 167 82 18 119 52 0 95 61 0
190 164 79 221 175 77 138 84 0 144 89 0 218 166 31 216 169 3
230 198 37 139 126 12 59 63 0 55 75 4 50 74 12 49 70 11 57 78 21
172 104 23 113 61 0 80 60 0 132 119 51 140 108 35 136 91 8 138 85 0
191 137 15 248 194 33 226 188 29 141 127 18 60 68 0 47 71 0 51 81 17
50 78 20 40 67 14 188 138 43 100 60 0 78 59 0 95 77 13 139 99 27
147 92 10 149 88 0 191 130 13 245 190 38 222 186 38 122 114 13
69 83 6 51 79 5 59 91 26 53 84 27 47 77 25 209 178 70 116 88 0
87 60 0 160 121 42 209 140 45 212 127 21 183 98 0 207 132 13
233 181 46 197 173 49 89 98 9 57 87 15 63 96 25 55 90 24 47 80 23
61 94 39 192 171 62 97 75 0 93 70 0 172 132 47 210 137 26 239 149 26
237 151 32 212 142 28 175 137 30 81 72 0 86 103 32 57 92 28 37 74 5
33 70 3 22 55 0 54 87 34 188 169 66 118 101 9 84 74 3 131 108 28
210 156 32 223 156 15 224 156 29 206 154 52 94 77 8 45 52 1 66 86 35
39 70 13 30 69 4 29 68 3 27 60 5 30 60 10 150 140 53 74 67 0 72 70 13
80 69 3 166 131 29 211 166 47 194 152 42 143 115 31 67 60 18 46 55 26
47 65 23 46 73 20 41 74 17 34 67 12 33 62 14 50 77 34 64 75 15
62 71 18 53 55 18 55 49 13 71 50 3 114 93 36 101 90 24 79 74 18
56 51 21 43 43 17 39 55 10 53 76 22 57 79 32 56 77 36 44 66 30
47 68 35 31 53 7 50 66 27 48 52 25 56 51 31 42 29 10 60 50 23
71 77 33 40 47 5 58 52 28 55 51 26 57 71 22 70 91 35 70 85 44
58 74 38 61 77 48 38 57 29
