P3
#
16 16
255
48 46 25 40 39 18 28 28 4 47 49 25 52 54 32 50 49 29 55 49 37
51 43 30 41 36 17 54 59 27 54 78 26 50 75 17 56 63 9 80 83 36
58 70 34 24 41 9 29 35 9 50 54 29 37 39 17 38 40 18 53 57 34 52 54 32
43 40 23 43 37 21 45 40 21 49 52 21 34 50 1 45 63 5 81 86 30 65 69 19
54 68 32 21 40 8 34 59 20 43 60 26 30 34 11 41 43 22 52 62 35
37 46 19 27 27 3 39 34 14 49 48 28 36 36 10 59 60 16 94 95 38
96 96 36 82 87 33 39 55 18 18 39 8 48 71 19 54 68 17 37 34 0 66 58 11
69 69 15 42 43 0 81 75 15 58 52 0 37 41 8 47 52 20 61 58 15 94 91 38
111 111 49 72 80 21 36 58 12 8 36 0 49 52 0 126 123 46 120 99 10
96 71 0 118 97 0 159 139 26 204 182 60 116 103 0 49 59 0 32 49 5
32 39 0 79 81 31 99 101 38 71 81 18 38 65 10 24 61 9 44 42 0
183 170 74 203 170 54 204 163 35 203 165 38 209 175 41 208 176 29
200 180 45 104 106 9 57 69 0 53 61 1 68 76 19 55 60 2 54 68 9 26 55 0
29 66 12 53 53 0 189 176 72 227 187 56 234 182 44 195 145 24
188 144 23 179 142 9 215 186 48 192 168 36 130 118 0 70 70 0 68 78 9
40 50 0 36 53 11 38 65 24 21 54 11 56 65 0 112 104 5 226 186 54
213 159 24 149 101 0 169 127 19 177 138 11 216 178 35 230 192 33
232 202 52 192 183 66 51 56 0 66 76 26 39 54 21 45 69 33 39 67 29
45 66 0 60 64 0 221 189 70 171 127 6 128 97 4 140 112 15 185 144 16
231 185 30 243 197 23 245 209 37 219 200 59 81 76 0 39 44 0 24 37 7
40 57 21 44 66 28 44 67 0 71 75 0 190 154 40 171 123 12 128 97 15
146 116 30 183 138 13 228 175 17 249 199 14 241 202 19 228 206 58
112 105 0 57 64 10 24 39 8 26 41 8 36 53 17 58 72 0 109 104 13
194 144 29 196 133 20 158 109 32 146 101 20 185 133 15 210 155 0
251 200 13 254 214 31 228 211 71 108 108 12 66 79 26 34 50 21
36 53 21 25 40 9 66 74 0 144 130 42 208 155 39 219 150 33 163 107 14
161 108 12 209 151 25 240 184 25 249 198 9 247 207 31 169 154 29
49 53 0 47 64 12 48 73 34 38 58 23 20 40 3 52 52 0 123 108 27
203 153 42 204 143 16 193 139 15 196 143 11 231 174 23 243 189 18
248 201 10 236 202 34 164 150 43 48 54 0 38 59 3 54 84 34 48 77 29
19 49 0 54 57 2 81 72 3 113 78 0 185 140 25 191 146 17 204 157 15
230 179 28 238 190 30 245 206 41 220 194 55 104 98 12 18 27 0 20 45 0
44 74 22 46 79 26 37 70 15 41 54 8 67 74 22 65 55 0 110 89 8
194 166 57 203 167 44 219 180 53 171 135 12 178 151 38 139 126 34
42 48 0 37 56 11 30 53 7 41 69 21 30 56 8 37 64 13 69 87 45 90 103 60
70 73 28 87 79 16 99 76 0 166 137 20 196 163 48 143 112 6 148 128 41
100 95 27 78 90 44 70 92 53 58 83 43 46 72 27 33 57 9 48 72 22
