P3
#
16 16
255
71 60 15 99 83 31 135 105 41 160 120 35 213 156 53 239 173 50
235 162 24 242 168 21 230 163 14 229 168 26 220 170 45 201 160 55
165 134 54 131 106 49 115 93 52 112 93 61 64 58 6 84 72 14 107 83 13
157 121 35 202 149 45 228 166 45 233 164 27 240 168 24 239 171 26
233 171 34 213 161 41 184 140 41 154 118 42 135 105 51 124 98 63
120 96 68 56 58 0 71 68 0 83 67 0 168 142 49 191 147 40 209 153 34
224 159 29 229 161 26 225 157 22 214 150 24 195 139 28 174 125 33
161 116 49 149 111 64 135 100 72 124 89 70 54 64 0 74 78 2 85 78 0
191 170 79 185 150 48 190 140 29 217 158 38 230 166 42 232 166 43
196 131 15 157 98 0 145 89 4 143 92 27 136 89 43 125 81 52 119 77 55
33 45 0 58 66 0 71 68 0 168 153 70 147 117 29 148 105 10 192 139 35
226 165 58 210 146 36 170 106 0 150 87 0 173 112 29 187 132 65
169 118 65 144 95 55 134 88 54 32 39 0 54 57 0 64 59 0 127 112 43
115 87 14 124 85 6 174 126 41 225 170 77 204 144 46 173 111 12
168 105 10 199 139 51 215 159 82 190 137 71 157 108 52 147 99 50
62 57 1 74 67 12 81 69 17 104 87 35 112 85 32 127 91 33 160 115 48
207 155 79 227 171 84 199 140 48 172 114 17 166 110 15 165 111 21
158 107 24 153 107 30 156 112 39 64 47 0 69 52 0 74 53 6 71 48 4
94 65 23 104 70 24 112 71 17 145 100 35 171 118 42 179 123 36
183 127 34 183 129 31 186 136 41 193 146 56 193 151 65 191 150 68
127 97 27 96 66 2 75 45 0 78 50 2 85 56 16 87 54 13 99 63 15
119 78 22 142 93 26 167 116 37 175 124 35 166 115 23 171 124 32
190 146 59 185 147 64 165 130 49 200 159 71 163 125 42 119 84 16
108 77 20 82 54 7 76 47 5 82 49 4 110 73 21 111 67 6 140 92 20
154 103 22 141 90 7 127 80 0 130 87 9 133 95 24 128 93 25 192 142 29
196 152 45 189 152 63 178 146 71 119 93 36 80 57 7 65 37 0 85 52 1
113 73 14 142 94 30 158 105 35 146 92 22 127 76 11 125 76 17
127 84 33 127 87 38 197 143 17 207 158 40 200 162 61 157 126 44
108 87 22 77 57 4 80 58 9 89 61 11 115 76 19 147 99 35 164 109 42
158 99 33 153 94 36 159 103 52 153 102 59 137 87 50 232 178 52
216 169 51 189 154 54 108 81 0 91 73 11 71 58 6 92 76 25 80 57 5
114 78 16 164 115 48 192 132 60 183 119 47 183 115 52 194 129 75
183 120 76 153 94 54 222 169 55 216 169 63 198 164 74 121 99 26
98 85 30 71 63 16 91 79 31 83 63 10 124 89 23 185 136 60 226 163 83
221 150 68 208 134 59 209 136 68 197 126 70 174 104 53 203 150 58
184 138 52 150 117 46 116 97 41 84 75 32 76 71 33 88 79 36 111 94 40
120 86 15 168 117 34 210 145 51 222 148 51 212 133 40 198 118 31
181 104 26 167 91 16 182 130 47 133 87 12 69 39 0 100 82 34 87 81 45
100 97 64 71 63 24 85 68 16 120 86 14 143 93 4 181 113 14 213 136 30
218 136 34 196 114 15 170 89 0 159 79 0
