P3
#
16 16
255
38 63 0 37 63 0 39 68 14 45 75 25 45 72 27 41 64 12 41 56 0 48 53 0
73 65 0 71 58 0 122 102 0 128 110 0 86 71 0 104 95 16 66 64 3
64 64 12 33 58 0 57 83 18 63 90 35 48 76 25 47 73 25 65 86 30
69 80 12 58 60 0 81 72 0 147 130 14 188 168 47 146 125 10 105 87 0
154 142 58 117 112 44 62 60 1 64 87 19 61 86 21 55 80 22 48 71 17
45 66 10 56 72 10 81 88 11 107 102 10 113 100 0 189 167 45 221 194 65
191 163 38 156 132 22 169 150 55 127 114 35 70 60 0 50 71 4 40 61 0
38 58 0 44 64 3 47 61 0 51 61 0 81 79 0 118 106 4 153 133 12
200 172 39 217 183 47 223 189 55 207 177 53 169 143 32 118 98 1
75 58 0 53 73 4 59 76 8 50 66 1 40 53 0 58 66 0 103 105 22 148 138 41
169 149 36 190 161 31 225 188 47 229 189 42 225 183 37 227 188 51
202 167 41 155 124 8 98 70 0 54 69 0 45 58 0 39 51 0 56 63 0 97 96 13
145 136 43 184 166 58 208 180 57 223 186 46 226 182 33 233 187 32
224 175 21 235 189 42 226 183 44 197 157 26 156 118 0 73 84 15
53 63 0 71 75 0 131 131 45 186 177 82 202 185 79 208 182 61
221 184 51 222 178 30 191 142 0 227 175 14 230 176 16 237 184 30
226 176 27 214 167 25 211 166 25 85 93 20 68 72 0 58 57 0 85 76 0
143 126 20 193 168 49 208 174 41 202 160 16 191 141 0 168 115 0
234 179 18 226 170 11 225 170 15 231 177 25 227 175 27 226 176 29
93 96 19 81 80 0 79 72 0 95 81 0 159 134 16 197 164 33 226 185 43
188 141 0 182 131 0 180 126 0 214 160 2 221 166 11 227 173 21
227 176 25 220 170 21 240 190 41 94 93 11 100 94 6 112 100 0
161 139 27 194 163 36 214 175 35 222 176 28 200 149 0 197 144 0
180 126 0 204 152 4 219 168 23 231 183 39 244 197 55 235 188 46
236 191 48 97 91 5 117 108 13 143 125 17 212 186 63 216 178 41
221 177 28 221 170 16 223 170 16 208 156 8 195 144 1 212 166 31
223 180 49 216 175 47 233 194 65 235 196 67 234 197 65 116 107 16
143 129 30 174 151 35 226 193 62 218 176 30 213 164 9 226 173 15
233 180 26 214 166 22 199 155 22 202 162 41 212 176 62 196 164 53
211 184 71 204 174 60 181 154 37 130 115 20 165 146 41 210 182 59
229 191 54 230 183 31 214 162 1 235 181 21 222 171 18 205 159 24
186 147 26 166 135 29 194 170 72 199 179 84 212 196 101 161 143 45
95 79 0 108 90 0 158 136 27 220 189 62 233 192 48 243 193 36
225 172 8 243 189 28 212 162 13 211 168 40 169 135 25 70 47 0 49 32 0
54 43 0 109 100 21 114 106 25 98 92 8 99 80 0 155 132 20 210 177 46
234 192 44 232 180 19 224 170 2 235 181 20 212 162 15 187 147 25
184 155 53 85 67 0 52 42 0 40 35 0 82 81 16 89 89 19 96 98 25
128 107 2 178 152 39 208 174 41 238 194 45 209 157 0 210 156 0
218 163 2 209 161 15 199 160 41 200 174 77 84 68 0 41 36 0 34 32 0
75 76 18 76 81 17 89 94 28
