P3
#
16 16
255
31 25 25 24 23 18 68 76 61 41 53 31 41 49 28 64 69 49 73 75 64
77 77 67 83 80 71 87 82 76 78 74 73 97 93 94 72 64 61 75 71 62
76 73 64 58 58 46 24 20 17 12 13 5 46 58 38 66 81 58 48 60 40
46 53 37 69 71 60 86 86 76 83 79 70 103 98 92 85 81 78 75 71 68
78 73 67 84 80 69 102 100 88 50 50 38 40 40 30 31 38 22 51 70 42
67 90 62 58 76 60 65 77 67 73 76 65 94 92 80 89 82 76 86 79 73
84 81 74 72 72 62 69 67 54 86 84 69 96 94 81 63 61 48 53 55 42
19 28 9 55 78 49 77 103 74 37 55 39 56 67 51 71 72 41 94 85 52
98 84 55 97 83 57 90 84 62 92 89 72 95 92 77 87 85 72 86 84 72
73 71 59 45 48 37 25 36 19 60 84 60 74 98 72 62 75 57 47 51 18
83 75 10 112 95 15 129 104 24 149 124 57 118 101 55 100 89 61
83 73 63 97 89 86 70 67 60 64 64 56 28 34 22 45 56 40 58 77 57
70 89 67 69 77 56 68 64 19 192 175 83 200 173 58 192 155 49
221 186 96 179 154 90 105 85 50 87 70 60 78 66 68 65 60 57 62 61 57
39 45 31 34 42 27 47 59 45 65 76 60 52 57 37 111 101 50 224 192 81
230 187 56 209 163 51 194 151 59 174 135 66 106 75 31 101 79 65
88 76 76 55 49 49 52 48 47 56 59 48 46 49 38 36 42 30 43 49 35
43 48 28 87 78 21 203 167 44 205 157 13 150 103 0 107 63 0 150 107 38
123 91 44 89 71 51 78 67 63 114 109 106 80 76 75 53 50 43 51 51 41
39 45 31 38 47 28 46 54 30 99 95 34 207 177 47 214 170 19 164 123 0
121 81 0 157 123 52 108 84 38 85 73 47 82 76 64 87 82 78 82 77 74
55 47 44 61 58 51 48 54 42 39 50 33 53 63 39 59 54 0 175 146 26
215 175 28 209 170 41 201 166 64 91 65 4 100 84 48 74 66 45 84 80 68
81 78 69 70 67 60 56 46 47 61 57 54 42 52 41 40 52 38 60 66 52
44 37 0 93 70 0 209 174 44 200 161 32 191 159 58 91 74 28 77 71 55
68 64 53 75 72 63 79 79 67 82 83 69 60 51 54 62 61 57 54 62 51
51 62 48 38 41 32 48 39 6 139 117 32 225 195 81 227 192 76 122 95 4
73 63 27 68 68 60 75 72 67 74 71 64 79 81 68 73 77 60 56 52 51
66 65 60 55 58 47 59 63 49 50 50 42 68 58 31 115 95 24 221 195 102
205 179 86 96 76 5 64 58 26 61 61 51 76 73 64 78 75 66 65 67 54
64 71 55 57 58 53 61 61 53 63 63 53 72 69 60 60 57 52 69 60 43
82 66 17 116 96 33 138 120 58 64 52 4 71 66 44 72 72 62 87 80 72
84 80 71 70 72 59 63 69 55 63 66 59 70 71 63 65 61 52 81 74 68
63 54 57 75 67 64 74 65 48 76 66 41 72 65 39 64 59 39 63 65 52
62 62 54 77 66 64 79 68 64 64 64 52 48 55 39 59 65 55 53 54 46
61 54 46 65 55 53 73 62 68 70 61 66 77 72 69 73 70 63 74 71 64
61 62 54 67 70 63 66 65 60 79 63 64 74 58 58 50 50 38 57 64 48
