P3
#
16 16
255
57 39 25 57 46 26 60 59 29 52 59 17 41 50 0 63 61 0 115 90 26
158 104 40 204 120 60 227 122 65 195 82 26 144 39 0 143 59 0
159 102 31 153 121 46 144 127 47 46 34 18 57 51 29 57 62 30 51 60 17
45 55 2 65 63 2 114 86 23 163 108 44 189 103 44 199 93 35 186 69 15
168 57 1 169 79 17 171 107 36 158 119 44 148 121 42 35 36 18 54 59 36
49 63 30 39 54 11 45 58 4 61 59 0 102 72 8 157 99 35 180 87 28
175 62 6 182 59 2 198 77 20 200 98 36 190 110 41 175 117 44
160 114 37 30 42 20 48 62 36 35 55 18 27 46 0 50 61 5 67 61 0 97 63 0
152 88 24 192 94 33 184 63 6 199 66 9 216 86 28 206 91 28 195 98 30
186 108 36 169 101 26 22 42 15 34 55 24 21 43 4 25 45 0 68 76 19
97 86 24 125 84 18 173 102 36 207 101 39 209 81 20 221 78 18
219 76 16 198 66 2 196 79 10 197 99 26 187 97 21 20 41 8 25 45 8
22 41 0 43 56 3 98 96 37 141 118 51 168 118 49 203 123 54 199 86 18
218 83 17 227 79 15 215 66 0 200 59 0 207 79 6 221 108 32 224 117 39
39 51 11 37 48 5 45 53 2 76 74 17 122 104 40 161 122 53 188 121 50
206 114 39 198 80 6 226 88 15 235 84 11 226 74 0 220 77 1 224 88 10
235 110 30 251 132 50 65 64 18 60 58 9 76 67 12 104 84 23 132 97 29
163 107 33 182 103 26 186 85 5 219 98 17 245 108 28 248 103 22
241 96 15 238 97 15 224 92 9 221 97 11 243 123 37 94 77 23 85 64 7
104 75 15 143 102 36 150 93 22 163 90 13 194 101 21 182 73 0 211 89 3
255 140 52 255 125 36 235 104 14 237 109 20 218 99 9 215 101 12
231 122 31 127 99 36 134 100 36 163 118 51 194 137 66 181 107 32
170 83 3 184 82 0 165 54 0 200 82 0 255 138 46 248 131 38 229 116 22
229 121 30 209 108 16 207 109 18 221 127 37 117 80 10 141 99 27
183 126 55 214 145 70 199 116 38 189 92 11 207 103 16 198 90 0
205 98 4 251 148 53 240 143 49 219 130 36 216 133 41 194 117 27
191 117 30 201 129 44 132 95 17 158 115 37 188 131 54 210 137 60
194 107 27 188 89 6 212 110 25 212 111 21 225 132 39 247 164 70
220 147 53 197 132 42 190 133 46 175 120 38 173 120 42 178 126 50
129 98 15 157 121 37 183 131 48 204 136 55 202 117 36 196 104 21
215 120 36 210 122 35 220 144 56 218 157 68 176 129 41 153 115 30
153 120 43 147 117 45 154 123 58 155 124 60 76 55 0 117 87 0
152 106 21 189 127 44 210 132 50 212 125 45 221 134 54 207 131 47
184 122 37 170 125 40 128 100 17 112 94 18 118 105 35 123 112 50
138 125 70 139 126 74 68 57 0 105 85 0 129 91 6 160 105 22 181 110 30
179 100 21 177 100 20 160 93 14 141 93 11 132 101 21 102 88 13
96 93 24 101 102 42 106 109 56 124 125 81 125 123 82 90 85 0
116 103 11 121 87 0 131 81 0 144 77 0 139 66 0 140 67 0 126 65 0
121 78 0 117 94 18 100 93 21 98 105 38 99 108 53 97 109 61 116 123 82
114 120 84
