P3
#
16 16
255
93 121 47 81 101 32 115 115 61 75 73 16 142 148 78 125 127 52
100 86 21 81 62 3 75 63 11 99 93 41 97 95 38 89 91 28 94 103 38
100 104 43 81 66 23 73 51 14 123 146 66 101 113 37 98 94 23 105 95 24
154 148 72 150 143 65 148 125 57 115 90 26 101 79 21 98 79 21
101 87 24 110 102 37 114 117 50 119 117 56 114 92 42 120 89 45
134 145 51 133 134 40 108 90 0 148 122 25 191 166 76 170 139 57
163 125 52 190 147 78 153 110 41 152 110 38 143 105 30 116 90 15
122 115 45 118 107 41 126 88 26 113 63 4 157 159 62 182 174 73
211 183 74 196 157 52 181 144 53 174 133 51 135 86 9 147 92 12
192 130 47 212 151 60 204 150 50 152 114 17 140 122 38 163 143 70
168 123 55 146 89 22 134 129 37 152 136 40 179 140 37 167 118 23
154 116 35 149 110 35 131 80 0 154 90 0 203 126 22 252 176 56
254 190 56 201 154 22 145 114 8 172 142 56 155 111 38 151 100 34
149 145 58 174 158 70 170 134 40 161 114 24 152 107 26 136 89 7
150 96 0 185 119 9 166 81 0 212 129 0 242 175 34 237 189 53
209 181 72 179 155 67 158 125 54 145 107 44 104 111 31 97 96 13
133 115 29 157 121 33 154 103 12 176 117 13 206 147 21 203 137 1
193 110 0 181 102 0 201 139 18 197 159 50 172 159 63 151 146 65
163 149 84 90 74 14 104 118 39 86 95 14 105 99 21 145 119 35
164 109 18 176 112 6 239 180 52 252 193 57 255 185 59 246 181 65
195 150 49 174 150 60 159 158 75 135 146 70 109 115 51 135 139 80
127 149 66 126 141 60 151 153 78 155 133 58 164 109 27 155 90 0
133 79 0 154 104 0 181 129 27 189 149 54 142 124 40 127 125 48
110 121 45 97 114 44 115 137 73 104 128 68 108 119 27 119 124 32
128 121 33 159 132 41 156 102 6 167 103 3 190 135 35 169 117 18
166 116 21 136 101 11 125 119 35 81 89 12 73 81 8 81 96 29 87 113 50
71 102 42 135 118 14 189 167 58 198 163 45 183 138 9 185 131 0
200 140 10 172 108 2 173 108 8 211 144 37 163 115 7 122 110 10
121 124 35 124 120 46 98 100 35 67 87 24 43 73 11 146 109 5
187 147 36 205 157 31 226 173 35 236 179 30 241 178 37 178 109 0
196 125 19 225 158 45 211 160 45 168 141 34 154 138 43 153 127 53
108 89 23 93 94 26 87 100 30 134 84 0 169 120 25 168 120 12
194 139 20 223 156 26 220 148 14 241 172 42 212 150 27 159 106 0
157 108 3 204 156 54 181 132 40 123 66 0 143 94 28 171 142 66
161 143 61 155 99 12 186 131 41 171 118 24 159 105 0 207 141 21
186 115 0 229 159 29 239 174 48 238 182 69 155 102 0 159 101 1
182 123 33 165 105 35 125 71 1 186 138 56 189 145 56 179 118 25
176 115 24 157 97 11 173 114 20 229 172 56 234 170 46 190 115 0
209 132 18 220 151 32 198 136 23 185 130 30 163 116 28 158 122 46
181 143 68 196 140 55 187 123 33 176 113 16 158 95 2 121 56 0
139 78 0 182 129 13 207 149 26 210 132 23 251 166 59 238 162 42
206 139 22 179 124 24 176 136 48 167 141 64 166 137 57 142 82 0
211 138 46
