P3
#
16 16
255
84 125 47 107 142 60 111 137 50 96 111 18 137 143 43 162 162 62
173 173 77 119 122 33 77 88 10 61 78 8 38 59 0 44 69 12 78 98 45
83 102 47 80 93 37 93 104 46 111 149 72 93 128 46 98 123 32
120 134 37 160 165 62 163 162 56 170 166 66 129 128 35 101 109 24
77 91 16 53 74 7 68 89 30 103 124 67 115 134 78 103 116 60 89 103 44
92 129 51 87 121 35 108 132 38 136 148 46 162 162 52 174 168 54
187 180 66 134 130 22 129 131 32 99 108 19 82 96 19 87 107 38
107 125 63 118 136 76 102 117 58 69 84 25 88 123 43 88 118 32
112 132 35 133 142 35 133 131 12 167 157 33 221 207 82 199 187 65
160 154 40 133 134 30 114 123 32 100 113 33 87 103 32 92 108 45
83 99 37 50 65 6 81 114 33 68 97 7 107 125 25 173 180 66 173 165 38
180 164 27 226 207 66 237 218 77 202 188 55 168 162 40 138 140 31
110 117 22 86 97 18 87 102 33 84 100 38 57 75 17 70 99 17 69 94 3
104 119 16 184 188 68 203 193 59 218 201 53 235 210 55 221 196 41
229 207 59 191 175 36 149 140 19 120 122 15 110 116 28 111 123 49
103 117 55 83 101 43 90 118 34 93 116 26 94 107 2 148 149 29
187 176 35 239 218 63 254 225 61 233 202 34 231 202 40 204 180 28
165 149 14 141 134 18 137 138 44 128 135 58 114 126 62 111 126 69
88 111 31 88 107 18 95 106 4 181 181 61 224 211 71 246 223 68
241 208 41 237 201 29 224 187 20 218 185 28 190 164 25 168 152 31
155 149 51 129 132 51 114 125 59 130 143 87 76 97 20 90 105 22
99 106 10 157 155 42 212 198 65 231 207 57 244 211 48 222 184 15
221 180 12 213 175 16 174 141 0 158 134 12 134 120 21 149 146 65
135 140 74 128 137 80 80 96 23 72 85 6 58 64 0 95 92 0 144 132 10
182 159 21 222 188 37 224 184 26 208 164 5 192 149 0 150 111 0
138 106 0 124 104 5 141 130 50 120 119 55 105 108 51 69 81 15
71 81 10 76 81 1 115 114 22 159 148 42 186 166 45 212 182 48
217 178 38 219 173 28 215 168 28 189 144 15 168 131 16 140 111 17
134 117 39 113 105 42 101 99 42 74 84 23 73 82 17 81 87 17 109 110 32
141 134 44 168 153 50 202 175 62 226 187 66 218 170 44 223 173 48
216 167 49 197 154 49 166 130 42 137 111 37 100 84 24 78 67 13
72 79 25 67 75 18 78 83 25 93 95 30 111 107 34 134 122 40 166 141 49
201 166 66 216 172 67 220 169 62 225 174 69 225 176 81 218 177 95
181 148 77 124 102 44 77 60 6 63 70 19 61 68 17 85 92 41 104 107 54
113 112 55 119 110 45 120 100 27 146 113 32 167 123 34 187 136 44
217 162 71 214 162 76 201 155 78 154 117 49 115 86 28 82 59 5
77 80 35 50 56 10 57 62 21 63 69 25 77 79 32 89 83 33 87 71 12
113 84 18 139 97 21 182 131 50 230 173 92 210 155 75 170 122 50
118 77 13 119 87 30 130 100 46 77 80 37 37 42 1 36 41 1 40 47 6
61 63 24 77 74 29 71 55 4 93 64 4 118 78 9 158 109 33 204 147 70
176 120 45 139 89 20 97 53 0 121 86 30 147 116 62
