P3
#
16 16
255
122 89 0 103 86 6 34 46 0 44 72 34 13 37 3 67 68 8 172 132 18
238 167 43 210 111 28 155 76 17 103 82 39 41 51 17 33 41 18 21 30 9
38 54 28 25 44 16 121 82 0 168 147 68 65 75 23 20 38 0 39 46 5
71 55 0 166 118 10 232 160 49 227 137 61 118 43 0 102 72 22 37 36 0
28 34 6 26 40 15 14 29 6 16 34 8 122 72 0 157 125 50 62 66 16 26 28 0
92 60 11 115 62 0 200 135 41 163 92 0 156 81 24 120 54 6 140 90 27
73 49 0 34 41 0 24 44 16 11 29 7 11 26 7 120 69 0 116 83 16 56 56 18
58 49 16 137 74 23 201 114 45 224 144 55 148 74 0 133 63 4 135 64 10
185 111 40 175 125 54 52 50 1 30 52 16 22 40 16 8 25 6 133 90 22
119 92 39 116 119 100 149 132 116 177 86 42 197 82 15 200 111 21
145 66 0 140 62 0 178 91 20 193 90 15 180 100 31 89 72 20 45 62 20
27 48 15 21 46 16 133 97 39 114 92 45 115 119 94 161 145 120
189 108 63 161 56 0 219 130 40 234 150 52 204 119 28 202 108 21
212 97 14 203 111 38 75 46 0 49 58 13 37 57 20 40 66 31 110 78 29
122 100 50 120 123 68 103 100 45 93 58 4 118 59 0 190 110 21
220 131 27 234 145 41 214 118 16 209 101 3 202 116 33 102 68 7
55 54 10 60 71 37 30 49 19 71 53 7 79 68 14 100 106 36 100 102 27
101 81 10 144 98 20 188 113 20 191 99 0 202 109 3 210 114 4
222 122 11 200 120 23 135 98 30 52 44 0 51 55 18 42 53 21 42 49 0
69 78 21 88 101 32 116 114 31 190 155 55 194 133 27 189 111 11
184 96 0 189 95 0 210 115 7 226 130 9 211 135 23 139 101 26 55 42 0
52 51 5 60 65 24 38 56 8 86 105 50 104 119 54 153 147 61 189 142 26
220 146 23 211 129 19 187 100 0 197 108 8 202 117 11 206 129 15
212 155 52 109 78 11 49 35 0 56 49 3 55 51 6 30 48 6 87 105 57
88 102 43 118 107 25 206 150 31 239 156 24 232 147 22 209 124 7
211 130 23 183 117 20 114 70 0 180 153 84 45 33 0 42 35 6 62 48 13
53 38 0 29 50 11 69 87 45 59 76 24 80 73 1 209 162 56 233 163 39
208 131 1 211 133 7 199 126 13 168 112 19 86 61 0 76 68 19 20 16 0
69 59 23 81 57 11 84 52 1 27 44 12 26 46 9 33 54 11 38 47 0
122 105 27 153 114 13 182 127 1 215 150 20 192 123 4 165 110 17
73 52 0 56 54 6 49 43 0 119 102 33 164 125 48 121 73 0 13 29 0
32 51 19 42 67 27 68 86 38 41 45 0 81 68 0 189 157 46 209 163 41
187 131 18 168 122 34 81 67 18 40 41 0 63 59 0 141 124 42 180 137 42
156 101 0 10 29 0 41 63 27 69 92 50 51 73 27 23 41 0 45 54 0
107 100 12 165 143 42 157 123 23 121 92 12 25 16 0 19 21 0 55 60 2
98 89 10 161 126 26 159 108 0 6 27 0 13 35 0 41 64 22 47 70 26
23 48 6 36 54 2 59 63 0 114 107 16 147 124 31 80 58 0 46 41 1
48 52 19 64 73 18 89 86 7 170 136 36 147 100 0
