P3
#
16 16
255
12 42 0 21 36 0 33 20 0 65 25 0 123 58 4 163 82 19 174 80 8 179 74 0
184 68 0 214 90 0 215 87 0 202 82 0 189 90 7 187 115 31 164 122 40
103 77 0 16 41 0 29 40 0 51 35 0 88 47 0 136 71 17 166 82 22
183 89 19 205 99 21 230 116 30 235 114 25 223 97 12 214 98 13
202 105 24 193 122 42 175 136 57 133 110 30 48 67 11 62 67 13
84 62 12 112 66 17 140 70 19 150 65 8 167 72 4 198 95 20 230 118 36
218 99 15 199 78 0 200 87 9 183 91 16 162 96 22 148 114 42 123 105 31
46 55 0 68 65 12 94 63 16 114 62 14 139 65 16 154 67 13 170 76 12
194 92 20 213 103 24 206 93 13 198 81 4 200 92 20 177 90 21 144 85 17
129 100 34 106 93 25 52 51 0 89 76 23 118 80 31 132 71 24 156 78 29
178 88 35 179 85 23 176 78 7 183 77 3 193 83 8 191 80 8 183 82 14
149 69 6 117 66 3 101 79 19 71 65 3 79 67 9 127 105 48 160 114 64
165 99 49 183 101 51 202 111 56 193 99 35 178 81 12 179 79 4
194 91 16 189 85 14 171 76 10 132 61 0 107 61 2 92 77 18 59 60 0
74 53 0 125 93 32 161 109 52 167 96 42 181 96 41 202 109 48
210 118 51 215 123 50 217 121 44 223 126 49 214 116 45 199 112 45
167 101 40 143 103 42 128 119 60 95 103 43 81 51 0 122 83 14
150 90 28 145 71 10 144 58 0 158 66 1 186 95 24 216 126 48 209 118 37
205 114 33 196 104 29 194 111 41 171 110 45 144 108 46 127 121 59
97 107 46 87 51 0 110 64 0 132 69 0 139 61 0 139 52 0 147 56 0
164 77 0 180 94 11 181 95 8 174 86 0 178 89 9 191 112 37 179 119 49
143 108 42 100 95 29 85 94 29 91 50 0 107 58 0 139 72 1 159 80 11
152 64 0 134 44 0 137 52 0 158 74 0 171 87 0 179 94 4 196 107 23
174 95 16 175 115 42 142 105 35 106 97 28 62 67 0 124 82 0 163 112 31
190 122 49 180 100 29 171 85 12 179 92 15 183 101 19 178 97 8
194 111 19 205 120 29 213 125 38 147 66 0 157 94 17 140 98 26
121 107 36 55 55 0 118 72 0 166 115 36 202 134 61 199 121 49
201 114 43 215 129 54 209 127 45 187 107 20 211 130 39 224 139 49
217 127 41 146 61 0 152 83 8 151 103 29 131 109 36 61 53 0 121 77 4
126 74 1 151 82 15 179 100 34 191 106 41 186 102 30 190 109 30
202 124 41 198 117 28 215 129 42 213 118 36 183 93 15 180 103 31
179 122 51 138 105 34 78 60 0 115 70 3 120 69 3 139 71 10 157 78 19
167 83 21 170 85 20 172 92 19 178 99 20 187 105 21 204 115 31
212 115 36 213 119 45 204 121 51 191 126 58 147 106 40 112 83 15
93 49 0 140 88 28 176 107 52 172 92 39 170 85 30 173 89 29 152 72 3
119 40 0 177 92 12 193 102 23 223 123 48 222 124 53 209 122 55
164 93 29 132 84 22 109 74 10 159 114 55 180 128 71 190 123 71
175 97 48 161 75 24 160 75 18 160 79 14 157 77 4 149 63 0 175 83 6
237 135 63 226 125 57 212 120 57 128 54 0 93 41 0 64 24 0
