P3
#
16 16
255
32 49 13 56 77 36 61 83 37 35 62 7 43 71 10 56 88 21 48 80 13
52 87 21 47 83 22 55 90 36 74 106 59 53 84 43 48 76 38 21 48 13
28 54 19 52 78 43 53 69 33 45 63 25 41 60 14 57 80 26 71 95 33
60 87 20 58 85 16 67 96 29 54 83 19 48 76 18 53 79 31 38 63 21
48 73 34 33 55 19 38 59 26 53 74 41 51 65 32 59 73 37 54 70 25
80 94 41 87 103 40 82 97 28 93 109 38 70 86 15 70 85 18 61 75 13
56 69 15 45 58 12 63 75 35 48 62 26 59 73 40 70 85 52 24 38 2
48 61 18 53 63 13 86 96 36 88 95 27 85 89 12 110 114 30 72 74 0
61 62 0 63 64 0 62 63 0 57 58 0 71 73 23 51 57 11 71 78 37 83 91 52
59 72 26 52 65 12 55 63 3 126 129 58 147 146 64 137 132 40 172 163 62
161 148 44 150 137 35 154 140 43 143 129 40 132 121 41 130 123 53
86 82 21 86 85 31 79 79 29 58 76 16 50 65 0 46 56 0 106 108 24
161 155 59 190 178 70 221 200 83 205 181 57 214 189 63 212 188 66
188 166 54 183 164 62 180 166 77 114 105 26 89 85 14 54 50 0 58 82 8
75 96 17 81 93 7 103 107 10 165 157 46 221 203 79 232 206 69
215 185 39 213 182 32 225 193 46 213 184 46 222 198 72 224 206 96
155 143 45 128 120 35 84 79 0 55 83 8 72 95 15 94 108 21 118 123 23
164 154 41 184 163 36 182 151 9 200 165 13 209 171 12 233 197 39
228 194 43 230 203 64 213 193 72 126 113 8 100 91 0 58 52 0 65 96 29
62 87 19 66 82 7 150 154 67 148 139 36 161 139 20 201 168 35
187 149 2 199 159 2 223 183 26 237 201 51 230 201 63 232 212 91
126 113 9 91 84 0 56 51 0 61 91 41 55 79 27 55 70 11 111 114 45
134 124 39 161 137 37 179 144 26 198 158 26 210 168 24 246 204 56
239 202 59 228 198 66 243 221 109 151 136 41 118 109 32 70 63 0
64 90 63 56 76 48 54 65 31 75 76 32 108 96 38 138 112 38 135 100 8
180 138 28 191 147 22 211 171 40 166 128 1 155 124 8 177 153 55
93 76 0 89 77 17 68 58 7 57 80 64 56 73 55 58 66 45 73 69 40 87 72 31
105 79 22 127 90 12 161 118 23 190 147 34 190 150 28 127 91 0
142 110 0 168 143 51 83 63 0 102 86 34 119 106 62 43 60 44 49 62 45
57 60 43 84 78 54 82 64 28 97 67 17 172 135 64 182 141 49 170 128 16
174 134 13 131 95 0 168 136 23 203 177 82 136 114 38 135 116 58
136 120 71 46 58 36 48 56 33 55 55 31 85 76 47 87 68 28 109 79 25
212 176 100 211 171 75 207 168 51 218 181 51 194 160 27 209 179 55
236 209 102 207 186 97 179 159 90 138 119 60 53 61 22 46 53 12
52 50 11 67 55 13 101 79 29 131 102 36 203 167 79 207 169 60
226 189 57 234 199 55 230 199 49 210 182 39 196 171 45 190 167 61
159 137 51 119 97 21 45 53 4 36 39 0 44 42 0 44 32 0 112 91 34
149 121 48 175 140 46 191 154 37 205 169 31 212 179 26 240 207 50
211 184 31 158 131 0 142 119 3 120 97 1 109 87 1
