P3
#
16 16
255
45 45 37 44 45 39 56 57 52 57 62 58 51 55 54 57 63 51 63 67 34
89 98 55 69 90 47 55 87 40 57 97 44 62 102 49 36 68 19 26 43 0
40 37 0 80 66 27 46 47 41 39 40 34 55 56 51 60 60 58 51 53 50
75 79 65 91 95 62 154 163 118 61 81 30 74 102 51 48 85 31 55 92 40
45 74 26 41 56 13 39 35 0 84 72 34 50 55 49 46 48 43 70 66 63
57 52 49 56 52 49 82 80 67 77 81 46 87 97 45 94 110 47 67 89 25
54 83 29 36 64 16 35 59 11 66 79 35 67 65 27 79 68 36 40 45 39
51 53 48 71 66 63 61 53 51 75 70 64 100 95 76 130 126 81 132 128 65
184 178 104 100 98 24 42 46 0 50 59 6 52 66 17 65 76 33 98 100 61
83 80 45 47 49 46 45 45 43 65 59 59 55 47 45 81 81 71 50 45 15
140 120 61 194 158 82 214 166 84 163 115 33 130 92 17 118 97 32
65 64 16 62 73 31 92 101 58 77 86 43 40 42 39 33 33 31 37 31 31
55 50 46 50 52 38 51 45 9 153 120 51 205 150 67 199 127 45 176 97 18
209 141 60 186 142 71 81 73 26 56 66 29 97 108 68 103 114 72 33 37 36
32 34 31 41 40 35 57 57 45 39 42 23 83 75 36 186 148 77 159 98 17
141 61 0 206 115 44 183 96 17 183 120 51 72 58 13 37 47 13 63 70 39
124 131 100 33 46 36 29 43 30 36 49 31 54 60 34 61 55 19 123 100 48
231 182 106 153 82 2 168 81 14 191 98 31 216 126 48 164 102 29
98 86 38 50 61 29 48 51 30 76 77 61 28 58 32 48 79 48 48 82 45
52 66 17 161 136 70 193 140 64 252 181 101 153 70 0 208 116 51
155 68 0 206 136 51 149 106 27 101 100 44 58 72 39 38 39 25 45 40 36
40 73 42 80 117 83 71 114 71 78 97 42 185 151 79 231 163 80
248 168 81 142 57 0 173 88 21 156 85 19 180 132 56 146 126 55
67 73 25 39 52 26 37 38 30 39 35 34 29 55 30 48 81 52 64 105 71
75 97 51 135 103 46 198 132 58 237 161 67 211 135 41 189 123 47
152 106 44 136 117 59 80 82 35 63 73 46 41 54 37 46 51 44 42 44 39
30 47 31 41 62 45 38 67 45 43 56 26 82 57 16 184 130 70 215 144 62
213 145 60 125 77 13 110 84 35 70 65 27 49 55 27 48 56 43 36 46 38
35 42 34 43 51 40 32 36 35 33 38 34 42 47 41 48 46 33 72 58 32
126 94 55 156 99 44 132 77 23 79 50 18 62 50 28 59 53 31 49 46 31
44 43 39 35 37 36 35 45 34 42 56 39 41 39 42 44 40 41 40 34 36
47 42 38 53 50 33 140 126 100 140 104 72 86 49 23 60 46 35 42 42 34
76 74 62 58 55 46 40 36 35 36 36 36 24 34 23 32 46 29 30 29 25
31 30 28 35 35 37 46 48 45 41 48 32 74 77 58 51 41 29 47 34 28
42 38 37 36 40 39 51 58 50 38 46 35 33 38 32 30 35 29 28 38 30
26 38 28 28 27 22 28 29 24 36 37 39 38 44 40 25 36 22 32 43 27
33 35 34 41 42 46 37 38 43 32 38 38 43 56 49 34 47 37 29 36 28
36 43 35 28 34 30 29 38 33
