P3
#
16 16
255
176 106 11 198 135 38 168 119 17 128 94 0 120 99 8 93 82 2 69 61 0
85 80 24 83 74 19 98 89 30 86 79 9 56 53 0 67 71 10 64 73 28 36 50 27
52 68 57 178 104 5 201 134 30 192 140 31 173 135 28 163 138 38
129 112 24 87 75 3 79 68 4 98 84 21 97 87 16 110 101 22 86 81 0
59 63 0 60 69 12 56 70 35 58 76 50 211 131 20 214 141 26 211 151 29
202 153 32 189 152 38 166 137 35 139 113 26 121 98 18 110 88 5
94 77 0 129 115 16 112 104 3 53 54 0 57 66 0 69 85 23 52 72 19
239 154 37 225 145 24 219 150 21 209 150 20 191 141 18 189 146 34
192 152 54 181 145 51 190 155 61 168 139 37 193 172 57 175 163 43
118 117 1 113 120 17 103 117 32 69 87 13 240 151 35 224 140 18
227 150 22 219 149 19 193 129 3 196 137 21 214 157 54 210 156 56
201 149 48 185 142 30 191 157 33 181 158 26 167 158 29 159 160 40
117 125 22 82 93 0 235 147 39 223 137 24 223 143 20 212 137 10
184 110 0 183 112 0 208 136 34 215 145 47 214 149 47 205 147 37
198 150 24 189 155 21 205 185 50 199 190 63 143 139 29 112 113 9
221 140 48 214 134 35 211 133 24 199 122 6 176 96 0 171 90 0
191 106 13 206 122 32 227 146 54 212 141 37 206 146 26 194 145 16
197 162 32 195 170 44 154 134 22 128 111 7 191 125 41 195 128 39
201 132 29 198 126 16 182 104 0 169 86 0 173 84 0 184 94 6 179 91 1
166 87 0 183 114 0 185 126 0 185 138 8 207 167 43 202 166 52
187 155 46 154 106 30 172 121 38 182 128 28 201 140 33 183 115 6
167 90 0 192 107 14 171 83 0 166 78 0 158 76 0 164 92 0 184 119 0
204 147 16 218 167 39 212 163 45 186 141 26 97 67 0 122 90 7
149 111 12 210 164 53 214 157 44 210 142 33 220 144 46 194 114 19
164 84 0 153 76 0 168 98 0 203 141 8 222 165 26 213 159 24 191 137 11
169 117 0 74 62 0 90 75 0 107 85 0 196 165 49 212 168 47 228 173 56
233 171 62 212 145 40 214 150 44 216 153 39 226 169 36 242 190 45
252 202 53 247 197 50 232 180 44 219 166 34 70 71 3 78 75 0 83 73 0
181 161 49 193 161 42 216 174 54 219 169 58 200 149 40 206 155 46
234 189 70 241 199 65 222 184 39 224 184 34 235 194 44 226 181 40
205 158 20 63 67 16 81 83 20 97 92 8 198 185 83 201 177 67 212 180 69
202 168 61 180 145 41 172 141 35 208 182 69 219 196 68 211 190 49
226 204 58 233 207 60 202 169 30 167 131 0 20 25 0 42 45 2 63 60 0
142 132 47 139 120 25 139 115 15 137 112 19 113 90 0 123 107 12
133 122 17 134 129 11 160 155 25 207 199 62 209 196 58 169 148 20
145 120 0 29 32 25 45 44 24 56 52 7 102 92 30 100 82 6 96 78 0
114 96 20 92 78 3 90 84 6 92 95 6 83 91 0 104 113 0 153 159 37
160 158 37 137 127 12 134 121 9 14 15 20 28 28 20 42 36 4 74 62 10
75 60 0 71 54 0 98 83 16 71 62 0 53 54 0 82 91 10 74 89 0 62 80 0
90 100 0 98 102 0 84 80 0 85 76 0
