P3
#
16 16
255
23 45 22 34 67 36 88 145 102 111 175 125 50 108 58 42 96 44 60 115 58
26 77 18 48 89 33 69 106 52 48 80 31 38 77 22 64 116 52 68 116 54
67 93 45 29 44 3 33 58 28 69 103 70 75 126 85 126 182 137 69 121 75
33 83 32 43 99 38 33 85 21 24 64 4 24 57 0 29 58 4 52 87 29 62 114 48
75 123 61 76 102 55 76 88 48 69 97 56 86 118 77 38 76 39 106 146 111
77 115 76 49 93 44 70 126 61 73 129 58 41 77 13 51 77 14 31 53 0
67 98 31 53 104 38 76 126 67 99 122 76 93 104 64 31 58 13 37 66 22
16 46 8 85 117 80 44 74 38 55 88 43 77 114 47 113 144 68 82 94 18
86 90 13 131 135 58 74 92 18 64 109 44 52 99 44 87 114 69 88 104 65
36 53 17 42 65 23 62 91 43 85 117 70 70 97 64 43 59 20 76 72 11
163 144 65 210 177 80 227 194 91 201 178 82 102 101 19 74 106 41
28 72 21 92 129 85 67 99 58 51 55 28 69 81 45 72 94 47 54 82 34
32 58 23 35 43 4 121 101 42 129 91 10 166 117 15 217 169 61
167 129 28 80 66 0 41 61 0 30 68 19 31 70 25 57 98 54 71 60 40
98 94 67 92 102 67 66 84 46 49 75 36 58 71 25 179 163 101 136 104 27
144 104 19 171 130 38 186 146 50 114 90 4 55 63 3 34 62 14 20 53 8
36 75 30 77 64 45 96 90 66 94 104 69 81 98 56 58 73 30 68 68 16
162 135 68 156 112 37 154 108 31 191 145 60 220 176 79 135 108 19
62 63 5 51 72 29 32 60 19 40 72 31 48 43 21 69 74 44 56 78 32
72 90 38 99 96 45 126 95 40 211 152 84 159 87 13 150 81 6 183 121 36
217 168 63 146 120 23 61 66 10 30 52 14 44 68 32 33 59 22 55 54 33
58 67 36 55 85 33 83 104 45 116 101 44 166 118 54 198 122 44 168 79 0
147 65 0 224 157 66 225 184 79 118 103 10 75 85 32 15 39 5 34 53 23
35 51 22 58 57 39 52 63 33 63 100 48 85 114 50 81 66 0 198 149 70
237 161 63 203 117 8 193 108 2 243 179 79 209 184 92 92 94 19
75 98 46 22 48 13 34 48 22 38 46 25 62 65 44 111 124 96 74 105 63
67 90 36 63 48 0 178 136 62 230 170 74 192 124 17 183 115 8
174 124 29 99 87 15 76 89 33 103 130 85 56 83 48 60 74 49 40 49 28
104 120 84 111 126 95 69 83 57 57 61 34 70 56 19 128 105 53
169 142 71 145 114 32 179 142 54 140 113 36 51 50 2 50 67 33 61 87 52
86 113 80 42 65 36 66 86 58 88 104 68 66 79 49 69 74 54 58 57 37
74 67 39 76 68 29 102 102 50 100 100 36 138 132 58 102 101 36
57 72 31 53 78 48 38 68 32 91 121 83 77 105 65 82 110 70 67 76 49
69 75 49 60 64 41 59 63 38 76 81 49 65 75 38 98 119 76 79 106 53
80 106 43 77 105 44 89 123 73 79 115 69 86 122 74 76 113 62 89 121 71
99 132 79 77 81 58 86 90 67 76 80 55 88 94 66 86 97 65 62 82 45
71 101 63 87 126 79 70 111 55 68 112 51 97 140 86 104 147 93
92 131 78 96 134 77 81 116 58 91 125 65
