P3
#
16 16
255
180 115 31 157 90 3 183 106 16 135 58 0 114 42 0 162 101 18
185 136 57 170 137 68 68 47 0 67 35 0 119 51 6 139 46 3 161 56 24
180 83 48 182 111 67 134 76 26 178 113 31 168 102 16 189 115 26
167 92 0 159 89 0 187 123 33 170 119 38 170 130 58 92 61 0 141 99 41
199 123 65 171 74 23 137 27 0 176 70 31 168 81 28 146 67 8 154 91 11
175 113 28 190 125 35 187 119 22 197 129 22 202 137 33 180 122 38
145 90 8 184 129 36 219 153 57 218 128 42 214 105 36 174 53 6
207 82 36 227 103 39 218 96 21 140 99 19 153 107 22 177 118 28
183 115 14 199 129 15 195 129 17 154 95 5 103 41 0 203 129 24
204 118 9 202 104 7 199 88 9 166 44 0 212 81 35 241 104 34 229 90 9
106 107 27 132 114 30 160 105 12 179 106 1 194 119 0 200 133 18
145 89 0 90 24 0 207 114 21 198 94 0 212 109 16 177 71 0 133 18 0
189 66 25 239 110 45 215 82 7 103 107 31 133 121 39 175 124 32
214 141 36 219 139 18 223 143 22 218 149 45 199 122 30 209 109 21
208 100 12 208 103 12 201 98 21 106 1 0 155 47 9 201 90 34 207 94 28
114 87 18 116 82 8 147 99 14 195 127 26 230 140 18 241 139 13
235 138 23 217 121 19 201 105 19 212 111 29 211 101 16 204 98 22
117 25 0 104 21 0 166 84 36 175 94 41 118 93 29 96 68 3 76 43 0
160 108 22 237 147 33 244 134 11 244 130 15 246 137 34 197 99 10
192 93 12 209 96 18 203 95 23 155 66 8 144 73 21 121 63 13 118 66 18
74 79 21 71 74 21 46 43 0 67 38 0 224 148 52 255 155 42 255 147 41
238 122 21 228 124 29 190 85 2 193 78 11 184 72 8 194 100 28
200 130 60 119 77 17 65 35 0 39 55 10 45 60 19 41 52 22 41 27 0
147 82 0 183 87 0 184 75 0 218 105 9 221 120 32 186 85 7 172 63 0
171 63 0 179 83 6 183 116 37 158 135 65 91 90 25 30 36 10 51 60 33
55 68 42 48 41 0 151 98 22 189 106 12 197 105 6 233 138 48 189 98 27
167 78 10 157 65 0 165 74 0 180 90 12 170 113 32 131 133 50
121 153 68 23 32 5 36 49 21 46 67 36 58 63 22 98 66 7 185 129 55
204 139 59 154 86 11 103 39 0 134 66 3 173 92 13 217 131 44
202 116 33 197 141 58 127 133 45 93 129 39 20 46 0 21 50 4 24 56 15
34 56 20 53 54 20 47 31 0 100 71 27 66 34 0 77 50 0 122 81 19
168 92 14 206 114 27 198 107 18 202 138 50 123 112 30 81 96 15
71 104 51 77 111 61 79 116 73 18 47 16 22 35 17 33 30 11 43 24 0
48 25 0 73 57 5 102 73 13 133 74 8 154 82 6 145 79 0 138 93 8
119 113 37 75 88 16 30 59 13 66 97 53 97 131 94 50 75 46 28 30 17
47 30 12 72 37 0 126 87 32 142 113 55 98 73 16 92 61 14 109 81 31
114 99 32 93 95 22 77 98 29 56 87 19 56 85 41 47 78 37 39 70 36
19 42 16 33 29 18 68 43 23 127 83 36 152 104 42 132 98 35 94 71 17
47 29 0 66 61 21 93 104 46 86 111 43 82 117 51 72 113 47
