P3
#
16 16
255
73 88 21 84 101 33 71 87 24 71 92 27 45 67 5 81 107 44 107 132 74
96 124 65 92 117 60 89 112 56 63 84 28 93 110 56 81 94 40 88 97 44
108 115 61 111 116 62 84 96 32 90 102 38 87 102 37 73 89 26 39 57 0
101 121 58 111 133 71 122 146 84 112 136 76 103 124 65 89 109 50
97 115 57 81 96 39 82 95 39 103 114 58 113 124 66 89 97 37 65 74 11
84 93 30 91 101 38 75 87 23 117 129 63 88 103 36 115 132 64
126 143 75 107 126 60 114 135 68 97 118 53 82 102 39 75 97 33
90 112 48 107 129 65 110 113 56 45 49 0 66 70 9 116 118 55 142 145 78
120 123 54 81 85 11 102 108 34 114 122 47 94 106 30 123 139 66
97 117 45 89 112 42 78 105 36 80 109 42 93 124 56 104 104 52 39 39 0
54 52 0 107 101 39 169 160 91 105 96 21 97 86 7 102 94 11 101 96 12
87 86 3 123 131 48 106 121 40 102 125 47 89 117 42 78 112 38
77 115 42 70 72 23 54 52 1 78 73 15 114 103 39 178 159 90 121 100 21
127 103 17 118 94 4 117 96 3 111 96 3 132 127 36 126 130 43
115 130 47 98 123 42 81 113 37 68 105 28 71 74 27 72 72 20 101 95 37
133 118 53 182 156 82 165 133 50 148 108 20 154 114 19 165 127 30
166 133 36 155 132 38 152 141 51 118 121 34 99 112 30 86 109 31
67 93 19 81 91 41 53 57 6 67 61 3 107 89 23 145 113 38 168 126 42
126 75 0 171 115 18 210 155 55 216 164 65 178 138 42 174 144 54
121 106 21 98 95 16 91 99 24 72 85 13 44 60 11 47 57 4 67 65 6
84 69 0 109 76 0 119 71 0 133 72 0 184 114 16 227 155 55 216 148 49
206 147 53 177 130 42 125 92 11 93 71 0 89 79 8 93 88 20 48 71 19
33 50 0 64 68 7 84 71 1 91 58 0 120 68 0 161 94 3 204 125 30
214 132 33 211 131 36 204 133 43 175 115 29 125 79 1 95 61 0 86 63 0
82 64 0 53 82 26 24 48 0 60 69 6 80 70 0 75 43 0 118 68 0 177 107 19
206 125 33 215 128 35 213 128 37 204 126 41 177 110 29 142 88 14
123 83 14 111 79 18 92 66 7 56 89 32 32 58 0 57 67 4 74 67 0 85 58 0
130 82 0 166 100 13 181 104 14 215 131 41 216 132 44 207 130 48
183 117 39 161 109 36 158 117 51 144 114 52 116 90 31 58 92 32
50 76 15 57 69 5 73 68 0 120 94 19 157 114 35 155 94 11 159 89 3
183 107 23 199 124 41 204 137 56 181 124 47 150 108 36 144 113 46
136 115 52 113 97 37 61 92 32 60 86 23 61 73 9 76 73 4 140 118 45
180 141 64 160 108 25 154 92 9 143 76 0 170 105 23 188 131 52
166 120 43 125 92 21 110 91 22 107 98 33 96 91 27 63 93 31 52 76 14
62 74 10 73 72 5 122 102 31 174 141 64 174 127 49 159 104 22 136 77 0
141 86 6 143 97 20 128 94 20 108 88 15 105 98 28 104 107 38 89 98 31
63 93 31 38 63 0 59 71 7 68 67 0 91 73 1 156 124 49 183 137 60
160 109 30 151 96 16 119 70 0 96 54 0 92 64 0 105 91 18 124 124 52
122 132 63 98 113 44
