P3
#
16 16
255
87 110 54 78 95 41 94 100 52 106 103 58 137 128 87 135 123 83
149 134 95 156 132 94 142 103 70 139 86 54 134 67 40 138 73 41
154 102 65 161 133 85 145 146 88 126 142 77 76 95 40 95 105 53
120 113 69 112 93 53 140 110 76 156 121 89 169 133 101 157 113 84
141 87 59 135 71 44 135 59 35 145 69 43 161 96 64 164 119 78
149 127 77 135 126 71 87 97 45 116 114 66 150 117 82 137 83 55
162 89 70 180 99 82 190 111 96 169 90 73 149 68 51 139 53 36
141 48 33 159 63 47 172 81 62 168 86 62 152 86 54 144 86 49 99 107 56
113 102 57 141 92 62 140 59 40 164 55 48 170 48 45 177 59 57
165 53 49 159 56 49 147 46 36 150 46 37 169 61 51 179 67 56 166 55 44
152 46 32 149 46 29 111 126 71 120 109 64 145 85 59 144 42 30
174 35 38 183 29 39 188 41 51 172 37 43 164 46 46 151 42 39 159 47 45
178 60 58 188 60 59 177 43 44 170 32 32 173 33 34 106 131 73
128 126 77 154 98 71 144 42 30 179 34 41 202 42 54 210 56 68
179 38 47 157 37 39 152 42 41 163 51 50 180 60 61 192 57 63 192 47 54
196 42 52 202 45 56 78 118 55 102 117 62 138 99 66 136 50 33
169 41 42 184 38 48 191 51 60 168 38 46 151 41 42 153 51 49 164 58 58
174 59 62 183 53 61 191 50 59 201 51 63 208 54 66 80 129 63 91 116 59
132 108 70 151 85 63 176 73 66 165 45 46 171 55 56 173 63 64
150 52 51 157 62 60 168 64 65 169 56 60 173 46 53 181 45 55 191 49 61
196 52 62 76 122 58 97 126 68 128 119 76 154 113 83 158 87 69
148 64 53 157 73 63 144 59 52 145 60 55 159 68 65 161 55 57 171 54 60
152 25 34 162 32 40 161 34 41 178 53 59 69 109 47 84 109 54
107 106 62 153 129 93 153 109 84 143 88 67 143 84 68 138 75 60
135 61 52 146 57 53 148 38 41 149 25 33 141 11 21 150 23 30 152 33 37
159 45 45 61 86 31 68 85 33 87 86 42 152 138 99 138 113 82 125 94 65
122 86 62 141 93 73 151 83 72 152 61 58 154 38 41 145 14 22 153 17 27
153 24 29 158 42 43 156 48 45 70 88 36 67 81 30 70 73 28 142 139 98
113 105 68 99 89 54 101 86 53 143 113 87 159 103 86 151 68 60
163 48 51 160 29 35 180 45 51 167 38 42 173 61 57 172 69 62
101 119 69 75 91 42 55 64 19 120 127 83 96 103 61 89 96 55 89 94 54
129 119 84 139 102 76 131 64 48 152 50 45 167 45 44 191 63 62
171 47 45 172 64 54 175 74 62 109 133 81 70 93 41 39 57 9 92 109 64
88 107 62 84 106 60 79 101 55 97 105 64 121 105 72 122 74 51
140 57 43 158 51 43 177 60 53 168 51 42 156 52 39 147 50 33 68 107 52
49 86 32 43 73 23 82 112 62 82 114 65 68 105 54 68 106 55 71 99 51
101 108 66 120 97 65 126 66 42 136 50 33 156 54 40 181 78 63
160 63 44 129 37 16 25 73 15 38 83 26 65 102 50 92 129 77 82 120 69
56 99 46 65 112 58 71 109 58 76 93 48 112 100 62 109 62 34 117 42 19
144 51 34 209 110 91 185 93 72 139 49 25
