P3
#
16 16
255
139 97 0 194 152 42 199 155 48 166 121 20 178 133 40 151 103 18
128 71 0 152 108 33 135 118 49 116 116 54 108 111 54 135 129 69
179 153 79 148 115 34 137 108 30 143 118 38 143 106 2 171 133 26
188 148 34 150 108 0 171 131 35 187 141 56 137 84 8 164 116 44
153 123 50 165 151 78 125 122 55 114 106 41 163 141 68 166 134 59
153 121 44 127 96 16 141 114 25 153 124 22 221 188 59 171 138 9
162 129 24 170 132 49 163 112 47 153 96 29 180 124 37 225 182 88
176 158 74 111 102 25 147 132 63 168 143 76 150 114 38 141 100 21
102 94 21 144 131 39 191 163 40 195 164 39 155 131 31 160 132 49
150 101 34 122 59 0 149 74 0 226 161 61 198 162 66 136 114 28
146 122 50 168 141 72 156 122 50 157 119 44 71 95 37 96 103 33
136 110 15 203 169 71 109 94 11 126 107 30 139 94 11 158 92 6
159 77 0 170 89 0 208 150 51 160 111 16 167 121 36 146 107 28
140 114 40 144 126 54 66 96 42 94 110 48 110 94 17 143 118 38
112 98 25 156 133 55 218 167 75 220 148 50 187 100 7 186 102 6
240 172 65 179 122 17 173 122 33 175 136 57 140 118 43 139 127 55
81 100 36 90 105 40 97 102 36 95 90 22 135 115 44 191 150 68
221 151 53 214 129 20 242 156 43 199 120 2 228 162 40 199 147 37
157 120 39 139 112 41 161 137 63 153 131 55 110 109 29 125 129 53
103 115 49 124 129 65 162 143 74 174 129 48 205 129 35 197 109 1
231 147 31 205 133 12 212 154 29 186 144 32 149 131 49 133 116 44
174 138 60 156 114 30 124 101 0 167 154 60 108 112 36 115 122 54
105 97 25 145 109 33 161 89 7 164 77 0 174 97 0 230 167 54 213 166 50
154 128 18 119 118 28 131 120 38 178 124 36 181 106 15 115 91 0
146 130 35 117 114 35 103 105 32 88 85 14 139 113 39 155 89 11
156 74 0 147 74 0 207 148 46 202 160 52 149 130 25 108 117 28
140 135 51 182 127 36 191 111 16 93 89 18 89 81 8 106 90 12
164 153 74 124 124 52 142 128 57 164 109 29 149 75 0 154 84 0
179 118 27 199 156 54 141 119 20 97 102 20 113 114 34 159 120 29
166 108 11 67 67 13 79 70 5 124 98 13 173 147 60 107 103 32
127 114 44 181 133 48 188 123 31 173 107 20 175 121 31 158 127 36
124 113 24 87 94 16 124 125 47 185 158 69 153 110 16 73 63 10
129 110 42 199 159 61 171 133 32 93 79 6 107 90 20 169 122 30
206 147 45 176 121 20 187 151 55 119 114 30 101 112 34 89 95 23
102 98 24 146 124 41 143 113 25 104 78 4 142 106 22 208 154 46
201 150 45 88 64 0 96 76 7 177 131 43 162 108 8 186 142 43 133 110 17
105 117 41 102 122 53 95 95 25 142 128 53 142 117 35 135 104 21
223 173 58 212 155 40 203 132 16 219 157 54 117 85 12 93 68 2
148 102 25 148 101 19 161 130 48 109 100 23 86 105 39 102 121 55
127 115 41 178 147 67 136 98 15 148 106 22 197 135 0 183 116 0
180 101 0 183 115 14 137 101 27 143 115 50 149 102 32 162 118 45
95 71 0 95 95 25 67 89 25 90 109 43 124 106 30 148 110 27 180 135 52
140 92 8
