P3
#
16 16
255
42 31 13 103 96 70 62 58 21 152 149 106 124 119 77 108 100 63
157 145 121 46 36 11 96 87 56 85 80 42 81 77 39 60 54 20 47 36 14
42 30 8 57 46 14 66 57 18 33 22 4 94 84 59 60 56 19 111 106 66
118 110 71 80 67 32 141 122 89 52 29 0 105 83 42 96 81 38 73 65 26
55 49 17 47 32 9 48 32 7 85 69 33 94 79 36 38 25 6 66 56 31 66 57 24
85 77 40 67 54 22 85 62 28 137 104 53 97 55 0 125 79 17 110 73 18
63 51 13 52 45 17 51 33 9 66 41 11 119 92 49 105 77 27 51 29 5
69 54 23 88 85 42 94 93 47 42 34 0 84 61 17 149 104 36 211 154 73
219 161 79 156 112 41 75 62 17 52 49 16 84 67 37 76 53 19 101 80 33
71 52 0 92 54 17 124 102 55 106 115 50 129 149 80 70 77 23 126 112 51
173 126 34 244 181 76 232 173 71 186 146 58 84 78 16 54 57 12
79 70 31 81 69 29 65 67 18 72 81 26 105 60 18 127 100 47 112 122 49
125 149 71 103 120 49 149 142 64 150 100 3 229 161 50 231 169 48
161 119 7 121 115 31 93 99 37 77 73 25 44 41 0 54 63 20 67 83 38
117 70 28 144 114 64 115 116 50 137 156 77 109 133 45 137 137 47
142 92 5 165 92 0 226 158 23 225 178 38 183 170 56 112 115 28
105 105 45 47 45 4 34 35 3 71 74 47 116 73 31 128 97 50 96 94 35
105 121 48 117 146 56 138 148 49 183 139 42 201 134 19 241 176 24
243 197 42 194 181 53 104 108 11 105 105 41 74 75 31 65 67 30
60 61 29 112 77 35 114 90 44 50 47 0 90 106 44 80 113 34 132 149 47
196 166 36 241 187 35 221 170 3 222 188 29 159 154 28 105 112 16
76 77 11 76 79 26 73 83 23 103 117 55 85 67 19 97 87 36 68 76 19
101 121 58 61 93 20 113 131 29 205 181 31 241 198 23 248 203 26
255 223 62 166 165 38 91 103 3 65 75 2 70 82 16 89 109 37 104 128 52
102 111 54 89 103 41 122 148 75 113 144 68 99 130 54 117 129 27
196 173 17 255 215 32 254 205 25 245 212 49 191 191 61 85 104 0
72 97 6 66 95 15 66 97 21 93 123 49 77 101 43 53 77 15 80 107 40
76 101 33 67 87 18 103 108 16 188 173 30 243 216 51 209 177 16
217 196 51 141 146 28 85 110 8 77 113 17 67 105 18 91 125 48
116 150 76 27 51 0 45 65 16 24 36 0 49 54 14 64 60 13 107 100 30
132 129 24 167 167 47 141 142 25 131 138 32 75 92 0 71 99 14
82 122 33 68 110 24 80 114 38 70 101 31 33 51 9 50 64 28 25 29 4
32 28 1 74 67 25 100 96 35 166 171 89 164 177 85 134 155 64
122 148 61 108 132 54 86 117 39 99 141 55 78 117 34 83 110 41 38 60 0
23 29 1 36 42 16 36 40 15 38 43 11 44 52 1 104 113 50 141 149 76
141 156 75 95 123 38 86 118 33 102 131 51 102 133 53 120 158 73
84 117 38 100 116 53 100 107 53 21 23 2 17 21 0 33 37 14 48 58 23
92 107 52 126 142 77 126 136 67 126 142 67 109 138 58 103 138 54
100 131 51 84 116 33 128 166 81 73 104 26 82 92 32 71 71 21
