P3
#
16 16
255
72 61 41 62 48 19 68 50 0 97 73 0 137 101 4 171 125 3 205 148 5
231 165 9 242 169 12 244 171 16 247 176 36 226 165 40 217 170 62
162 129 36 116 93 15 84 67 0 68 48 15 73 50 8 96 70 11 137 104 25
174 130 31 193 138 19 206 140 2 217 143 0 225 146 0 237 155 7
247 170 30 222 154 27 203 150 36 156 114 14 141 111 21 141 119 34
93 55 0 110 69 3 148 102 25 190 139 50 213 154 52 214 144 30
210 128 2 208 120 0 209 116 0 228 132 0 249 159 23 237 156 25
223 155 32 176 121 4 170 128 16 184 147 40 138 84 0 159 105 17
193 134 42 219 155 58 223 151 51 213 132 25 206 116 2 208 112 0
217 115 0 220 119 0 236 139 9 238 149 19 244 170 39 205 142 13
190 139 12 192 147 20 174 110 2 193 129 23 215 148 44 221 149 49
207 128 33 193 109 13 196 102 6 207 108 7 225 123 15 217 113 0
219 120 0 218 129 1 236 160 25 210 144 6 198 142 3 193 144 3
187 121 1 200 133 18 209 141 34 202 130 30 181 104 14 170 88 4
180 91 9 195 100 16 200 103 9 205 109 7 217 126 12 214 130 8
227 154 23 201 139 2 188 137 0 183 137 0 197 132 12 197 134 20
190 125 21 172 106 12 154 86 5 151 79 5 162 85 13 175 96 21 176 94 10
197 117 22 221 144 38 214 143 27 221 161 37 195 144 16 182 139 8
171 133 0 211 148 32 199 137 24 176 114 13 150 89 0 136 75 0 140 76 4
153 86 15 165 96 19 189 119 33 206 136 40 218 151 44 200 140 26
210 159 41 195 153 33 189 154 34 177 147 27 222 160 49 193 132 25
181 121 23 137 80 0 142 86 3 133 74 0 138 77 0 182 121 32 195 133 32
235 175 65 206 149 33 211 159 41 205 160 45 201 163 54 180 148 45
161 133 33 232 170 61 215 154 48 193 135 38 135 78 0 123 67 0
121 65 0 145 89 0 175 116 12 213 154 38 235 177 54 223 169 43
228 178 55 230 188 76 190 155 53 158 127 37 127 99 15 239 178 71
241 179 76 220 160 62 164 105 13 140 81 0 142 84 0 188 130 23
192 131 14 203 143 13 219 160 24 234 178 43 229 178 51 224 181 69
150 111 16 113 80 3 82 52 0 215 162 58 220 166 66 203 150 56
166 112 22 140 86 0 136 81 0 193 136 31 183 124 8 196 137 7
220 162 26 244 190 56 229 181 57 193 152 47 123 88 4 91 63 0 76 51 0
214 176 77 199 160 65 176 136 51 152 111 31 137 91 14 129 80 1
188 137 46 189 136 34 193 140 24 211 159 37 213 167 47 194 154 43
137 106 16 109 86 16 78 62 13 70 56 19 159 140 48 127 107 21 103 81 6
86 59 0 88 56 0 92 54 0 149 106 37 175 130 47 181 137 40 167 126 21
146 109 5 126 97 3 81 63 0 89 79 26 55 54 23 40 44 21 94 98 14
74 77 0 73 71 10 57 49 0 79 64 23 87 65 26 120 91 47 158 127 70
160 127 56 112 83 3 92 71 0 73 61 0 56 55 0 62 72 35 39 57 41
25 48 40 42 56 0 43 56 0 69 76 22 54 57 14 80 73 44 82 68 41 83 63 30
116 92 48 126 102 42 63 43 0 64 50 0 43 39 0 42 50 3 30 49 21
24 51 42 19 50 52
