P3
#
16 16
255
52 84 9 48 77 13 27 50 6 16 33 0 21 38 0 63 82 27 58 78 19 117 128 60
112 102 30 101 93 21 65 85 24 59 92 37 61 89 38 46 74 16 64 85 16
49 70 0 45 74 7 30 56 0 38 60 14 65 83 43 51 67 22 54 71 17 68 88 27
102 114 48 152 144 79 127 123 59 79 98 42 82 111 57 88 115 64
49 72 18 69 89 26 72 89 21 68 89 33 37 57 4 43 65 18 58 77 31
49 65 16 60 74 21 66 82 20 72 84 22 90 90 38 85 87 38 76 94 44
75 99 49 63 83 34 35 53 3 33 47 0 66 79 26 57 42 0 61 48 0 62 53 0
50 41 0 61 49 0 94 83 21 79 76 7 101 96 28 104 90 27 113 102 40
77 78 12 63 68 4 62 63 5 61 64 9 52 60 11 67 79 31 139 56 0 168 91 21
161 93 22 153 89 15 160 92 17 169 108 28 127 85 3 162 125 36
193 145 45 178 131 27 142 110 9 145 119 24 138 107 27 107 87 18
95 101 39 76 96 37 206 109 38 205 109 35 213 117 40 225 129 52
198 105 28 159 76 0 126 64 0 196 138 39 194 124 10 215 145 23
219 161 38 185 130 14 181 117 17 164 118 30 102 99 22 84 101 31
127 68 2 146 77 8 183 91 18 175 77 6 151 61 0 118 39 0 105 40 0
130 65 0 207 131 21 235 155 34 222 145 17 212 130 2 217 125 0
204 132 21 161 140 49 106 111 29 75 36 0 131 77 5 174 88 11 165 69 0
173 85 22 157 79 13 208 137 55 218 148 53 194 117 13 181 105 0
222 152 40 223 154 37 236 160 40 221 161 49 155 138 46 95 100 18
111 76 0 162 112 25 174 94 5 171 81 0 171 85 12 179 97 21 192 113 21
202 126 28 163 93 0 155 98 8 139 102 22 103 80 0 126 107 15
122 112 23 89 97 22 83 100 32 96 73 0 181 142 47 197 129 28
207 125 23 176 96 1 152 74 0 184 106 0 195 121 12 176 112 14 110 63 0
123 97 20 102 94 21 81 90 9 72 91 10 62 85 15 74 99 34 63 62 0
110 92 0 190 139 22 208 138 14 208 137 9 201 128 0 219 149 19
193 127 4 187 131 18 150 103 0 155 116 15 128 108 11 76 85 0 59 83 0
62 88 14 64 91 22 67 80 0 155 151 60 204 168 56 218 163 37 218 160 26
222 162 29 206 151 22 193 141 21 193 145 34 166 118 10 185 133 21
188 152 40 130 125 23 56 71 0 43 67 0 42 71 4 78 98 35 82 88 16
165 141 53 206 167 66 212 170 58 209 169 56 184 152 51 151 118 21
177 134 39 187 133 33 198 136 25 218 163 46 200 168 55 135 127 28
40 58 0 50 80 18 46 62 13 16 23 0 37 28 0 57 40 0 80 59 0 87 69 0
87 75 0 64 50 0 73 46 0 126 84 0 159 101 1 171 117 9 196 159 53
130 117 23 68 81 12 31 59 1 48 46 8 77 78 36 76 84 33 41 51 0 17 24 0
20 26 0 53 60 9 48 53 0 88 86 29 80 67 0 158 126 43 164 132 45
140 124 46 105 105 35 97 108 48 75 92 38 72 61 29 71 68 33 62 79 37
65 90 50 56 75 43 30 47 15 35 51 14 54 67 23 40 52 4 52 52 0 92 72 0
65 43 0 65 60 0 68 74 14 53 63 10 43 56 3
