P3
#
16 16
255
87 110 56 92 117 62 99 130 71 107 143 82 83 124 66 79 117 56
98 124 63 75 97 35 74 102 44 82 113 54 84 123 60 97 133 69 108 137 73
108 132 70 71 95 35 78 102 42 88 113 55 97 125 66 87 118 58
117 153 91 126 168 105 126 160 100 108 117 64 120 116 68 140 137 92
102 110 61 103 131 70 107 144 77 120 148 87 107 133 72 113 141 80
97 127 65 95 126 56 75 108 39 69 102 33 101 138 69 74 117 48
100 124 66 159 133 96 127 73 47 143 78 60 151 108 76 124 135 75
121 157 87 92 120 59 114 142 84 112 148 86 91 131 68 56 92 20
79 115 43 65 101 31 86 123 54 81 120 53 110 114 63 175 108 82
145 38 30 162 50 46 184 98 81 165 134 88 135 134 77 115 119 68
100 117 63 138 172 112 103 145 81 49 85 21 89 125 61 75 112 45
77 112 48 118 143 88 128 105 64 152 36 21 177 22 20 182 38 37
177 54 47 184 88 72 157 90 63 121 78 43 130 117 73 149 170 114
117 155 94 91 124 69 115 148 91 85 119 59 50 79 23 99 119 70
155 125 91 163 39 29 202 42 42 195 52 54 167 34 37 172 42 44
146 35 26 141 67 42 132 100 59 130 144 93 107 145 88 95 121 74
114 140 92 53 80 29 53 77 27 125 144 98 127 109 73 169 77 62
179 59 58 148 41 47 151 41 50 166 35 43 161 38 33 176 86 60
187 143 104 141 155 106 117 160 107 38 61 15 24 50 3 20 46 0
103 129 81 68 90 43 115 106 67 152 84 65 140 45 41 143 58 65
150 54 66 174 47 58 190 56 57 187 69 55 167 93 64 139 137 98
110 143 98 42 72 22 64 94 44 99 128 80 85 114 66 67 94 43 96 91 49
170 109 88 135 47 43 144 61 69 168 74 88 172 52 62 200 61 68
189 36 39 154 37 28 133 102 74 47 57 22 69 102 49 108 141 88
88 120 71 63 92 44 70 97 46 153 148 106 183 116 97 161 66 62
127 38 44 145 45 55 172 45 54 211 68 74 185 39 42 162 51 44
164 130 103 77 83 47 94 127 72 99 129 77 82 110 62 87 113 68 66 89 43
116 102 67 130 42 30 170 52 52 137 31 33 123 7 8 174 24 26 200 56 55
170 72 59 160 109 82 162 154 117 134 151 106 60 77 25 78 98 49
78 104 59 49 76 31 46 72 25 116 102 67 138 44 32 176 46 46 183 61 60
154 29 27 171 29 27 159 41 31 177 126 99 107 92 51 131 125 73
133 132 75 79 61 23 91 87 49 49 74 32 58 94 48 39 67 16 77 66 21
134 50 26 186 59 52 184 48 50 197 68 72 166 63 56 124 61 43
171 163 127 151 155 104 132 102 38 184 137 65 108 48 24 102 67 37
66 81 40 77 113 65 75 105 55 102 104 57 149 97 60 209 119 95
146 35 26 169 71 62 163 106 87 129 113 79 130 150 101 153 162 105
148 104 41 185 116 49 133 24 19 97 24 5 103 98 56 81 111 59
101 128 83 111 130 84 164 164 114 174 153 108 108 63 30 127 88 55
124 119 79 98 116 64 88 114 51 143 149 87 161 115 66 126 55 11
163 30 33 121 29 16 121 106 63 95 122 67 106 133 90 117 144 99
130 158 100 122 135 79 146 133 88 131 123 77 106 126 75 92 128 66
62 91 24 116 118 55 167 120 78 136 63 31
