P3
#
16 16
255
42 30 34 46 35 39 52 48 49 49 48 46 37 38 33 42 39 30 50 42 29
48 33 14 68 43 23 106 78 56 63 34 16 71 48 32 53 39 28 40 37 30
30 39 36 21 35 35 44 35 36 42 36 36 46 45 41 48 47 42 42 42 32
48 45 30 64 53 33 72 54 30 92 66 39 120 90 62 110 80 54 67 45 22
52 40 24 46 46 34 41 52 44 41 60 54 35 35 27 39 40 32 52 54 43
62 64 50 60 59 39 55 49 23 66 49 19 82 58 22 123 91 52 139 106 65
161 131 93 79 56 24 58 51 23 47 52 30 35 54 35 37 64 49 26 34 19
35 44 27 50 55 35 62 64 40 65 60 30 62 49 14 82 58 14 115 83 34
144 104 52 150 110 58 169 136 85 96 74 27 75 70 30 63 73 39 60 84 58
64 96 72 26 44 20 34 50 24 37 46 17 45 46 12 61 52 11 79 57 8
122 87 31 178 134 73 199 150 84 192 144 78 176 138 73 133 109 49
95 92 41 73 86 43 73 103 67 74 111 78 26 51 22 42 61 31 47 57 23
60 58 19 91 73 25 112 79 25 145 97 33 193 136 65 210 148 73
205 148 71 200 156 83 176 149 80 128 122 64 82 96 47 63 94 53
45 85 48 23 50 19 50 71 38 65 73 36 90 81 38 139 109 59 153 107 48
154 91 22 173 101 25 162 90 8 163 96 15 219 168 89 177 145 72
141 131 70 92 102 52 61 89 48 39 77 40 24 51 20 52 71 39 65 69 34
97 82 39 160 122 73 182 123 65 167 94 25 171 89 13 171 89 7 158 86 2
246 189 108 152 115 44 118 103 44 72 78 30 44 66 28 31 62 30 30 55 26
50 65 34 67 64 31 105 81 43 153 106 62 199 132 79 175 94 29 180 92 18
170 83 4 172 95 15 248 189 113 125 85 16 85 65 12 61 59 18 45 60 31
21 43 20 25 45 18 51 64 34 85 79 47 123 97 60 162 111 68 206 136 85
185 101 39 179 91 20 171 88 12 170 97 20 228 172 98 108 68 6 69 48 1
54 50 15 54 59 39 40 52 38 20 39 11 44 55 25 81 75 43 115 89 54
141 92 51 197 131 83 190 111 54 175 94 28 159 82 10 159 95 23
198 149 82 94 59 1 56 37 0 46 39 11 54 52 40 48 50 45 40 59 27
45 56 22 64 58 24 85 61 23 108 65 23 185 127 79 195 129 71 179 111 46
166 106 34 177 127 56 201 163 98 122 97 43 86 70 34 70 62 41 69 65 56
61 60 58 83 105 66 67 82 41 63 61 22 70 53 10 93 60 15 176 133 82
192 142 83 176 127 61 172 132 60 190 160 88 193 172 107 141 128 75
106 98 62 84 77 58 71 66 60 60 56 57 103 129 81 89 107 59 73 79 33
71 63 16 89 65 17 153 122 68 155 121 58 145 114 47 158 136 61
179 165 92 155 150 84 128 127 73 97 97 61 76 74 53 61 56 50 50 44 46
85 114 58 88 111 55 79 89 36 71 69 18 74 61 8 109 89 30 96 77 11
102 85 13 128 122 46 153 155 80 114 124 55 113 124 68 94 102 63
81 85 62 68 65 58 58 54 53 60 91 31 80 105 47 79 92 36 69 69 15
60 51 0 74 60 0 56 43 0 76 68 0 83 86 7 114 125 47 74 89 20 92 110 52
86 97 57 79 84 61 66 66 58 57 53 52
