P3
#
16 16
255
30 50 0 71 76 9 120 94 7 146 96 0 159 89 0 148 73 0 183 112 8
184 140 41 82 83 5 58 89 13 70 112 26 57 101 16 52 85 16 36 64 6
29 52 6 24 47 5 32 52 0 81 87 23 125 107 21 197 154 59 184 124 28
201 133 34 164 101 0 154 115 14 107 105 28 86 112 39 62 99 19
57 96 15 62 93 25 43 68 11 70 93 47 85 108 66 31 52 9 58 71 15
153 146 66 181 156 64 151 107 18 152 99 5 185 137 26 195 162 57
99 95 21 66 82 19 78 104 33 74 104 32 60 87 18 56 80 20 55 77 31
36 57 18 22 43 4 43 60 8 79 82 13 63 52 0 98 69 0 132 92 4 163 120 18
126 91 0 82 66 0 53 50 0 69 70 0 52 61 0 50 69 0 52 75 5 44 67 13
20 42 0 37 56 11 49 67 17 114 124 71 53 53 0 71 53 0 134 101 24
158 110 28 136 85 0 142 100 0 176 140 30 185 147 38 147 124 18
75 82 0 76 100 14 53 79 5 57 84 17 62 87 30 38 59 2 80 91 33 94 91 24
116 91 9 152 110 24 155 100 18 163 99 11 225 157 48 205 134 16
195 125 4 226 176 61 176 173 70 103 126 35 84 113 31 75 107 31
79 115 41 43 70 0 76 81 0 181 160 67 214 162 53 188 122 9 160 97 0
210 137 35 209 113 10 214 112 2 202 105 0 201 133 26 137 127 32
65 87 2 81 114 35 92 130 53 56 93 15 85 108 20 83 76 0 180 143 26
213 148 22 237 162 35 195 132 16 200 128 17 208 110 0 244 134 21
226 121 6 218 137 29 144 111 16 44 48 0 69 95 21 50 87 17 32 62 0
137 148 56 230 205 79 216 164 26 211 142 12 230 161 34 177 121 0
201 143 18 212 135 5 235 147 14 242 149 20 215 130 11 197 133 27
174 140 51 31 38 0 51 79 21 50 80 6 77 90 0 214 189 62 221 174 36
224 164 40 166 106 0 146 91 0 206 151 24 226 158 23 222 146 9
247 165 39 241 164 50 199 137 38 129 94 12 53 58 0 85 108 52
79 120 41 78 103 11 139 136 21 193 167 48 159 116 12 132 79 0
175 117 7 186 121 3 194 124 0 208 137 13 178 104 0 187 131 38 83 57 0
66 67 1 74 90 25 75 100 35 81 126 45 81 117 30 101 117 19 141 138 41
105 87 1 114 82 0 170 126 27 186 134 25 190 135 19 190 132 22
150 94 0 117 80 0 66 69 2 64 88 26 53 79 16 53 79 14 90 132 58
57 98 22 53 87 10 57 84 7 95 108 38 101 103 30 110 100 13 161 143 45
184 160 52 168 139 37 124 92 9 95 79 4 80 101 24 94 130 58 116 147 87
120 151 94 82 121 54 43 82 15 28 69 3 45 84 19 74 102 44 78 96 34
75 79 3 61 59 0 80 73 0 81 71 0 97 87 18 134 136 73 92 119 48 38 75 5
37 68 11 25 53 4 51 82 23 31 62 2 41 73 10 52 83 23 29 57 6 59 76 22
126 125 60 113 105 33 91 88 17 37 39 0 53 61 10 45 61 14 25 52 0
66 95 39 67 90 44 36 57 16 43 72 16 49 78 20 44 72 13 46 74 16
24 52 3 48 65 13 113 109 48 127 118 53 99 97 36 35 44 0 25 42 0
16 41 1 49 75 28 37 63 15 58 76 36 48 64 27
