P3
#
16 16
255
72 105 48 82 117 61 88 127 72 55 94 41 47 80 27 50 83 30 37 70 17
52 92 40 62 114 66 114 170 125 157 204 160 132 180 142 103 158 127
118 173 141 82 131 84 34 81 27 101 140 83 71 110 53 80 120 67
70 109 56 76 111 55 52 87 29 62 104 41 45 90 31 71 117 68 125 158 115
160 164 127 136 142 108 124 159 127 103 153 116 38 90 44 27 80 28
68 122 62 85 134 78 117 159 109 75 115 63 88 126 65 37 82 13
70 128 51 65 118 46 87 122 66 139 127 87 163 79 55 139 57 33
138 132 96 108 147 103 84 137 93 64 125 81 94 154 94 80 135 77
39 86 34 85 128 75 71 117 53 65 115 44 100 159 79 109 155 83
89 101 55 144 97 69 178 46 31 157 30 13 110 76 41 96 123 80
97 148 107 80 145 103 89 148 90 63 121 63 54 105 49 82 133 77
115 169 109 115 167 101 101 142 74 91 108 54 107 82 60 131 56 50
186 49 39 182 55 40 97 50 22 64 74 39 101 148 106 90 156 110
61 116 61 100 155 100 33 83 32 114 164 111 134 188 130 80 115 57
87 84 33 123 84 51 149 76 70 138 42 43 149 37 23 160 68 47 72 34 11
34 39 9 70 108 71 83 138 98 74 122 72 90 138 90 75 122 78 126 172 125
87 130 74 75 77 28 136 61 32 158 37 26 187 57 57 154 45 40 130 70 42
79 56 22 41 37 12 15 27 5 31 55 31 79 109 83 60 110 57 76 124 74
95 138 95 65 102 59 87 120 67 122 101 56 154 31 13 189 20 15
181 15 15 153 31 20 147 104 69 87 92 51 40 56 29 20 42 21 29 46 28
43 57 40 75 142 73 99 157 98 83 124 80 78 106 66 72 91 45 123 86 44
171 29 9 214 26 17 211 34 28 175 42 25 146 87 47 122 115 69 65 89 55
45 75 49 24 37 19 27 31 17 61 131 61 86 146 86 53 91 50 75 101 64
104 126 79 95 72 28 163 58 28 215 64 45 226 69 52 175 45 23 140 66 31
134 112 71 70 96 59 71 112 80 39 58 36 49 60 43 68 129 69 101 154 102
36 67 35 64 89 57 139 173 122 100 121 64 154 142 94 158 105 65
168 63 34 158 44 20 133 48 27 150 110 84 73 97 63 65 115 78 70 107 76
38 71 42 33 83 30 91 134 89 31 60 30 78 105 74 142 184 134
121 166 109 139 179 126 92 101 54 129 80 47 142 72 47 132 74 54
165 140 118 104 135 103 42 100 60 67 117 79 23 69 30 20 56 10
41 73 32 21 48 15 77 107 73 149 192 147 135 185 136 126 179 133
33 74 32 65 80 47 81 84 55 45 49 24 147 170 142 114 168 134 51 118 77
58 116 68 39 93 41 18 50 3 33 61 20 23 48 16 72 102 68 91 132 90
125 171 124 127 174 128 59 106 62 40 84 48 21 61 27 0 31 0
125 170 137 112 173 139 80 148 109 75 137 90 68 126 75 32 66 15
38 69 25 31 56 26 77 104 73 90 126 80 119 154 100 124 149 92 59 86 33
27 65 18 15 56 14 63 101 60 89 134 95 106 166 130 102 166 131
84 146 109 81 141 103 35 72 18 32 65 18 30 55 26 97 122 92
122 154 107 116 145 87 138 152 91 104 122 62 88 122 71 44 88 39
36 75 31 21 66 25 107 165 127 110 174 139 60 121 90 103 164 133
