P3
#
16 16
255
82 68 55 90 72 60 106 82 72 112 85 76 103 76 67 81 59 46 98 77 58
96 78 58 90 68 57 104 80 68 117 86 68 117 93 65 101 91 55 151 153 104
117 122 66 111 119 59 100 82 70 94 74 63 106 82 70 99 72 61 100 76 66
102 80 67 102 83 66 100 81 64 97 78 64 101 79 65 110 85 63 98 79 46
105 101 53 125 130 72 116 124 64 110 120 59 107 83 73 87 63 51
105 82 68 120 98 84 108 86 75 106 86 75 112 94 82 95 77 63 104 85 70
106 89 69 85 71 42 88 84 37 106 111 44 115 126 50 111 122 54
120 132 68 93 69 57 95 73 60 112 95 79 117 100 82 146 125 106
107 85 64 113 92 71 116 96 71 109 89 56 105 90 51 116 107 64
102 102 48 122 132 61 105 119 42 77 90 21 73 85 21 102 85 69
105 89 73 109 100 83 104 92 70 128 106 69 123 96 51 126 102 56
116 93 41 112 89 21 119 101 29 139 130 65 122 120 59 99 107 48
63 74 16 62 74 12 80 94 32 82 74 51 98 94 69 107 106 85 111 106 74
147 128 72 171 140 73 180 140 71 132 86 11 182 139 47 197 162 72
160 141 65 89 81 19 66 65 17 62 68 22 84 91 37 92 102 42 56 63 29
85 95 60 84 95 61 107 110 63 129 117 43 191 155 67 215 148 59
170 85 0 217 134 32 207 141 44 169 131 56 82 63 5 85 72 30 77 69 30
95 93 45 97 97 45 56 66 32 88 98 63 107 119 81 115 119 68 126 114 38
204 163 71 238 156 56 207 104 0 221 121 10 212 132 33 138 94 19
146 124 67 97 82 43 81 71 35 90 86 41 81 81 31 57 52 32 76 74 49
115 116 84 104 100 55 95 77 15 201 156 75 214 130 31 238 138 27
185 90 0 199 125 26 136 94 22 147 127 74 80 71 30 68 66 27 95 99 49
94 101 47 68 60 41 74 68 46 93 89 60 103 98 60 102 86 37 125 85 16
174 94 0 235 137 26 227 138 22 204 136 35 123 85 20 118 104 59
95 92 51 62 68 22 114 125 69 77 88 28 88 84 57 103 102 74 92 92 66
95 96 65 96 94 56 102 76 19 172 98 13 218 126 17 250 167 39
219 159 47 73 43 0 100 94 62 49 55 11 89 102 48 109 125 62 87 107 38
83 76 50 101 95 71 101 99 78 104 104 80 92 95 64 100 83 37 172 112 42
224 147 55 222 152 41 195 142 48 44 21 0 71 70 42 63 72 27 73 88 33
120 138 76 76 97 32 97 78 64 105 89 74 105 93 77 93 86 67 93 89 64
112 98 61 156 116 64 179 127 67 144 90 30 103 62 10 40 20 0 81 78 45
50 59 14 118 132 81 77 93 44 81 97 48 106 82 72 121 101 90 111 97 84
102 95 76 84 82 57 91 87 52 98 81 37 94 67 22 108 75 40 67 38 8
51 40 10 64 66 29 70 81 38 109 127 77 98 116 64 76 94 42 103 81 68
117 99 85 99 90 73 98 98 74 69 78 47 85 97 57 98 106 59 70 71 27
87 76 44 56 47 18 39 40 9 43 55 19 77 96 50 105 128 72 118 143 78
87 112 44 117 95 81 111 95 79 106 99 80 107 111 86 76 90 55 75 93 51
95 117 70 48 64 19 63 64 32 51 50 22 47 56 27 54 70 34 84 108 60
98 126 67 104 131 60 107 135 58
