P3
#
16 16
255
80 52 31 106 95 67 97 115 73 103 109 65 146 85 57 139 51 29 145 67 45
147 104 72 123 139 90 118 159 103 70 100 46 106 124 74 101 102 62
46 44 3 100 103 58 96 104 55 91 71 47 89 75 46 113 115 75 145 127 87
123 48 25 142 46 30 142 61 42 116 69 41 116 119 72 138 155 103
110 97 53 117 94 53 115 96 56 67 58 17 127 130 87 64 73 28 91 86 56
67 54 20 112 83 43 165 105 71 147 45 31 151 40 33 118 34 23
156 102 78 152 131 88 113 76 32 172 72 48 145 39 17 128 68 34
110 85 45 110 110 72 94 108 72 86 92 58 144 125 92 134 68 34
179 79 55 177 59 49 162 50 46 123 43 36 161 98 83 161 104 75
145 58 30 183 31 18 182 26 14 156 58 33 147 98 66 121 112 81 54 65 35
125 135 98 169 140 108 177 68 47 181 41 28 182 60 49 165 64 56
137 63 60 139 65 64 167 62 59 195 58 52 206 32 25 204 33 23 168 41 26
158 80 60 72 48 24 24 28 3 144 143 99 155 110 77 167 35 22 222 60 57
200 72 63 150 48 43 157 81 81 156 74 78 137 16 23 177 24 29 204 29 26
206 43 34 179 62 45 119 51 28 59 42 14 27 36 5 129 99 47 144 79 41
183 45 34 202 39 42 178 40 40 124 12 10 117 29 28 119 33 32 127 21 21
156 26 26 152 0 0 164 31 22 120 53 26 134 116 78 129 142 96 95 125 75
134 96 34 168 95 50 176 36 21 179 13 15 173 24 26 165 35 37 165 55 58
151 47 48 143 31 30 179 54 52 149 1 1 153 26 17 129 65 37 116 101 58
105 122 70 117 150 93 125 98 29 163 98 44 178 38 11 190 17 10
193 30 31 189 36 41 173 27 38 174 34 43 138 2 6 162 18 18 167 9 8
163 19 10 159 57 32 110 54 17 50 46 0 45 65 14 111 96 27 146 94 37
166 36 4 199 29 14 213 44 41 218 53 59 195 38 49 197 46 55 146 0 3
163 15 13 185 28 23 181 34 24 157 45 21 126 60 25 107 95 53 88 106 58
66 64 3 92 55 2 161 51 16 190 35 15 202 31 24 205 36 39 182 31 36
201 61 62 164 26 23 181 43 33 203 56 46 173 41 26 136 44 19 141 93 57
105 106 62 83 110 59 78 88 36 83 62 15 158 74 37 166 36 12 178 17 7
198 33 31 161 19 18 142 10 8 151 14 8 174 36 26 176 40 26 142 31 11
136 71 43 102 78 40 68 80 34 64 92 41 120 141 100 96 94 53 114 69 30
139 45 17 170 28 14 194 41 36 156 26 24 130 4 5 172 30 29 165 22 18
171 44 29 142 55 28 99 69 33 78 85 41 88 107 61 71 97 49 74 101 60
71 83 43 83 69 30 102 52 19 148 51 32 170 60 47 130 41 27 115 23 10
156 39 29 148 32 17 141 49 24 135 83 46 102 101 55 97 124 73
76 100 50 64 88 38 61 89 38 83 107 59 98 111 68 73 70 35 80 53 26
77 43 16 60 36 0 84 52 11 124 66 28 128 73 32 130 101 57 107 105 56
79 102 46 112 145 88 115 143 85 46 71 14 73 102 46 110 138 87
96 123 78 59 79 42 50 59 28 70 76 40 74 84 34 90 89 32 130 103 50
103 76 23 101 104 49 102 126 68 64 98 38 40 76 15 33 63 3 67 92 34
