P3
#
16 16
255
120 121 81 115 115 77 121 121 85 109 106 71 81 76 36 90 80 29
123 105 41 137 115 32 150 121 21 194 160 50 176 140 26 161 125 15
130 95 1 130 97 16 115 86 20 101 72 14 99 96 55 94 91 50 96 92 54
96 91 51 89 81 35 98 85 30 127 107 38 149 123 38 165 131 33
204 166 57 196 156 45 182 141 35 154 115 22 136 101 20 130 97 30
124 94 34 73 65 19 76 68 21 80 70 21 84 72 20 88 73 16 92 73 5
120 93 14 160 126 37 190 148 50 201 154 50 194 145 42 191 143 43
192 146 58 161 118 40 152 113 44 140 105 41 72 54 6 85 68 16 90 71 15
93 73 10 96 73 3 91 64 0 121 85 0 179 136 42 233 180 84 223 168 68
207 149 52 187 131 38 178 124 38 117 68 0 110 63 0 105 62 0 96 66 16
104 74 20 106 76 14 116 86 13 130 98 13 131 94 3 158 112 16
210 156 58 213 150 53 220 151 58 211 141 53 183 115 30 157 95 12
107 51 0 141 88 8 177 129 47 112 69 24 107 66 14 110 69 3 136 95 15
168 125 31 185 137 35 204 147 44 228 163 61 232 159 64 228 151 61
198 117 35 166 89 7 147 77 0 128 64 0 167 111 18 204 151 57 115 57 19
111 55 8 126 72 8 155 102 22 181 127 29 203 145 38 219 152 45
223 148 46 203 120 28 193 104 20 145 55 0 140 55 0 153 77 0
176 110 14 196 138 31 203 150 38 116 47 16 124 56 17 155 90 32
178 115 38 180 115 21 195 126 23 216 139 35 214 130 31 215 124 35
214 119 39 164 71 0 167 78 0 173 96 6 202 135 31 197 140 24 185 134 9
127 49 27 143 67 35 142 66 17 175 100 33 171 97 12 187 108 15
204 120 24 220 129 36 216 120 36 199 102 23 189 93 17 190 104 21
192 118 23 189 127 16 191 140 15 201 154 22 147 62 42 132 48 20
126 43 1 159 79 20 157 75 1 159 74 0 193 103 17 217 122 38 229 132 53
203 105 30 185 92 15 189 104 21 189 119 23 181 125 14 183 138 13
195 157 24 147 56 35 117 27 0 116 31 0 140 54 3 146 60 0 158 69 1
211 119 46 217 123 49 197 100 29 185 91 19 165 77 3 153 76 0
168 105 12 196 147 44 215 180 64 220 190 68 153 62 33 128 38 4
131 43 3 131 45 0 146 59 6 178 87 32 234 141 82 203 109 47 185 91 27
173 81 16 157 74 4 151 82 5 158 104 18 173 134 41 188 160 61
197 175 73 191 102 58 155 66 22 145 58 13 136 49 4 146 57 13
169 78 34 212 120 73 171 79 28 142 51 0 122 38 0 129 54 0 158 98 28
165 118 46 149 117 42 152 135 57 178 167 88 218 132 73 167 81 24
140 54 3 145 58 13 140 52 14 137 47 12 169 77 40 157 65 24 160 72 24
156 77 21 141 72 13 120 66 4 108 70 8 107 82 25 103 92 36 99 94 39
201 117 44 170 85 18 141 56 0 154 70 24 136 50 15 127 38 8 144 55 25
155 66 32 144 60 16 145 69 19 114 51 0 71 21 0 64 32 0 95 76 33
101 95 59 82 83 51 175 92 12 180 98 24 157 73 13 164 80 33 137 51 18
133 46 19 140 50 24 148 61 31 151 68 28 110 36 0 82 20 0 82 36 0
83 52 8 70 56 19 68 64 39 76 79 58
