P3
#
16 16
255
67 71 21 75 81 35 53 63 26 24 38 2 16 35 0 41 64 8 62 85 17 37 59 0
47 63 0 57 69 19 54 58 31 50 55 32 63 69 41 44 57 11 62 84 11 44 70 0
53 54 0 53 56 1 56 64 17 52 63 21 42 58 13 35 53 1 37 58 0 52 72 3
60 74 13 59 69 17 50 56 18 55 61 27 73 80 39 46 56 3 61 80 1 62 85 0
86 83 2 73 71 0 70 72 9 51 55 4 44 53 6 35 49 0 25 40 0 69 84 25
59 70 10 60 70 10 63 68 14 76 81 27 94 100 40 53 60 0 65 75 0
91 104 12 151 142 39 146 140 44 137 132 51 76 75 8 70 73 18 75 82 31
35 45 0 59 69 17 64 73 16 63 69 5 73 79 9 105 108 31 152 154 71
124 127 36 118 120 23 131 133 32 206 191 64 208 193 74 184 171 67
96 89 1 74 69 1 81 80 26 40 41 0 56 59 16 60 65 11 44 49 0 59 63 0
101 103 2 185 183 74 193 190 75 171 164 50 151 141 26 207 184 44
213 191 56 205 187 61 146 132 23 108 98 11 84 76 11 45 41 0 58 56 15
52 52 2 45 48 0 84 85 0 111 112 0 170 165 35 196 186 52 191 177 44
174 155 24 185 154 11 205 177 33 231 206 62 230 210 79 201 185 74
149 137 51 93 82 26 62 55 11 65 63 15 65 65 1 134 133 40 156 154 33
179 172 29 202 189 35 218 197 44 212 187 35 206 170 30 208 176 31
209 180 26 216 192 42 209 189 54 187 170 62 150 136 63 94 84 31
69 62 16 48 46 0 125 124 34 168 163 45 199 189 42 227 209 47
237 213 45 218 187 18 182 147 17 202 169 30 215 185 25 208 183 18
223 200 42 209 191 55 184 168 72 108 95 27 67 59 10 62 56 4
108 105 28 144 137 31 181 170 29 226 209 44 228 201 22 234 204 18
117 84 0 166 136 6 216 188 29 227 201 30 236 214 40 212 191 36
169 152 34 80 65 0 61 52 0 47 41 0 85 80 16 94 87 0 116 105 0
198 182 24 215 190 10 223 196 5 113 85 0 181 154 37 236 210 61
225 201 31 212 190 9 195 174 3 189 171 33 131 118 14 96 87 20 64 58 6
91 88 33 84 80 6 94 86 0 212 200 56 229 208 37 229 208 21 82 63 0
167 146 39 237 213 77 230 206 44 217 192 14 199 177 3 197 177 26
141 127 5 103 97 13 67 65 4 107 105 54 95 94 30 74 69 0 184 174 51
209 194 39 229 211 41 63 55 0 146 134 36 222 203 82 234 212 67
240 215 50 229 205 35 219 199 40 154 141 3 108 103 1 64 64 0
104 107 52 90 93 38 44 44 0 113 107 9 163 153 22 219 207 61 78 80 0
152 149 56 219 205 96 222 201 73 224 197 46 222 197 34 247 225 61
213 202 52 161 159 40 76 81 0 73 81 21 72 80 29 59 63 4 86 85 5
136 129 23 183 174 53 45 55 0 105 108 17 165 155 57 172 152 37
179 151 15 187 161 6 231 209 45 218 205 47 187 187 55 79 87 0 47 58 0
60 72 22 92 100 49 75 77 14 104 102 17 115 109 11 33 47 0 48 54 0
67 61 0 85 67 0 136 109 0 177 150 1 229 207 43 211 199 37 169 170 32
86 95 0 63 76 4 82 96 45 117 126 81 57 62 8 82 80 5 79 75 0
