P3
#
16 16
255
41 69 8 44 73 7 91 122 52 74 106 30 89 120 44 96 119 49 66 70 20
70 68 20 84 83 26 102 109 42 78 93 26 93 116 48 50 76 13 71 97 36
58 79 22 58 77 21 86 113 46 92 117 49 97 118 49 78 98 27 74 90 19
109 121 55 56 63 12 61 60 12 83 78 22 119 115 52 120 125 59 96 108 44
106 126 63 61 85 23 65 85 26 58 78 19 131 158 79 135 156 81
105 107 42 84 76 14 85 69 10 111 102 45 59 68 15 86 93 41 136 121 66
144 119 63 123 102 45 95 85 24 131 140 77 52 71 7 84 103 39 63 84 19
105 133 49 121 137 62 124 114 52 108 78 24 111 71 20 159 131 81
134 139 85 121 126 72 106 78 28 119 71 23 151 97 50 137 89 40
143 116 61 78 69 12 63 71 11 48 64 2 67 95 18 143 156 84 149 128 71
106 62 13 123 66 21 185 143 95 122 119 66 67 64 13 84 41 0 131 57 18
163 63 27 175 71 36 144 59 20 129 72 29 57 40 0 45 48 1 61 91 19
113 128 59 142 126 64 120 74 22 134 65 23 180 112 73 112 69 27
72 24 0 137 57 22 162 54 25 194 66 39 187 51 25 180 52 23 150 57 24
75 43 5 57 55 16 68 99 32 81 102 33 98 99 23 137 106 39 146 69 27
163 59 32 195 78 58 182 53 34 178 35 18 174 27 9 181 40 20 186 44 22
188 38 14 153 38 9 68 30 0 38 38 0 52 83 16 64 86 14 109 112 31
150 116 45 141 48 7 166 36 14 186 43 27 177 27 12 203 52 33 190 44 21
201 62 39 176 44 19 152 25 0 166 74 37 63 34 0 64 67 20 65 96 20
83 99 24 127 118 41 172 117 53 166 46 9 189 45 21 168 42 17 161 48 18
205 98 62 182 74 35 175 55 20 174 70 31 102 44 0 96 74 16 102 103 37
76 89 17 42 69 0 117 125 50 153 119 55 161 78 28 203 60 30 215 64 37
187 73 37 176 92 48 175 109 59 163 97 47 170 86 40 153 87 37 81 67 4
96 112 39 119 135 60 79 96 18 80 104 30 120 115 49 176 109 64
193 75 45 206 45 25 200 44 19 201 96 49 207 142 84 166 129 74
106 81 27 152 121 67 104 84 23 109 117 40 82 104 22 81 98 27 64 81 13
65 77 13 104 89 34 124 51 16 176 57 33 205 49 34 207 58 34 158 60 11
179 123 62 158 136 79 127 122 66 146 144 85 111 116 50 117 134 56
110 131 54 77 91 29 66 80 21 50 43 0 85 64 21 93 45 7 184 101 69
183 56 37 177 47 25 147 51 11 191 131 79 167 145 88 134 129 71
130 128 67 80 82 19 85 97 33 91 105 44 95 104 51 63 70 19 64 52 12
91 76 35 99 74 33 117 67 32 147 57 31 158 60 33 137 64 23 165 117 68
158 137 82 131 126 68 102 104 41 97 103 41 69 76 22 84 92 41 84 92 41
62 70 19 76 76 22 83 81 30 87 78 37 107 83 47 130 84 51 98 49 9
133 100 47 137 115 57 91 71 20 98 89 34 67 77 14 90 104 42 84 88 38
97 103 55 78 93 38 31 51 0 71 80 17 75 80 24 79 80 38 100 90 54
107 81 46 93 66 21 128 116 58 135 125 64 111 94 42 117 107 54
104 116 52 94 113 49 62 65 18 83 86 39 57 74 19 50 74 12
