P3
#
16 16
255
85 105 46 52 73 17 25 47 0 41 69 18 48 81 24 59 89 27 60 75 16
59 68 13 48 61 15 44 57 14 61 72 32 52 63 23 30 45 6 27 42 3 45 57 17
46 57 17 84 101 46 109 128 73 25 44 0 40 62 13 48 69 12 70 82 18
79 72 4 103 94 29 91 94 39 76 85 38 81 90 47 63 74 32 30 47 5 30 47 5
37 49 9 82 93 51 83 93 43 102 114 66 34 51 6 51 63 15 44 42 0
124 101 33 152 101 18 143 95 11 122 108 37 84 88 29 86 94 43 54 67 21
33 52 6 44 66 19 29 45 0 76 89 45 51 60 15 72 84 38 43 59 14 52 56 6
59 37 0 158 108 37 217 136 47 213 132 40 152 101 20 155 131 57
107 99 36 54 64 4 45 66 9 44 69 14 34 50 1 68 81 35 54 69 26 43 60 15
42 60 10 63 62 6 89 49 0 178 105 36 217 116 36 214 104 17 228 127 39
217 141 53 189 154 70 68 67 0 56 76 4 58 84 19 32 49 0 70 82 32
65 63 15 53 55 6 48 61 8 71 68 13 111 66 7 196 115 49 210 100 21
232 106 19 220 91 0 201 96 5 164 113 21 121 109 23 79 95 20 64 90 25
33 50 0 60 72 22 119 72 16 108 77 22 61 61 9 65 63 12 94 58 6
167 96 32 210 100 11 242 112 16 210 74 0 208 96 14 174 114 26
107 89 5 78 89 21 71 94 38 38 54 5 60 73 27 131 70 16 111 68 17
82 76 26 70 70 20 97 66 19 158 96 35 206 107 22 248 127 34 211 79 0
225 105 27 201 123 41 119 76 0 99 88 26 70 77 25 50 59 14 48 61 18
100 50 15 110 75 37 70 66 19 82 80 31 80 57 7 135 86 30 183 106 36
201 100 22 195 72 0 232 106 29 200 89 17 176 91 24 140 92 30 78 57 4
33 31 0 27 37 2 118 75 43 84 54 16 77 69 20 71 60 6 108 71 16
113 53 0 155 74 9 142 40 0 207 87 1 243 114 30 231 103 30 212 100 34
179 99 38 127 82 27 43 34 0 32 42 7 128 89 46 116 85 38 88 74 13
114 87 20 177 109 38 145 48 0 184 71 1 178 56 0 218 95 1 255 131 34
227 95 13 210 86 16 197 92 27 150 83 28 59 46 2 79 95 56 93 62 16
102 79 25 109 95 30 161 127 53 215 129 52 201 84 5 214 83 11
227 94 17 221 90 0 236 113 20 231 119 37 199 97 25 171 81 18
123 67 10 84 78 30 85 107 61 72 55 11 86 74 22 109 104 40 151 121 48
192 102 24 207 84 6 210 76 3 234 93 22 221 79 7 218 100 26 183 114 39
147 107 37 115 81 20 98 81 27 59 69 19 65 89 41 50 46 1 56 54 5
74 78 17 131 112 43 183 114 39 187 84 9 212 94 22 207 83 13 207 84 17
192 97 33 137 98 31 102 94 31 78 75 20 85 92 40 67 84 32 56 81 26
46 52 8 35 43 0 74 89 30 126 128 63 155 126 60 146 87 19 193 113 42
189 102 31 179 105 34 144 91 25 81 60 3 58 55 4 45 46 2 83 91 44
84 98 45 55 75 16 43 52 9 38 52 3 42 63 6 104 118 56 122 112 51
139 104 40 154 91 22 163 95 22 135 85 14 82 51 0 79 66 13 61 60 14
50 55 15 52 61 18 69 82 28 70 85 26
