P3
#
16 16
255
48 94 58 57 99 61 61 99 52 39 68 20 63 82 36 101 117 70 68 84 37
61 75 14 79 90 11 108 121 29 95 111 22 51 72 0 52 70 18 35 44 0
100 92 7 170 152 52 46 90 55 51 93 57 51 83 42 40 67 24 70 92 46
70 86 37 71 82 24 67 73 1 83 84 0 178 179 75 169 175 69 95 108 18
32 51 0 41 58 4 54 53 0 156 147 52 45 86 54 31 68 35 23 50 19
49 71 35 35 56 13 59 74 17 82 82 8 117 107 12 120 103 0 206 186 53
212 194 58 165 162 49 56 78 14 36 64 15 42 59 0 144 156 72 32 69 38
15 48 17 13 38 9 57 77 42 39 57 7 71 76 10 154 134 48 174 140 33
160 122 0 219 181 44 214 176 39 198 178 65 104 124 55 42 75 22
44 67 0 103 121 45 23 52 22 8 35 4 29 53 21 53 71 29 53 65 3
128 117 38 189 138 49 184 117 13 207 151 30 215 161 39 204 150 42
200 166 76 125 135 64 46 72 7 53 70 0 79 93 16 25 45 18 43 66 37
56 80 48 31 53 7 73 85 21 122 107 26 192 132 36 176 99 0 203 139 31
170 111 7 153 88 0 194 147 59 151 141 52 143 151 65 129 137 54
51 59 0 10 24 0 10 26 0 19 44 14 9 34 0 53 72 17 89 83 9 192 143 41
179 110 6 136 76 0 126 69 0 136 72 0 223 165 57 186 147 28 204 181 65
171 162 61 53 48 0 2 10 0 1 15 0 19 42 13 18 46 6 41 68 17 61 65 0
144 102 0 210 148 27 191 132 32 132 72 0 166 100 0 232 168 44
230 176 41 214 177 47 187 172 69 48 42 0 22 26 11 5 17 0 26 50 18
28 59 15 63 98 42 72 86 1 204 167 35 231 167 17 241 174 33 211 143 6
172 104 0 228 164 28 224 168 29 220 184 61 150 140 51 44 50 0
24 30 16 24 36 16 28 52 20 32 61 15 72 106 45 94 108 13 214 181 40
237 178 16 243 174 18 237 166 12 210 139 0 227 165 20 227 178 41
176 149 32 61 62 0 23 38 0 22 35 17 17 32 9 20 43 14 27 53 6
85 108 38 136 138 37 207 174 33 232 176 19 219 158 8 235 168 19
220 147 0 246 185 34 231 194 61 97 86 0 44 60 0 45 74 20 19 32 12
0 13 0 18 43 11 21 45 0 73 89 16 176 173 68 225 190 48 205 152 0
188 131 0 226 162 12 242 172 12 237 180 29 219 191 68 87 84 0 47 65 7
49 77 36 28 35 19 10 24 0 27 55 15 26 55 0 70 86 11 168 161 57
226 190 44 234 182 18 208 156 0 211 155 0 233 169 9 223 171 26
194 172 63 70 68 0 18 26 0 17 33 7 21 27 13 8 22 0 42 70 30 42 75 20
74 96 31 138 141 50 201 177 45 239 201 54 226 191 47 194 158 18
207 169 32 206 177 59 127 119 34 61 66 8 24 36 0 11 25 0 20 30 21
4 18 1 19 44 12 22 53 11 72 108 60 90 117 48 134 136 37 193 185 76
158 154 55 112 112 22 125 131 45 62 73 0 64 79 24 44 63 18 21 43 4
18 44 5 1 12 4 19 33 18 23 46 18 14 46 9 59 101 61 48 86 29 86 101 18
107 113 23 50 62 0 64 83 17 94 122 61 63 93 41 40 65 25 35 61 24
76 104 63 31 62 18
