P3
#
16 16
255
102 106 55 73 76 29 61 66 25 60 69 26 65 80 25 59 81 19 67 92 34
58 81 27 85 93 52 94 99 58 87 94 40 86 96 35 58 72 10 47 64 9
39 55 18 59 75 46 58 64 16 65 71 25 48 53 12 58 67 22 105 124 69
65 89 29 46 72 11 71 94 38 135 151 106 89 100 57 100 110 58 96 110 51
72 87 28 72 91 36 80 96 57 96 113 79 40 51 8 29 38 0 29 38 0 79 93 44
95 123 65 55 85 25 55 79 19 97 121 63 135 162 109 109 133 85
98 116 68 84 102 52 88 109 53 99 122 68 81 98 54 66 82 43 84 99 58
51 62 20 58 63 22 110 113 68 106 116 64 125 132 80 105 99 49
118 108 59 144 141 96 101 104 61 123 128 87 84 90 46 132 131 85
130 129 83 46 49 6 89 96 54 93 112 67 65 76 34 100 91 58 94 74 41
136 106 68 143 97 61 123 54 23 158 82 56 138 71 45 106 55 26 94 69 29
118 93 53 152 98 70 193 139 111 93 69 31 108 96 54 102 110 69
83 83 45 90 71 39 121 84 55 146 89 60 153 72 45 177 66 49 209 91 77
173 67 54 145 60 40 108 47 18 148 83 55 154 52 37 144 51 34 111 66 35
75 55 18 132 118 83 82 64 28 86 57 23 126 81 50 154 83 55 186 85 65
206 72 60 187 48 41 145 31 21 140 37 28 160 58 46 181 64 55 175 30 27
160 36 28 150 93 73 47 26 0 159 147 109 130 115 74 116 93 52
168 120 84 215 120 98 179 49 35 198 44 36 200 48 43 141 26 19
135 33 28 166 54 52 184 54 56 203 47 50 190 58 54 96 41 21 39 23 0
114 134 83 162 175 122 154 151 98 123 74 33 184 63 44 201 36 32
223 45 43 235 77 74 182 79 70 137 59 49 151 63 61 149 43 45 201 65 69
186 71 66 78 35 16 42 37 8 136 165 107 110 120 67 161 134 87
161 87 52 184 46 33 201 27 26 212 30 29 209 56 50 152 60 45 116 50 34
137 62 56 115 30 27 189 87 82 174 97 81 74 55 22 63 74 32 124 139 82
123 105 57 166 79 52 213 85 72 225 81 73 228 70 67 225 60 56
200 59 49 167 81 56 149 85 58 150 74 58 137 68 52 161 114 88
119 100 60 53 68 13 105 137 74 97 112 55 97 81 32 142 61 34 168 56 42
149 43 30 147 36 25 189 67 54 179 74 52 157 99 59 131 89 47
158 107 76 156 117 86 71 64 18 127 145 87 120 153 84 62 104 28
103 128 70 72 87 32 79 72 20 61 39 0 38 14 0 66 32 7 112 63 31
135 93 51 132 122 63 113 117 56 96 94 45 150 154 104 122 142 79
87 119 46 126 164 89 50 93 14 88 115 60 47 75 17 58 86 27 76 99 47
53 69 32 62 69 36 76 73 32 111 111 59 88 104 42 51 73 9 44 62 10
52 72 19 65 94 28 116 149 78 110 146 76 43 79 9 53 69 22 67 87 38
89 113 61 55 79 31 42 56 20 23 37 2 44 61 17 85 105 56 63 83 34
62 79 34 34 45 5 33 46 3 46 65 10 47 68 11 63 86 30 41 64 10 22 33 0
80 96 51 57 81 33 0 23 0 28 42 7 17 33 0 52 79 34 67 96 48 58 79 38
42 57 18 31 38 5 25 33 0 52 66 17 48 65 13 73 89 42 57 73 28
