P3
#
16 16
255
81 106 67 74 99 60 74 101 60 85 110 70 22 40 0 67 80 36 92 99 47
78 86 27 72 85 29 107 126 70 84 102 54 81 93 53 58 57 29 68 64 39
67 74 43 29 40 6 55 81 36 75 101 56 69 94 52 80 101 60 45 60 17
69 71 22 119 99 40 126 101 35 122 107 40 133 129 66 89 99 46 86 99 55
79 83 50 76 79 50 68 82 47 60 77 41 78 108 48 96 123 68 104 126 80
70 86 41 75 83 32 101 79 19 183 109 38 190 97 19 206 131 48
173 127 49 91 83 21 96 108 58 91 104 61 68 84 45 71 98 57 54 85 43
64 89 31 100 123 69 68 83 42 62 69 28 72 69 18 145 104 40 202 100 18
243 115 26 242 126 41 199 112 32 137 94 25 90 78 18 91 99 48 79 98 53
79 104 64 72 98 59 50 67 25 88 103 64 52 57 27 72 65 36 91 67 29
157 101 42 231 126 35 255 123 28 247 109 34 193 66 0 195 99 22
140 82 9 88 78 19 79 91 45 97 104 70 57 61 34 53 64 30 74 81 50
63 61 38 74 60 34 107 74 39 148 87 33 231 128 49 232 101 19 204 64 2
235 97 35 227 101 24 193 100 23 112 71 15 81 67 28 97 87 60 82 75 56
69 75 41 46 49 20 67 62 42 75 60 37 97 69 30 133 79 32 189 92 41
176 56 4 165 44 0 226 102 48 238 108 32 222 104 32 137 50 5 121 65 38
98 73 53 71 62 47 50 51 17 52 51 20 60 52 29 81 59 35 108 64 25
170 103 60 160 63 28 152 45 11 136 37 0 175 69 19 216 90 16 203 79 7
154 51 6 135 64 36 98 67 49 82 70 56 113 109 71 74 68 32 89 75 48
96 59 30 154 75 36 199 100 59 160 63 31 124 35 5 146 66 33 137 49 3
190 77 7 234 120 47 198 108 48 145 82 41 104 72 49 89 73 58
129 125 88 115 109 73 108 93 62 105 61 26 151 48 5 207 84 40
183 75 37 149 50 18 137 44 13 151 52 10 225 108 41 225 115 40
191 111 48 133 81 34 84 56 32 70 54 39 85 84 54 68 63 33 66 53 19
105 58 16 183 73 20 225 88 33 250 119 67 201 70 26 191 56 26 173 35 0
226 91 27 200 88 16 148 79 22 105 68 26 88 66 42 88 75 58 61 60 32
58 53 23 88 75 40 129 81 35 183 68 13 206 63 3 225 92 33 189 53 1
203 51 10 196 47 4 207 75 13 221 121 59 151 99 52 112 88 54 86 70 45
78 67 47 60 54 22 67 58 25 73 59 20 140 89 44 181 64 10 204 65 8
196 81 24 192 78 18 229 91 28 189 53 0 182 75 19 151 78 33 91 57 29
82 70 48 69 59 34 61 54 26 61 57 20 79 74 34 61 53 7 117 84 33
166 81 27 208 104 49 130 45 0 148 62 1 210 103 33 204 101 32
141 68 13 121 78 35 88 73 44 70 68 43 50 47 14 54 52 14 68 71 26
57 60 13 76 81 25 88 86 29 111 88 34 111 74 22 109 66 13 126 75 18
182 124 60 124 73 8 125 93 34 110 97 44 71 73 26 81 90 45 64 72 23
65 72 21 69 77 28 70 80 27 81 92 32 75 87 25 81 90 37 92 89 38
97 74 22 127 94 40 127 95 34 102 78 16 98 86 26 92 93 35 74 83 30
79 94 39 84 94 41 78 89 33
