P3
#
16 16
255
113 112 48 83 84 26 70 77 33 62 76 40 76 92 66 98 116 92 87 100 72
72 78 42 82 80 31 87 78 19 91 76 9 100 85 16 105 94 30 82 76 16
50 48 0 37 39 0 108 104 41 99 98 41 82 85 40 50 60 23 67 80 50
109 122 94 101 108 75 81 82 40 72 65 11 101 87 22 106 88 16 93 75 3
95 80 11 95 85 23 68 65 12 44 44 0 92 86 24 80 75 19 73 71 23
73 75 35 101 105 70 108 110 73 85 82 41 96 86 33 125 107 43
137 113 39 124 97 16 109 84 2 125 103 28 129 114 45 84 75 16 33 28 0
84 74 13 70 59 3 69 62 10 95 88 42 135 128 84 123 112 66 92 75 21
121 97 33 146 114 37 147 111 25 146 109 18 172 138 48 219 191 107
233 211 135 198 183 116 164 153 91 93 77 18 98 81 25 97 80 28
101 84 32 145 124 71 162 136 79 143 110 41 159 120 41 181 134 42
193 143 44 195 148 44 204 161 57 224 188 94 228 198 112 210 188 113
200 181 112 107 86 29 107 86 29 122 97 41 140 111 55 172 138 77
179 139 70 168 120 38 192 137 44 199 140 36 216 156 44 208 151 36
195 143 31 209 166 62 229 194 100 227 199 116 215 192 114 118 95 41
112 85 30 145 114 57 179 141 78 188 141 71 176 121 41 175 112 19
211 144 39 212 143 26 210 142 19 187 123 0 169 113 0 178 130 20
187 147 49 179 145 58 167 139 56 126 100 49 141 111 57 175 139 79
175 130 63 166 110 33 181 117 29 199 128 24 220 145 30 233 158 33
222 149 20 205 138 8 194 136 13 177 127 16 145 103 3 135 100 10
155 123 38 132 106 57 149 119 65 157 117 58 169 120 51 161 103 21
179 110 15 226 152 43 222 143 24 223 149 18 213 143 9 224 159 29
207 151 28 186 138 28 128 88 0 117 81 0 117 85 2 156 129 82
136 106 54 120 80 21 138 88 19 146 85 2 165 97 0 215 142 31
225 151 28 217 147 17 208 144 12 213 155 29 208 159 41 191 150 44
141 106 12 106 74 0 85 56 0 81 57 11 71 43 0 80 41 0 129 80 11
176 118 34 214 148 51 243 175 64 234 168 48 232 173 47 208 154 30
180 135 16 180 144 34 175 142 45 163 136 49 129 103 26 106 82 10
73 52 9 75 48 1 74 39 0 99 54 0 162 107 25 231 171 75 255 198 91
239 182 67 225 176 58 189 150 33 139 109 0 143 119 19 149 129 40
173 156 78 153 136 67 139 121 57 82 63 21 83 61 14 82 51 0 94 53 0
146 97 18 208 155 63 222 173 71 214 170 63 179 145 37 153 129 23
118 102 4 132 122 33 141 134 56 162 155 87 134 125 66 114 105 50
33 18 0 45 24 0 82 52 0 123 88 24 169 126 48 183 137 49 170 130 34
182 148 48 164 140 40 141 128 32 121 117 28 133 134 56 139 142 75
135 136 78 104 102 53 81 79 31 38 24 0 48 31 0 89 63 12 121 90 26
151 113 38 148 110 25 132 99 6 161 137 41 164 151 57 129 128 38
111 118 38 109 120 51 120 130 70 100 108 57 85 88 45 72 74 35 39 27 0
63 48 5 105 82 30 118 88 26 140 104 30 144 107 26 123 93 3 146 125 32
143 136 46 101 105 20 88 99 23 82 97 30 98 113 58 72 84 36 69 75 37
62 66 31
