P3
#
16 16
255
93 110 56 88 107 52 63 86 30 45 72 19 55 83 35 41 68 27 36 61 22
48 70 31 70 94 44 67 89 40 39 57 15 24 42 4 12 35 0 35 51 6 91 85 35
89 73 21 118 136 86 93 113 62 65 85 34 63 87 37 67 93 46 63 88 46
44 66 27 37 60 18 35 58 12 52 74 28 59 75 36 53 69 32 48 69 30
62 69 27 126 104 57 139 101 54 66 88 42 61 83 37 70 87 45 73 90 48
66 85 40 40 62 15 35 54 9 36 57 16 25 47 9 7 27 0 23 35 0 24 36 0
22 36 0 58 48 12 168 108 72 143 59 23 35 54 9 39 48 5 56 44 4
88 67 22 71 54 0 55 45 0 66 60 0 63 63 3 61 61 7 46 46 0 31 28 0
28 26 0 24 30 0 57 42 3 107 38 5 129 34 4 44 55 12 80 66 19 150 82 33
162 71 14 176 94 21 175 104 22 145 91 3 161 118 24 161 125 28
154 121 24 133 99 9 92 69 0 45 41 0 65 51 4 110 58 21 128 59 26
80 83 38 120 94 45 170 81 25 204 87 17 207 95 9 205 105 7 183 97 0
220 146 39 225 158 51 219 159 49 201 147 38 176 138 39 138 122 47
52 41 0 68 39 0 85 46 13 66 63 18 110 85 31 167 96 30 192 95 14
212 112 14 210 108 0 191 90 0 203 105 8 175 84 1 176 96 9 199 128 20
190 139 32 154 129 45 94 84 22 85 80 38 70 67 36 55 59 8 55 40 0
129 80 3 193 120 26 238 153 46 244 150 37 232 130 22 214 110 11
182 83 2 162 72 0 191 110 2 202 140 27 165 124 32 97 78 9 79 82 37
44 59 26 56 82 21 58 68 0 93 68 0 174 125 22 184 122 13 172 96 0
186 96 0 200 103 0 195 101 3 212 120 19 203 119 5 195 119 7 160 94 0
151 109 33 87 83 35 49 65 29 75 106 49 86 103 33 147 134 40
180 146 38 205 153 41 206 139 26 209 132 18 190 105 0 186 98 0
201 113 13 202 116 3 183 103 0 194 122 20 163 116 34 66 60 10
33 49 12 42 60 22 61 70 15 112 105 15 182 154 44 195 142 26
217 152 34 206 139 24 193 122 16 171 93 8 159 77 0 184 101 0
193 117 7 189 126 23 151 113 30 68 64 16 15 29 0 25 38 10 37 46 1
82 83 7 153 137 41 170 133 26 167 117 4 202 145 29 205 141 33
165 89 1 169 91 6 187 114 19 189 130 30 149 108 16 95 76 0 21 22 0
29 40 10 25 40 9 26 41 2 48 61 7 104 110 40 129 123 39 154 132 31
204 162 44 219 157 36 209 128 21 208 129 34 136 81 0 103 71 0 78 71 0
66 74 15 54 64 27 69 79 54 31 50 20 37 57 22 67 88 47 78 96 44
68 80 16 84 81 2 125 97 0 175 127 25 191 131 33 164 110 22 126 96 23
111 106 42 93 107 46 70 93 41 75 92 56 85 100 71 53 82 54 72 99 68
73 99 62 41 62 19 33 46 2 68 70 23 72 58 9 79 60 4 99 83 23 90 82 17
63 69 5 70 84 23 90 111 55 56 80 30 30 56 11 30 55 13 68 101 74
62 93 62 34 61 26 12 34 0 12 28 0 17 22 0 21 15 0 31 26 0 80 87 43
73 90 36 59 83 23 52 78 17 53 76 24 49 73 23 26 54 6 33 62 14
